<svg width="1440" height="575" viewBox="0 0 1440 575" fill="none" xmlns="http://www.w3.org/2000/svg">
<path d="M-143.873 59.6128C-79.3185 91.3831 -22.1247 135.865 24.142 190.285C92.3309 271.488 88.6219 321.236 154.116 367.625C217.772 412.675 305.14 425.089 376.023 408.071C472.743 384.83 477.118 321.579 601.101 221.397C674.013 162.532 810.74 52.0214 972.003 62.724C1053.47 68.1376 1134.47 104.041 1209.76 137.394C1302.04 178.275 1315.29 199.276 1365.1 208.952C1424.25 220.463 1515.71 212.281 1647.23 109.393" stroke="url(#paint0_linear_39_86851)" stroke-miterlimit="10"/>
<path d="M-145.68 71.2488C-87.5096 99.1594 -35.0694 137.337 9.02131 183.875C13.2375 188.387 17.4538 193.022 21.7017 197.783C90.588 276.435 87.8617 323.943 152.532 369.18C180.721 388.976 212.639 403.073 246.43 410.653C270.634 416.061 295.458 418.32 320.262 417.373C338.811 416.655 357.218 413.89 375.136 409.129C395.103 404.092 414.084 395.85 431.311 384.737C463.012 364.202 485.202 336.481 519.344 301.698C545.062 275.52 573.043 251.577 602.972 230.139C618.822 218.628 637.336 204.752 658.734 190.533C715.986 152.39 789.247 110.948 877.154 96.6364C906.982 91.6412 937.291 89.9713 967.502 91.6585C972.13 91.9074 976.727 92.2807 981.26 92.7163C1026.15 96.9787 1068.91 108.272 1112.6 123.269C1145.28 134.345 1176.19 148.158 1206.84 161.132C1219.68 166.67 1231.16 171.71 1241.53 176.44C1304.13 205.094 1320.4 220.463 1363.16 227.184C1395.66 232.286 1437.69 231.384 1491.04 213.214C1534.79 198.343 1586.59 171.555 1647.23 127.251" stroke="url(#paint1_linear_39_86851)" stroke-miterlimit="10"/>
<path d="M-147.36 82.947C-89.792 109.803 -37.6747 146.7 6.45375 191.84C10.6806 196.196 14.9073 200.655 19.1341 205.218C88.8764 281.35 87.1963 326.557 150.979 370.736C179.235 390.79 211.255 405.159 245.194 413.018C269.541 418.461 294.527 420.638 319.47 419.489C338.046 418.56 356.44 415.426 374.249 410.155C394.116 404.52 412.994 395.948 430.233 384.737C463.202 363.58 486.597 336.761 520.359 304.28C546.198 279.627 574.502 257.592 604.842 238.509C620.693 228.304 638.794 215.797 659.97 203.414C716.398 170.404 785.189 135.776 872.209 124.482C902.273 120.417 932.655 119.084 962.969 120.5C967.66 120.748 972.289 121.06 976.854 121.464C1022.5 125.384 1064.19 135.06 1108.76 148.407C1142.33 158.488 1172.96 172.053 1203.86 184.84C1216.7 190.129 1228.31 194.951 1238.93 199.463C1301.73 226.25 1318.56 240.375 1361.17 245.353C1393.63 249.149 1435.35 247.065 1488.98 228.677C1532.79 213.619 1585.26 187.329 1647.24 145.172" stroke="url(#paint2_linear_39_86851)" stroke-miterlimit="10"/>
<path d="M-149.357 94.4585C-92.2602 120.297 -40.3554 155.99 3.88569 199.836C8.10193 204.067 12.3499 208.361 16.5661 212.748C87.2277 286.328 86.4351 329.294 149.362 372.292C179.161 392.639 208.516 407.293 243.862 415.413C268.372 420.901 293.544 422.995 318.645 421.636C337.257 420.487 355.639 416.973 373.329 411.182C393.108 404.952 411.907 396.051 429.187 384.736C463.36 362.958 487.929 337.103 521.342 306.956C547.324 283.814 575.976 263.735 606.712 247.127C622.721 238.229 640.284 227.09 661.206 216.543C717.095 188.355 781.131 160.759 867.263 152.421C897.564 149.298 928.054 148.31 958.499 149.465C963.222 149.683 968.009 149.963 972.447 150.336C1017.24 153.937 1061.57 161.761 1104.83 173.702C1139.29 182.755 1169.66 196.196 1200.95 208.641C1213.79 213.743 1225.48 218.317 1236.39 222.61C1299.35 247.5 1316.78 260.318 1359.2 263.647C1391.66 266.198 1433.16 262.838 1486.99 244.233C1530.89 229.175 1583.93 203.072 1647.23 162.906" stroke="url(#paint3_linear_39_86851)" stroke-miterlimit="10"/>
<path d="M-151.196 106.063C-94.6511 130.898 -43.0201 165.339 1.31745 207.801C5.53368 211.908 9.81332 216.014 13.9979 220.246C85.4203 291.4 85.7373 331.846 147.776 373.878C178.241 394.444 206.613 409.502 242.594 417.809C267.245 423.351 292.584 425.352 317.82 423.751C336.517 422.421 354.934 418.536 372.536 412.209C392.182 405.435 410.884 396.268 428.203 384.923C463.582 362.491 489.481 337.695 522.419 309.6C545.656 289.813 573.141 272.514 608.677 255.714C624.813 248.06 641.995 238.26 662.569 229.579C718.236 206.09 777.2 185.711 862.285 180.329C892.78 178.121 923.37 177.467 953.933 178.369C958.72 178.555 963.443 178.804 967.977 179.115C1012.85 182.003 1057.39 188.622 1101.12 198.903C1136.53 206.93 1166.46 220.277 1198.06 232.286C1210.74 237.202 1222.76 241.62 1233.92 245.633C1297 268.781 1315.04 280.137 1357.33 281.786C1389.79 283.061 1431 278.488 1485.05 259.696C1528.96 244.42 1582.63 218.783 1647.23 180.671" stroke="url(#paint4_linear_39_86851)" stroke-miterlimit="10"/>
<path d="M-153.002 117.669C-97.022 141.515 -45.6776 174.706 -1.24952 215.766C2.96671 219.717 7.24634 223.637 11.4309 227.682C83.7092 296.129 85.009 334.553 146.129 375.403C177.259 396.217 204.649 411.68 241.232 420.174C266.046 425.763 291.574 427.672 316.965 425.836C335.666 424.313 354.032 420.066 371.459 413.236C390.988 405.89 409.609 396.403 426.968 384.955C463.583 361.932 490.845 338.286 523.244 312.245C547.178 293.08 575.265 278.022 610.39 264.27C626.716 257.861 643.518 249.46 663.648 242.491C719.537 223.513 773.08 210.539 857.278 208.05C886.538 207.179 918.904 206.09 949.369 207.117C954.219 207.272 958.879 207.49 963.508 207.739C1008.39 209.911 1053.05 215.319 1097.13 223.917C1133.43 230.918 1163.13 244.171 1195.08 255.932C1207.92 260.661 1219.87 264.737 1231.32 268.595C1294.53 290.155 1313.27 300.734 1355.27 300.08C1387.73 299.582 1428.69 294.262 1482.93 275.19C1526.87 259.634 1581.2 234.527 1647.11 198.499" stroke="url(#paint5_linear_39_86851)" stroke-miterlimit="10"/>
<path d="M-154.841 129.243C-99.4155 152.126 -48.3491 184.075 -3.81777 223.731C0.398468 227.526 4.70981 231.291 8.86264 235.149C82.0286 301.107 84.3111 337.166 144.511 376.959C176.212 397.96 202.683 413.858 239.931 422.57C264.862 428.172 290.522 429.987 316.014 427.952C334.776 426.217 353.144 421.597 370.444 414.263C389.814 406.312 408.342 396.517 425.763 385.017C463.582 361.341 492.335 338.722 524.036 314.859C548.699 296.191 577.42 283.56 612.07 272.826C628.649 267.661 646.687 264.675 664.693 255.683C723.118 253.287 769.085 230.793 852.11 236.082C881.433 237.98 914.307 235.336 944.645 236.082C949.559 236.238 954.314 236.394 958.879 236.611C1007.76 238.882 1045.17 241.527 1093.1 249.056C1130.29 254.999 1159.67 268.19 1191.98 279.577C1204.66 284.12 1216.86 287.978 1228.59 291.618C1291.83 311.281 1311.24 319.619 1353.18 318.063C1385.67 316.788 1426.37 309.756 1480.8 290.529C1524.81 274.973 1579.71 250.083 1646.98 216.139" stroke="url(#paint6_linear_39_86851)" stroke-miterlimit="10"/>
<path d="M-156.68 140.847C-101.815 162.765 -51.0286 193.453 -6.38514 231.664C-2.1372 235.335 2.17414 238.913 6.29527 242.584C80.5074 305.991 83.7409 339.748 143.022 378.514C175.515 399.733 200.876 416.036 238.727 424.965C263.874 430.637 289.78 432.349 315.475 430.036C336.366 428.325 353.517 422.165 369.811 415.258C389.036 406.72 407.498 396.614 425.002 385.048C464.026 360.749 494.396 339.313 525.368 317.472C550.729 299.52 580.211 289.16 614.131 281.35C631.059 277.461 648.685 276.559 666.152 268.719C724.577 273.137 765.154 260.785 847.355 263.928C876.837 265.079 910.091 264.394 940.334 265.048C945.28 265.048 950.098 265.265 954.631 265.421C1004.34 267.257 1040.67 268.19 1089.46 274.443C1127.5 279.359 1156.6 292.458 1189.25 303.502C1201.93 307.858 1214.23 311.467 1226.25 314.89C1289.65 332.872 1309.65 339.779 1351.43 336.45C1383.93 333.93 1424.35 325.685 1479 306.24C1523.03 290.684 1578.57 266.043 1647.17 234.184" stroke="url(#paint7_linear_39_86851)" stroke-miterlimit="10"/>
<path d="M-158.488 152.421C-104.209 173.407 -53.7199 202.821 -8.95395 239.536C-4.70601 243.082 -0.362955 246.505 3.91668 249.958C78.8896 310.814 83.1692 342.237 141.436 379.946C174.595 401.382 198.973 418.12 237.458 427.205C262.726 432.941 288.78 434.58 314.587 432.059C335.763 430.161 352.628 423.503 368.827 416.191C388.83 407.169 405.283 396.591 423.828 385.079C464.089 360.189 500.513 345.224 526.286 320.085C555.483 307.858 582.777 284.524 616.032 289.906C633.34 292.707 650.586 288.413 667.451 281.755C725.908 292.955 761.318 285.893 842.472 291.804C872.081 293.951 905.874 293.453 935.863 293.92C940.904 293.92 945.722 293.92 950.287 294.2C1000.76 295.6 1036.04 294.729 1085.65 299.645C1124.67 303.471 1153.4 316.508 1186.36 327.21C1199.05 331.379 1211.47 334.77 1223.74 337.944C1287.14 354.278 1307.94 359.536 1349.56 354.651C1382.09 350.824 1422.25 341.366 1477.06 321.703C1521.16 305.96 1577.18 281.755 1647.23 251.981" stroke="url(#paint8_linear_39_86851)" stroke-miterlimit="10"/>
<path d="M-160.326 163.995C-106.601 184.093 -56.3973 212.288 -11.5213 247.562C-7.2734 250.954 -2.93036 254.065 1.38098 257.456C77.4634 315.761 82.4405 344.851 139.851 381.532C173.708 403.155 197.071 420.329 236.159 429.632C261.586 435.393 287.816 436.939 313.763 434.205C335.224 432.121 351.804 424.871 367.94 417.249C387.563 407.915 403.825 396.839 422.751 385.11C464.216 359.536 502.542 346.344 527.364 322.667C557.575 311.778 586.582 289.937 617.998 298.431C635.179 303.067 652.52 300.298 668.719 294.791C727.208 312.774 757.482 311.063 837.559 319.681C867.294 322.792 901.341 322.543 931.394 322.792H945.881C997.173 323.725 1031.47 321.143 1081.85 324.659C1121.79 327.428 1150.16 340.433 1183.48 350.762C1196.16 354.744 1208.68 357.887 1221.24 360.811C1284.64 375.558 1306.2 379.199 1347.66 372.696C1380.19 367.563 1420.1 356.891 1475.1 337.041C1519.23 321.143 1576 297.342 1647.27 269.621" stroke="url(#paint9_linear_39_86851)" stroke-miterlimit="10"/>
<path d="M-162.164 175.537C-109.059 194.782 -59.1893 221.723 -14.2154 255.465C-9.93574 258.576 -5.5927 261.687 -1.28136 264.799C75.6253 320.521 81.6802 347.277 138.203 383.025C172.757 404.804 195.265 422.445 234.828 431.934C260.397 437.77 286.8 439.233 312.876 436.259C334.654 433.987 350.917 426.334 366.958 418.213C386.2 408.382 402.304 397.026 421.61 385.11C464.312 358.913 504.509 347.433 528.189 325.25C559.446 315.667 588.421 312.245 619.71 306.925C637.653 310.285 654.201 312.12 669.861 307.796C728.35 332.686 753.425 336.232 832.487 347.464C862.35 351.726 896.84 351.944 926.766 351.602C931.902 351.602 936.815 351.602 941.349 351.602C993.465 350.949 1026.62 347.713 1077.89 349.891C1118.78 351.602 1146.77 364.545 1180.47 374.532C1193.15 378.296 1205.83 381.252 1218.51 383.865C1281.91 397.026 1304.1 398.986 1345.51 390.866C1378.06 384.457 1417.69 372.572 1472.94 352.504C1517.1 336.481 1574.39 313.054 1647.08 287.386" stroke="url(#paint10_linear_39_86851)" stroke-miterlimit="10"/>
<path d="M-163.971 187.111C-111.39 205.49 -61.7682 231.182 -16.6248 263.399C-12.3769 266.51 -8.00217 269.403 -3.69084 272.328C74.2303 325.437 81.1728 349.891 136.681 384.55C171.933 406.578 193.268 424.623 233.591 434.33C259.38 440.234 286.032 441.593 312.305 438.343C334.496 435.885 350.505 427.765 366.197 419.24C385.217 409.004 401.068 397.275 420.691 385.017C464.565 358.198 506.696 348.429 529.298 327.739C561.57 319.494 590.989 318.405 621.707 315.294C639.872 320.272 656.166 323.819 671.256 320.645C729.744 352.224 749.652 361.309 827.668 375.154C857.658 380.474 892.56 380.848 922.391 380.319C927.59 380.319 932.504 380.319 937.069 380.319C989.946 379.168 1022.09 374.096 1074.18 374.999C1115.96 375.652 1143.63 388.564 1177.68 398.177C1190.36 401.786 1203.04 404.4 1216.2 406.92C1279.6 418.556 1302.68 418.805 1343.79 409.067C1376.35 401.351 1415.72 388.284 1471.17 367.998C1515.36 351.851 1573.4 328.797 1647.3 305.214" stroke="url(#paint11_linear_39_86851)" stroke-miterlimit="10"/>
<path d="M-165.809 198.653C-113.792 216.213 -64.4639 240.665 -19.1921 271.332C-14.9125 274.443 -10.5377 276.994 -6.22637 279.763C72.7409 330.227 80.571 352.379 135.097 386.074C171.046 408.257 191.366 426.738 232.324 436.663C258.207 442.604 284.975 443.88 311.323 440.427C333.514 437.752 349.618 429.165 365.215 420.204C383.728 409.564 399.452 397.461 419.55 385.172C464.661 357.7 508.662 349.673 530.218 330.445C563.536 323.507 593.272 324.565 623.515 324.005C641.869 330.57 657.942 335.859 672.429 333.836C730.949 372.229 745.658 386.727 822.66 403.186C852.776 409.595 888.091 409.657 917.763 409.408C923.026 409.408 927.971 409.408 932.536 409.408C986.238 407.759 1017.34 402.284 1070.25 400.51C1112.91 399.079 1140.27 412.955 1174.67 422.289C1187.47 425.678 1200.46 428.378 1213.57 430.378C1276.97 440.521 1300.81 439.027 1341.76 427.671C1374.35 418.649 1413.44 404.399 1469.08 383.896C1513.46 367.624 1571.98 344.912 1647.2 323.414" stroke="url(#paint12_linear_39_86851)" stroke-miterlimit="10"/>
<path d="M-167.649 203.538C-116.19 220.35 -67.1556 243.606 -21.7605 272.732C-17.4808 275.532 -13.0744 278.083 -8.73134 280.666C71.2503 328.485 80.0315 348.335 133.511 381.034C170.158 403.435 189.463 422.351 231.023 432.463C257.063 438.463 284.014 439.656 310.498 435.978C333.132 433.085 348.888 424.062 364.39 414.666C382.428 403.404 397.898 390.959 418.472 378.514C464.787 350.513 510.722 344.072 531.2 326.37C565.533 320.738 595.617 324.036 625.384 325.841C643.929 334.023 659.748 341.023 673.665 340.183C732.217 385.358 741.759 405.519 817.683 424.187C847.957 431.685 883.684 431.84 913.293 431.374L928.129 431.094C982.655 430.16 1012.68 420.515 1066.41 418.649C1110.06 417.093 1137.01 430.005 1171.75 438.872C1184.7 442.086 1197.82 444.569 1211.06 446.307C1274.3 454.957 1299.06 451.659 1339.83 438.716C1372.45 428.387 1411.28 412.955 1467.11 392.234C1511.49 375.838 1570.68 353.499 1647.23 334.085" stroke="url(#paint13_linear_39_86851)" stroke-miterlimit="10"/>
<path d="M-169.551 205.499C-118.668 221.456 -69.9386 243.394 -24.4234 270.834C-20.112 273.51 -15.7056 275.875 -11.3625 278.27C69.7921 323.508 79.3341 341.179 131.926 372.789C169.302 395.346 187.561 414.729 229.755 425.058C255.962 431.068 283.096 432.124 309.705 428.169C332.594 425.058 348.159 415.724 363.439 405.768C381.16 394.35 396.535 381.47 417.33 368.807C464.882 340.09 512.687 335.455 532.12 319.245C567.498 314.921 599.041 315.605 627.223 324.659C647.416 331.161 661.555 343.326 674.774 343.326C733.326 395.284 737.669 421.107 812.579 442.294C842.948 450.944 879.151 451.161 908.601 450.508C913.99 450.508 918.999 450.259 923.532 450.135C978.882 448.704 1007.83 437.285 1062.41 434.05C1106.95 431.405 1133.58 444.317 1168.68 452.717C1181.75 455.796 1195 458.061 1208.37 459.499C1271.58 466.718 1297.13 461.584 1337.74 447.055C1370.36 435.387 1408.94 418.773 1464.95 397.866C1509.34 381.345 1569.19 359.38 1647.08 341.864" stroke="url(#paint14_linear_39_86851)" stroke-miterlimit="10"/>
<path d="M-171.295 207.396C-120.968 222.598 -72.5333 243.281 -26.8965 269.061C-22.5535 271.581 -18.1153 273.759 -13.804 275.999C68.3651 318.436 78.763 333.744 130.341 364.545C168.382 387.257 185.627 407.106 228.614 417.622C254.957 423.811 282.281 424.868 309.039 420.734C332.244 417.405 347.588 407.511 362.677 397.275C380.05 385.483 395.234 372.167 416.569 359.318C465.294 329.979 515.001 327.086 533.419 312.338C569.78 309.227 601.957 312.681 629.346 323.694C649.92 331.97 663.647 345.473 676.391 346.997C734.942 405.769 734.087 437.223 808.013 460.806C838.51 470.607 875.061 470.856 904.479 470.14L919.506 469.642C975.648 467.744 1003.55 454.522 1058.99 449.979C1104.48 446.215 1130.73 459.313 1166.2 467.247C1179.4 470.217 1192.79 472.296 1206.27 473.469C1269.42 479.287 1295.8 472.287 1336.25 456.171C1368.87 443.197 1407.16 425.401 1463.4 404.275C1522.93 381.031 1584.45 363.039 1647.23 350.513" stroke="url(#paint15_linear_39_86851)" stroke-miterlimit="10"/>
<path d="M-173.133 208.019C-123.351 222.538 -75.2114 242.012 -29.4639 266.137C-25.0892 268.501 -20.651 270.523 -16.3397 272.577C66.9389 312.307 78.161 325.468 128.756 355.211C167.558 378.079 183.725 398.395 227.188 409.129C253.698 415.345 281.212 416.255 308.089 411.804C331.547 408.258 346.7 397.928 361.632 387.257C378.623 375.092 393.618 361.371 415.27 348.335C465.231 318.374 516.713 317.223 534.18 303.938C571.587 302.258 604.271 308.294 630.995 321.205C651.918 331.317 665.264 346.375 677.406 349.02C735.989 414.573 729.902 451.69 802.815 477.669C833.438 488.621 870.433 488.87 899.725 487.905C905.209 487.719 910.313 487.47 914.846 487.283C971.908 484.887 998.632 469.922 1054.87 464.042C1101.25 459.189 1127.18 472.162 1163 479.847C1176.33 482.641 1189.85 484.471 1203.45 485.323C1266.57 489.772 1293.74 480.843 1334.03 463.171C1366.65 448.859 1404.69 429.912 1461.12 408.538C1521.17 385.168 1583.55 368.015 1647.23 357.358" stroke="url(#paint16_linear_39_86851)" stroke-miterlimit="10"/>
<path d="M-174.972 206.245C-125.726 220.069 -77.8781 238.305 -32.032 260.723C-27.6573 262.932 -23.1874 264.798 -18.8761 266.696C65.5437 303.626 77.7169 314.454 127.171 343.388C166.702 366.411 181.823 387.225 225.919 398.115C252.576 404.402 280.267 405.228 307.264 400.541C331.008 396.746 345.971 386.012 360.712 374.905C377.355 362.46 392.159 348.242 414.192 335.019C465.357 304.435 518.805 304.964 535.163 293.204C573.584 292.83 606.712 301.604 632.865 316.414C654.042 328.423 667.102 344.913 678.673 348.708C737.257 421.075 725.908 463.824 797.869 492.167C828.556 504.301 866.026 504.612 895.223 503.43C900.739 503.212 905.874 502.932 910.408 502.714C968.199 499.852 993.876 483.051 1050.94 475.864C1098.24 469.891 1123.85 482.896 1159.96 490.207C1173.43 492.836 1187.09 494.448 1200.82 495.029C1263.91 498.141 1291.83 487.251 1331.97 468.024C1364.59 452.468 1402.41 432.245 1459.03 410.684C1519.52 387.078 1582.67 370.668 1647.14 361.806" stroke="url(#paint17_linear_39_86851)" stroke-miterlimit="10"/>
<path d="M-176.778 204.472C-128.072 217.658 -80.5252 234.669 -34.5991 255.341C-30.1927 257.394 -25.7228 259.043 -21.4115 260.785C64.1813 295.009 76.8617 303.565 125.586 331.566C165.815 354.714 179.922 376.026 224.62 387.133C251.433 393.512 279.319 394.243 306.44 389.279C330.47 385.204 345.243 374.128 359.825 362.554C376.119 349.642 390.702 335.113 413.114 321.703C465.516 290.591 520.898 292.707 536.146 282.44C571.142 282.848 605.307 292.954 634.705 311.592C656.103 325.53 668.942 343.42 679.91 348.398C738.525 427.548 721.882 475.958 792.924 506.666C823.674 520.013 861.62 520.262 890.69 518.956C896.301 518.707 901.437 518.395 906.002 518.115C964.554 514.693 989.28 496.337 1047.17 487.688C1095.32 480.625 1120.68 493.63 1157.14 500.568C1169.82 502.964 1183.2 503.337 1198.35 504.706C1261.18 510.4 1290.12 493.661 1330.1 472.847C1362.72 455.86 1400.28 434.579 1457.09 412.8C1518.08 388.96 1582.05 373.263 1647.3 366.132" stroke="url(#paint18_linear_39_86851)" stroke-miterlimit="10"/>
<path d="M-178.617 202.698C-130.427 215.263 -83.1668 231.042 -37.1673 249.927C-32.7292 251.794 -28.2594 253.318 -23.9163 254.874C62.7543 285.986 76.4174 292.675 124.001 319.743C164.99 343.046 177.892 364.825 223.352 376.15C250.365 382.612 278.486 383.249 305.774 378.016C330.057 373.661 344.64 362.211 359.064 350.202C374.914 336.917 389.37 321.983 412.163 308.387C465.801 276.528 523.117 280.386 537.255 271.706C573.186 273.555 607.75 285.823 636.574 306.956C658.099 322.792 670.78 342.113 681.146 348.242C739.793 434.174 717.824 488.247 787.947 521.351C818.792 535.88 857.182 536.098 886.22 534.636C891.863 534.356 897.062 533.983 901.595 533.703C960.971 529.751 984.62 509.497 1043.36 499.666C1092.47 491.483 1117.35 504.581 1154.32 511.084C1168.12 512.969 1182.01 514.132 1195.94 514.568C1258.87 518.582 1288.44 500.226 1328.29 477.856C1360.88 459.531 1398.22 437.099 1455.09 415.102C1516.54 391.077 1581.28 376.166 1647.2 370.861" stroke="url(#paint19_linear_39_86851)" stroke-miterlimit="10"/>
<path d="M-180.455 200.925C-132.759 212.899 -85.7706 227.44 -39.7029 244.482C-35.2648 246.193 -30.7949 247.594 -26.4519 248.931C61.36 277.306 75.8474 281.724 122.543 308.045C164.135 331.317 175.991 353.624 222.052 365.136C249.18 371.69 277.452 372.243 304.824 366.754C329.392 362.118 343.816 350.295 358.018 337.85C373.615 324.223 387.785 308.854 410.991 295.071C465.802 262.59 525.114 268.252 538.112 260.847C575.08 264.067 610.127 278.434 638.445 301.978C660.034 319.774 672.587 340.464 682.383 347.744C741.03 440.49 713.735 500.412 783.002 535.694C813.911 551.436 852.744 551.623 881.656 550.005C887.362 549.694 892.593 549.29 897.126 548.947C957.358 544.467 979.897 522.471 1039.5 511.333C1089.52 501.999 1114.06 515.191 1151.3 521.289C1165.23 523.07 1179.26 524.016 1193.31 524.12C1256.33 526.453 1286.54 506.479 1326.23 482.523C1358.85 462.891 1395.97 439.276 1453.04 417.187C1514.97 392.947 1580.52 378.791 1647.11 375.278" stroke="url(#paint20_linear_39_86851)" stroke-miterlimit="10"/>
<path d="M-182.232 199.152C-127.928 212.686 -79.2032 226.468 -42.2398 239.1C-37.7383 240.656 -33.2685 241.838 -28.9571 243.082C60.0276 268.47 75.3076 270.835 120.862 295.973C163.31 319.494 174.246 342.3 220.815 354.029C248.091 360.663 276.548 361.121 304.03 355.367C328.884 350.42 343.149 338.286 357.161 325.375C372.378 311.374 386.358 295.6 409.944 281.631C465.991 248.527 527.237 255.901 539.125 250.114C577.107 254.738 612.58 271.18 640.347 297.031C661.967 316.788 675.82 337.633 683.682 347.309C756.594 437.317 709.645 512.546 778.088 550.068C809.028 567.055 848.4 567.18 877.185 565.406C882.955 565.064 888.185 564.597 892.75 564.224C953.711 559.215 975.173 535.476 1035.66 523.062C1086.6 512.577 1110.79 525.831 1148.42 531.494C1162.44 533.535 1176.64 534.275 1190.8 533.703C1253.86 531.587 1284.76 512.733 1324.33 487.252C1356.92 466.251 1393.75 441.486 1451.13 419.085C1513.6 394.643 1579.98 381.235 1647.2 379.479" stroke="url(#paint21_linear_39_86851)" stroke-miterlimit="10"/>
<path d="M-184.101 197.378C-129.195 210.508 -80.7872 222.952 -44.8382 233.686C-40.305 235.055 -35.8351 236.082 -31.5238 237.171C58.6973 259.572 74.7063 259.914 119.246 284.244C162.455 307.889 172.314 331.254 219.485 343.171C246.931 349.892 275.594 350.254 303.207 344.228C328.315 338.939 342.39 326.494 356.211 313.116C371.111 298.742 384.742 282.564 408.835 268.408C466.087 234.651 529.077 243.767 540.109 239.442C583.666 245.665 617.903 267.941 642.186 292.333C663.775 314.112 677.438 336.606 684.888 347.091C755.422 446.246 705.493 524.898 773.08 564.69C804.052 582.891 843.963 582.953 872.621 581.024C878.454 580.62 883.748 580.153 888.281 579.749C950.067 574.179 970.482 548.636 1031.79 534.978C1083.62 523.373 1107.46 536.72 1145.44 541.947C1159.61 543.832 1173.93 544.343 1188.2 543.472C1251.29 540.143 1282.93 519.235 1322.36 492.167C1354.92 469.829 1391.54 443.912 1449.17 421.294C1493.83 403.777 1558.76 384.768 1647.24 383.959" stroke="url(#paint22_linear_39_86851)" stroke-miterlimit="10"/>
<path d="M-185.941 195.605C-130.464 208.423 -82.3734 219.375 -47.4072 228.304C-42.8423 229.455 -38.3724 230.326 -34.0611 231.415C57.2062 250.611 74.1345 248.962 117.66 272.421C161.186 295.88 170.411 320.054 218.216 332.157C245.806 338.992 274.66 339.27 302.382 332.966C327.743 327.303 341.691 314.609 355.323 300.795C369.873 286.079 383.41 269.465 407.756 255.123C466.244 220.899 531.136 231.571 541.091 228.739C585.694 236.269 619.963 261.158 644.056 287.542C665.581 311.125 678.927 335.424 686.123 346.655C753.931 454.77 701.308 537.063 768.133 579.064C799.105 598.54 839.524 598.509 868.118 596.425C873.983 595.989 879.309 595.46 883.969 595.025C946.547 588.802 965.916 561.672 1028.05 546.676C1080.8 533.951 1104.32 547.392 1142.65 552.183C1156.96 553.921 1171.42 554.212 1185.79 553.054C1248.91 548.481 1281.21 525.52 1320.56 496.896C1353.08 473.22 1389.47 446.152 1447.36 423.316C1492.09 405.675 1557.62 387.008 1647.42 388.346" stroke="url(#paint23_linear_39_86851)" stroke-miterlimit="10"/>
<path d="M-187.747 193.831C-131.731 206.276 -83.9578 215.796 -49.9743 222.952C-45.3777 223.917 -40.9078 224.663 -36.5965 225.41C55.7803 241.62 73.5645 238.011 116.076 260.629C160.806 284.399 168.477 308.853 216.917 321.174C244.663 328.129 273.723 328.31 301.558 321.703C327.173 315.636 340.994 302.693 354.436 288.475C368.638 273.354 381.952 256.367 406.711 241.806C466.372 206.805 533.673 214.801 542.074 218.005C585.441 234.464 621.992 254.313 645.926 282.75C667.356 308.231 680.576 334.21 687.391 346.499C752.22 463.326 697.092 549.538 763.189 593.749C794.16 614.47 835.118 614.314 863.586 612.105C869.545 611.638 874.871 611.078 879.436 610.612C942.838 603.954 961.098 574.957 1024.09 558.654C1077.73 544.778 1100.9 558.343 1139.61 562.699C1154.07 564.284 1168.66 564.357 1183.13 562.917C1246.28 557.13 1279.28 532.084 1318.46 501.905C1350.99 477.015 1387.16 448.641 1445.27 425.587C1490.03 407.822 1556.22 389.559 1647.33 392.95" stroke="url(#paint24_linear_39_86851)" stroke-miterlimit="10"/>
<path d="M-189.586 192.058C-133 204.285 -85.575 212.126 -52.5425 217.477C-47.9142 218.224 -43.4443 218.846 -39.1013 219.437C54.3533 232.566 73.0252 227.059 114.49 248.776C160.14 272.732 166.48 297.622 215.648 310.067C243.556 317.111 272.815 317.197 300.765 310.316C326.57 303.814 340.297 290.684 353.516 276.092C367.401 260.536 380.493 243.207 405.632 228.491C466.53 192.867 535.258 206.339 543.056 207.241C590.608 212.81 623.989 247.438 647.67 277.928C663.687 299.199 677.373 322.068 688.501 346.157C750.318 471.478 692.749 561.828 758.243 608.248C789.183 630.213 830.711 630.026 859.084 627.631C865.075 627.133 870.464 626.511 874.934 626.013C939.097 618.701 956.311 587.993 1020.19 570.477C1074.68 555.419 1097.57 569.202 1136.63 573.06C1151.23 574.492 1165.96 574.336 1180.53 572.593C1243.74 565.593 1277.35 538.369 1316.47 506.728C1348.93 480.314 1384.88 450.975 1443.27 427.734C1488.1 409.844 1554.86 391.924 1647.33 397.399" stroke="url(#paint25_linear_39_86851)" stroke-miterlimit="10"/>
<path d="M-191.424 190.284C-134.362 201.983 -87.2231 208.392 -55.1099 212.063C51.1519 224.197 70.6163 215.174 112.906 236.953C159.189 260.816 164.673 286.453 214.349 299.178C242.413 306.34 271.877 306.34 299.942 299.178C353.136 284.866 354.594 244.358 404.555 215.174C466.657 178.897 537.255 194.858 544.039 196.507C634.451 218.286 676.613 315.698 689.864 345.846C748.606 479.38 688.596 574.117 753.266 622.746C790.8 650.965 844.819 644.524 870.56 641.413C935.515 633.635 951.683 601.154 1016.38 582.3C1089.3 561.019 1105.37 591.633 1178.06 582.3C1294.02 567.272 1312.63 481.496 1441.18 429.849C1486.04 411.835 1553.43 394.288 1647.24 401.848" stroke="url(#paint26_linear_39_86851)" stroke-miterlimit="10"/>
<path d="M-189.712 194.174C-133.665 205.872 -87.318 212.841 -55.2048 216.699C48.2356 229.517 68.4292 221.055 110.465 242.864C155.892 266.51 161.947 291.4 210.386 304.218C237.864 311.342 266.708 311.706 294.362 305.276C346.859 293.111 348.888 253.598 398.088 225.535C458.859 190.627 527.333 205.156 535.258 206.432C609.407 218.223 650.301 289.937 670.432 328.205C674.553 336.015 677.533 342.735 679.942 347.588C740.174 473.998 683.302 565.032 747.021 610.954C785.062 638.302 839.525 631.426 866.344 628.47C890.921 625.822 914.743 618.533 936.498 607.003C958.689 596.082 979.453 583.762 1013.6 575.579C1024.06 573.09 1033.38 571.722 1041.75 570.539C1092.47 563.352 1112.03 581.055 1173.15 570.384C1196.79 566.31 1219.56 558.325 1240.48 546.769C1297.26 515.657 1332.76 459.655 1420.67 418.773C1425.82 416.367 1431.21 414.024 1436.84 411.742C1482.1 393.261 1550.52 374.874 1645.75 381.936" stroke="url(#paint27_linear_39_86851)" stroke-miterlimit="10"/>
<path d="M-188 198.062C-133.094 209.76 -87.4131 217.01 -55.2683 221.303C45.2873 234.775 66.1149 226.934 108.024 248.806C152.627 271.954 159.221 296.626 206.297 309.227C233.21 316.332 261.456 317.078 288.72 311.404C340.424 301.231 343.182 262.994 391.589 235.864C451.06 202.542 517.728 213.276 526.414 216.356C595.015 240.468 639.523 294.915 660.256 330.974C664.472 338.317 667.388 344.757 669.766 349.299C731.393 468.739 677.881 555.854 740.586 599.162C778.944 625.608 834.009 618.327 861.906 615.496C886.675 613.001 910.818 606.317 933.265 595.74C955.804 585.877 976.885 575.206 1010.62 568.89C1021.11 566.899 1030.49 566.152 1038.86 564.97C1089.42 557.783 1108.13 571.752 1168.01 558.436C1191.38 553.15 1213.76 544.289 1234.33 532.177C1288.98 501.065 1326.26 443.103 1415.94 400.852C1421.18 398.426 1426.63 395.999 1432.3 393.634C1477.95 374.687 1547.38 355.459 1644.07 361.993" stroke="url(#paint28_linear_39_86851)" stroke-miterlimit="10"/>
<path d="M-186.288 201.952C-132.524 213.619 -87.5398 221.304 -55.4266 226.064C42.2759 240.095 63.8009 232.971 105.519 254.843C149.267 277.617 156.431 301.822 202.366 314.36C228.701 321.404 256.324 322.468 283.14 317.472C333.862 309.227 337.508 272.266 385.122 246.193C443.294 214.334 507.837 222.486 517.633 226.219C572.105 247.646 618.414 285.21 650.111 333.681C654.423 340.557 657.307 346.717 659.622 350.98C722.58 463.202 672.492 546.738 734.087 587.433C772.889 613.008 828.461 605.261 857.436 602.616C882.406 600.225 906.861 594.13 929.968 584.54C952.919 575.735 974.349 566.744 1007.57 562.232C1018.16 560.801 1027.58 560.646 1035.94 559.463C1086.44 552.245 1104.13 562.575 1162.75 546.552C1185.8 540.025 1207.79 530.303 1228.05 517.679C1280.58 486.349 1319.8 426.738 1411.06 382.994C1416.32 380.505 1421.84 378.027 1427.61 375.558C1473.64 356.175 1544.11 336.108 1642.23 342.144" stroke="url(#paint29_linear_39_86851)" stroke-miterlimit="10"/>
<path d="M-184.577 205.81C-131.953 217.508 -87.6349 225.597 -55.4584 230.7C39.3911 245.291 61.6452 238.882 103.047 260.785C145.906 283.217 153.768 306.894 198.308 319.401C224.091 326.481 251.134 327.967 277.561 323.757C327.553 317.534 331.833 281.755 378.687 256.71C435.559 226.064 497.217 238.26 508.852 236.175C575.899 249.46 618.062 304.623 639.999 336.482C644.405 342.86 647.226 348.709 649.699 352.722C714.052 457.82 667.388 537.56 727.842 575.58C767.151 600.283 823.135 592.1 853.22 589.58C878.41 587.305 903.189 581.804 926.925 573.215C950.32 565.468 972.003 558.188 1004.81 555.45C1015.47 554.548 1024.91 555.015 1033.34 553.832C1083.78 546.614 1100.46 553.179 1157.99 534.574C1182.37 526.671 1202.37 515.346 1222.28 503.026C1272.75 471.633 1313.71 410.031 1406.72 365.012C1412 362.46 1417.58 359.92 1423.46 357.389C1469.9 337.508 1541.39 316.601 1640.93 322.139" stroke="url(#paint30_linear_39_86851)" stroke-miterlimit="10"/>
<path d="M-182.897 209.699C-131.509 221.366 -87.762 229.86 -55.4269 235.149C36.506 250.269 59.3308 244.731 100.732 266.51C142.704 288.662 151.042 311.779 194.472 324.223C219.654 331.3 246.064 333.143 272.013 329.637C321.054 325.032 326.19 290.84 372.252 266.852C427.792 237.949 487.199 249.056 500.133 246.038C565.184 258.11 607.315 309.445 629.917 339.188C634.419 345.1 637.209 350.669 639.745 354.402C705.461 452.313 662.316 528.289 721.565 563.726C761.382 587.558 817.809 578.909 848.94 576.576C880.641 574.211 902.99 567.771 923.849 561.922C947.688 555.232 969.879 545.525 1001.99 548.668C1011.49 549.672 1021.07 549.515 1030.52 548.201C1080.93 540.983 1096.52 543.939 1152.95 522.565C1176.57 513.635 1196.22 501.346 1216.35 488.341C1264.76 456.98 1307.46 393.479 1402.19 346.998C1407.53 344.384 1413.18 341.771 1419.11 339.157C1465.94 318.841 1538.44 297.094 1639.44 302.103" stroke="url(#paint31_linear_39_86851)" stroke-miterlimit="10"/>
<path d="M-181.186 213.619C-130.813 225.286 -87.8579 234.184 -55.6496 239.815C33.5253 255.371 57.0792 250.642 98.2905 272.483C139.502 294.324 148.346 316.849 190.477 329.325C227.187 340.184 257.778 337.85 266.56 335.828C313.382 324.939 320.61 300.204 365.911 277.274C420.119 249.833 477.34 259.945 491.478 256.025C554.5 266.914 596.567 314.298 619.931 341.988C624.496 347.433 627.254 352.722 629.822 356.206C696.901 446.93 657.37 519.048 715.414 552.027C755.801 574.988 812.578 565.872 844.818 563.695C877.058 561.517 899.661 555.668 920.9 550.721C945.152 545.089 968.103 536.658 999.297 542.04C1008.71 543.749 1018.34 543.97 1027.83 542.694C1078.17 535.476 1092.72 534.822 1148.01 510.71C1170.89 500.754 1190.11 487.469 1210.27 473.904C1256.65 442.792 1301.12 377.145 1397.53 329.201C1402.91 326.525 1408.62 323.85 1414.64 321.174C1461.88 300.391 1535.39 277.803 1637.82 282.284" stroke="url(#paint32_linear_39_86851)" stroke-miterlimit="10"/>
<path d="M-179.474 217.415C-130.242 229.175 -87.9846 238.509 -55.7447 244.358C30.5772 260.287 54.8285 256.461 95.8496 278.301C136.11 299.769 145.62 321.859 186.515 334.304C222.21 345.162 251.945 343.824 260.853 341.895C306.757 331.877 314.745 309.476 359.317 287.604C412.194 261.594 467.1 270.772 482.57 265.825C543.595 275.501 585.504 318.716 609.66 344.633C613.225 348.849 616.569 353.242 619.677 357.793C688.056 441.33 652.234 509.559 708.884 540.112C749.873 562.17 806.999 552.556 840.316 550.596C872.366 548.667 895.92 543.347 917.572 539.334C942.267 534.76 965.979 527.822 996.222 535.196C1005.58 537.629 1015.34 538.242 1024.94 537C1075.25 529.751 1088.73 525.551 1142.9 498.639C1165.09 487.656 1183.8 473.438 1204.12 459.188C1248.5 428.076 1294.72 360.562 1392.8 311.156C1398.23 308.418 1404 305.68 1410.11 302.942C1457.66 281.693 1532.25 258.265 1636.14 262.247" stroke="url(#paint33_linear_39_86851)" stroke-miterlimit="10"/>
<path d="M-177.762 221.241C-129.671 232.939 -88.1112 242.584 -55.8079 248.931C27.6292 265.296 52.5779 262.341 93.5674 284.181C132.972 305.307 143.053 326.836 182.679 339.219C217.55 350.077 246.271 349.735 255.433 347.899C300.448 338.846 309.325 318.685 353.009 297.84C404.554 273.292 457.337 281.506 473.948 275.719C532.944 284.181 574.63 323.539 599.706 347.277C603.304 351.145 606.68 355.206 609.819 359.442C679.561 435.761 647.448 500.039 702.703 528.226C744.294 549.414 801.737 539.365 836.132 537.56C868.467 535.818 892.56 531.058 914.592 527.978C940.78 524.443 967.347 524.579 993.496 528.382C1004.65 529.782 1014.04 532.52 1022.31 531.493C1072.56 524.213 1084.95 516.528 1138.02 486.785C1159.39 474.807 1177.74 459.562 1198.25 444.69C1240.7 413.826 1288.57 344.166 1388.46 293.297C1393.91 290.528 1399.78 287.697 1405.99 284.866C1453.99 263.087 1529.62 238.882 1634.84 242.366" stroke="url(#paint34_linear_39_86851)" stroke-miterlimit="10"/>
<path d="M-175.891 226.593C-128.941 238.26 -88.0471 248.371 -55.7437 254.998C24.7135 271.706 50.3596 269.621 90.9686 291.555C129.549 312.338 140.169 333.339 178.559 345.691C212.288 356.549 240.249 357.171 249.664 355.46C293.855 347.464 303.397 329.419 346.415 309.631C396.598 286.546 447.193 293.795 465.009 287.106C522.071 294.355 563.282 329.606 589.404 351.571C593.035 355.084 596.454 358.804 599.643 362.709C670.495 431.81 642.408 492.105 696.205 517.96C738.462 538.276 796.158 527.791 831.663 526.142C864.22 524.618 888.883 520.417 911.296 518.271C936.847 515.813 960.655 517.897 990.549 523.217C1001.87 525.24 1011.22 528.507 1019.46 527.324C1069.64 520.044 1080.99 508.875 1132.95 476.238C1153.56 463.264 1171.47 447.055 1192.14 431.498C1232.68 400.946 1282.2 329.139 1383.64 276.777C1389.16 273.915 1395.05 271.052 1401.36 268.128C1449.74 245.976 1526.3 220.868 1633.06 223.824" stroke="url(#paint35_linear_39_86851)" stroke-miterlimit="10"/>
<path d="M-174.338 240.064C-128.53 251.731 -88.333 262.154 -55.998 269.216C21.7646 286.235 48.1082 285.177 88.527 306.956C126.251 327.396 137.442 347.899 174.595 360.189C207.311 371.047 234.383 372.634 244.084 371.047C287.451 364.171 297.69 348.179 339.948 329.45C388.767 307.671 437.175 314.142 456.227 306.489C511.197 312.711 548.953 348.677 579.291 363.829C583.317 368.06 586.804 371.482 589.593 373.909C661.65 435.761 637.589 492.136 689.864 515.657C732.819 535.04 790.768 524.12 827.351 522.657C860.13 521.351 885.364 517.71 908.157 516.435C934.152 515.035 958.403 519.173 987.568 525.924C999.044 528.569 1008.36 532.364 1016.57 531.151C1066.73 523.871 1077 509.372 1127.81 473.718C1147.69 459.81 1165.16 442.605 1185.98 426.333C1224.66 396.123 1275.79 322.107 1378.92 268.283C1384.48 265.4 1390.45 262.455 1396.83 259.447C1445.62 236.984 1523.28 211.036 1631.38 213.619" stroke="url(#paint36_linear_39_86851)" stroke-miterlimit="10"/>
<path d="M-172.72 252.198C-127.958 263.865 -88.4589 274.63 -56.0922 282.066C18.8491 299.364 46.0168 299.364 86.0869 321.268C122.955 341.335 134.716 361.34 170.602 373.598C202.303 384.426 228.488 386.852 238.505 385.515C281.08 379.821 291.985 365.852 333.608 348.18C381.16 327.957 427.285 333.339 447.574 324.783C500.514 329.637 537.89 362.336 569.274 374.936C572.563 378.156 576.046 381.179 579.704 383.99C652.869 438.654 632.93 490.799 683.651 512.235C727.335 530.685 785.475 519.329 823.136 518.084C856.168 516.964 881.973 513.884 905.115 513.604C931.553 513.262 956.28 519.515 984.811 527.636C996.413 530.933 1005.73 535.227 1013.94 533.858C1064 526.547 1073.26 508.595 1122.93 470.047C1141.95 455.206 1159.1 437.037 1179.99 420.049C1216.8 390.244 1269.52 313.956 1374.32 258.638C1379.9 255.527 1385.96 252.665 1392.42 249.616C1441.59 226.499 1520.18 199.836 1629.83 201.672" stroke="url(#paint37_linear_39_86851)" stroke-miterlimit="10"/>
<path d="M-170.945 264.332C-127.356 275.999 -88.5225 287.106 -56.1875 294.977C15.9323 312.462 43.6073 313.489 83.6457 335.423C119.658 355.149 131.99 374.656 166.639 386.852C197.389 397.679 222.623 398.581 232.926 399.857C274.613 405.084 286.279 383.367 327.014 366.785C373.139 348.117 417.14 352.442 438.665 342.952C489.609 346.593 526.541 375.9 559.129 385.95C562.451 388.854 565.967 391.535 569.654 393.977C643.898 441.423 628.142 489.367 677.438 508.688C721.819 526.173 780.181 514.444 818.951 513.355C852.237 512.452 878.58 509.963 902.103 510.586C928.985 511.301 954.124 519.733 982.053 529.253C993.814 533.204 1003.07 537.965 1011.28 536.782C1061.31 529.44 1069.55 508.128 1118.02 466.593C1136.44 450.819 1153.05 431.654 1174.16 413.951C1209.03 384.581 1263.43 305.991 1369.91 249.055C1375.56 246.069 1381.65 242.957 1388.21 239.722C1437.75 216.139 1517.39 188.511 1628.47 189.942" stroke="url(#paint38_linear_39_86851)" stroke-miterlimit="10"/>
<path d="M-169.233 276.497C-126.785 288.288 -88.6808 299.582 -56.2824 307.858C13.016 325.53 41.3568 327.645 81.205 349.611C116.361 368.962 129.264 387.848 162.645 400.293C192.412 411.12 216.79 412.738 227.315 414.386C267.956 420.609 280.541 401.07 320.548 385.545C365.31 368.154 407.155 371.7 429.885 361.278C478.799 363.736 515.477 389.59 548.89 397.119C552.243 399.714 555.794 402.055 559.51 404.119C634.768 444.379 623.388 488.123 670.844 505.328C716.081 521.786 774.538 509.684 814.355 508.812C847.894 508.097 874.808 506.199 898.711 507.755C926.037 509.528 951.588 520.199 978.915 530.871C990.802 535.538 1000.06 540.765 1008.24 539.551C1058.2 532.209 1065.49 507.568 1112.85 463.015C1130.54 446.308 1146.71 426.178 1167.95 407.728C1201.17 378.825 1256.96 297.902 1365.13 239.722C1370.81 236.631 1376.97 233.52 1383.61 230.388C1433.57 206.37 1514.19 177.902 1626.73 178.835" stroke="url(#paint39_linear_39_86851)" stroke-miterlimit="10"/>
<path d="M-167.521 288.631C-126.31 300.267 -88.8076 312.027 -56.3774 320.738C10.1947 338.535 39.106 341.833 78.764 363.767C113.096 382.776 126.537 401.319 158.682 413.547C187.435 424.374 210.957 426.707 221.736 428.729C261.298 436.103 274.835 418.556 314.081 404.12C357.479 388.159 397.137 390.772 421.103 379.416C468.021 380.661 504.16 403.124 538.778 408.102C542.171 410.377 545.756 412.365 549.493 414.044C625.575 447.241 618.728 486.443 664.504 501.75C710.28 517.057 769.117 504.861 810.043 504.083C843.805 503.555 871.29 502.217 895.636 504.706C923.374 507.537 949.338 520.262 976.093 532.396C988.108 537.778 997.365 543.409 1005.51 542.227C1055.41 534.853 1061.78 506.946 1107.78 459.313C1124.8 441.703 1140.53 420.609 1161.89 401.382C1193.34 373.038 1250.66 289.72 1360.47 229.922C1366.17 226.81 1372.42 223.699 1379.14 220.308C1429.42 195.698 1511.08 166.39 1625.04 166.95" stroke="url(#paint40_linear_39_86851)" stroke-miterlimit="10"/>
<path d="M-165.809 300.733C-125.644 312.369 -88.9026 324.441 -56.4408 333.557C7.21485 351.477 36.8553 355.927 76.3231 377.892C109.799 396.559 123.875 414.573 154.688 426.645C182.49 437.472 205.156 440.521 216.156 442.917C254.673 451.286 269.097 435.916 307.645 422.538C349.649 407.977 387.12 409.72 412.259 397.43C457.147 397.43 492.875 416.502 528.57 418.929C532.031 420.884 535.658 422.539 539.412 423.876C616.635 450.072 614.099 484.669 658.164 498.11C705.049 512.39 763.696 499.728 805.732 499.292C839.715 498.919 867.771 498.172 892.434 501.594C920.616 505.483 946.928 520.604 973.145 533.827C985.286 540.049 994.511 545.992 1002.66 544.778C1052.52 537.436 1057.98 506.23 1102.71 455.517C1119.03 437.005 1134.41 415.071 1155.77 394.941C1185.51 367.158 1244.28 281.444 1355.78 220.152C1361.55 216.979 1367.83 213.702 1374.64 210.321C1425.36 185.431 1508.04 155.252 1623.46 155.159" stroke="url(#paint41_linear_39_86851)" stroke-miterlimit="10"/>
<path d="M-164.097 312.929C-125.073 324.565 -89.0294 336.917 -56.5358 346.499C4.33014 364.482 34.6363 370.145 73.8822 392.172C106.503 410.435 121.085 427.982 150.725 439.992C170.129 447.459 190.154 453.268 210.577 457.353C248.048 466.686 263.359 453.495 301.179 441.205C341.788 428.045 377.261 428.76 403.541 415.662C446.401 414.511 481.748 430.129 518.521 430.036C522.036 431.66 525.698 432.962 529.458 433.925C607.379 453.09 609.534 482.989 651.824 494.594C699.597 507.692 758.307 495.59 801.389 494.594C835.626 493.816 864.22 494.283 889.296 498.608C917.827 503.554 944.583 520.977 970.26 535.382C982.497 542.227 991.754 548.698 999.869 547.485C1049.67 540.111 1054.27 505.67 1097.7 451.846C1113.33 432.463 1128.23 409.502 1149.75 388.625C1177.74 361.433 1237.98 273.292 1351.15 210.507C1356.95 207.396 1363.29 203.943 1370.17 200.489C1421.3 175.07 1504.99 144.083 1621.84 143.491" stroke="url(#paint42_linear_39_86851)" stroke-miterlimit="10"/>
<path d="M-162.385 325.095C-124.344 336.731 -89.1243 349.331 -56.6308 359.318C1.44553 377.301 32.3857 384.208 71.4731 406.267C103.174 424.156 118.359 441.237 146.731 453.184C165.641 460.852 185.12 467.093 204.998 471.852C241.486 482.088 257.622 471.105 294.712 459.967C333.926 448.144 367.117 448.113 394.76 433.988C435.623 431.592 470.557 443.819 508.377 441.175C511.957 442.458 515.65 443.416 519.409 444.037C598.217 456.327 605.001 481.372 645.484 491.203C694.176 503.026 752.887 490.768 797.078 490.021C831.569 489.461 860.702 490.488 886.158 495.746C915.196 501.751 942.173 521.476 967.407 537.063C979.676 544.654 988.996 551.53 997.08 550.317C1046.85 542.912 1050.59 505.235 1092.66 448.3C1107.65 428.014 1122.14 404.151 1143.7 382.466C1170.07 355.896 1231.7 265.297 1346.58 200.988C1352.42 197.721 1358.85 194.299 1365.83 190.752C1417.37 164.897 1502.14 133.07 1620.35 131.949" stroke="url(#paint43_linear_39_86851)" stroke-miterlimit="10"/>
<path d="M-160.706 337.259C-123.932 348.864 -89.2198 361.745 -56.7262 372.292C-1.53474 390.306 30.1663 398.457 69.0317 420.547C99.9402 438.094 115.632 454.771 142.768 466.562C161.184 474.288 180.097 480.815 199.386 486.101C234.923 497.208 251.883 488.496 288.149 478.447C326 468.024 357.004 467.122 385.883 452.033C424.717 448.455 459.24 457.26 498.168 452.033C501.811 452.985 505.536 453.599 509.296 453.868C588.992 459.344 600.309 479.318 639.048 487.501C688.66 498.017 747.37 485.634 792.671 485.198C827.384 484.825 857.087 486.412 882.924 492.603C912.406 499.666 939.669 521.693 964.427 538.463C976.759 546.832 986.111 554.019 994.194 552.868C1043.9 545.463 1046.88 504.519 1087.55 444.472C1101.88 423.316 1116.08 398.582 1137.55 376.025C1162.4 350.109 1225.29 257.176 1341.89 191.218C1347.76 187.889 1354.25 184.404 1361.32 180.795C1413.25 154.506 1498.97 121.806 1618.7 120.282" stroke="url(#paint44_linear_39_86851)" stroke-miterlimit="10"/>
<path d="M-158.994 349.424C-123.362 361.06 -89.2514 374.127 -56.8212 385.234C-4.26095 403.186 27.9156 412.676 66.5908 434.765C96.6751 451.939 112.906 468.087 138.774 479.878C156.702 487.779 175.077 494.666 193.807 500.506C228.393 512.484 246.114 506.013 281.777 497.083C318.234 487.998 347.081 486.256 377.197 470.264C414.034 465.473 448.144 470.856 488.151 463.14C491.872 463.627 495.62 463.887 499.373 463.918C579.894 467.433 595.871 477.451 632.803 484.047C683.334 493.07 742.076 480.127 788.423 480.563C823.294 480.905 853.664 482.554 879.881 489.679C909.806 497.799 937.291 522.16 961.638 540.08C974.033 549.227 983.448 556.819 991.5 555.637C1041.18 548.232 1043.39 504.084 1082.61 440.926C1096.3 418.867 1110.09 393.261 1131.62 369.772C1154.76 344.508 1219.15 248.963 1337.26 181.635C1343.2 178.234 1349.74 174.697 1356.89 171.026C1409.19 144.207 1495.96 110.699 1617.12 108.584" stroke="url(#paint45_linear_39_86851)" stroke-miterlimit="10"/>
<path d="M-157.282 361.558C-122.791 373.163 -89.3463 386.448 -56.9162 398.084C-7.08217 415.942 25.665 426.77 64.15 448.922C93.3784 465.722 110.148 481.403 134.812 493.132C157.636 504.021 176.023 510.244 188.228 514.911C221.894 527.698 240.376 523.498 275.311 515.751C306.911 508.63 338.011 499.516 368.416 488.465C401.766 476.954 436.574 465.504 478.007 474.185C481.769 474.699 485.59 474.614 489.324 473.936C570.923 466.033 591.306 475.492 626.463 480.563C677.945 487.968 736.656 475.211 784.112 475.896C819.332 476.394 850.145 478.665 876.742 486.692C907.08 496.026 934.819 522.596 958.753 541.667C971.18 551.592 980.69 559.557 988.742 558.344C1038.32 550.908 1039.84 503.524 1077.5 437.254C1090.57 414.294 1104.04 387.879 1125.47 363.487C1146.9 339.095 1212.87 241.029 1332.54 171.96C1338.5 168.568 1345.22 164.928 1352.35 161.164C1405.07 133.909 1492.82 99.5613 1615.47 96.9167" stroke="url(#paint46_linear_39_86851)" stroke-miterlimit="10"/>
<path d="M-155.571 373.723C-122.221 385.327 -89.4106 398.612 -56.9805 411.057C-9.90448 428.823 23.445 441.019 61.7081 463.202C90.239 479.629 107.421 494.843 130.816 506.51C152.658 517.43 170.411 524.244 182.648 529.315C215.426 542.911 234.605 540.951 268.843 534.387C302.477 527.946 324.795 519.733 359.634 506.697C391.018 494.936 424.431 492.665 467.893 485.229C471.888 484.545 475.723 484.607 479.306 483.985C561.919 469.424 586.74 473.469 620.122 477.078C672.523 482.709 731.265 470.326 779.768 471.229C815.241 471.913 846.625 474.775 873.603 483.674C904.385 493.941 932.313 522.937 955.867 543.191C968.326 553.894 978.058 562.232 985.951 561.019C1035.47 553.583 1036.32 502.932 1072.56 433.458C1085.02 409.595 1098.2 382.434 1119.51 357.046C1139.57 333.152 1206.69 232.753 1328.01 162.19C1334.03 158.736 1340.69 155.034 1348.01 151.176C1401.11 123.486 1489.9 88.2982 1613.95 85.1248" stroke="url(#paint47_linear_39_86851)" stroke-miterlimit="10"/>
<path d="M-153.7 385.857C-121.492 397.462 -89.2838 410.996 -56.9171 423.845C-12.5357 441.486 21.3527 454.957 59.4257 477.296C86.9738 493.35 104.853 508.097 127.012 519.733C147.84 530.622 164.832 537.996 177.227 543.596C209.15 558.001 229.026 558.281 262.566 552.93C294.774 547.765 315.158 539.396 351.012 524.929C380.525 512.919 413.336 507.288 457.907 496.305C461.87 495.341 465.801 494.937 469.447 494.034C553.137 472.847 582.429 477.14 613.94 473.593C667.619 467.808 721.626 465.48 775.615 466.624C811.342 467.464 843.265 470.918 870.718 480.812C901.944 492.136 930.031 523.467 953.141 544.872C965.599 556.352 975.332 565.033 983.32 563.85C1032.81 556.383 1032.96 502.497 1067.71 430.067C1079.56 405.333 1092.53 377.425 1113.64 351.011C1132.19 327.832 1200.54 224.85 1323.54 152.825C1329.59 149.31 1336.22 145.545 1343.73 141.625C1397.24 113.437 1487.02 77.4092 1612.52 73.769" stroke="url(#paint48_linear_39_86851)" stroke-miterlimit="10"/>
<path d="M-152.147 394.599C-121.08 406.204 -89.4739 419.831 -57.0438 433.334C-15.3252 450.788 19.0387 465.815 57.0799 488.061C83.8039 503.617 102.222 518.053 123.145 529.596C142.958 540.516 159.221 548.45 171.711 554.485C202.873 569.668 223.352 572.188 256.194 568.05C287.007 564.161 305.552 555.792 342.326 539.489C370.032 527.2 402.367 518.333 447.89 503.71C451.853 502.435 455.784 501.594 459.524 500.381C544.356 472.629 577.991 470.016 607.695 466.469C661.994 459.911 716.702 457.177 771.399 458.286C807.348 459.313 839.842 463.357 867.548 474.185C899.249 486.629 927.463 520.2 950.351 542.632C962.778 554.89 972.542 563.975 980.626 562.761C1030.05 555.263 1029.6 498.141 1062.76 422.569C1074.02 396.902 1086.86 368.309 1107.68 340.868C1124.77 318.374 1194.32 212.841 1319 139.323C1325.09 135.745 1331.9 131.918 1339.39 127.935C1393.28 99.281 1484.1 62.4129 1611.03 58.2439" stroke="url(#paint49_linear_39_86851)" stroke-miterlimit="10"/>
<path d="M-150.53 399.297C-120.604 410.902 -89.5373 424.529 -57.3607 438.748C-18.3051 456.015 16.6929 472.411 54.2903 494.75C80.19 510.026 99.1155 523.933 118.802 535.382C137.632 546.334 153.166 554.765 165.783 561.423C196.184 577.384 217.265 582.113 249.378 579.22C278.797 576.575 295.63 568.424 333.196 550.223C359.127 537.778 391.082 525.582 437.397 507.288C441.391 505.732 445.354 504.457 449.126 502.932C535.226 468.553 572.951 458.939 601.006 455.486C655.627 448.797 714.94 444.503 766.707 446.152C802.91 447.303 835.942 451.97 864.061 463.731C896.174 477.171 924.515 513.106 947.118 536.876C959.545 549.943 969.53 559.339 977.487 558.125C1026.88 550.659 1025.8 490.238 1057.41 411.586C1068.06 385.017 1080.83 355.771 1101.28 327.241C1116.94 305.462 1187.67 197.378 1314.03 122.366C1320.18 118.757 1327.02 114.837 1334.6 110.761C1388.9 81.6714 1480.71 43.9633 1609.1 39.2031" stroke="url(#paint50_linear_39_86851)" stroke-miterlimit="10"/>
<path d="M-148.755 403.777C-119.939 415.351 -89.379 428.978 -57.361 443.974C-19.9297 461.188 16.5556 480.317 51.9442 501.283C77.0197 516.217 96.3256 529.689 114.934 541.013C132.718 552.058 147.555 560.956 160.298 568.143C189.97 584.913 211.622 591.82 243.006 590.202C271.062 588.771 286.278 581.024 324.51 560.77C348.793 547.92 380.399 532.613 427.379 510.679C431.374 508.812 435.368 507.101 439.204 505.297C526.54 464.291 568.069 446.028 594.761 444.316C650.523 440.832 709.614 431.871 762.491 433.832C798.947 435.107 832.519 440.458 861.018 453.121C893.575 467.62 922.011 506.012 944.328 530.902C956.691 544.747 966.836 554.516 974.793 553.334C1024.12 545.805 1022.34 482.118 1052.46 400.386C1063.1 369.769 1077.49 340.537 1095.32 313.334C1109.59 292.208 1181.45 181.604 1309.46 105.099C1315.64 101.428 1322.55 97.4452 1330.22 93.3072C1384.91 63.7505 1477.76 25.2023 1607.58 20.0066" stroke="url(#paint51_linear_39_86851)" stroke-miterlimit="10"/>
<path d="M-147.043 408.071C-79.1317 436.489 -13.4395 469.765 49.5033 507.63C150.756 568.579 178.431 601.496 236.539 600.967C278.86 600.563 288.846 582.891 417.235 513.853C513.796 461.926 562.077 436.072 588.421 432.961C683.08 422.103 786.552 408.662 857.879 442.295C909.298 466.531 949.812 551.437 972.003 548.076C1037.78 538.058 1011.82 422.072 1089.3 299.178C1102.2 278.706 1175.17 165.613 1304.86 87.614C1355.21 57.3417 1456.27 7.00199 1606.02 0.499512" stroke="url(#paint52_linear_39_86851)" stroke-miterlimit="10"/>
<defs>
<linearGradient id="paint0_linear_39_86851" x1="751.68" y1="59.6128" x2="751.68" y2="415.375" gradientUnits="userSpaceOnUse">
<stop stop-color="white" stop-opacity="0"/>
<stop offset="1" stop-color="white" stop-opacity="0.1"/>
</linearGradient>
<linearGradient id="paint1_linear_39_86851" x1="750.778" y1="71.2488" x2="750.778" y2="417.583" gradientUnits="userSpaceOnUse">
<stop stop-color="white" stop-opacity="0"/>
<stop offset="1" stop-color="white" stop-opacity="0.1"/>
</linearGradient>
<linearGradient id="paint2_linear_39_86851" x1="749.938" y1="82.947" x2="749.938" y2="419.787" gradientUnits="userSpaceOnUse">
<stop stop-color="white" stop-opacity="0"/>
<stop offset="1" stop-color="white" stop-opacity="0.1"/>
</linearGradient>
<linearGradient id="paint3_linear_39_86851" x1="748.939" y1="94.4585" x2="748.939" y2="422.038" gradientUnits="userSpaceOnUse">
<stop stop-color="white" stop-opacity="0"/>
<stop offset="1" stop-color="white" stop-opacity="0.1"/>
</linearGradient>
<linearGradient id="paint4_linear_39_86851" x1="748.019" y1="106.063" x2="748.019" y2="424.286" gradientUnits="userSpaceOnUse">
<stop stop-color="white" stop-opacity="0"/>
<stop offset="1" stop-color="white" stop-opacity="0.1"/>
</linearGradient>
<linearGradient id="paint5_linear_39_86851" x1="747.053" y1="117.669" x2="747.053" y2="426.512" gradientUnits="userSpaceOnUse">
<stop stop-color="white" stop-opacity="0"/>
<stop offset="1" stop-color="white" stop-opacity="0.1"/>
</linearGradient>
<linearGradient id="paint6_linear_39_86851" x1="746.07" y1="129.243" x2="746.07" y2="428.76" gradientUnits="userSpaceOnUse">
<stop stop-color="white" stop-opacity="0"/>
<stop offset="1" stop-color="white" stop-opacity="0.1"/>
</linearGradient>
<linearGradient id="paint7_linear_39_86851" x1="745.246" y1="140.847" x2="745.246" y2="431.034" gradientUnits="userSpaceOnUse">
<stop stop-color="white" stop-opacity="0"/>
<stop offset="1" stop-color="white" stop-opacity="0.1"/>
</linearGradient>
<linearGradient id="paint8_linear_39_86851" x1="744.373" y1="152.421" x2="744.373" y2="433.206" gradientUnits="userSpaceOnUse">
<stop stop-color="white" stop-opacity="0"/>
<stop offset="1" stop-color="white" stop-opacity="0.1"/>
</linearGradient>
<linearGradient id="paint9_linear_39_86851" x1="743.47" y1="163.995" x2="743.47" y2="435.517" gradientUnits="userSpaceOnUse">
<stop stop-color="white" stop-opacity="0"/>
<stop offset="1" stop-color="white" stop-opacity="0.1"/>
</linearGradient>
<linearGradient id="paint10_linear_39_86851" x1="742.456" y1="175.537" x2="742.456" y2="437.756" gradientUnits="userSpaceOnUse">
<stop stop-color="white" stop-opacity="0"/>
<stop offset="1" stop-color="white" stop-opacity="0.1"/>
</linearGradient>
<linearGradient id="paint11_linear_39_86851" x1="741.664" y1="187.111" x2="741.664" y2="440.065" gradientUnits="userSpaceOnUse">
<stop stop-color="white" stop-opacity="0"/>
<stop offset="1" stop-color="white" stop-opacity="0.1"/>
</linearGradient>
<linearGradient id="paint12_linear_39_86851" x1="740.697" y1="198.653" x2="740.697" y2="442.321" gradientUnits="userSpaceOnUse">
<stop stop-color="white" stop-opacity="0"/>
<stop offset="1" stop-color="white" stop-opacity="0.1"/>
</linearGradient>
<linearGradient id="paint13_linear_39_86851" x1="739.793" y1="203.538" x2="739.793" y2="451.119" gradientUnits="userSpaceOnUse">
<stop stop-color="white" stop-opacity="0"/>
<stop offset="1" stop-color="white" stop-opacity="0.1"/>
</linearGradient>
<linearGradient id="paint14_linear_39_86851" x1="738.763" y1="205.499" x2="738.763" y2="462.741" gradientUnits="userSpaceOnUse">
<stop stop-color="white" stop-opacity="0"/>
<stop offset="1" stop-color="white" stop-opacity="0.1"/>
</linearGradient>
<linearGradient id="paint15_linear_39_86851" x1="737.97" y1="207.396" x2="737.97" y2="475.495" gradientUnits="userSpaceOnUse">
<stop stop-color="white" stop-opacity="0"/>
<stop offset="1" stop-color="white" stop-opacity="0.1"/>
</linearGradient>
<linearGradient id="paint16_linear_39_86851" x1="737.051" y1="208.019" x2="737.051" y2="488.265" gradientUnits="userSpaceOnUse">
<stop stop-color="white" stop-opacity="0"/>
<stop offset="1" stop-color="white" stop-opacity="0.1"/>
</linearGradient>
<linearGradient id="paint17_linear_39_86851" x1="736.084" y1="206.245" x2="736.084" y2="503.883" gradientUnits="userSpaceOnUse">
<stop stop-color="white" stop-opacity="0"/>
<stop offset="1" stop-color="white" stop-opacity="0.1"/>
</linearGradient>
<linearGradient id="paint18_linear_39_86851" x1="735.26" y1="204.472" x2="735.26" y2="519.47" gradientUnits="userSpaceOnUse">
<stop stop-color="white" stop-opacity="0"/>
<stop offset="1" stop-color="white" stop-opacity="0.1"/>
</linearGradient>
<linearGradient id="paint19_linear_39_86851" x1="734.293" y1="202.698" x2="734.293" y2="535.225" gradientUnits="userSpaceOnUse">
<stop stop-color="white" stop-opacity="0"/>
<stop offset="1" stop-color="white" stop-opacity="0.1"/>
</linearGradient>
<linearGradient id="paint20_linear_39_86851" x1="733.327" y1="200.925" x2="733.327" y2="550.668" gradientUnits="userSpaceOnUse">
<stop stop-color="white" stop-opacity="0"/>
<stop offset="1" stop-color="white" stop-opacity="0.1"/>
</linearGradient>
<linearGradient id="paint21_linear_39_86851" x1="732.486" y1="199.152" x2="732.486" y2="566.148" gradientUnits="userSpaceOnUse">
<stop stop-color="white" stop-opacity="0"/>
<stop offset="1" stop-color="white" stop-opacity="0.1"/>
</linearGradient>
<linearGradient id="paint22_linear_39_86851" x1="731.567" y1="197.378" x2="731.567" y2="581.846" gradientUnits="userSpaceOnUse">
<stop stop-color="white" stop-opacity="0"/>
<stop offset="1" stop-color="white" stop-opacity="0.1"/>
</linearGradient>
<linearGradient id="paint23_linear_39_86851" x1="730.742" y1="195.605" x2="730.742" y2="597.331" gradientUnits="userSpaceOnUse">
<stop stop-color="white" stop-opacity="0"/>
<stop offset="1" stop-color="white" stop-opacity="0.1"/>
</linearGradient>
<linearGradient id="paint24_linear_39_86851" x1="729.792" y1="193.831" x2="729.792" y2="613.083" gradientUnits="userSpaceOnUse">
<stop stop-color="white" stop-opacity="0"/>
<stop offset="1" stop-color="white" stop-opacity="0.1"/>
</linearGradient>
<linearGradient id="paint25_linear_39_86851" x1="728.872" y1="192.058" x2="728.872" y2="628.702" gradientUnits="userSpaceOnUse">
<stop stop-color="white" stop-opacity="0"/>
<stop offset="1" stop-color="white" stop-opacity="0.1"/>
</linearGradient>
<linearGradient id="paint26_linear_39_86851" x1="727.905" y1="190.284" x2="727.905" y2="644.319" gradientUnits="userSpaceOnUse">
<stop stop-color="white" stop-opacity="0"/>
<stop offset="1" stop-color="white" stop-opacity="0.1"/>
</linearGradient>
<linearGradient id="paint27_linear_39_86851" x1="728.016" y1="194.174" x2="728.016" y2="631.458" gradientUnits="userSpaceOnUse">
<stop stop-color="white" stop-opacity="0"/>
<stop offset="1" stop-color="white" stop-opacity="0.1"/>
</linearGradient>
<linearGradient id="paint28_linear_39_86851" x1="728.032" y1="198.062" x2="728.032" y2="618.592" gradientUnits="userSpaceOnUse">
<stop stop-color="white" stop-opacity="0"/>
<stop offset="1" stop-color="white" stop-opacity="0.1"/>
</linearGradient>
<linearGradient id="paint29_linear_39_86851" x1="727.969" y1="201.952" x2="727.969" y2="605.803" gradientUnits="userSpaceOnUse">
<stop stop-color="white" stop-opacity="0"/>
<stop offset="1" stop-color="white" stop-opacity="0.1"/>
</linearGradient>
<linearGradient id="paint30_linear_39_86851" x1="728.175" y1="205.81" x2="728.175" y2="592.912" gradientUnits="userSpaceOnUse">
<stop stop-color="white" stop-opacity="0"/>
<stop offset="1" stop-color="white" stop-opacity="0.1"/>
</linearGradient>
<linearGradient id="paint31_linear_39_86851" x1="728.27" y1="209.699" x2="728.27" y2="580.029" gradientUnits="userSpaceOnUse">
<stop stop-color="white" stop-opacity="0"/>
<stop offset="1" stop-color="white" stop-opacity="0.1"/>
</linearGradient>
<linearGradient id="paint32_linear_39_86851" x1="728.317" y1="213.619" x2="728.317" y2="567.313" gradientUnits="userSpaceOnUse">
<stop stop-color="white" stop-opacity="0"/>
<stop offset="1" stop-color="white" stop-opacity="0.1"/>
</linearGradient>
<linearGradient id="paint33_linear_39_86851" x1="728.333" y1="217.415" x2="728.333" y2="554.364" gradientUnits="userSpaceOnUse">
<stop stop-color="white" stop-opacity="0"/>
<stop offset="1" stop-color="white" stop-opacity="0.1"/>
</linearGradient>
<linearGradient id="paint34_linear_39_86851" x1="728.539" y1="221.241" x2="728.539" y2="541.517" gradientUnits="userSpaceOnUse">
<stop stop-color="white" stop-opacity="0"/>
<stop offset="1" stop-color="white" stop-opacity="0.1"/>
</linearGradient>
<linearGradient id="paint35_linear_39_86851" x1="728.587" y1="223.585" x2="728.587" y2="530.31" gradientUnits="userSpaceOnUse">
<stop stop-color="white" stop-opacity="0"/>
<stop offset="1" stop-color="white" stop-opacity="0.1"/>
</linearGradient>
<linearGradient id="paint36_linear_39_86851" x1="728.523" y1="213.44" x2="728.523" y2="531.384" gradientUnits="userSpaceOnUse">
<stop stop-color="white" stop-opacity="0"/>
<stop offset="1" stop-color="white" stop-opacity="0.1"/>
</linearGradient>
<linearGradient id="paint37_linear_39_86851" x1="728.556" y1="201.582" x2="728.556" y2="534.119" gradientUnits="userSpaceOnUse">
<stop stop-color="white" stop-opacity="0"/>
<stop offset="1" stop-color="white" stop-opacity="0.1"/>
</linearGradient>
<linearGradient id="paint38_linear_39_86851" x1="728.761" y1="189.889" x2="728.761" y2="536.966" gradientUnits="userSpaceOnUse">
<stop stop-color="white" stop-opacity="0"/>
<stop offset="1" stop-color="white" stop-opacity="0.1"/>
</linearGradient>
<linearGradient id="paint39_linear_39_86851" x1="728.746" y1="178.813" x2="728.746" y2="539.729" gradientUnits="userSpaceOnUse">
<stop stop-color="white" stop-opacity="0"/>
<stop offset="1" stop-color="white" stop-opacity="0.1"/>
</linearGradient>
<linearGradient id="paint40_linear_39_86851" x1="728.762" y1="166.942" x2="728.762" y2="542.386" gradientUnits="userSpaceOnUse">
<stop stop-color="white" stop-opacity="0"/>
<stop offset="1" stop-color="white" stop-opacity="0.1"/>
</linearGradient>
<linearGradient id="paint41_linear_39_86851" x1="728.825" y1="155.159" x2="728.825" y2="544.937" gradientUnits="userSpaceOnUse">
<stop stop-color="white" stop-opacity="0"/>
<stop offset="1" stop-color="white" stop-opacity="0.1"/>
</linearGradient>
<linearGradient id="paint42_linear_39_86851" x1="728.873" y1="143.491" x2="728.873" y2="547.632" gradientUnits="userSpaceOnUse">
<stop stop-color="white" stop-opacity="0"/>
<stop offset="1" stop-color="white" stop-opacity="0.1"/>
</linearGradient>
<linearGradient id="paint43_linear_39_86851" x1="728.984" y1="131.949" x2="728.984" y2="550.457" gradientUnits="userSpaceOnUse">
<stop stop-color="white" stop-opacity="0"/>
<stop offset="1" stop-color="white" stop-opacity="0.1"/>
</linearGradient>
<linearGradient id="paint44_linear_39_86851" x1="728.999" y1="120.282" x2="728.999" y2="552.989" gradientUnits="userSpaceOnUse">
<stop stop-color="white" stop-opacity="0"/>
<stop offset="1" stop-color="white" stop-opacity="0.1"/>
</linearGradient>
<linearGradient id="paint45_linear_39_86851" x1="729.063" y1="108.584" x2="729.063" y2="555.758" gradientUnits="userSpaceOnUse">
<stop stop-color="white" stop-opacity="0"/>
<stop offset="1" stop-color="white" stop-opacity="0.1"/>
</linearGradient>
<linearGradient id="paint46_linear_39_86851" x1="729.095" y1="96.9167" x2="729.095" y2="558.466" gradientUnits="userSpaceOnUse">
<stop stop-color="white" stop-opacity="0"/>
<stop offset="1" stop-color="white" stop-opacity="0.1"/>
</linearGradient>
<linearGradient id="paint47_linear_39_86851" x1="729.189" y1="85.1248" x2="729.189" y2="561.136" gradientUnits="userSpaceOnUse">
<stop stop-color="white" stop-opacity="0"/>
<stop offset="1" stop-color="white" stop-opacity="0.1"/>
</linearGradient>
<linearGradient id="paint48_linear_39_86851" x1="729.411" y1="73.769" x2="729.411" y2="563.958" gradientUnits="userSpaceOnUse">
<stop stop-color="white" stop-opacity="0"/>
<stop offset="1" stop-color="white" stop-opacity="0.1"/>
</linearGradient>
<linearGradient id="paint49_linear_39_86851" x1="729.443" y1="58.2439" x2="729.443" y2="569.829" gradientUnits="userSpaceOnUse">
<stop stop-color="white" stop-opacity="0"/>
<stop offset="1" stop-color="white" stop-opacity="0.1"/>
</linearGradient>
<linearGradient id="paint50_linear_39_86851" x1="729.284" y1="39.2031" x2="729.284" y2="580.02" gradientUnits="userSpaceOnUse">
<stop stop-color="white" stop-opacity="0"/>
<stop offset="1" stop-color="white" stop-opacity="0.1"/>
</linearGradient>
<linearGradient id="paint51_linear_39_86851" x1="729.411" y1="20.0066" x2="729.411" y2="590.431" gradientUnits="userSpaceOnUse">
<stop stop-color="white" stop-opacity="0"/>
<stop offset="1" stop-color="white" stop-opacity="0.1"/>
</linearGradient>
<linearGradient id="paint52_linear_39_86851" x1="729.49" y1="0.499512" x2="729.49" y2="600.974" gradientUnits="userSpaceOnUse">
<stop stop-color="white" stop-opacity="0"/>
<stop offset="1" stop-color="white" stop-opacity="0.1"/>
</linearGradient>
</defs>
</svg>
