<svg width="110" height="61" viewBox="0 0 110 61" fill="none" xmlns="http://www.w3.org/2000/svg">
<path d="M55.7906 45.8959C49.3855 45.8959 42.979 45.8959 36.5739 45.8959C36.3397 45.8959 36.1054 45.8998 35.8725 45.8788C35.6463 45.8592 35.5359 45.7362 35.5052 45.5137C35.4973 45.4521 35.4946 45.388 35.4933 45.3265C35.4786 44.7414 35.5638 44.5725 36.2146 44.583C36.4275 44.5869 36.6404 44.583 36.8533 44.583C42.3016 44.583 47.7486 44.583 53.1969 44.5817C53.4724 44.5817 53.7505 44.5778 54.0246 44.5503C54.2562 44.5267 54.3573 44.4116 54.384 44.1799C54.4026 44.0136 54.4039 43.8461 54.4039 43.6786C54.4039 39.8696 54.4066 36.062 54.4039 32.2531C54.4039 31.4101 54.3587 31.363 53.5043 31.363C49.5678 31.3604 45.63 31.3604 41.6935 31.363C40.8684 31.363 40.8151 31.418 40.8098 32.2099C40.8045 33.13 40.8125 34.0515 40.8058 34.9717C40.8018 35.6798 40.7499 35.7361 40.0513 35.7374C37.1355 35.7413 34.2197 35.74 31.3052 35.7374C30.5959 35.7374 30.544 35.6864 30.5427 34.9835C30.5387 32.1798 30.5414 29.3748 30.5427 26.5711C30.5427 26.3839 30.552 26.1941 30.584 26.0096C30.6212 25.791 30.7476 25.6823 30.9725 25.6562C31.1416 25.6365 31.3119 25.6365 31.4822 25.6365C34.2916 25.6365 37.1009 25.6365 39.9089 25.6365C40.0992 25.6365 40.2921 25.6418 40.4811 25.6653C40.6435 25.685 40.7539 25.7936 40.7752 25.9533C40.7992 26.1392 40.8058 26.3289 40.8058 26.5161C40.8085 27.3944 40.8058 28.274 40.8098 29.1523C40.8098 29.3394 40.8191 29.5292 40.8457 29.7151C40.875 29.9127 40.9788 30.0096 41.1864 30.0266C41.4406 30.0476 41.6961 30.0489 41.9516 30.0489C46.9954 30.0489 52.0391 30.0489 57.0828 30.0489C60.3606 30.0489 63.637 30.0489 66.9148 30.0489C67.149 30.0489 67.3832 30.041 67.6161 30.0292C67.8077 30.0201 67.9288 29.9114 67.9821 29.7334C68.018 29.613 68.0459 29.4913 68.0805 29.3695C68.7566 26.9389 70.3323 25.4389 72.8568 24.9494C73.6805 24.7897 74.515 24.8355 75.3214 25.0711C77.5465 25.7216 79.0264 27.1444 79.5228 29.3748C80.3585 33.13 77.7142 35.8513 74.8823 36.3919C72.391 36.867 69.1705 35.5686 68.1804 32.346C68.1125 32.1261 68.0606 31.901 67.9914 31.6811C67.9368 31.5044 67.8077 31.401 67.6201 31.384C67.4511 31.3683 67.2807 31.3591 67.1104 31.3591C63.6197 31.3578 60.1304 31.3565 56.6397 31.3591C55.784 31.3591 55.7387 31.4062 55.7387 32.2478C55.7361 36.0568 55.7387 39.8644 55.7387 43.6733C55.7387 43.6943 55.7387 43.7152 55.7387 43.7362C55.7494 44.5267 55.7933 44.5686 56.625 44.5791C56.838 44.5817 57.0509 44.5791 57.2638 44.5791C63.2005 44.5791 69.1385 44.5791 75.0752 44.5791C75.3307 44.5791 75.5863 44.5843 75.8391 44.6066C76.0294 44.6223 76.1585 44.7466 76.1785 44.9286C76.2011 45.1341 76.2011 45.3461 76.1798 45.5516C76.1598 45.7388 76.0214 45.8514 75.8351 45.8671C75.6022 45.888 75.368 45.8893 75.1338 45.8893C71.3889 45.8893 67.6427 45.8893 63.8978 45.8893C61.195 45.8893 58.4921 45.8893 55.7893 45.8893L55.7906 45.8959Z" fill="#414244"/>
<path d="M89.1897 21.2949C82.6355 21.2949 76.0827 21.2949 69.5285 21.2949C69.2943 21.2949 69.06 21.2975 68.8272 21.2792C68.5996 21.2608 68.4891 21.1404 68.4559 20.9192C68.4492 20.8773 68.4465 20.8354 68.4452 20.7936C68.4186 20.0959 68.5064 19.9768 69.2144 19.9807C71.0656 19.9886 72.9167 19.9833 74.7678 19.9833C79.0876 19.9833 83.4061 19.9833 87.7258 19.9833C87.9813 19.9833 88.2355 19.9742 88.4897 19.9559C88.6561 19.9441 88.7692 19.8381 88.7945 19.681C88.8264 19.4755 88.8437 19.2661 88.845 19.0579C88.8504 18.1378 88.8477 17.2163 88.8477 16.2961C88.8477 13.3877 88.8477 10.4793 88.8464 7.57095C88.8464 7.32094 88.8357 7.06833 88.8038 6.82094C88.7772 6.61544 88.6707 6.52513 88.4711 6.50026C88.3447 6.48455 88.2169 6.48062 88.0891 6.48062C87.1323 6.47932 86.1741 6.47408 85.2173 6.48193C84.5466 6.48717 84.4827 6.54738 84.4774 7.20053C84.468 8.33012 84.4747 9.4597 84.472 10.5906C84.472 10.7791 84.472 10.9676 84.4507 11.1547C84.4294 11.3458 84.3123 11.4597 84.1207 11.4833C83.9743 11.5016 83.8239 11.5029 83.6749 11.5029C80.441 11.5029 77.2059 11.5055 73.972 11.5029C73.1962 11.5029 73.1363 11.4466 73.1363 10.6796C73.1323 7.47801 73.135 4.27642 73.1363 1.07613C73.1363 0.929533 73.1429 0.782935 73.1642 0.638955C73.1922 0.45309 73.3159 0.340523 73.5036 0.315654C73.65 0.29602 73.8004 0.293403 73.9494 0.292094C77.2045 0.292094 80.461 0.289476 83.7161 0.292094C84.4135 0.292094 84.468 0.350995 84.4707 1.05519C84.476 2.08007 84.4707 3.10625 84.4734 4.13113C84.4734 4.31961 84.4707 4.5081 84.488 4.69527C84.5173 5.03035 84.6171 5.12197 84.9737 5.15077C85.1427 5.16517 85.3144 5.16255 85.4834 5.16255C87.8669 5.16255 90.249 5.16386 92.6325 5.16255C93.564 5.16255 93.5121 5.15862 93.7703 4.33925C94.461 2.13897 95.9369 0.700474 98.2458 0.238428C101.541 -0.419954 104.385 1.61409 105.117 4.44003C105.922 7.54215 104.103 10.5278 101.224 11.4309C98.1061 12.41 94.9015 10.7424 93.8728 7.79739C93.7623 7.48194 93.6878 7.1534 93.6013 6.8301C93.5454 6.62199 93.415 6.50942 93.1967 6.49371C93.1329 6.48979 93.069 6.48324 93.0051 6.48324C92.2386 6.48324 91.4734 6.47408 90.7068 6.48586C90.2477 6.49371 90.1652 6.58534 90.1293 7.04869C90.1159 7.21492 90.1199 7.38377 90.1199 7.55C90.1199 11.3367 90.1199 15.1247 90.1199 18.9114C90.1199 19.0998 90.1173 19.2883 90.1346 19.4755C90.1705 19.8564 90.269 19.9519 90.6469 19.9742C90.8798 19.9886 91.1154 19.9833 91.3483 19.9833C97.1998 19.9833 103.051 19.9833 108.903 19.9833C109.137 19.9833 109.371 19.9807 109.604 19.9991C109.833 20.0161 109.946 20.1352 109.979 20.3551C109.986 20.397 109.987 20.4388 109.99 20.4807C110.021 21.2176 109.912 21.3001 109.23 21.2975C106.655 21.291 104.081 21.2949 101.506 21.2949C97.3994 21.2949 93.2926 21.2949 89.1871 21.2949H89.1897ZM78.7922 1.83006C77.7289 1.83006 76.6656 1.82876 75.6036 1.83006C74.6534 1.83268 74.6414 1.84315 74.6401 2.77117C74.6374 4.8615 74.6374 6.95183 74.6401 9.04216C74.6401 9.96756 74.6734 10.0068 75.5956 10.0094C77.7422 10.016 79.8901 10.0121 82.0367 10.0094C82.227 10.0094 82.4186 9.99112 82.6076 9.97018C82.8005 9.94924 82.9203 9.83274 82.9403 9.64557C82.9642 9.41782 82.9762 9.18745 82.9762 8.95839C82.9789 6.93089 82.9775 4.90339 82.9762 2.87457C82.9762 2.72798 82.9789 2.58138 82.9696 2.43609C82.9363 1.93609 82.8551 1.85493 82.364 1.83268C82.2363 1.82745 82.1085 1.82876 81.9808 1.82876C80.9175 1.82876 79.8555 1.82876 78.7922 1.82876V1.83006Z" fill="#414244"/>
<path d="M20.5457 21.3407C14.098 21.3407 7.6516 21.3407 1.20388 21.3407C0.927077 21.3407 0.650271 21.3381 0.376126 21.3119C0.155213 21.291 0.0434262 21.1574 0.0128179 20.9389C0.00483306 20.8773 0.00217144 20.8132 0.000840643 20.7517C-0.0111365 20.236 0.100651 20.1116 0.609016 20.0894C0.843236 20.0789 1.07746 20.0841 1.31168 20.0841C7.05674 20.0841 12.8018 20.0841 18.5469 20.0828C18.8223 20.0828 19.1005 20.0724 19.3746 20.0488C19.5623 20.0318 19.69 19.9179 19.714 19.7281C19.7379 19.5422 19.7566 19.3538 19.7566 19.1666C19.7592 15.2752 19.7592 11.3825 19.7566 7.49111C19.7566 7.30393 19.7432 7.11414 19.714 6.92958C19.6807 6.72277 19.5796 6.63377 19.3799 6.61021C19.2535 6.5945 19.1258 6.59057 18.998 6.59057C17.9773 6.58927 16.9552 6.58534 15.9345 6.59057C15.2438 6.5945 15.1786 6.65733 15.1693 7.35629C15.1573 8.23457 15.1693 9.11415 15.164 9.99243C15.16 10.8393 15.1267 10.872 14.259 10.872C11.4497 10.8733 8.64172 10.872 5.8324 10.872C5.66206 10.872 5.49172 10.872 5.32271 10.8511C5.13107 10.8288 5.01263 10.7163 4.98601 10.5278C4.96206 10.3629 4.95807 10.194 4.95807 10.0278C4.95674 7.22409 4.95674 4.4204 4.95807 1.61671C4.95807 1.44917 4.96339 1.28163 4.98734 1.11671C5.01529 0.928225 5.1324 0.819586 5.32537 0.793408C5.47176 0.773774 5.62214 0.772465 5.77119 0.772465C8.62309 0.772465 11.4737 0.769847 14.3256 0.772465C15.1067 0.772465 15.1586 0.82613 15.164 1.59446C15.1693 2.47274 15.1653 3.35233 15.1666 4.23061C15.1666 4.31438 15.1666 4.39815 15.168 4.48192C15.1853 5.19789 15.2518 5.27381 15.9824 5.27512C18.6001 5.28035 21.2164 5.27643 23.8341 5.27643C23.898 5.27643 23.9619 5.27643 24.0258 5.2725C24.4969 5.24501 24.5661 5.1992 24.6739 4.74632C24.8096 4.17302 24.9893 3.61804 25.2727 3.09709C26.2109 1.36802 27.6788 0.320891 29.6311 0.0591087C33.0792 -0.401628 35.8153 1.89158 36.2877 4.83009C36.9039 8.65734 34.0547 11.0906 31.5607 11.5356C28.7874 12.0304 25.7624 10.516 24.8202 7.44922C24.7643 7.26859 24.7204 7.08534 24.6659 6.90602C24.6126 6.72801 24.4915 6.6233 24.2999 6.60759C24.2147 6.60105 24.1309 6.59057 24.0457 6.59057C23.2579 6.58927 22.4714 6.58927 21.6835 6.59057C21.5984 6.59057 21.5132 6.5945 21.4294 6.60628C21.2018 6.63639 21.098 6.73063 21.0674 6.97278C21.0408 7.17958 21.0368 7.39032 21.0354 7.59844C21.0328 9.46102 21.0341 11.3223 21.0341 13.1849C21.0341 15.1312 21.0341 17.0763 21.0354 19.0226C21.0354 19.2517 21.0474 19.482 21.0714 19.7111C21.0913 19.8957 21.2098 20.0174 21.4014 20.0423C21.5691 20.0645 21.7394 20.0776 21.9098 20.0802C22.3356 20.0854 22.7615 20.0828 23.186 20.0828C28.8033 20.0828 34.4206 20.0828 40.0379 20.0828C40.2934 20.0828 40.549 20.0828 40.8031 20.1064C41.032 20.1273 41.1465 20.2517 41.1784 20.4663C41.1877 20.5279 41.1904 20.592 41.1917 20.6535C41.205 21.1875 41.0853 21.3132 40.5317 21.3355C40.2974 21.3446 40.0632 21.3394 39.829 21.3394C33.4026 21.3394 26.9775 21.3394 20.551 21.3394L20.5457 21.3407ZM30.4402 10.0723C32.5202 10.143 34.8105 8.51991 34.8239 5.7869C34.8345 3.57092 33.0486 1.53949 30.4588 1.53949C27.7693 1.53949 26.0991 3.77642 26.1031 5.80261C26.1071 8.17566 28.1486 10.1259 30.4402 10.0736V10.0723Z" fill="#414244"/>
<path d="M14.9284 30.6798C14.8619 27.49 17.6565 24.8473 20.8412 24.8564C23.6571 24.8643 26.718 27.0384 26.7339 30.6418C26.7499 34.2295 23.7662 36.5031 20.8491 36.4979C17.4716 36.4913 14.8845 33.7609 14.9284 30.6798Z" fill="#414244"/>
<path d="M82.9668 30.6981C82.8617 27.6117 85.5193 24.8918 88.7997 24.8695C92.1174 24.8473 94.7364 27.5724 94.7298 30.685C94.7245 33.6876 92.2598 36.4769 88.841 36.4822C85.2904 36.4874 82.8577 33.5371 82.9668 30.6981Z" fill="#414244"/>
<path d="M60.8756 55.1734C60.8756 56.5543 60.8756 57.9339 60.8756 59.3148C60.8756 59.502 60.8716 59.6918 60.8476 59.8776C60.8237 60.0661 60.7039 60.1787 60.5136 60.2049C60.3672 60.2245 60.2168 60.2271 60.0678 60.2271C57.1959 60.2271 54.3254 60.2297 51.4535 60.2271C50.7469 60.2271 50.6763 60.1617 50.675 59.4784C50.6697 56.6132 50.6697 53.748 50.675 50.8828C50.675 50.1956 50.7455 50.1302 51.4482 50.1302C54.3414 50.1263 57.2332 50.1263 60.1263 50.1302C60.7891 50.1302 60.8689 50.2061 60.8729 50.8462C60.8809 52.2886 60.8756 53.7323 60.8756 55.176V55.1734Z" fill="#414244"/>
<path d="M6.03605 24.986C7.63034 24.986 9.22597 24.9834 10.8203 24.9873C11.6121 24.9886 11.6667 25.0397 11.6667 25.7949C11.6693 28.9729 11.6693 32.151 11.6667 35.329C11.6667 36.0699 11.6134 36.1248 10.8788 36.1248C7.60373 36.1275 4.32996 36.1261 1.05487 36.1261C1.01228 36.1261 0.969695 36.1261 0.927109 36.1261C0.358858 36.1078 0.276349 36.0345 0.273687 35.4494C0.265702 34.1536 0.271025 32.8565 0.271025 31.5607C0.271025 29.7203 0.271025 27.88 0.271025 26.041C0.271025 25.8525 0.265702 25.664 0.27901 25.4768C0.302965 25.1365 0.410759 25.024 0.742128 24.9991C0.932432 24.9847 1.12407 24.9886 1.3157 24.9886C2.88871 24.9886 4.46304 24.9886 6.03605 24.9886V24.986ZM10.1083 30.5436C10.1083 29.4991 10.1083 28.4546 10.1083 27.4101C10.1083 27.2229 10.107 27.0331 10.0857 26.8473C10.0604 26.6208 9.95392 26.5161 9.71704 26.486C9.52806 26.4625 9.33643 26.4585 9.14479 26.4585C7.02084 26.4572 4.89555 26.4572 2.7716 26.4585C2.62255 26.4585 2.4735 26.4585 2.32578 26.4716C1.97046 26.5056 1.87464 26.596 1.8427 26.931C1.82939 27.0763 1.83072 27.2229 1.83072 27.3695C1.83072 29.5004 1.83072 31.6313 1.83072 33.7623C1.83072 33.9089 1.83072 34.0554 1.84403 34.2007C1.87331 34.4992 1.97046 34.5973 2.28319 34.634C2.45087 34.6536 2.62255 34.6549 2.79156 34.6549C4.91551 34.6549 7.0408 34.6549 9.16476 34.6549C9.27122 34.6549 9.37768 34.6549 9.48282 34.6484C9.99118 34.6157 10.0764 34.5358 10.1003 34.0541C10.1083 33.9088 10.1043 33.7622 10.1043 33.6157C10.1043 32.5921 10.1043 31.5685 10.1043 30.5449L10.1083 30.5436Z" fill="#414244"/>
<path d="M98.3296 30.6876C98.3296 29.1601 98.3296 27.6326 98.3296 26.1038C98.3296 25.9153 98.327 25.7268 98.3429 25.5397C98.3669 25.2727 98.476 25.1601 98.7342 25.1261C98.8606 25.109 98.9884 25.1064 99.1161 25.1064C102.351 25.1064 105.586 25.1038 108.822 25.1064C109.594 25.1064 109.663 25.1745 109.664 25.9363C109.668 29.096 109.668 32.257 109.664 35.4167C109.664 36.1864 109.6 36.2479 108.831 36.2479C105.596 36.2518 102.361 36.2492 99.1255 36.2479C98.9764 36.2479 98.8274 36.2453 98.6796 36.2243C98.4867 36.1981 98.3722 36.0856 98.3509 35.8945C98.3296 35.7086 98.3296 35.5188 98.3296 35.3303C98.3283 33.7819 98.3296 32.2334 98.3296 30.6837V30.6876ZM108.167 30.7256C108.167 29.6169 108.171 28.5083 108.166 27.3996C108.162 26.6379 108.108 26.5842 107.325 26.5816C105.113 26.5763 102.9 26.5776 100.688 26.5816C99.9026 26.5829 99.8361 26.6418 99.8334 27.3931C99.8268 29.5685 99.8308 31.7439 99.8334 33.9193C99.8334 34.0856 99.8507 34.2531 99.8734 34.418C99.9 34.6052 100.021 34.723 100.21 34.7426C100.442 34.7662 100.676 34.7767 100.91 34.778C102.974 34.7806 105.037 34.7793 107.101 34.778C107.271 34.778 107.442 34.7806 107.611 34.7675C108.042 34.7348 108.134 34.6458 108.162 34.2374C108.172 34.0712 108.17 33.9023 108.17 33.7361C108.17 32.7321 108.17 31.7282 108.17 30.7243L108.167 30.7256Z" fill="#414244"/>
<path d="M70.6423 60.9889C67.5655 61.0373 64.7282 58.5242 64.7442 55.1499C64.7602 51.8462 67.5149 49.3396 70.6995 49.3592C73.8708 49.3789 76.5577 51.926 76.5657 55.176C76.5737 58.4509 73.7857 61.0609 70.6423 60.9889ZM70.6942 50.9208C68.4744 50.8252 66.2826 52.6642 66.2946 55.1944C66.3052 57.6787 68.3826 59.4601 70.6543 59.4562C72.898 59.4522 75.006 57.7611 75.0166 55.1996C75.0273 52.3475 72.5613 50.8278 70.6955 50.9195L70.6942 50.9208Z" fill="#414244"/>
<path d="M35.0741 55.1747C34.9809 52.0543 37.6904 49.3448 40.9762 49.3566C44.3178 49.3671 46.8796 52.1524 46.8636 55.2127C46.849 58.1931 44.3298 60.9902 40.9695 60.9994C37.7343 61.0072 34.9862 58.3541 35.0741 55.176V55.1747ZM40.9615 50.9195C38.7298 50.8435 36.6125 52.6839 36.5965 55.1603C36.5805 57.5373 38.5688 59.4745 40.9868 59.4562C43.3849 59.4378 45.3319 57.5151 45.3239 55.1669C45.3159 52.82 43.3144 50.8527 40.9615 50.9195Z" fill="#414244"/>
</svg>
