<svg width="300" height="298" viewBox="0 0 300 298" fill="none" xmlns="http://www.w3.org/2000/svg">
<g clip-path="url(#clip0_38_293)">
<rect x="4" y="4" width="292" height="290" rx="12" fill="url(#paint0_linear_38_293)"/>
<ellipse cx="4" cy="-18" rx="241" ry="162" fill="url(#paint1_radial_38_293)"/>
<path d="M123.417 153.844C124.941 112.118 154.745 22.1502 261.767 -3.9142C395.544 -36.4947 312.648 200.714 123.417 153.844Z" fill="url(#paint2_linear_38_293)" fill-opacity="0.19"/>
<ellipse cx="247.5" cy="333" rx="194.5" ry="133" fill="url(#paint3_radial_38_293)"/>
<g clip-path="url(#clip1_38_293)">
<g clip-path="url(#clip2_38_293)">
<circle cx="194.5" cy="253.5" r="1.5" fill="white" fill-opacity="0.37"/>
<circle cx="203.5" cy="253.5" r="1.5" fill="white" fill-opacity="0.37"/>
<circle cx="212.5" cy="253.5" r="1.5" fill="white" fill-opacity="0.37"/>
<circle cx="221.5" cy="253.5" r="1.5" fill="white" fill-opacity="0.37"/>
<circle cx="230.5" cy="253.5" r="1.5" fill="white" fill-opacity="0.37"/>
<circle cx="239.5" cy="253.5" r="1.5" fill="white" fill-opacity="0.37"/>
<circle cx="248.5" cy="253.5" r="1.5" fill="white" fill-opacity="0.37"/>
<circle cx="257.5" cy="253.5" r="1.5" fill="white" fill-opacity="0.37"/>
</g>
<g clip-path="url(#clip3_38_293)">
<circle cx="194.5" cy="262.5" r="1.5" fill="white" fill-opacity="0.37"/>
<circle cx="203.5" cy="262.5" r="1.5" fill="white" fill-opacity="0.37"/>
<circle cx="212.5" cy="262.5" r="1.5" fill="white" fill-opacity="0.37"/>
<circle cx="221.5" cy="262.5" r="1.5" fill="white" fill-opacity="0.37"/>
<circle cx="230.5" cy="262.5" r="1.5" fill="white" fill-opacity="0.37"/>
<circle cx="239.5" cy="262.5" r="1.5" fill="white" fill-opacity="0.37"/>
<circle cx="248.5" cy="262.5" r="1.5" fill="white" fill-opacity="0.37"/>
<circle cx="257.5" cy="262.5" r="1.5" fill="white" fill-opacity="0.37"/>
</g>
<g clip-path="url(#clip4_38_293)">
<circle cx="194.5" cy="271.5" r="1.5" fill="white" fill-opacity="0.37"/>
<circle cx="203.5" cy="271.5" r="1.5" fill="white" fill-opacity="0.37"/>
<circle cx="212.5" cy="271.5" r="1.5" fill="white" fill-opacity="0.37"/>
<circle cx="221.5" cy="271.5" r="1.5" fill="white" fill-opacity="0.37"/>
<circle cx="230.5" cy="271.5" r="1.5" fill="white" fill-opacity="0.37"/>
<circle cx="239.5" cy="271.5" r="1.5" fill="white" fill-opacity="0.37"/>
<circle cx="248.5" cy="271.5" r="1.5" fill="white" fill-opacity="0.37"/>
<circle cx="257.5" cy="271.5" r="1.5" fill="white" fill-opacity="0.37"/>
</g>
<g clip-path="url(#clip5_38_293)">
<circle cx="194.5" cy="280.5" r="1.5" fill="white" fill-opacity="0.37"/>
<circle cx="203.5" cy="280.5" r="1.5" fill="white" fill-opacity="0.37"/>
<circle cx="212.5" cy="280.5" r="1.5" fill="white" fill-opacity="0.37"/>
<circle cx="221.5" cy="280.5" r="1.5" fill="white" fill-opacity="0.37"/>
<circle cx="230.5" cy="280.5" r="1.5" fill="white" fill-opacity="0.37"/>
<circle cx="239.5" cy="280.5" r="1.5" fill="white" fill-opacity="0.37"/>
<circle cx="248.5" cy="280.5" r="1.5" fill="white" fill-opacity="0.37"/>
<circle cx="257.5" cy="280.5" r="1.5" fill="white" fill-opacity="0.37"/>
</g>
<g clip-path="url(#clip6_38_293)">
<circle cx="194.5" cy="289.5" r="1.5" fill="white" fill-opacity="0.37"/>
<circle cx="203.5" cy="289.5" r="1.5" fill="white" fill-opacity="0.37"/>
<circle cx="212.5" cy="289.5" r="1.5" fill="white" fill-opacity="0.37"/>
<circle cx="221.5" cy="289.5" r="1.5" fill="white" fill-opacity="0.37"/>
<circle cx="230.5" cy="289.5" r="1.5" fill="white" fill-opacity="0.37"/>
<circle cx="239.5" cy="289.5" r="1.5" fill="white" fill-opacity="0.37"/>
<circle cx="248.5" cy="289.5" r="1.5" fill="white" fill-opacity="0.37"/>
<circle cx="257.5" cy="289.5" r="1.5" fill="white" fill-opacity="0.37"/>
</g>
</g>
<path d="M66.6 121H49.192V46.248L38.056 42.152V29.736H53.16C58.792 29.736 62.4187 30.76 64.04 32.808C65.7467 34.856 66.6 38.9093 66.6 44.968V121Z" fill="url(#paint4_linear_38_293)" fill-opacity="0.6"/>
<path d="M239.58 63.928L240.732 57.628H236.952V54.244H241.344L242.496 47.836H238.32V44.488H243.144L244.296 38.008H248.004L246.816 44.488H252.36L253.548 38.008H257.22L256.032 44.488H259.92V47.836H255.42L254.232 54.244H258.552V57.628H253.656L252.504 63.928H248.796L249.948 57.628H244.44L243.288 63.928H239.58ZM245.052 54.244H250.56L251.748 47.836H246.204L245.052 54.244ZM264.824 64V37.936L268.892 36.784V64H264.824Z" fill="white"/>
<path d="M51.0196 188.155V213.693" stroke="white" stroke-opacity="0.5" stroke-width="10" stroke-linecap="round" stroke-linejoin="round"/>
<path d="M76.5 188.155V213.693" stroke="white" stroke-opacity="0.5" stroke-width="10" stroke-linecap="round" stroke-linejoin="round"/>
<path d="M101.98 188.155V213.693" stroke="white" stroke-opacity="0.5" stroke-width="10" stroke-linecap="round" stroke-linejoin="round"/>
<path d="M114.721 200.924H38.2794C31.2432 200.924 25.5392 206.641 25.5392 213.693V303.076C25.5392 310.128 31.2432 315.845 38.2794 315.845H114.721C121.757 315.845 127.461 310.128 127.461 303.076V213.693C127.461 206.641 121.757 200.924 114.721 200.924Z" stroke="white" stroke-opacity="0.5" stroke-width="10" stroke-linecap="round" stroke-linejoin="round"/>
<path d="M51.0196 239.231H89.2402" stroke="white" stroke-opacity="0.5" stroke-width="10" stroke-linecap="round" stroke-linejoin="round"/>
<path d="M51.0196 264.769H101.98" stroke="white" stroke-opacity="0.5" stroke-width="10" stroke-linecap="round" stroke-linejoin="round"/>
<path d="M51.0196 290.307H82.8701" stroke="white" stroke-opacity="0.5" stroke-width="10" stroke-linecap="round" stroke-linejoin="round"/>
</g>
<rect x="2" y="2" width="296" height="294" rx="14" stroke="white" stroke-width="4"/>
<defs>
<linearGradient id="paint0_linear_38_293" x1="4" y1="4" x2="297.154" y2="312.953" gradientUnits="userSpaceOnUse">
<stop stop-color="#FF7424"/>
<stop offset="0.466346" stop-color="#EF562C"/>
<stop offset="1" stop-color="#FF7424"/>
</linearGradient>
<radialGradient id="paint1_radial_38_293" cx="0" cy="0" r="1" gradientUnits="userSpaceOnUse" gradientTransform="translate(4 -18) rotate(90) scale(162 241)">
<stop offset="0.105769" stop-color="#FFBE69"/>
<stop offset="0.875" stop-color="#FE8359" stop-opacity="0"/>
</radialGradient>
<linearGradient id="paint2_linear_38_293" x1="158.862" y1="37.5839" x2="174.863" y2="151.902" gradientUnits="userSpaceOnUse">
<stop stop-color="white"/>
<stop offset="1" stop-color="white" stop-opacity="0"/>
</linearGradient>
<radialGradient id="paint3_radial_38_293" cx="0" cy="0" r="1" gradientUnits="userSpaceOnUse" gradientTransform="translate(247.5 333) rotate(90) scale(133 194.5)">
<stop offset="0.153846" stop-color="#FFDF69" stop-opacity="0.82"/>
<stop offset="0.841346" stop-color="#FE8359" stop-opacity="0"/>
</radialGradient>
<linearGradient id="paint4_linear_38_293" x1="53.5" y1="14" x2="53.5" y2="142.5" gradientUnits="userSpaceOnUse">
<stop stop-color="white"/>
<stop offset="1" stop-color="white" stop-opacity="0"/>
</linearGradient>
<clipPath id="clip0_38_293">
<rect x="4" y="4" width="292" height="290" rx="12" fill="white"/>
</clipPath>
<clipPath id="clip1_38_293">
<rect width="68" height="59" fill="white" transform="translate(193 252)"/>
</clipPath>
<clipPath id="clip2_38_293">
<rect width="100" height="9" fill="white" transform="translate(193 252)"/>
</clipPath>
<clipPath id="clip3_38_293">
<rect width="100" height="9" fill="white" transform="translate(193 261)"/>
</clipPath>
<clipPath id="clip4_38_293">
<rect width="100" height="9" fill="white" transform="translate(193 270)"/>
</clipPath>
<clipPath id="clip5_38_293">
<rect width="100" height="9" fill="white" transform="translate(193 279)"/>
</clipPath>
<clipPath id="clip6_38_293">
<rect width="100" height="9" fill="white" transform="translate(193 288)"/>
</clipPath>
</defs>
</svg>
