<svg width="292" height="290" viewBox="0 0 292 290" fill="none" xmlns="http://www.w3.org/2000/svg">
<g clip-path="url(#clip0_38_86055)">
<rect width="292" height="290" rx="12" fill="url(#paint0_linear_38_86055)"/>
<ellipse cy="-22" rx="241" ry="162" fill="url(#paint1_radial_38_86055)"/>
<path d="M119.417 149.844C120.941 108.118 150.745 18.1502 257.767 -7.9142C391.544 -40.4947 308.648 196.714 119.417 149.844Z" fill="url(#paint2_linear_38_86055)" fill-opacity="0.19"/>
<ellipse cx="243.5" cy="329" rx="194.5" ry="133" fill="url(#paint3_radial_38_86055)"/>
<g clip-path="url(#clip1_38_86055)">
<g clip-path="url(#clip2_38_86055)">
<circle cx="190.5" cy="249.5" r="1.5" fill="white" fill-opacity="0.37"/>
<circle cx="199.5" cy="249.5" r="1.5" fill="white" fill-opacity="0.37"/>
<circle cx="208.5" cy="249.5" r="1.5" fill="white" fill-opacity="0.37"/>
<circle cx="217.5" cy="249.5" r="1.5" fill="white" fill-opacity="0.37"/>
<circle cx="226.5" cy="249.5" r="1.5" fill="white" fill-opacity="0.37"/>
<circle cx="235.5" cy="249.5" r="1.5" fill="white" fill-opacity="0.37"/>
<circle cx="244.5" cy="249.5" r="1.5" fill="white" fill-opacity="0.37"/>
<circle cx="253.5" cy="249.5" r="1.5" fill="white" fill-opacity="0.37"/>
</g>
<g clip-path="url(#clip3_38_86055)">
<circle cx="190.5" cy="258.5" r="1.5" fill="white" fill-opacity="0.37"/>
<circle cx="199.5" cy="258.5" r="1.5" fill="white" fill-opacity="0.37"/>
<circle cx="208.5" cy="258.5" r="1.5" fill="white" fill-opacity="0.37"/>
<circle cx="217.5" cy="258.5" r="1.5" fill="white" fill-opacity="0.37"/>
<circle cx="226.5" cy="258.5" r="1.5" fill="white" fill-opacity="0.37"/>
<circle cx="235.5" cy="258.5" r="1.5" fill="white" fill-opacity="0.37"/>
<circle cx="244.5" cy="258.5" r="1.5" fill="white" fill-opacity="0.37"/>
<circle cx="253.5" cy="258.5" r="1.5" fill="white" fill-opacity="0.37"/>
</g>
<g clip-path="url(#clip4_38_86055)">
<circle cx="190.5" cy="267.5" r="1.5" fill="white" fill-opacity="0.37"/>
<circle cx="199.5" cy="267.5" r="1.5" fill="white" fill-opacity="0.37"/>
<circle cx="208.5" cy="267.5" r="1.5" fill="white" fill-opacity="0.37"/>
<circle cx="217.5" cy="267.5" r="1.5" fill="white" fill-opacity="0.37"/>
<circle cx="226.5" cy="267.5" r="1.5" fill="white" fill-opacity="0.37"/>
<circle cx="235.5" cy="267.5" r="1.5" fill="white" fill-opacity="0.37"/>
<circle cx="244.5" cy="267.5" r="1.5" fill="white" fill-opacity="0.37"/>
<circle cx="253.5" cy="267.5" r="1.5" fill="white" fill-opacity="0.37"/>
</g>
<g clip-path="url(#clip5_38_86055)">
<circle cx="190.5" cy="276.5" r="1.5" fill="white" fill-opacity="0.37"/>
<circle cx="199.5" cy="276.5" r="1.5" fill="white" fill-opacity="0.37"/>
<circle cx="208.5" cy="276.5" r="1.5" fill="white" fill-opacity="0.37"/>
<circle cx="217.5" cy="276.5" r="1.5" fill="white" fill-opacity="0.37"/>
<circle cx="226.5" cy="276.5" r="1.5" fill="white" fill-opacity="0.37"/>
<circle cx="235.5" cy="276.5" r="1.5" fill="white" fill-opacity="0.37"/>
<circle cx="244.5" cy="276.5" r="1.5" fill="white" fill-opacity="0.37"/>
<circle cx="253.5" cy="276.5" r="1.5" fill="white" fill-opacity="0.37"/>
</g>
<g clip-path="url(#clip6_38_86055)">
<circle cx="190.5" cy="285.5" r="1.5" fill="white" fill-opacity="0.37"/>
<circle cx="199.5" cy="285.5" r="1.5" fill="white" fill-opacity="0.37"/>
<circle cx="208.5" cy="285.5" r="1.5" fill="white" fill-opacity="0.37"/>
<circle cx="217.5" cy="285.5" r="1.5" fill="white" fill-opacity="0.37"/>
<circle cx="226.5" cy="285.5" r="1.5" fill="white" fill-opacity="0.37"/>
<circle cx="235.5" cy="285.5" r="1.5" fill="white" fill-opacity="0.37"/>
<circle cx="244.5" cy="285.5" r="1.5" fill="white" fill-opacity="0.37"/>
<circle cx="253.5" cy="285.5" r="1.5" fill="white" fill-opacity="0.37"/>
</g>
</g>
<path d="M83.72 117H40.072C36.3173 117 33.1173 116.232 30.472 114.696C27.8267 113.16 26.504 110.6 26.504 107.016C26.504 104.029 27.5707 101.128 29.704 98.312C30.472 97.3733 31.752 95.9227 33.544 93.96L47.24 78.728C51.1653 74.8027 54.28 71.2613 56.584 68.104C58.888 64.8613 60.5947 62.4293 61.704 60.808C62.8133 59.1867 63.6667 57.7787 64.264 56.584C65.7147 53.6827 66.44 51.208 66.44 49.16C66.44 47.112 65.6293 45.1067 64.008 43.144C62.472 41.096 59.6133 40.072 55.432 40.072C51.336 40.072 48.4773 41.2667 46.856 43.656C45.32 46.0453 44.552 49.416 44.552 53.768H27.784C27.784 49.416 28.1253 45.704 28.808 42.632C29.4907 39.4747 30.8133 36.488 32.776 33.672C36.616 27.9547 44.552 25.096 56.584 25.096C65.544 25.096 72.456 26.9307 77.32 30.6C82.184 34.2693 84.616 39.5173 84.616 46.344C84.616 50.5253 83.6347 54.8773 81.672 59.4C79.7947 63.8373 77.7893 67.4213 75.656 70.152C73.5227 72.8827 71.0053 75.912 68.104 79.24C65.2027 82.568 63.496 84.5733 62.984 85.256L48.52 102.024H83.72V117Z" fill="url(#paint4_linear_38_86055)" fill-opacity="0.6"/>
<path d="M232.123 59.928L233.275 53.628H229.495V50.244H233.887L235.039 43.836H230.863V40.488H235.687L236.839 34.008H240.547L239.359 40.488H244.903L246.091 34.008H249.763L248.575 40.488H252.463V43.836H247.963L246.775 50.244H251.095V53.628H246.199L245.047 59.928H241.339L242.491 53.628H236.983L235.831 59.928H232.123ZM237.595 50.244H243.103L244.291 43.836H238.747L237.595 50.244ZM255.244 60L264.136 48.876C264.616 48.252 265.156 47.496 265.756 46.608C266.38 45.696 266.92 44.76 267.376 43.8C267.856 42.816 268.096 41.904 268.096 41.064C268.096 39.744 267.736 38.724 267.016 38.004C266.32 37.284 265.264 36.924 263.848 36.924C262.864 36.924 262.036 37.14 261.364 37.572C260.692 38.004 260.14 38.508 259.708 39.084C259.3 39.66 258.976 40.176 258.736 40.632L255.388 38.832C255.844 37.968 256.432 37.104 257.152 36.24C257.896 35.352 258.82 34.608 259.924 34.008C261.028 33.408 262.372 33.108 263.956 33.108C265.78 33.108 267.304 33.432 268.528 34.08C269.752 34.728 270.664 35.616 271.264 36.744C271.888 37.872 272.2 39.156 272.2 40.596C272.2 42.132 271.816 43.704 271.048 45.312C270.304 46.92 269.248 48.564 267.88 50.244L262.984 56.436H273.244V60H255.244Z" fill="white"/>
<path d="M75.5 211.792C75.5058 209.808 75.115 207.844 74.3506 206.014C73.5862 204.184 72.4636 202.526 71.0487 201.136C69.6339 199.746 67.9555 198.653 66.1122 197.922C64.2688 197.19 62.2978 196.835 60.3151 196.876C58.3323 196.917 56.3778 197.355 54.5666 198.162C52.7553 198.97 51.1239 200.132 49.7682 201.579C48.4126 203.027 47.36 204.731 46.6725 206.591C45.985 208.451 45.6764 210.43 45.7649 212.411C42.8504 213.161 40.1446 214.564 37.8525 216.514C35.5604 218.463 33.7421 220.909 32.5353 223.666C31.3284 226.423 30.7647 229.418 30.8868 232.425C31.009 235.432 31.8137 238.371 33.2401 241.021C30.7321 243.059 28.7599 245.678 27.4951 248.652C26.2303 251.625 25.7112 254.863 25.9829 258.083C26.2547 261.302 27.309 264.407 29.0543 267.127C30.7996 269.846 33.1829 272.098 35.997 273.687C35.6495 276.375 35.8568 279.106 36.6063 281.712C37.3557 284.317 38.6313 286.741 40.3543 288.834C42.0772 290.927 44.211 292.645 46.6237 293.881C49.0365 295.117 51.6771 295.845 54.3823 296.02C57.0876 296.196 59.8001 295.815 62.3524 294.901C64.9047 293.987 67.2425 292.56 69.2215 290.707C71.2006 288.854 72.7787 286.616 73.8586 284.129C74.9385 281.642 75.4971 278.961 75.5 276.25V211.792Z" stroke="white" stroke-opacity="0.5" stroke-width="10" stroke-linecap="round" stroke-linejoin="round"/>
<path d="M60.625 251.458C64.7878 249.994 68.4229 247.328 71.0706 243.798C73.7183 240.267 75.2598 236.031 75.5 231.625" stroke="white" stroke-opacity="0.5" stroke-width="10" stroke-linecap="round" stroke-linejoin="round"/>
<path d="M45.7649 212.411C45.8629 214.81 46.54 217.149 47.7383 219.229" stroke="white" stroke-opacity="0.5" stroke-width="10" stroke-linecap="round" stroke-linejoin="round"/>
<path d="M33.2401 241.026C34.1472 240.287 35.1178 239.63 36.1407 239.062" stroke="white" stroke-opacity="0.5" stroke-width="10" stroke-linecap="round" stroke-linejoin="round"/>
<path d="M45.75 276.25C42.3329 276.252 38.9733 275.37 35.9969 273.692" stroke="white" stroke-opacity="0.5" stroke-width="10" stroke-linecap="round" stroke-linejoin="round"/>
<path d="M75.5 251.458H95.3333" stroke="white" stroke-opacity="0.5" stroke-width="10" stroke-linecap="round" stroke-linejoin="round"/>
<path d="M75.5 276.25H105.25C107.88 276.25 110.402 277.295 112.262 279.155C114.122 281.014 115.167 283.537 115.167 286.167V291.125" stroke="white" stroke-opacity="0.5" stroke-width="10" stroke-linecap="round" stroke-linejoin="round"/>
<path d="M75.5 226.667H115.167" stroke="white" stroke-opacity="0.5" stroke-width="10" stroke-linecap="round" stroke-linejoin="round"/>
<path d="M95.3333 226.667V211.792C95.3333 209.162 96.3781 206.639 98.2379 204.78C100.098 202.92 102.62 201.875 105.25 201.875" stroke="white" stroke-opacity="0.5" stroke-width="10" stroke-linecap="round" stroke-linejoin="round"/>
<path d="M95.3333 253.937C96.7025 253.937 97.8125 252.827 97.8125 251.458C97.8125 250.089 96.7025 248.979 95.3333 248.979C93.9641 248.979 92.8542 250.089 92.8542 251.458C92.8542 252.827 93.9641 253.937 95.3333 253.937Z" stroke="white" stroke-opacity="0.5" stroke-width="10" stroke-linecap="round" stroke-linejoin="round"/>
<path d="M105.25 204.354C106.619 204.354 107.729 203.244 107.729 201.875C107.729 200.506 106.619 199.396 105.25 199.396C103.881 199.396 102.771 200.506 102.771 201.875C102.771 203.244 103.881 204.354 105.25 204.354Z" stroke="white" stroke-opacity="0.5" stroke-width="10" stroke-linecap="round" stroke-linejoin="round"/>
<path d="M115.167 293.604C116.536 293.604 117.646 292.494 117.646 291.125C117.646 289.756 116.536 288.646 115.167 288.646C113.797 288.646 112.688 289.756 112.688 291.125C112.688 292.494 113.797 293.604 115.167 293.604Z" stroke="white" stroke-opacity="0.5" stroke-width="10" stroke-linecap="round" stroke-linejoin="round"/>
<path d="M115.167 229.146C116.536 229.146 117.646 228.036 117.646 226.667C117.646 225.297 116.536 224.188 115.167 224.188C113.797 224.188 112.688 225.297 112.688 226.667C112.688 228.036 113.797 229.146 115.167 229.146Z" stroke="white" stroke-opacity="0.5" stroke-width="10" stroke-linecap="round" stroke-linejoin="round"/>
</g>
<rect x="2" y="2" width="288" height="286" rx="10" stroke="white" stroke-width="4"/>
<defs>
<linearGradient id="paint0_linear_38_86055" x1="0" y1="0" x2="293.154" y2="308.953" gradientUnits="userSpaceOnUse">
<stop stop-color="#55D066"/>
<stop offset="0.466346" stop-color="#24A042"/>
<stop offset="1" stop-color="#55D066"/>
</linearGradient>
<radialGradient id="paint1_radial_38_86055" cx="0" cy="0" r="1" gradientUnits="userSpaceOnUse" gradientTransform="translate(0 -22) rotate(90) scale(162 241)">
<stop offset="0.105769" stop-color="#8FFFA6"/>
<stop offset="0.875" stop-color="#85FF9E" stop-opacity="0"/>
</radialGradient>
<linearGradient id="paint2_linear_38_86055" x1="154.862" y1="33.5839" x2="170.863" y2="147.902" gradientUnits="userSpaceOnUse">
<stop stop-color="white"/>
<stop offset="1" stop-color="white" stop-opacity="0"/>
</linearGradient>
<radialGradient id="paint3_radial_38_86055" cx="0" cy="0" r="1" gradientUnits="userSpaceOnUse" gradientTransform="translate(243.5 329) rotate(90) scale(133 194.5)">
<stop offset="0.153846" stop-color="#E0E557"/>
<stop offset="0.841346" stop-color="#E0E35E" stop-opacity="0"/>
</radialGradient>
<linearGradient id="paint4_linear_38_86055" x1="56.5" y1="10" x2="56.5" y2="138.5" gradientUnits="userSpaceOnUse">
<stop stop-color="white"/>
<stop offset="1" stop-color="white" stop-opacity="0"/>
</linearGradient>
<clipPath id="clip0_38_86055">
<rect width="292" height="290" rx="12" fill="white"/>
</clipPath>
<clipPath id="clip1_38_86055">
<rect width="68" height="59" fill="white" transform="translate(189 248)"/>
</clipPath>
<clipPath id="clip2_38_86055">
<rect width="100" height="9" fill="white" transform="translate(189 248)"/>
</clipPath>
<clipPath id="clip3_38_86055">
<rect width="100" height="9" fill="white" transform="translate(189 257)"/>
</clipPath>
<clipPath id="clip4_38_86055">
<rect width="100" height="9" fill="white" transform="translate(189 266)"/>
</clipPath>
<clipPath id="clip5_38_86055">
<rect width="100" height="9" fill="white" transform="translate(189 275)"/>
</clipPath>
<clipPath id="clip6_38_86055">
<rect width="100" height="9" fill="white" transform="translate(189 284)"/>
</clipPath>
</defs>
</svg>
