<svg width="292" height="290" viewBox="0 0 292 290" fill="none" xmlns="http://www.w3.org/2000/svg">
<g clip-path="url(#clip0_38_86214)">
<rect width="292" height="290" rx="12" fill="url(#paint0_linear_38_86214)"/>
<ellipse cy="-22" rx="241" ry="162" fill="url(#paint1_radial_38_86214)"/>
<path d="M119.417 149.844C120.941 108.118 150.745 18.1502 257.767 -7.9142C391.544 -40.4947 308.648 196.714 119.417 149.844Z" fill="url(#paint2_linear_38_86214)" fill-opacity="0.19"/>
<ellipse cx="243.5" cy="329" rx="194.5" ry="133" fill="url(#paint3_radial_38_86214)"/>
<g clip-path="url(#clip1_38_86214)">
<g clip-path="url(#clip2_38_86214)">
<circle cx="190.5" cy="249.5" r="1.5" fill="white" fill-opacity="0.37"/>
<circle cx="199.5" cy="249.5" r="1.5" fill="white" fill-opacity="0.37"/>
<circle cx="208.5" cy="249.5" r="1.5" fill="white" fill-opacity="0.37"/>
<circle cx="217.5" cy="249.5" r="1.5" fill="white" fill-opacity="0.37"/>
<circle cx="226.5" cy="249.5" r="1.5" fill="white" fill-opacity="0.37"/>
<circle cx="235.5" cy="249.5" r="1.5" fill="white" fill-opacity="0.37"/>
<circle cx="244.5" cy="249.5" r="1.5" fill="white" fill-opacity="0.37"/>
<circle cx="253.5" cy="249.5" r="1.5" fill="white" fill-opacity="0.37"/>
</g>
<g clip-path="url(#clip3_38_86214)">
<circle cx="190.5" cy="258.5" r="1.5" fill="white" fill-opacity="0.37"/>
<circle cx="199.5" cy="258.5" r="1.5" fill="white" fill-opacity="0.37"/>
<circle cx="208.5" cy="258.5" r="1.5" fill="white" fill-opacity="0.37"/>
<circle cx="217.5" cy="258.5" r="1.5" fill="white" fill-opacity="0.37"/>
<circle cx="226.5" cy="258.5" r="1.5" fill="white" fill-opacity="0.37"/>
<circle cx="235.5" cy="258.5" r="1.5" fill="white" fill-opacity="0.37"/>
<circle cx="244.5" cy="258.5" r="1.5" fill="white" fill-opacity="0.37"/>
<circle cx="253.5" cy="258.5" r="1.5" fill="white" fill-opacity="0.37"/>
</g>
<g clip-path="url(#clip4_38_86214)">
<circle cx="190.5" cy="267.5" r="1.5" fill="white" fill-opacity="0.37"/>
<circle cx="199.5" cy="267.5" r="1.5" fill="white" fill-opacity="0.37"/>
<circle cx="208.5" cy="267.5" r="1.5" fill="white" fill-opacity="0.37"/>
<circle cx="217.5" cy="267.5" r="1.5" fill="white" fill-opacity="0.37"/>
<circle cx="226.5" cy="267.5" r="1.5" fill="white" fill-opacity="0.37"/>
<circle cx="235.5" cy="267.5" r="1.5" fill="white" fill-opacity="0.37"/>
<circle cx="244.5" cy="267.5" r="1.5" fill="white" fill-opacity="0.37"/>
<circle cx="253.5" cy="267.5" r="1.5" fill="white" fill-opacity="0.37"/>
</g>
<g clip-path="url(#clip5_38_86214)">
<circle cx="190.5" cy="276.5" r="1.5" fill="white" fill-opacity="0.37"/>
<circle cx="199.5" cy="276.5" r="1.5" fill="white" fill-opacity="0.37"/>
<circle cx="208.5" cy="276.5" r="1.5" fill="white" fill-opacity="0.37"/>
<circle cx="217.5" cy="276.5" r="1.5" fill="white" fill-opacity="0.37"/>
<circle cx="226.5" cy="276.5" r="1.5" fill="white" fill-opacity="0.37"/>
<circle cx="235.5" cy="276.5" r="1.5" fill="white" fill-opacity="0.37"/>
<circle cx="244.5" cy="276.5" r="1.5" fill="white" fill-opacity="0.37"/>
<circle cx="253.5" cy="276.5" r="1.5" fill="white" fill-opacity="0.37"/>
</g>
<g clip-path="url(#clip6_38_86214)">
<circle cx="190.5" cy="285.5" r="1.5" fill="white" fill-opacity="0.37"/>
<circle cx="199.5" cy="285.5" r="1.5" fill="white" fill-opacity="0.37"/>
<circle cx="208.5" cy="285.5" r="1.5" fill="white" fill-opacity="0.37"/>
<circle cx="217.5" cy="285.5" r="1.5" fill="white" fill-opacity="0.37"/>
<circle cx="226.5" cy="285.5" r="1.5" fill="white" fill-opacity="0.37"/>
<circle cx="235.5" cy="285.5" r="1.5" fill="white" fill-opacity="0.37"/>
<circle cx="244.5" cy="285.5" r="1.5" fill="white" fill-opacity="0.37"/>
<circle cx="253.5" cy="285.5" r="1.5" fill="white" fill-opacity="0.37"/>
</g>
</g>
<path d="M51.592 75.4L54.408 61.32L62.344 65.032C65.5867 60.936 67.208 55.6027 67.208 49.032C67.208 47.3253 66.184 45.448 64.136 43.4C62.1733 41.352 59.0587 40.328 54.792 40.328C50.6107 40.328 47.752 41.2667 46.216 43.144C44.68 45.0213 43.912 48.5627 43.912 53.768H28.296C28.296 43.9547 30.5147 36.744 34.952 32.136C39.4747 27.4427 46.2587 25.096 55.304 25.096C73.9067 25.096 83.208 33.032 83.208 48.904C83.208 58.2053 80.392 65.7573 74.76 71.56C81.2453 75.2293 84.488 82.184 84.488 92.424C84.488 100.36 81.928 106.589 76.808 111.112C71.7733 115.549 64.6907 117.768 55.56 117.768C46.4293 117.768 39.6027 115.421 35.08 110.728C30.6427 106.035 28.424 99.7627 28.424 91.912H44.68C44.68 93.3627 44.8507 94.8133 45.192 96.264C45.6187 97.6293 46.6427 99.0373 48.264 100.488C49.8853 101.853 52.4453 102.536 55.944 102.536C59.528 102.536 62.3867 101.427 64.52 99.208C66.7387 96.904 67.848 94.344 67.848 91.528C67.848 88.5413 67.2933 86.3653 66.184 85C65.16 83.6347 64.392 82.6533 63.88 82.056C63.368 81.3733 62.3867 80.648 60.936 79.88C59.5707 79.112 58.632 78.6 58.12 78.344C57.608 78.0027 56.456 77.4907 54.664 76.808C52.9573 76.04 51.9333 75.5707 51.592 75.4Z" fill="url(#paint4_linear_38_86214)" fill-opacity="0.6"/>
<path d="M232.281 59.928L233.433 53.628H229.653V50.244H234.045L235.197 43.836H231.021V40.488H235.845L236.997 34.008H240.705L239.517 40.488H245.061L246.249 34.008H249.921L248.733 40.488H252.621V43.836H248.121L246.933 50.244H251.253V53.628H246.357L245.205 59.928H241.497L242.649 53.628H237.141L235.989 59.928H232.281ZM237.753 50.244H243.261L244.449 43.836H238.905L237.753 50.244ZM262.853 60.54C261.869 60.54 260.849 60.432 259.793 60.216C258.737 60.024 257.765 59.748 256.877 59.388C256.013 59.028 255.341 58.62 254.861 58.164L256.553 54.744C257.177 55.224 258.041 55.704 259.145 56.184C260.249 56.64 261.425 56.868 262.673 56.868C263.729 56.868 264.725 56.736 265.661 56.472C266.597 56.184 267.353 55.68 267.929 54.96C268.529 54.216 268.829 53.184 268.829 51.864C268.829 50.448 268.265 49.308 267.137 48.444C266.033 47.58 264.533 47.148 262.637 47.148C262.061 47.148 261.473 47.172 260.873 47.22C260.273 47.244 259.745 47.292 259.289 47.364L265.913 37.068H255.977V33.54H273.077L265.589 44.232C267.149 44.28 268.493 44.64 269.621 45.312C270.773 45.984 271.661 46.872 272.285 47.976C272.909 49.056 273.221 50.256 273.221 51.576C273.221 53.28 272.813 54.816 271.997 56.184C271.205 57.528 270.029 58.596 268.469 59.388C266.933 60.156 265.061 60.54 262.853 60.54Z" fill="white"/>
<path d="M73.5 265.667V289.625" stroke="white" stroke-opacity="0.5" stroke-width="10" stroke-linecap="round" stroke-linejoin="round"/>
<path d="M92.6667 256.083V289.625" stroke="white" stroke-opacity="0.5" stroke-width="10" stroke-linecap="round" stroke-linejoin="round"/>
<path d="M111.833 236.917V289.625" stroke="white" stroke-opacity="0.5" stroke-width="10" stroke-linecap="round" stroke-linejoin="round"/>
<path d="M121.417 203.375L79.9879 244.804C79.7653 245.027 79.501 245.204 79.2099 245.325C78.9188 245.445 78.6068 245.508 78.2916 245.508C77.9765 245.508 77.6645 245.445 77.3734 245.325C77.0823 245.204 76.8179 245.027 76.5954 244.804L60.8212 229.03C60.3719 228.58 59.7627 228.328 59.1274 228.328C58.4921 228.328 57.8828 228.58 57.4335 229.03L25.5833 260.875" stroke="white" stroke-opacity="0.5" stroke-width="10" stroke-linecap="round" stroke-linejoin="round"/>
<path d="M35.1667 275.25V289.625" stroke="white" stroke-opacity="0.5" stroke-width="10" stroke-linecap="round" stroke-linejoin="round"/>
<path d="M54.3333 256.083V289.625" stroke="white" stroke-opacity="0.5" stroke-width="10" stroke-linecap="round" stroke-linejoin="round"/>
</g>
<rect x="2" y="2" width="288" height="286" rx="10" stroke="white" stroke-width="4"/>
<defs>
<linearGradient id="paint0_linear_38_86214" x1="0" y1="0" x2="293.154" y2="308.953" gradientUnits="userSpaceOnUse">
<stop stop-color="#B177F2"/>
<stop offset="0.466346" stop-color="#6846E2"/>
<stop offset="1" stop-color="#AE73F3"/>
</linearGradient>
<radialGradient id="paint1_radial_38_86214" cx="0" cy="0" r="1" gradientUnits="userSpaceOnUse" gradientTransform="translate(0 -22) rotate(90) scale(162 241)">
<stop offset="0.105769" stop-color="#B174F3"/>
<stop offset="0.875" stop-color="#B174F3" stop-opacity="0"/>
</radialGradient>
<linearGradient id="paint2_linear_38_86214" x1="154.862" y1="33.5839" x2="170.863" y2="147.902" gradientUnits="userSpaceOnUse">
<stop stop-color="white"/>
<stop offset="1" stop-color="white" stop-opacity="0"/>
</linearGradient>
<radialGradient id="paint3_radial_38_86214" cx="0" cy="0" r="1" gradientUnits="userSpaceOnUse" gradientTransform="translate(243.5 329) rotate(90) scale(133 194.5)">
<stop offset="0.153846" stop-color="#AF91FF"/>
<stop offset="0.841346" stop-color="#9B78FA" stop-opacity="0"/>
</radialGradient>
<linearGradient id="paint4_linear_38_86214" x1="55.5" y1="10" x2="55.5" y2="138.5" gradientUnits="userSpaceOnUse">
<stop stop-color="white"/>
<stop offset="1" stop-color="white" stop-opacity="0"/>
</linearGradient>
<clipPath id="clip0_38_86214">
<rect width="292" height="290" rx="12" fill="white"/>
</clipPath>
<clipPath id="clip1_38_86214">
<rect width="68" height="59" fill="white" transform="translate(189 248)"/>
</clipPath>
<clipPath id="clip2_38_86214">
<rect width="100" height="9" fill="white" transform="translate(189 248)"/>
</clipPath>
<clipPath id="clip3_38_86214">
<rect width="100" height="9" fill="white" transform="translate(189 257)"/>
</clipPath>
<clipPath id="clip4_38_86214">
<rect width="100" height="9" fill="white" transform="translate(189 266)"/>
</clipPath>
<clipPath id="clip5_38_86214">
<rect width="100" height="9" fill="white" transform="translate(189 275)"/>
</clipPath>
<clipPath id="clip6_38_86214">
<rect width="100" height="9" fill="white" transform="translate(189 284)"/>
</clipPath>
</defs>
</svg>
