<svg width="98" height="98" viewBox="0 0 98 98" fill="none" xmlns="http://www.w3.org/2000/svg">
<path d="M76.2205 19.7548C73.0316 19.7744 69.8446 19.8293 66.6557 19.7744C66.1735 16.5973 66.0775 13.377 65.5502 10.2038C61.8321 10.8114 58.2002 11.9619 54.7604 13.5024C53.0552 11.1073 50.86 8.66711 48.4296 6.97955V9.43935C50.078 10.8408 51.6617 12.6949 53.0062 14.3746C51.4226 15.2566 49.8271 16.1328 48.3865 17.2402C48.3806 17.2362 48.3767 17.2323 48.3708 17.2284V19.8528C49.3254 20.8799 50.4151 21.8226 51.06 23.0908C50.1603 23.6905 49.3626 24.4236 48.5668 25.1488C48.5512 25.1625 48.5355 25.1762 48.5198 25.1899C48.5061 25.1762 48.4904 25.1625 48.4767 25.1488H48.3708V29.2373C48.3983 29.1668 48.4198 29.0942 48.4492 29.0237C49.0157 30.3428 48.9686 31.7834 48.9882 33.1848C49.0529 33.7414 49.7389 33.857 50.1976 33.808C51.0051 32.4968 51.8067 31.1366 53.0592 30.1918C52.9592 31.801 51.942 33.0809 51.3089 34.496C51.5284 34.7939 51.7832 35.0585 52.0321 35.3329C53.3512 34.5568 54.7173 33.7982 56.2481 33.5493C55.3269 34.8057 53.9118 35.5015 52.6868 36.405C52.8004 36.7833 52.922 37.1616 53.0592 37.536C54.537 37.5262 56.009 37.6947 57.4241 38.1142C55.9992 38.7629 54.4037 38.7022 52.8808 38.8472C52.8318 39.1353 52.7358 39.7096 52.6907 39.9977C53.9608 40.7543 55.2818 41.5226 56.1873 42.7221C54.7408 42.4595 53.4276 41.7715 52.1517 41.0679C51.8636 41.358 51.5676 41.6422 51.305 41.9597C51.8538 43.2356 52.5554 44.445 53.0023 45.7621L52.8984 46.0855C51.6636 45.0878 50.9992 43.6257 50.0584 42.3889C49.6292 42.6829 48.8236 42.8182 48.9765 43.5238C48.9667 44.7899 48.9314 46.0855 48.4473 47.2752C48.4198 47.1929 48.3983 47.1106 48.3728 47.0282V51.4402C48.3728 51.4402 48.3865 51.4284 48.3924 51.4226C49.2646 52.1889 50.1564 52.9318 51.107 53.5962C50.3289 54.5958 49.5743 55.6326 48.6335 56.4872C48.6335 56.4872 48.6335 56.4872 48.6315 56.4892C48.6217 56.5048 48.608 56.5166 48.5923 56.5264C48.5923 56.5264 48.5884 56.5303 48.5864 56.5323C48.5649 56.544 48.5394 56.5538 48.508 56.5538C48.5041 56.5538 48.5022 56.5538 48.4982 56.5538C48.4963 56.5538 48.4943 56.5538 48.4924 56.5538C48.4924 56.5538 48.4924 56.5538 48.4884 56.5538C48.4884 56.5538 48.4884 56.5538 48.4865 56.5538C48.463 56.5538 48.4453 56.548 48.4277 56.5421C48.4218 56.5401 48.4179 56.5362 48.414 56.5342C48.4081 56.5303 48.4002 56.5284 48.3944 56.5244C48.3885 56.5225 48.3806 56.5225 48.3748 56.5185V59.1881C48.3748 59.1881 48.3846 59.1822 48.3885 59.1802C50.1878 60.3758 52.0262 61.5263 54.0176 62.3829C54.3959 62.5024 54.8898 62.8023 55.2328 62.4338C56.7773 60.611 57.8278 58.4394 58.949 56.35C61.4911 56.4343 64.1018 56.6597 66.6008 56.056C66.8693 53.5786 67.0242 51.0933 66.6263 48.6178C68.8979 47.5124 71.244 46.4167 73.1139 44.686C72.7297 43.8726 72.3162 43.0671 71.9986 42.2204C71.2107 40.7347 70.2954 39.3294 69.3468 37.9456C70.6933 36.0562 71.8967 34.0432 72.8062 31.9029C73.1688 31.2346 72.422 30.9268 71.9986 30.5838C70.2699 29.449 68.4648 28.42 66.5479 27.634C66.7968 25.6662 66.6968 23.6788 66.7086 21.7011C69.1664 21.7462 71.6262 21.7011 74.086 21.7462C74.1997 27.0735 74.1605 32.4047 74.1605 37.7339C74.1017 42.0498 74.384 46.3638 74.186 50.6777C74.1762 55.4464 74.1899 60.2151 74.1566 64.9858C67.8278 65.0152 61.497 65.0073 55.1662 64.9897C52.6064 64.9838 50.1133 66.1265 48.4042 68.0238C48.3944 68.014 48.3846 68.0061 48.3748 67.9963V72.1515C48.3846 72.1672 48.3904 72.1829 48.3944 72.2005C48.3983 72.2084 48.4042 72.2142 48.4042 72.226C48.4042 72.2338 48.4042 72.2417 48.4081 72.2476C48.4296 72.277 48.4532 72.3064 48.4767 72.3338C48.4826 72.2926 48.5041 72.2573 48.5374 72.2319C48.5453 72.2103 48.5551 72.1907 48.5708 72.175C49.0196 70.9912 49.4939 69.7642 50.4641 68.9018C51.3657 67.9356 52.6378 67.5024 53.851 67.0692C61.348 66.934 68.843 67.1437 76.34 67.0594C76.3106 51.2873 76.3655 35.5211 76.2264 19.7529L76.2205 19.7548ZM64.6016 27.0402C63.1218 26.6972 61.6283 26.3914 60.1132 26.262C59.9682 24.7685 59.6761 23.2985 59.337 21.8383C61.1246 21.7776 62.914 21.6384 64.7035 21.7384C64.7741 23.5063 64.778 25.2801 64.5996 27.0402H64.6016ZM63.6451 40.6171C62.9474 39.7096 62.23 38.8139 61.3872 38.0377C62.2182 37.2851 62.9415 36.4227 63.5746 35.4976C64.6761 36.2306 65.7227 37.0518 66.6635 37.9887C65.7364 38.9491 64.7937 39.9134 63.6451 40.6151V40.6171ZM64.237 47.2399C63.3766 47.4536 62.5044 47.6182 61.642 47.8181C61.2069 47.8573 60.7698 47.8926 60.3327 47.9338C60.2112 46.8381 59.9936 45.7601 59.7055 44.6998C60.7914 44.3117 61.8615 43.8766 62.918 43.4081C63.502 44.6292 63.9156 45.9248 64.237 47.2399ZM62.918 32.7281C61.8008 32.2949 60.6953 31.8304 59.5683 31.4188C59.8917 30.4035 59.9721 29.3353 60.2112 28.3044C61.1148 28.3847 62.0105 28.5572 62.916 28.6572C63.3335 28.763 63.749 28.8649 64.1704 28.961C63.8568 30.2467 63.4432 31.5109 62.9199 32.7281H62.918ZM63.6745 12.5362C64.0332 14.9372 64.3135 17.3499 64.5016 19.7744C62.5632 19.7294 60.6306 19.8607 58.6961 19.9548C57.9494 18.2554 57.0321 16.6404 56.0011 15.0979C58.4903 14.0454 61.052 13.1712 63.6745 12.5362ZM49.982 18.6337C51.1619 17.4577 52.7024 16.56 54.292 16.0465C55.2387 17.4558 56.2167 18.8905 56.7342 20.5192C55.4288 21.0034 54.0646 21.3699 52.8416 22.0539C52.0184 20.8093 51.0168 19.7058 49.982 18.6357V18.6337ZM50.9835 29.4804C50.8973 29.5058 50.7189 29.5588 50.6307 29.5842C50.4602 28.6082 50.0525 27.7105 49.6782 26.803C50.4151 26.0798 51.1874 25.3918 51.989 24.7411C52.4633 25.6917 52.822 26.6952 53.0846 27.7262C52.3536 28.273 51.6597 28.8708 50.9835 29.4804ZM57.4417 22.3107C57.7455 23.6298 57.9121 24.9665 58.0101 26.315C57.0027 26.5188 55.9874 26.6678 54.9898 26.903C54.6566 25.776 54.2685 24.6666 53.8079 23.5886C55.0192 23.1613 56.2108 22.687 57.4437 22.3126L57.4417 22.3107ZM54.6154 31.9519C54.8859 30.9543 55.0897 29.939 55.2838 28.9218C56.1658 28.6768 57.0634 28.5023 57.9709 28.3945C57.92 29.4098 57.773 30.4172 57.5162 31.3992C56.5244 31.4502 55.5523 31.6246 54.6154 31.9519ZM56.7792 35.8641C57.5025 35.1506 58.1787 34.3843 58.7686 33.5532C59.8408 33.6728 60.8521 34.0707 61.838 34.494C61.1892 35.3114 60.611 36.2933 59.6506 36.7755C59.0822 36.6108 58.555 36.3384 58.0121 36.1071C57.6024 36.0228 57.1889 35.9425 56.7773 35.8641H56.7792ZM57.4652 44.8566C57.8886 45.3701 57.8847 46.1404 58.1532 46.746C58.1924 47.1596 58.2277 47.5731 58.263 47.9867C57.1869 47.9377 56.1246 47.728 55.1289 47.3183C54.9898 46.3109 54.7644 45.3152 54.5017 44.3332C55.4543 44.6782 56.4735 44.7056 57.4652 44.8566ZM49.6625 49.6488C50.0819 48.7413 50.4857 47.8162 50.6895 46.8303C51.452 47.4986 52.2399 48.1396 53.0964 48.6844C52.9161 49.7448 52.579 50.7679 52.136 51.744C51.158 51.2462 50.4132 50.4249 49.6605 49.6468L49.6625 49.6488ZM54.3861 60.3249C52.7671 59.8015 51.3971 58.7 49.9878 57.769C50.8934 56.7185 51.8263 55.6875 52.6142 54.5448C53.9941 54.9839 55.3406 55.5229 56.744 55.8953C56.4598 57.5691 55.37 58.9881 54.3841 60.3249H54.3861ZM57.5789 54.1175C57.3261 54.0235 57.0752 53.9294 56.8263 53.8334C56.6185 53.7981 56.2089 53.7197 56.0011 53.6844C55.2073 53.3845 54.4155 53.0768 53.6589 52.6887C54.2646 51.6715 54.5801 50.5308 54.9133 49.4096C56.0403 49.7134 57.1948 49.9133 58.3649 49.9329C58.2492 51.352 57.9454 52.7436 57.5789 54.1175ZM58.8549 42.7692C58.2414 41.8911 57.5554 41.064 56.7734 40.327C57.7886 40.182 58.6961 39.6978 59.6624 39.3862C60.6169 39.9036 61.2265 40.8562 61.9184 41.6637C60.9521 42.1714 59.9113 42.5046 58.8549 42.7692ZM64.7133 54.6075C62.9709 54.6526 61.2206 54.7075 59.5017 54.3841C59.9094 52.9259 60.2328 51.4402 60.317 49.929C61.8066 49.8683 63.261 49.5194 64.7074 49.1882C64.8133 50.9914 64.827 52.8043 64.7133 54.6075ZM70.6776 44.0549C69.3232 45.0722 67.8532 45.9796 66.2245 46.4853C65.7325 45.1016 65.2072 43.7315 64.6055 42.3948C65.7678 41.4481 66.9281 40.4956 68.0296 39.4744C68.9998 40.9503 69.9583 42.4379 70.6756 44.0569L70.6776 44.0549ZM70.513 31.997C69.7505 33.516 69.039 35.0899 67.9454 36.405C66.8086 35.5466 65.8129 34.5078 64.6016 33.7434C65.1504 32.4027 65.6835 31.0542 66.1206 29.6724C67.6945 30.2212 69.1194 31.1072 70.5149 31.999L70.513 31.997Z" fill="#414244"/>
<path d="M48.5727 72.1713V67.9847C48.5727 67.9847 48.5531 68.0023 48.5433 68.0121C46.8342 66.1149 44.3391 64.9722 41.7813 64.9781C35.4525 64.9977 29.1217 65.0035 22.7928 64.9741C22.7615 60.2055 22.7732 55.4368 22.7634 50.6661C22.5655 46.3522 22.8477 42.0402 22.7889 37.7223C22.7889 32.395 22.7497 27.0619 22.8634 21.7346C25.3232 21.6895 27.781 21.7346 30.2408 21.6895C30.2546 23.6671 30.1546 25.6546 30.4016 27.6224C28.4847 28.4084 26.6795 29.4374 24.9508 30.5722C24.5274 30.9152 23.7807 31.221 24.1433 31.8913C25.0547 34.0297 26.2562 36.0426 27.6046 37.934C26.654 39.3177 25.7407 40.7231 24.9528 42.2087C24.6352 43.0555 24.2217 43.8591 23.8375 44.6744C25.7093 46.4071 28.0535 47.5007 30.3251 48.6062C29.9272 51.0817 30.0821 53.565 30.3506 56.0444C32.8476 56.65 35.4584 56.4227 38.0024 56.3384C39.1236 58.4297 40.1741 60.5994 41.7186 62.4222C42.0616 62.7907 42.5555 62.4908 42.9338 62.3713C44.9252 61.5147 46.7617 60.3642 48.5629 59.1686C48.5668 59.1725 48.5708 59.1745 48.5747 59.1784V56.5461C48.5551 56.5559 48.5316 56.5618 48.5041 56.5618C48.5002 56.5618 48.4982 56.5618 48.4943 56.5618C48.4924 56.5618 48.4904 56.5618 48.4884 56.5618C48.4884 56.5618 48.4884 56.5618 48.4845 56.5618C48.4845 56.5618 48.4845 56.5618 48.4826 56.5618C48.4767 56.5618 48.4728 56.5579 48.4669 56.5579C48.4473 56.5559 48.4296 56.552 48.414 56.5442C48.412 56.5442 48.4081 56.5442 48.4061 56.5422C48.4061 56.5422 48.4061 56.5422 48.4042 56.5422C48.3904 56.5383 48.3806 56.5305 48.3689 56.5246C48.3689 56.5246 48.365 56.5285 48.363 56.5305C47.3967 55.6681 46.6304 54.6116 45.8385 53.5944C46.7891 52.928 47.6809 52.1851 48.5531 51.4207C48.559 51.4266 48.5668 51.4325 48.5727 51.4384V47.0264C48.5472 47.1087 48.5257 47.1911 48.4982 47.2734C48.0141 46.0837 47.9788 44.7881 47.969 43.5219C48.12 42.8183 47.3164 42.6811 46.8871 42.3871C45.9463 43.6239 45.2819 45.0841 44.0471 46.0837L43.9432 45.7603C44.3881 44.4431 45.0898 43.2338 45.6386 41.9579C45.376 41.6403 45.08 41.3561 44.7919 41.0661C43.5159 41.7697 42.2047 42.4596 40.7562 42.7203C41.6618 41.5208 42.9828 40.7525 44.2529 39.9959C44.2078 39.7078 44.1098 39.1335 44.0628 38.8454C42.5418 38.7003 40.9444 38.7611 39.5195 38.1123C40.9346 37.6929 42.4085 37.5243 43.8844 37.5341C44.0196 37.1598 44.1431 36.7815 44.2568 36.4032C43.0318 35.4977 41.6167 34.8039 40.6955 33.5475C42.2262 33.7964 43.5943 34.5549 44.9114 35.3311C45.1604 35.0567 45.4152 34.7921 45.6347 34.4942C45.0016 33.0791 43.9844 31.7992 43.8844 30.19C45.1388 31.1328 45.9385 32.493 46.748 33.8062C47.2066 33.8552 47.8926 33.7376 47.9553 33.1829C47.9749 31.7796 47.9298 30.339 48.4943 29.0219C48.5237 29.0924 48.5453 29.1649 48.5727 29.2355V25.1607H48.4532C48.4434 25.1705 48.4336 25.1803 48.4238 25.1901L48.3924 25.1607C47.5927 24.4296 46.7891 23.6907 45.8836 23.0889C46.5284 21.8208 47.6182 20.8781 48.5708 19.851V17.2266C48.5708 17.2266 48.561 17.2344 48.5551 17.2383C47.1145 16.1309 45.5171 15.2548 43.9354 14.3728C45.2799 12.6911 46.8166 10.8507 48.4649 9.45126V6.99146C46.0345 8.67902 43.8864 11.1055 42.1812 13.5006C38.7433 11.9601 35.1114 10.8095 31.3933 10.2019C30.8661 13.3752 30.77 16.5955 30.2879 19.7726C27.099 19.8275 23.912 19.7726 20.7231 19.753C20.5839 35.5212 20.6388 51.2894 20.6094 67.0596C28.1064 67.1439 35.6014 66.9341 43.0984 67.0694C44.3097 67.5025 45.5837 67.9357 46.4853 68.902C47.4575 69.7663 47.9318 70.9972 48.3826 72.185C48.3826 72.1889 48.3865 72.1948 48.3885 72.1987C48.41 72.2536 48.4296 72.3085 48.4512 72.3633C48.461 72.3535 48.4669 72.3418 48.4747 72.332C48.4826 72.2967 48.5041 72.2673 48.5335 72.2457C48.5414 72.2222 48.5551 72.2007 48.5747 72.183L48.5727 72.1713ZM26.2679 44.0472C26.9853 42.4283 27.9457 40.9426 28.9139 39.4647C30.0154 40.4859 31.1758 41.4385 32.338 42.3851C31.7363 43.7238 31.211 45.0939 30.7191 46.4757C29.0903 45.9719 27.6203 45.0645 26.266 44.0453L26.2679 44.0472ZM33.369 35.4879C34.0021 36.413 34.7253 37.2754 35.5564 38.0281C34.7136 38.8042 33.9962 39.698 33.2984 40.6055C32.1518 39.9038 31.2071 38.9375 30.28 37.9791C31.2208 37.0422 32.2675 36.2209 33.369 35.4879ZM32.7751 28.9513C33.1946 28.8553 33.612 28.7533 34.0295 28.6475C34.935 28.5475 35.8288 28.377 36.7343 28.2947C36.9734 29.3257 37.0538 30.3958 37.3772 31.4091C36.2502 31.8188 35.1448 32.2853 34.0256 32.7184C33.5023 31.5013 33.0887 30.2371 32.7751 28.9513ZM37.238 44.6901C36.9499 45.7505 36.7343 46.8285 36.6108 47.9241C36.1738 47.8829 35.7386 47.8457 35.3016 47.8085C34.4392 47.6085 33.567 47.4439 32.7065 47.2303C33.026 45.9151 33.4396 44.6195 34.0256 43.3985C35.082 43.8669 36.1522 44.304 37.238 44.6901ZM32.2342 54.5999C32.1205 52.7967 32.1342 50.9837 32.24 49.1805C33.6885 49.5097 35.1408 49.8586 36.6304 49.9213C36.7147 51.4325 37.0381 52.9201 37.4438 54.3764C35.7249 54.6998 33.9727 54.6449 32.2322 54.5999H32.2342ZM46.9577 57.7594C45.5484 58.6904 44.1784 59.7919 42.5594 60.3152C41.5736 58.9765 40.4858 57.5595 40.2016 55.8856C41.6049 55.5132 42.9514 54.9742 44.3313 54.5352C45.1192 55.6798 46.0541 56.7108 46.9577 57.7594ZM46.256 46.8226C46.4598 47.8085 46.8636 48.7316 47.283 49.6411C46.5304 50.4192 45.7876 51.2404 44.8076 51.7383C44.3646 50.7622 44.0294 49.7391 43.8472 48.6787C44.7037 48.1319 45.4916 47.4929 46.254 46.8245L46.256 46.8226ZM40.9444 53.6747C40.7366 53.71 40.327 53.7884 40.1212 53.8237C39.8723 53.9197 39.6214 54.0138 39.3686 54.1079C39.004 52.7339 38.7002 51.3423 38.5826 49.9233C39.7527 49.9037 40.9052 49.7038 42.0342 49.4C42.3674 50.5211 42.6829 51.6618 43.2886 52.6791C42.532 53.0671 41.7402 53.3729 40.9464 53.6747H40.9444ZM42.4438 44.3236C42.1831 45.3055 41.9558 46.3012 41.8166 47.3087C40.8209 47.7183 39.7586 47.928 38.6826 47.977C38.7178 47.5635 38.7531 47.1499 38.7923 46.7363C39.0608 46.1287 39.0569 45.3604 39.4803 44.8469C40.472 44.694 41.4893 44.6685 42.4438 44.3236ZM40.1722 40.3173C39.3901 41.0543 38.7061 41.8814 38.0906 42.7595C37.0342 42.4949 35.9934 42.1617 35.0272 41.6541C35.719 40.8465 36.3286 39.892 37.2831 39.3765C38.2494 39.6862 39.1569 40.1723 40.1722 40.3173ZM38.9315 36.0975C38.3886 36.3307 37.8613 36.6012 37.2929 36.7658C36.3325 36.2837 35.7543 35.3017 35.1056 34.4844C36.0914 34.061 37.1028 33.6631 38.1749 33.5436C38.7668 34.3746 39.4411 35.139 40.1663 35.8544C39.7566 35.9328 39.3431 36.0132 38.9315 36.0975ZM39.4293 31.3895C39.1706 30.4076 39.0256 29.3982 38.9746 28.3849C39.8821 28.4907 40.7817 28.6651 41.6637 28.9121C41.8578 29.9293 42.0616 30.9446 42.3321 31.9423C41.3952 31.6149 40.423 31.4405 39.4313 31.3895H39.4293ZM41.9558 26.8913C40.9581 26.6561 39.9428 26.5072 38.9354 26.3033C39.0334 24.9568 39.2 23.6181 39.5038 22.301C40.7347 22.6754 41.9264 23.1517 43.1396 23.577C42.677 24.6569 42.289 25.7643 41.9577 26.8913H41.9558ZM47.2674 26.7914C46.893 27.6989 46.4853 28.5965 46.3148 29.5726C46.2286 29.5471 46.0502 29.4942 45.962 29.4687C45.2858 28.8572 44.592 28.2594 43.8609 27.7145C44.1235 26.6836 44.4822 25.6781 44.9565 24.7295C45.7582 25.3782 46.5304 26.0662 47.2674 26.7914ZM42.6535 16.0349C44.2431 16.5484 45.7836 17.4461 46.9636 18.6221C45.9287 19.6923 44.9271 20.7957 44.1039 22.0403C42.8789 21.3543 41.5167 20.9898 40.2114 20.5057C40.7288 18.8769 41.7068 17.4422 42.6535 16.0329V16.0349ZM33.271 12.5265C35.8954 13.1635 38.4572 14.0357 40.9444 15.0882C39.9134 16.6288 38.9962 18.2458 38.2494 19.9451C36.3149 19.851 34.3823 19.7197 32.4439 19.7648C32.632 17.3422 32.9123 14.9275 33.271 12.5265ZM32.24 21.7248C34.0295 21.6248 35.821 21.764 37.6065 21.8247C37.2674 23.2849 36.9774 24.7549 36.8304 26.2485C35.3153 26.3778 33.8218 26.6855 32.342 27.0266C32.1636 25.2665 32.1675 23.4927 32.2381 21.7248H32.24ZM32.3459 33.7317C31.1346 34.4981 30.1389 35.5349 29.0021 36.3934C27.9065 35.0783 27.195 33.5044 26.4326 31.9854C27.8281 31.0936 29.253 30.2077 30.8269 29.6589C31.264 31.0426 31.7971 32.3891 32.3459 33.7298V33.7317Z" fill="#414244"/>
<path d="M21.0896 79.8661C21.0896 80.1915 20.9798 80.4247 20.7623 80.5619C20.6153 80.654 20.3507 80.7344 19.9665 80.803C19.5432 80.8794 19.0865 80.9167 18.5945 80.9167C17.4303 80.9167 16.8482 80.5972 16.8482 79.9582C16.8482 79.7446 16.9305 79.5211 17.0932 79.2859C17.1245 79.2409 17.1578 79.2173 17.1892 79.2173C17.2206 79.2173 17.2382 79.2389 17.2382 79.2801C17.2382 79.3016 17.2323 79.3251 17.2206 79.3526C17.1559 79.4996 17.1245 79.6309 17.1245 79.7485C17.1245 80.1817 17.6792 80.3992 18.7886 80.3992C19.3276 80.3992 19.7901 80.3679 20.1743 80.3032C20.5996 80.2326 20.8113 80.1346 20.8113 80.0131C20.8113 79.9386 20.7094 79.7681 20.5075 79.4957L20.725 79.0782C20.7505 79.0292 20.778 79.0292 20.8074 79.0782C20.9955 79.3761 21.0896 79.6387 21.0896 79.8641V79.8661ZM18.8728 78.2961L18.5318 78.6313L18.1849 78.2903L18.5259 77.9492L18.8728 78.2961ZM19.6255 78.2942L19.2864 78.6313L18.9454 78.2903L19.2825 77.9492L19.6255 78.2922V78.2942Z" fill="#414244"/>
<path d="M22.8399 80.8579H22.54C22.2107 80.8579 21.9834 80.7226 21.8579 80.4541C21.7678 80.2659 21.7246 79.9837 21.7266 79.6093V78.7685C21.7286 78.3608 21.6952 77.7885 21.6266 77.0515L21.8991 76.7615C21.95 76.7085 21.9794 76.7125 21.9892 76.7713C22.052 77.1554 22.0814 77.7356 22.0814 78.5137V79.7995C22.0814 80.166 22.2578 80.3483 22.6086 80.3483H22.8399V80.8579Z" fill="#414244"/>
<path d="M25.0272 79.9797C25.0449 80.1973 25.0194 80.3815 24.9508 80.5305C24.845 80.7579 24.7274 80.8715 24.6 80.8715C24.3648 80.8715 24.0335 80.7206 23.6004 80.4207C23.4671 80.5815 23.375 80.6814 23.322 80.7226C23.2064 80.8127 23.0653 80.8578 22.8987 80.8578H22.6615V80.3482H22.9751C23.1731 80.3482 23.3456 80.2463 23.4945 80.0444C23.569 79.9386 23.7003 79.7504 23.8904 79.4819C24.0355 79.28 24.1825 79.1781 24.3354 79.1781C24.549 79.1781 24.7234 79.2859 24.8587 79.5015C24.9567 79.6603 25.0135 79.819 25.0272 79.9797ZM24.7646 80.3031C24.7646 80.1738 24.7156 80.0346 24.6196 79.8837C24.5118 79.7132 24.3942 79.6289 24.2648 79.6289C24.1354 79.6289 23.9806 79.7641 23.8022 80.0327C23.8767 80.113 24.01 80.1973 24.206 80.2855C24.402 80.3737 24.5529 80.4188 24.6607 80.4188C24.7293 80.4188 24.7646 80.3815 24.7646 80.3051V80.3031Z" fill="#414244"/>
<path d="M28.4631 80.8578H28.2671C28.1025 80.8578 27.9614 80.8049 27.8477 80.6991C27.7771 80.6324 27.6909 80.5148 27.589 80.3482C27.4831 80.5364 27.3596 80.6657 27.2205 80.7422C27.05 80.8363 26.8069 80.8833 26.4894 80.8833C25.872 80.8833 25.5623 80.6618 25.5623 80.2189C25.5623 80.0699 25.6074 79.9151 25.6995 79.7563C25.7289 79.7034 25.7583 79.6779 25.7897 79.6779C25.8171 79.6779 25.8308 79.7014 25.8308 79.7465C25.8308 79.772 25.8269 79.8092 25.821 79.8582C25.8152 79.9072 25.8112 79.9445 25.8112 79.9699C25.8112 80.2345 26.0347 80.3659 26.4835 80.3659C27.1146 80.3659 27.4302 80.2424 27.4302 79.9974C27.4302 79.8641 27.2479 79.3859 26.8834 78.5607L27.0794 78.2197C27.1048 78.1765 27.1225 78.153 27.1303 78.1511C27.144 78.1609 27.1617 78.1883 27.1813 78.2373C27.3283 78.5842 27.5302 79.1075 27.785 79.8092C27.9163 80.1679 28.1005 80.3463 28.3396 80.3463H28.4631V80.8598V80.8578Z" fill="#414244"/>
<path d="M31.9068 79.574L31.7148 79.919C31.3855 79.9151 31.1562 79.9366 31.0248 79.9837C30.8484 80.0503 30.5819 80.1719 30.2252 80.3502C29.8802 80.5227 29.6136 80.6423 29.4255 80.7089C29.1472 80.8089 28.8728 80.8579 28.5984 80.8579H28.2848V80.3483H28.616C29.0256 80.3483 29.3843 80.2796 29.694 80.1444L30.721 79.6956C30.5584 79.6583 30.2977 79.5741 29.939 79.4408C29.643 79.331 29.451 79.2742 29.3628 79.2742C29.1922 79.2742 29.0198 79.3487 28.8434 79.4976C28.8081 79.527 28.7787 79.5427 28.7512 79.5427C28.7218 79.5427 28.7062 79.5231 28.7062 79.4839C28.7062 79.4682 28.7101 79.4467 28.7199 79.4192C28.8649 78.9939 29.1119 78.7822 29.4608 78.7822C29.5842 78.7822 29.7528 78.8312 29.9664 78.9273C30.3251 79.088 30.5917 79.1977 30.7661 79.2585C31.068 79.3604 31.4247 79.4231 31.8402 79.4506C31.9147 79.4545 31.95 79.4643 31.95 79.478C31.95 79.4898 31.9343 79.5211 31.9049 79.574H31.9068ZM30.6564 77.565L30.2977 77.9237L29.939 77.5611L30.2977 77.2025L30.6564 77.565Z" fill="#414244"/>
<path d="M35.9386 80.6795C35.9386 81.3361 35.7132 81.8986 35.2604 82.367C35.1173 82.514 35.0272 82.5865 34.988 82.5865C34.7371 82.5865 34.4509 82.5611 34.1295 82.5101C34.0178 82.4925 33.9609 82.4748 33.9609 82.4591C33.9609 82.4415 34.0197 82.4141 34.1393 82.3807C34.496 82.2769 34.8272 82.0946 35.135 81.83C35.2643 81.7202 35.38 81.5909 35.4858 81.4399C35.6191 81.2537 35.6857 81.0969 35.6857 80.9715V80.8265L35.1095 80.848C34.7038 80.8617 34.4999 80.6932 34.4999 80.3423C34.4999 80.1248 34.5626 79.8896 34.69 79.6387C34.8351 79.3545 34.9997 79.2114 35.1859 79.2114C35.4623 79.2114 35.6661 79.4015 35.7994 79.7798C35.8915 80.0425 35.9366 80.3423 35.9366 80.6795H35.9386ZM35.621 80.3149C35.621 80.1718 35.572 80.0385 35.476 79.9111C35.3721 79.7739 35.2526 79.7053 35.1134 79.7053C35.0213 79.7053 34.9409 79.7406 34.8743 79.8092C34.8076 79.8778 34.7724 79.9582 34.7724 80.0503C34.7724 80.2522 34.9174 80.3541 35.2055 80.3541C35.3133 80.3541 35.4505 80.3423 35.6191 80.3169L35.621 80.3149Z" fill="#414244"/>
<path d="M42.1576 80.8579H41.1522C41.0287 80.8579 40.9091 80.8775 40.7935 80.9167C40.6347 80.9696 40.5563 81.0441 40.5563 81.1401C40.5563 81.1636 40.768 81.2224 41.1914 81.3165C41.6147 81.4106 41.8264 81.5027 41.8264 81.5948C41.8264 81.9418 41.7264 82.1985 41.5265 82.369C41.1894 82.6572 40.5936 82.8022 39.741 82.8022C38.712 82.8022 38.1965 82.422 38.1965 81.6615C38.1965 81.489 38.2337 81.2989 38.3062 81.0872C38.3788 80.8755 38.4689 80.703 38.5748 80.5658C38.6159 80.511 38.6532 80.4816 38.6884 80.4796C38.7237 80.4776 38.7394 80.4953 38.7394 80.5345C38.7394 80.5698 38.7257 80.6129 38.6982 80.6658C38.565 80.9186 38.4983 81.1793 38.4983 81.4518C38.4983 81.7536 38.6414 81.9751 38.9256 82.1201C39.1432 82.2299 39.4215 82.2848 39.7566 82.2848C40.1134 82.2848 40.4387 82.2671 40.7347 82.2299C41.2678 82.1632 41.5344 82.0496 41.5344 81.8888C41.5344 81.8222 41.4187 81.7693 41.1855 81.7301C40.815 81.6674 40.6014 81.6282 40.5446 81.6125C40.3133 81.5478 40.1957 81.4498 40.1957 81.3165C40.1957 81.2107 40.2525 81.0794 40.3642 80.9206C40.4583 80.7893 40.5563 80.6815 40.6602 80.5972C40.866 80.4286 41.16 80.3463 41.5422 80.3463H42.1518V80.8598L42.1576 80.8579Z" fill="#414244"/>
<path d="M45.1858 80.8578H44.8683C44.641 80.8578 44.4077 80.7344 44.1686 80.4854C44.051 80.3639 43.8805 80.1366 43.6551 79.8073C43.6786 80.507 43.2846 80.8578 42.4732 80.8578H41.9734V80.3482H42.5359C43.1278 80.3482 43.4258 80.1836 43.4258 79.8543C43.4258 79.6799 43.3219 79.4662 43.1161 79.2134C42.9848 79.0546 42.7946 78.8586 42.5438 78.6234C42.338 78.4294 42.2341 78.3236 42.2341 78.302C42.2341 78.008 42.2831 77.7944 42.383 77.6611C42.4046 77.6317 42.6927 77.5141 43.2474 77.3102C43.8315 77.0946 44.3587 76.9143 44.8291 76.7712C44.8291 76.8359 44.7899 76.9966 44.7154 77.2573C44.1568 77.4416 43.4395 77.7003 42.5594 78.0335C42.9691 78.3941 43.4689 78.9606 44.0628 79.7328C44.2725 80.0052 44.441 80.1797 44.5724 80.2581C44.6743 80.3188 44.8193 80.3482 45.0094 80.3482H45.1878V80.8578H45.1858Z" fill="#414244"/>
<path d="M48.6648 79.9151C48.6648 80.1777 48.6041 80.3933 48.4826 80.5638C48.3454 80.7598 48.1513 80.8578 47.9004 80.8578C47.6064 80.8578 47.3948 80.7363 47.2674 80.4933C47.1047 80.7363 46.8969 80.8578 46.648 80.8578C46.3266 80.8578 46.111 80.7363 46.0032 80.4933C45.8346 80.7363 45.6072 80.8578 45.3172 80.8578H45.0114V80.3482H45.3622C45.6817 80.3482 45.8699 80.1758 45.9267 79.8288C45.9404 79.7426 45.9679 79.7014 46.009 79.7014C46.0463 79.7014 46.0678 79.7446 46.0776 79.8328C46.1129 80.1758 46.2972 80.3482 46.6323 80.3482C46.8303 80.3482 46.9694 80.2973 47.0518 80.1934C47.1086 80.1209 47.1498 79.9994 47.1752 79.8249C47.187 79.7406 47.2105 79.6995 47.2478 79.6995C47.287 79.6995 47.3124 79.7406 47.3242 79.821C47.3693 80.1718 47.5476 80.3463 47.8554 80.3463C48.1905 80.3463 48.3591 80.2659 48.3591 80.1072C48.3591 79.9798 48.2768 79.8132 48.1102 79.6034L48.3101 79.2271C48.3414 79.1683 48.365 79.137 48.3787 79.137C48.3924 79.137 48.4179 79.1703 48.4551 79.2369C48.5943 79.4917 48.6648 79.7171 48.6648 79.9131V79.9151ZM47.1752 78.304L46.8518 78.6293L46.5265 78.302L46.8499 77.9825L47.1752 78.304ZM47.5653 77.6199L47.2419 77.9433L46.9185 77.614L47.2399 77.2926L47.5672 77.6199H47.5653ZM47.9632 78.3059L47.6358 78.6313L47.3124 78.302L47.6358 77.9825L47.9632 78.3079V78.3059Z" fill="#414244"/>
<path d="M51.4245 80.8579H51.2403C51.0815 80.8579 50.962 80.8285 50.8796 80.7716V80.9088C50.8796 81.3224 50.7444 81.7203 50.4759 82.1044C50.2446 82.4357 50.0545 82.6003 49.9075 82.6003C49.5723 82.6003 49.2822 82.5827 49.0392 82.5494C48.9588 82.5376 48.9177 82.518 48.9177 82.4906C48.9177 82.4631 48.9588 82.4416 49.0412 82.4259C49.3861 82.3553 49.733 82.173 50.0819 81.879C50.4543 81.5635 50.6405 81.2616 50.6405 80.9735C50.6405 80.7814 50.4857 80.5345 50.178 80.2366L50.3818 79.823C50.3975 79.7877 50.4112 79.7701 50.423 79.7681C50.4367 79.772 50.4563 79.7916 50.4818 79.8269C50.617 80.0072 50.7209 80.1268 50.7954 80.1876C50.9326 80.2954 51.0972 80.3502 51.2854 80.3502H51.4226V80.8598L51.4245 80.8579ZM50.5798 78.5294L50.225 78.8861L49.8644 78.5255L50.2211 78.1707L50.5798 78.5294Z" fill="#414244"/>
<path d="M52.4829 79.9817C52.4829 80.5658 52.1928 80.8579 51.6107 80.8579H51.2481V80.3483H51.548C51.987 80.3483 52.2066 80.2679 52.2066 80.1091C52.2066 79.9994 52.1066 79.8152 51.9067 79.5604L52.085 79.1252C52.1027 79.0821 52.1184 79.0605 52.1301 79.0605C52.1419 79.0605 52.1654 79.086 52.2026 79.1409C52.3888 79.4153 52.481 79.6956 52.481 79.9837L52.4829 79.9817ZM51.4304 81.7222L51.7577 81.4027L52.0811 81.7281L51.7577 82.0476L51.4304 81.7222ZM51.8302 82.4121L52.1556 82.0946L52.479 82.418L52.1536 82.7355L51.8302 82.4121ZM52.2164 81.7222L52.5398 81.4027L52.8671 81.7281L52.5437 82.0476L52.2164 81.7222Z" fill="#414244"/>
<path d="M57.4574 79.9837C57.4574 80.0582 57.4123 80.1738 57.3202 80.3345C57.2222 80.5051 57.1418 80.5893 57.0791 80.5893C56.9596 80.5893 56.7812 80.5678 56.546 80.5227C56.3108 80.4776 56.1305 80.4561 56.0129 80.4561C55.7777 80.4561 55.6091 80.4796 55.5072 80.5286C55.5836 81.291 55.6209 81.8477 55.6209 82.2005C55.6209 82.3573 55.5621 82.5493 55.4445 82.7767C55.419 82.8277 55.4014 82.8531 55.3896 82.8551C55.3778 82.8551 55.372 82.8335 55.368 82.7904C55.323 82.0946 55.2583 81.3831 55.1779 80.654C55.1681 80.5717 55.2112 80.4639 55.3053 80.3345C55.3818 80.2287 55.4504 80.1542 55.5111 80.1111C55.6052 80.0445 55.715 80.0111 55.8424 80.0111C55.811 79.8877 55.7934 79.7877 55.7934 79.7113C55.7934 79.5662 55.8502 79.4114 55.9619 79.2467C56.0932 79.0566 56.2422 78.9606 56.4108 78.9606C56.6126 78.9606 56.838 79.0821 57.087 79.3232C57.3359 79.5643 57.4594 79.7857 57.4594 79.9857L57.4574 79.9837ZM57.1066 80.1327C57.0478 79.9817 56.9419 79.8328 56.789 79.6877C56.6185 79.527 56.4617 79.4467 56.3167 79.4467C56.1148 79.4467 56.0129 79.5231 56.0129 79.674C56.0129 79.7583 56.0364 79.87 56.0815 80.0092C56.3755 80.0092 56.7165 80.0503 57.1046 80.1327H57.1066Z" fill="#414244"/>
<path d="M60.2034 80.8578H59.7251C59.684 81.4556 59.4527 81.9652 59.0332 82.3886C58.9 82.5219 58.8157 82.5885 58.7824 82.5885C58.5413 82.5885 58.2551 82.563 57.9239 82.5121C57.8161 82.4964 57.7612 82.4787 57.7612 82.4611C57.7612 82.4435 57.818 82.416 57.9337 82.3827C58.2963 82.2769 58.6275 82.0946 58.9294 81.8319C59.0587 81.7202 59.1744 81.5909 59.2802 81.4439C59.4135 81.2577 59.4801 81.1028 59.4801 80.9754V80.8578H58.9294C58.506 80.8578 58.2963 80.6853 58.2963 80.3443C58.2963 80.1248 58.359 79.8915 58.4864 79.6407C58.6314 79.3545 58.798 79.2134 58.9842 79.2134C59.2136 79.2134 59.3958 79.3545 59.535 79.6348C59.6369 79.8406 59.6996 80.0777 59.7251 80.3502H60.2034V80.8598V80.8578ZM59.4135 80.3404C59.4135 80.2071 59.3664 80.0719 59.2724 79.9347C59.1665 79.7798 59.045 79.7034 58.9078 79.7034C58.8176 79.7034 58.7373 79.7387 58.6667 79.8112C58.5962 79.8837 58.5609 79.9641 58.5609 80.0542C58.5609 80.2541 58.7314 80.3541 59.0744 80.3541C59.1646 80.3541 59.2782 80.3502 59.4154 80.3404H59.4135Z" fill="#414244"/>
<path d="M61.8302 80.8578H61.6518C61.2696 80.8578 61.007 80.7167 60.8619 80.4345C60.8227 80.5619 60.7326 80.6657 60.5934 80.7461C60.468 80.8206 60.3327 80.8578 60.1896 80.8578H60.0211V80.3482H60.1975C60.562 80.3482 60.7443 80.1953 60.7443 79.8896V78.3627C60.7443 77.7806 60.7326 77.3357 60.7071 77.0241L61.0834 76.7065V79.6759C61.0834 80.1248 61.2735 80.3482 61.6557 80.3482H61.8321V80.8578H61.8302Z" fill="#414244"/>
<path d="M64.1586 79.9974L64.0214 80.409L62.82 80.7265C62.4887 80.8147 62.181 80.8578 61.8929 80.8578H61.6557V80.3482H62.0242C62.0928 80.3482 62.2045 80.3365 62.3594 80.313C62.1026 80.1111 61.9732 79.9112 61.9732 79.7132C61.9732 79.5388 62.0791 79.3153 62.2927 79.0468C62.5416 78.7371 62.8043 78.5803 63.0826 78.5803C63.3609 78.5803 63.6079 78.7175 63.796 78.9939C63.8588 79.086 63.8882 79.1448 63.8882 79.1703C63.8882 79.1879 63.8725 79.1977 63.8431 79.1977C63.8058 79.1977 63.7392 79.186 63.6432 79.1605C63.4236 79.1036 63.2374 79.0742 63.0846 79.0742C62.9552 79.0742 62.8082 79.1154 62.6396 79.1958C62.4476 79.2879 62.3496 79.3918 62.3496 79.5054C62.3496 79.5995 62.426 79.721 62.5769 79.868C62.7631 80.0464 62.9689 80.1366 63.1943 80.1366C63.2649 80.1366 63.5706 80.0621 64.1077 79.917C64.1488 79.9053 64.1724 79.8994 64.1763 79.8994C64.1782 79.9072 64.1822 79.9131 64.1861 79.921C64.1822 79.9308 64.1724 79.9562 64.1586 80.0013V79.9974Z" fill="#414244"/>
<path d="M68.1002 79.9288C68.1002 80.2306 68.0081 80.4639 67.8219 80.6325C67.6435 80.7912 67.4024 80.8696 67.0986 80.8696C66.9124 80.8696 66.7556 80.8128 66.6302 80.7011C66.4969 80.5835 66.4303 80.4325 66.4303 80.2503C66.4303 80.0464 66.5185 79.7916 66.6929 79.4898C66.8438 79.2271 67.0124 79.0057 67.1966 78.8214C67.8003 79.137 68.1022 79.5055 68.1022 79.9308L68.1002 79.9288ZM67.8493 80.1072C67.8493 79.9857 67.7513 79.8328 67.5573 79.6485C67.3828 79.4859 67.228 79.3781 67.0928 79.3291C66.8634 79.6211 66.7498 79.8543 66.7498 80.0288C66.7498 80.1327 66.8027 80.2169 66.9105 80.2797C67.0026 80.3345 67.1026 80.362 67.2123 80.362C67.4024 80.362 67.5632 80.3267 67.6925 80.2561C67.7964 80.2013 67.8474 80.1523 67.8474 80.1072H67.8493Z" fill="#414244"/>
<path d="M69.8505 80.8579H69.5506C69.2213 80.8579 68.994 80.7226 68.8685 80.4541C68.7784 80.2659 68.7352 79.9837 68.7372 79.6093V78.7685C68.7392 78.3608 68.7058 77.7885 68.6372 77.0515L68.9097 76.7615C68.9606 76.7085 68.99 76.7125 68.9998 76.7713C69.0626 77.1554 69.092 77.7356 69.092 78.5137V79.7995C69.092 80.166 69.2684 80.3483 69.6192 80.3483H69.8505V80.8579Z" fill="#414244"/>
<path d="M72.8316 80.8579H72.5768C72.3456 80.8579 72.1123 80.754 71.8771 80.5462C71.7144 80.4012 71.5204 80.1699 71.295 79.8543C71.2558 80.5227 70.7972 80.8579 69.9171 80.8579H69.6682V80.3483H69.8466C70.6619 80.3483 71.0696 80.1836 71.0696 79.8543C71.0696 79.6035 70.8775 79.2977 70.4914 78.9331C70.3268 78.7763 70.1327 78.6215 69.9132 78.4667C69.9132 78.2785 69.9583 78.1374 70.0504 78.0413C70.0876 78.0041 70.8952 77.7454 72.4769 77.2652C72.473 77.322 72.424 77.4808 72.3318 77.7395C71.9457 77.8414 71.295 78.0374 70.3758 78.3295C70.8344 78.8077 71.2362 79.2467 71.5792 79.6446C71.7791 79.8779 71.934 80.0366 72.0437 80.1209C72.2358 80.2699 72.4396 80.3443 72.6533 80.3443H72.8316V80.8539V80.8579ZM72.3808 76.6105L72.2907 76.9398L70.1308 77.6337L70.2248 77.3103L72.3808 76.6105Z" fill="#414244"/>
<path d="M76.9006 80.8578H76.6556C76.3596 80.8578 76.1519 80.7363 76.0323 80.4933C75.9265 80.7363 75.7305 80.8578 75.4463 80.8578C75.1974 80.8578 75.0072 80.7363 74.874 80.4933C74.7505 80.7363 74.5545 80.8578 74.2879 80.8578C73.9665 80.8578 73.7509 80.7363 73.6431 80.4933C73.4745 80.7363 73.2472 80.8578 72.9571 80.8578H72.6513V80.3482H73.0022C73.3216 80.3482 73.5098 80.1758 73.5666 79.8288C73.5804 79.7426 73.6078 79.7014 73.649 79.7014C73.6862 79.7014 73.7078 79.7446 73.7176 79.8328C73.7528 80.1758 73.9371 80.3482 74.2722 80.3482C74.6074 80.3482 74.7799 80.1758 74.8171 79.8328C74.8269 79.7446 74.8485 79.7014 74.8857 79.7014C74.9269 79.7014 74.9543 79.7446 74.9641 79.8288C75.0092 80.1758 75.164 80.3482 75.4267 80.3482C75.752 80.3482 75.9343 80.1758 75.9716 79.8328C75.9814 79.7446 76.0029 79.7014 76.0402 79.7014C76.0813 79.7014 76.1088 79.7446 76.1186 79.8288C76.1617 80.1758 76.3361 80.3482 76.6419 80.3482H76.8967V80.8578H76.9006ZM74.8465 78.6391L74.529 78.9586L74.1997 78.6352L74.5231 78.3157L74.8465 78.6391ZM75.2326 77.9472L74.9151 78.2726L74.5878 77.9453L74.9112 77.6258L75.2326 77.9472ZM75.6305 78.6372L75.3071 78.9606L74.9837 78.6352L75.3052 78.3138L75.6305 78.6352V78.6372Z" fill="#414244"/>
<path d="M77.9551 79.9817C77.9551 80.5658 77.665 80.8578 77.0829 80.8578H76.7203V80.3482H77.0202C77.4592 80.3482 77.6787 80.2679 77.6787 80.1091C77.6787 79.9993 77.5788 79.8151 77.3788 79.5603L77.5572 79.1252C77.5748 79.0821 77.5905 79.0605 77.6023 79.0605C77.614 79.0605 77.6376 79.086 77.6748 79.1409C77.861 79.4153 77.9531 79.6955 77.9531 79.9837L77.9551 79.9817ZM77.9218 77.9727L77.5631 78.3314L77.2044 77.9688L77.5631 77.6101L77.9218 77.9727Z" fill="#414244"/>
<path d="M78.9841 80.311C78.9841 80.4894 78.9468 80.654 78.8743 80.803C78.8312 80.8931 78.7998 80.9382 78.7842 80.9382C78.7665 80.9382 78.7567 80.8814 78.7567 80.7697C78.7567 80.2601 78.6666 79.0155 78.4882 77.0359L78.8528 76.6948C78.8841 76.6654 78.9076 76.6497 78.9174 76.6458C78.9292 76.6458 78.9351 76.6713 78.939 76.7223C78.9684 77.3024 78.9841 78.5 78.9841 80.313V80.311Z" fill="#414244"/>
<path d="M81.6791 79.9367C81.6791 80.5501 81.2734 80.8579 80.46 80.8579C80.1562 80.8579 79.9347 80.8167 79.7955 80.7344C79.6132 80.6285 79.5231 80.4365 79.5231 80.1581C79.5231 80.0268 79.5584 79.8935 79.6289 79.7583C79.6603 79.6956 79.6916 79.6642 79.7191 79.6642C79.7544 79.6642 79.7661 79.7015 79.7563 79.7779C79.7485 79.8328 79.7465 79.8798 79.7465 79.917C79.7465 80.1013 79.8288 80.2267 79.9954 80.2914C80.0974 80.3306 80.26 80.3502 80.4854 80.3502C81.1283 80.3502 81.4498 80.2503 81.4498 80.0503C81.4498 79.7348 81.0734 79.3055 80.3228 78.7607L80.4541 78.3118C80.4678 78.2687 80.4796 78.2471 80.4913 78.2471C80.505 78.2471 80.5344 78.2648 80.5776 78.2981C81.3126 78.89 81.6791 79.4368 81.6791 79.9406V79.9367Z" fill="#414244"/>
<path d="M21.3111 89.325H20.3056C20.1821 89.325 20.0626 89.3446 19.9469 89.3838C19.7882 89.4368 19.7098 89.5112 19.7098 89.6073C19.7098 89.6308 19.9214 89.6896 20.3448 89.7837C20.7682 89.8778 20.9798 89.9699 20.9798 90.062C20.9798 90.4089 20.8799 90.6657 20.68 90.8362C20.3428 91.1243 19.747 91.2694 18.8944 91.2694C17.8654 91.2694 17.3499 90.8891 17.3499 90.1286C17.3499 89.9562 17.3872 89.766 17.4597 89.5544C17.5322 89.3427 17.6224 89.1702 17.7282 89.033C17.7694 88.9781 17.8066 88.9487 17.8419 88.9468C17.8772 88.9448 17.8928 88.9624 17.8928 89.0016C17.8928 89.0369 17.8791 89.08 17.8517 89.133C17.7184 89.3858 17.6518 89.6465 17.6518 89.9189C17.6518 90.2208 17.7948 90.4422 18.079 90.5873C18.2966 90.697 18.5749 90.7519 18.9101 90.7519C19.2668 90.7519 19.5922 90.7343 19.8881 90.697C20.4212 90.6304 20.6878 90.5167 20.6878 90.356C20.6878 90.2894 20.5722 90.2364 20.3389 90.1972C19.9685 90.1345 19.7548 90.0953 19.698 90.0796C19.4667 90.015 19.3491 89.917 19.3491 89.7837C19.3491 89.6778 19.406 89.5465 19.5177 89.3878C19.6118 89.2564 19.7098 89.1486 19.8136 89.0644C20.0194 88.8958 20.3134 88.8135 20.6956 88.8135H21.3052V89.327L21.3111 89.325Z" fill="#414244"/>
<path d="M23.4788 89.325H23.1417C22.736 89.325 22.4636 89.1898 22.3244 88.9213C22.1735 89.1898 21.8697 89.325 21.415 89.325H21.1288V88.8154H21.5208C21.95 88.8154 22.1852 88.6488 22.2244 88.3137C22.2401 88.1804 22.2734 88.1137 22.3244 88.1137C22.3754 88.1137 22.4067 88.1823 22.4204 88.3215C22.4498 88.6508 22.6733 88.8174 23.0888 88.8174H23.4788V89.327V89.325ZM21.9834 86.7613L21.6443 87.0985L21.3032 86.7574L21.6404 86.4164L21.9834 86.7594V86.7613ZM22.7399 86.7613L22.4008 87.1004L22.0559 86.7574L22.3969 86.4164L22.738 86.7613H22.7399Z" fill="#414244"/>
<path d="M27.5478 89.3251H27.3028C27.0068 89.3251 26.7991 89.2035 26.6795 88.9605C26.5737 89.2035 26.3777 89.3251 26.0935 89.3251C25.8446 89.3251 25.6544 89.2035 25.5212 88.9605C25.3977 89.2035 25.2017 89.3251 24.9351 89.3251C24.6137 89.3251 24.3981 89.2035 24.2903 88.9605C24.1217 89.2035 23.8944 89.3251 23.6043 89.3251H23.2985V88.8155H23.6494C23.9688 88.8155 24.157 88.643 24.2138 88.2961C24.2276 88.2098 24.255 88.1687 24.2962 88.1687C24.3334 88.1687 24.355 88.2118 24.3648 88.3C24.4 88.643 24.5843 88.8155 24.9194 88.8155C25.2546 88.8155 25.4271 88.643 25.4643 88.3C25.4741 88.2118 25.4957 88.1687 25.5329 88.1687C25.5741 88.1687 25.6015 88.2118 25.6113 88.2961C25.6564 88.643 25.8112 88.8155 26.0739 88.8155C26.3992 88.8155 26.5815 88.643 26.6188 88.3C26.6286 88.2118 26.6501 88.1687 26.6874 88.1687C26.7285 88.1687 26.756 88.2118 26.7658 88.2961C26.8089 88.643 26.9833 88.8155 27.2891 88.8155H27.5439V89.3251H27.5478ZM25.4937 87.1063L25.1762 87.4258L24.8469 87.1024L25.1703 86.7829L25.4937 87.1063ZM25.8798 86.4145L25.5623 86.7398L25.235 86.4125L25.5584 86.093L25.8798 86.4145ZM26.2777 87.1044L25.9543 87.4278L25.6309 87.1024L25.9524 86.781L26.2777 87.1024V87.1044Z" fill="#414244"/>
<path d="M30.2859 89.325H30.0586C29.8841 89.325 29.7195 89.3544 29.5666 89.4113C29.3275 89.5014 29.2079 89.6504 29.2079 89.8621C29.2079 90.1189 29.3843 90.358 29.7352 90.5775L29.5313 91.0381C29.1197 90.8911 28.7787 90.6853 28.5082 90.4226C28.177 90.1012 27.9986 89.7366 27.9712 89.325H27.3655V88.8155H27.9476C27.9476 88.4803 28.0378 88.1001 28.2201 87.6806C28.3906 87.2847 28.5258 87.0867 28.6258 87.0867C28.7258 87.0867 28.8492 87.2729 28.9884 87.6453C29.1119 87.9805 29.1746 88.2196 29.1746 88.3627C29.1746 88.986 28.8728 89.3015 28.2691 89.3094C28.3063 89.4995 28.3945 89.6818 28.5337 89.8562C28.6728 90.0307 28.8316 90.162 29.01 90.2482C29.0021 90.1855 29.0002 90.1247 29.0002 90.0659C29.0002 89.7562 29.0746 89.4936 29.2236 89.278C29.4372 88.9683 29.7293 88.8135 30.0978 88.8135H30.2879V89.3231L30.2859 89.325ZM28.9414 88.6136C28.9414 88.5254 28.8924 88.3647 28.7924 88.1275C28.6866 87.8786 28.6023 87.7531 28.5376 87.7531C28.4788 87.7531 28.4082 87.8609 28.3279 88.0785C28.2377 88.3196 28.1926 88.5646 28.1926 88.8135C28.6905 88.8135 28.9394 88.7469 28.9394 88.6116L28.9414 88.6136Z" fill="#414244"/>
<path d="M31.3404 88.4489C31.3404 89.033 31.0503 89.325 30.4682 89.325H30.1056V88.8154H30.4055C30.8445 88.8154 31.064 88.7351 31.064 88.5763C31.064 88.4666 30.9641 88.2823 30.7642 88.0275L30.9425 87.5924C30.9602 87.5493 30.9758 87.5277 30.9876 87.5277C30.9994 87.5277 31.0229 87.5532 31.0601 87.6081C31.2463 87.8825 31.3384 88.1627 31.3384 88.4509L31.3404 88.4489ZM31.1993 90.2933L30.8406 90.652L30.478 90.2893L30.8367 89.9307L31.1993 90.2933Z" fill="#414244"/>
<path d="M36.4991 89.325H36.3031C36.1385 89.325 35.9974 89.2721 35.8837 89.1663C35.8131 89.0996 35.7269 88.9821 35.625 88.8155C35.5191 89.0036 35.3956 89.133 35.2565 89.2094C35.086 89.3035 34.8429 89.3505 34.5254 89.3505C33.908 89.3505 33.5983 89.129 33.5983 88.6861C33.5983 88.5371 33.6434 88.3823 33.7355 88.2235C33.7649 88.1706 33.7943 88.1451 33.8257 88.1451C33.8531 88.1451 33.8668 88.1686 33.8668 88.2137C33.8668 88.2392 33.8629 88.2765 33.857 88.3255C33.8512 88.3745 33.8472 88.4117 33.8472 88.4372C33.8472 88.7018 34.0707 88.8331 34.5195 88.8331C35.1506 88.8331 35.4662 88.7096 35.4662 88.4646C35.4662 88.3313 35.2839 87.8531 34.9194 87.0279L35.1154 86.6869C35.1408 86.6438 35.1585 86.6202 35.1663 86.6183C35.18 86.6281 35.1977 86.6555 35.2173 86.7045C35.3643 87.0514 35.5662 87.5748 35.821 88.2765C35.9523 88.6351 36.1365 88.8135 36.3756 88.8135H36.4991V89.327V89.325Z" fill="#414244"/>
<path d="M38.6688 89.325H38.3317C37.926 89.325 37.6536 89.1898 37.5144 88.9213C37.3635 89.1898 37.0597 89.325 36.605 89.325H36.3188V88.8155H36.7108C37.14 88.8155 37.3752 88.6488 37.4144 88.3137C37.4301 88.1804 37.4634 88.1138 37.5144 88.1138C37.5654 88.1138 37.5967 88.1824 37.6104 88.3215C37.6398 88.6508 37.8633 88.8174 38.2788 88.8174H38.6688V89.327V89.325ZM37.2145 90.2933L36.8774 90.6343L36.5344 90.2913L36.8735 89.9483L37.2145 90.2953V90.2933ZM37.973 90.2933L37.632 90.6343L37.289 90.2913L37.63 89.9503L37.973 90.2933Z" fill="#414244"/>
<path d="M41.4109 89.325H41.1835C41.0091 89.325 40.8444 89.3544 40.6916 89.4113C40.4524 89.5014 40.3329 89.6504 40.3329 89.8621C40.3329 90.1189 40.5093 90.358 40.8601 90.5775L40.6563 91.0381C40.2447 90.8911 39.9036 90.6853 39.6332 90.4226C39.3019 90.1012 39.1236 89.7366 39.0961 89.325H38.4905V88.8155H39.0726C39.0726 88.4803 39.1628 88.1001 39.345 87.6806C39.5156 87.2847 39.6508 87.0867 39.7508 87.0867C39.8507 87.0867 39.9742 87.2729 40.1134 87.6453C40.2368 87.9805 40.2996 88.2196 40.2996 88.3627C40.2996 88.986 39.9977 89.3015 39.394 89.3094C39.4313 89.4995 39.5195 89.6818 39.6586 89.8562C39.7978 90.0307 39.9566 90.162 40.1349 90.2482C40.1271 90.1855 40.1251 90.1247 40.1251 90.0659C40.1251 89.7562 40.1996 89.4936 40.3486 89.278C40.5622 88.9683 40.8542 88.8135 41.2227 88.8135H41.4128V89.3231L41.4109 89.325ZM40.0663 88.6136C40.0663 88.5254 40.0173 88.3647 39.9174 88.1275C39.8115 87.8786 39.7272 87.7531 39.6626 87.7531C39.6038 87.7531 39.5332 87.8609 39.4528 88.0785C39.3627 88.3196 39.3176 88.5646 39.3176 88.8135C39.8154 88.8135 40.0644 88.7469 40.0644 88.6116L40.0663 88.6136Z" fill="#414244"/>
<path d="M44.8879 88.3823C44.8879 88.6449 44.8272 88.8605 44.7056 89.0311C44.5684 89.2271 44.3744 89.3251 44.1235 89.3251C43.8295 89.3251 43.6178 89.2036 43.4904 88.9605C43.3278 89.2036 43.12 89.3251 42.8711 89.3251C42.5496 89.3251 42.334 89.2036 42.2262 88.9605C42.0577 89.2036 41.8303 89.3251 41.5402 89.3251H41.2345V88.8155H41.5853C41.9048 88.8155 42.093 88.643 42.1498 88.2961C42.1635 88.2098 42.191 88.1687 42.2321 88.1687C42.2694 88.1687 42.2909 88.2118 42.3007 88.3C42.336 88.643 42.5202 88.8155 42.8554 88.8155C43.0534 88.8155 43.1925 88.7645 43.2748 88.6606C43.3317 88.5881 43.3728 88.4666 43.3983 88.2921C43.4101 88.2079 43.4336 88.1667 43.4708 88.1667C43.51 88.1667 43.5355 88.2079 43.5473 88.2882C43.5924 88.6391 43.7707 88.8135 44.0784 88.8135C44.4136 88.8135 44.5822 88.7332 44.5822 88.5744C44.5822 88.447 44.4998 88.2804 44.3332 88.0707L44.5332 87.6944C44.5645 87.6356 44.588 87.6042 44.6018 87.6042C44.6155 87.6042 44.641 87.6375 44.6782 87.7041C44.8174 87.9589 44.8879 88.1844 44.8879 88.3804V88.3823ZM43.3983 86.7712L43.0749 87.0965L42.7496 86.7692L43.073 86.4498L43.3983 86.7712ZM43.7884 86.0871L43.465 86.4105L43.1416 86.0813L43.463 85.7598L43.7903 86.0871H43.7884ZM44.1862 86.7731L43.8589 87.0985L43.5355 86.7692L43.8589 86.4498L44.1862 86.7751V86.7731Z" fill="#414244"/>
<path d="M51.1207 89.325H50.1152C49.9918 89.325 49.8722 89.3446 49.7566 89.3838C49.5978 89.4368 49.5194 89.5112 49.5194 89.6073C49.5194 89.6308 49.7311 89.6896 50.1544 89.7837C50.5778 89.8778 50.7895 89.9699 50.7895 90.062C50.7895 90.4089 50.6895 90.6657 50.4896 90.8362C50.1525 91.1243 49.5566 91.2694 48.706 91.2694C47.677 91.2694 47.1615 90.8891 47.1615 90.1286C47.1615 89.9562 47.1988 89.766 47.2713 89.5544C47.3438 89.3427 47.434 89.1702 47.5398 89.033C47.581 88.9781 47.6182 88.9487 47.6535 88.9468C47.6888 88.9448 47.7044 88.9624 47.7044 89.0016C47.7044 89.0369 47.6907 89.08 47.6633 89.133C47.53 89.3858 47.4634 89.6465 47.4634 89.9189C47.4634 90.2208 47.6064 90.4422 47.8906 90.5873C48.1082 90.697 48.3865 90.7519 48.7217 90.7519C49.0784 90.7519 49.4038 90.7343 49.6997 90.697C50.2328 90.6304 50.4994 90.5167 50.4994 90.356C50.4994 90.2894 50.3838 90.2364 50.1505 90.1972C49.7801 90.1345 49.5664 90.0953 49.5096 90.0796C49.2783 90.015 49.1627 89.917 49.1627 89.7837C49.1627 89.6778 49.2195 89.5465 49.3312 89.3878C49.4253 89.2564 49.5233 89.1486 49.6272 89.0644C49.833 88.8958 50.127 88.8135 50.5092 88.8135H51.1188V89.327L51.1207 89.325Z" fill="#414244"/>
<path d="M52.1752 88.4489C52.1752 89.033 51.8851 89.325 51.303 89.325H50.9404V88.8155H51.2403C51.6793 88.8155 51.8988 88.7351 51.8988 88.5763C51.8988 88.4666 51.7989 88.2823 51.599 88.0275L51.7773 87.5924C51.795 87.5493 51.8106 87.5277 51.8224 87.5277C51.8342 87.5277 51.8577 87.5532 51.8949 87.6081C52.0811 87.8825 52.1732 88.1628 52.1732 88.4509L52.1752 88.4489ZM52.1419 86.4399L51.7832 86.7986L51.4245 86.436L51.7832 86.0773L52.1419 86.4399Z" fill="#414244"/>
<path d="M53.9216 89.325H53.6217C53.2924 89.325 53.065 89.1898 52.9396 88.9213C52.8494 88.7331 52.8063 88.4509 52.8083 88.0765V87.2357C52.8102 86.828 52.7769 86.2557 52.7083 85.5187L52.9808 85.2286C53.0317 85.1757 53.0611 85.1796 53.0709 85.2384C53.1336 85.6226 53.163 86.2027 53.163 86.9809V88.2666C53.163 88.6331 53.3394 88.8154 53.6903 88.8154H53.9216V89.325Z" fill="#414244"/>
<path d="M56.1089 88.447C56.1266 88.6645 56.1011 88.8488 56.0325 88.9977C55.9266 89.2251 55.809 89.3388 55.6816 89.3388C55.4464 89.3388 55.1152 89.1878 54.682 88.888C54.5488 89.0487 54.4566 89.1486 54.4037 89.1898C54.2881 89.28 54.147 89.325 53.9804 89.325H53.7432V88.8154H54.0568C54.2548 88.8154 54.4272 88.7135 54.5762 88.5116C54.6507 88.4058 54.782 88.2176 54.9721 87.9491C55.1172 87.7472 55.2642 87.6453 55.417 87.6453C55.6307 87.6453 55.8051 87.7531 55.9404 87.9687C56.0384 88.1275 56.0952 88.2862 56.1089 88.447ZM55.8463 88.7704C55.8463 88.641 55.7973 88.5018 55.7012 88.3509C55.5934 88.1804 55.4758 88.0961 55.3465 88.0961C55.2171 88.0961 55.0623 88.2314 54.8839 88.4999C54.9584 88.5802 55.0917 88.6645 55.2877 88.7527C55.4837 88.8409 55.6346 88.886 55.7424 88.886C55.811 88.886 55.8463 88.8488 55.8463 88.7723V88.7704Z" fill="#414244"/>
<path d="M58.3316 89.3643C58.3316 89.7935 58.1944 90.1992 57.9219 90.5814C57.6867 90.9068 57.4927 91.0714 57.3359 91.0714C57.0007 91.0714 56.7106 91.0538 56.4676 91.0205C56.3872 91.0087 56.3461 90.9891 56.3461 90.9617C56.3461 90.9342 56.3872 90.9127 56.4696 90.897C56.8145 90.8264 57.1614 90.6441 57.5103 90.3501C57.8827 90.0346 58.0689 89.7327 58.0689 89.4446C58.0689 89.2525 57.9141 89.0056 57.6064 88.7077L57.8063 88.2902C57.8239 88.2529 57.8376 88.2333 57.8474 88.2314C57.8612 88.2353 57.8808 88.2549 57.9062 88.2863C58.0121 88.4156 58.1081 88.5861 58.1924 88.7998C58.2845 89.0252 58.3296 89.2153 58.3296 89.3682L58.3316 89.3643Z" fill="#414244"/>
<path d="M61.0266 88.4039C61.0266 89.0174 60.6208 89.3251 59.8074 89.3251C59.5036 89.3251 59.2822 89.2839 59.143 89.2016C58.9607 89.0957 58.8706 88.9037 58.8706 88.6254C58.8706 88.494 58.9058 88.3608 58.9764 88.2255C59.0078 88.1628 59.0391 88.1314 59.0666 88.1314C59.1018 88.1314 59.1136 88.1687 59.1038 88.2451C59.096 88.3 59.094 88.347 59.094 88.3843C59.094 88.5685 59.1763 88.694 59.3429 88.7586C59.4448 88.7978 59.6075 88.8174 59.8329 88.8174C60.4758 88.8174 60.7972 88.7175 60.7972 88.5176C60.7972 88.202 60.4209 87.7728 59.6702 87.2279L59.8016 86.779C59.8153 86.7359 59.827 86.7144 59.8388 86.7144C59.8525 86.7144 59.8819 86.732 59.925 86.7653C60.66 87.3572 61.0266 87.9041 61.0266 88.4078V88.4039Z" fill="#414244"/>
<path d="M67.2476 89.325H66.2421C66.1186 89.325 65.9991 89.3446 65.8834 89.3838C65.7247 89.4368 65.6463 89.5112 65.6463 89.6073C65.6463 89.6308 65.858 89.6896 66.2813 89.7837C66.7047 89.8778 66.9164 89.9699 66.9164 90.062C66.9164 90.4089 66.8164 90.6657 66.6165 90.8362C66.2794 91.1243 65.6835 91.2694 64.8309 91.2694C63.8019 91.2694 63.2864 90.8891 63.2864 90.1286C63.2864 89.9562 63.3237 89.766 63.3962 89.5544C63.4687 89.3427 63.5589 89.1702 63.6647 89.033C63.7059 88.9781 63.7431 88.9487 63.7784 88.9468C63.8137 88.9448 63.8294 88.9624 63.8294 89.0016C63.8294 89.0369 63.8156 89.08 63.7882 89.133C63.6549 89.3858 63.5883 89.6465 63.5883 89.9189C63.5883 90.2208 63.7314 90.4422 64.0156 90.5873C64.2331 90.697 64.5114 90.7519 64.8466 90.7519C65.2033 90.7519 65.5287 90.7343 65.8246 90.697C66.3578 90.6304 66.6243 90.5167 66.6243 90.356C66.6243 90.2894 66.5087 90.2364 66.2754 90.1972C65.905 90.1345 65.6914 90.0953 65.6345 90.0796C65.4032 90.015 65.2856 89.917 65.2856 89.7837C65.2856 89.6778 65.3425 89.5465 65.4542 89.3878C65.5483 89.2564 65.6463 89.1486 65.7502 89.0644C65.956 88.8958 66.25 88.8135 66.6322 88.8135H67.2417V89.327L67.2476 89.325Z" fill="#414244"/>
<path d="M69.4154 89.325H69.0782C68.6725 89.325 68.4001 89.1898 68.2609 88.9213C68.11 89.1898 67.8062 89.325 67.3515 89.325H67.0653V88.8154H67.4573C67.8866 88.8154 68.1218 88.6488 68.161 88.3137C68.1766 88.1804 68.21 88.1137 68.2609 88.1137C68.3119 88.1137 68.3432 88.1823 68.357 88.3215C68.3864 88.6508 68.6098 88.8174 69.0253 88.8174H69.4154V89.327V89.325ZM67.9199 86.7613L67.5808 87.0985L67.2398 86.7574L67.5769 86.4164L67.9199 86.7594V86.7613ZM68.6764 86.7613L68.3374 87.1004L67.9924 86.7574L68.3334 86.4164L68.6745 86.7613H68.6764Z" fill="#414244"/>
<path d="M72.8944 88.3823C72.8944 88.6449 72.8336 88.8605 72.7121 89.0311C72.5749 89.2271 72.3808 89.3251 72.13 89.3251C71.836 89.3251 71.6243 89.2036 71.4969 88.9605C71.3342 89.2036 71.1264 89.3251 70.8775 89.3251C70.5561 89.3251 70.3405 89.2036 70.2327 88.9605C70.0641 89.2036 69.8368 89.3251 69.5467 89.3251H69.2409V88.8155H69.5918C69.9112 88.8155 70.0994 88.643 70.1562 88.2961C70.17 88.2098 70.1974 88.1687 70.2386 88.1687C70.2758 88.1687 70.2974 88.2118 70.3072 88.3C70.3424 88.643 70.5267 88.8155 70.8618 88.8155C71.0598 88.8155 71.199 88.7645 71.2813 88.6606C71.3381 88.5881 71.3793 88.4666 71.4048 88.2921C71.4165 88.2079 71.44 88.1667 71.4773 88.1667C71.5165 88.1667 71.542 88.2079 71.5537 88.2882C71.5988 88.6391 71.7772 88.8135 72.0849 88.8135C72.42 88.8135 72.5886 88.7332 72.5886 88.5744C72.5886 88.447 72.5063 88.2804 72.3397 88.0707L72.5396 87.6944C72.571 87.6356 72.5945 87.6042 72.6082 87.6042C72.6219 87.6042 72.6474 87.6375 72.6846 87.7041C72.8238 87.9589 72.8944 88.1844 72.8944 88.3804V88.3823ZM71.4048 86.7712L71.0814 87.0965L70.756 86.7692L71.0794 86.4498L71.4048 86.7712ZM71.7948 86.0871L71.4714 86.4105L71.148 86.0813L71.4694 85.7598L71.7968 86.0871H71.7948ZM72.1927 86.7731L71.8654 87.0985L71.542 86.7692L71.8654 86.4498L72.1927 86.7751V86.7731Z" fill="#414244"/>
<path d="M73.943 88.7782C73.943 88.9566 73.9057 89.1212 73.8332 89.2702C73.7901 89.3604 73.7587 89.4054 73.743 89.4054C73.7254 89.4054 73.7156 89.3486 73.7156 89.2369C73.7156 88.7273 73.6254 87.4827 73.4471 85.5031L73.8116 85.162C73.843 85.1326 73.8665 85.117 73.8763 85.113C73.8881 85.113 73.894 85.1385 73.8979 85.1895C73.9273 85.7696 73.943 86.9672 73.943 88.7802V88.7782Z" fill="#414244"/>
<path d="M77.3847 89.325H77.1887C77.0241 89.325 76.883 89.2721 76.7693 89.1663C76.6987 89.0996 76.6125 88.9821 76.5106 88.8155C76.4047 89.0036 76.2812 89.133 76.1421 89.2094C75.9716 89.3035 75.7285 89.3505 75.411 89.3505C74.7936 89.3505 74.4839 89.129 74.4839 88.6861C74.4839 88.5371 74.529 88.3823 74.6211 88.2235C74.6505 88.1706 74.6799 88.1451 74.7113 88.1451C74.7387 88.1451 74.7524 88.1686 74.7524 88.2137C74.7524 88.2392 74.7485 88.2765 74.7426 88.3255C74.7368 88.3745 74.7328 88.4117 74.7328 88.4372C74.7328 88.7018 74.9563 88.8331 75.4051 88.8331C76.0362 88.8331 76.3518 88.7096 76.3518 88.4646C76.3518 88.3313 76.1695 87.8531 75.805 87.0279L76.001 86.6869C76.0264 86.6438 76.0441 86.6202 76.0519 86.6183C76.0656 86.6281 76.0833 86.6555 76.1029 86.7045C76.2499 87.0514 76.4518 87.5748 76.7066 88.2765C76.8379 88.6351 77.0221 88.8135 77.2612 88.8135H77.3847V89.327V89.325Z" fill="#414244"/>
<path d="M80.1268 89.325H79.8994C79.725 89.325 79.5603 89.3544 79.4074 89.4113C79.1683 89.5014 79.0488 89.6504 79.0488 89.8621C79.0488 90.1189 79.2252 90.358 79.576 90.5775L79.3722 91.0381C78.9606 90.8911 78.6195 90.6853 78.349 90.4226C78.0178 90.1012 77.8394 89.7366 77.812 89.325H77.2064V88.8155H77.7885C77.7885 88.4803 77.8786 88.1001 78.0609 87.6806C78.2314 87.2847 78.3667 87.0867 78.4666 87.0867C78.5666 87.0867 78.6901 87.2729 78.8292 87.6453C78.9527 87.9805 79.0154 88.2196 79.0154 88.3627C79.0154 88.986 78.7136 89.3015 78.1099 89.3094C78.1472 89.4995 78.2354 89.6818 78.3745 89.8562C78.5137 90.0307 78.6724 90.162 78.8508 90.2482C78.843 90.1855 78.841 90.1247 78.841 90.0659C78.841 89.7562 78.9155 89.4936 79.0644 89.278C79.2781 88.9683 79.5701 88.8135 79.9386 88.8135H80.1287V89.3231L80.1268 89.325ZM78.7822 88.6136C78.7822 88.5254 78.7332 88.3647 78.6332 88.1275C78.5274 87.8786 78.4431 87.7531 78.3784 87.7531C78.3196 87.7531 78.2491 87.8609 78.1687 88.0785C78.0786 88.3196 78.0335 88.5646 78.0335 88.8135C78.5313 88.8135 78.7802 88.7469 78.7802 88.6116L78.7822 88.6136Z" fill="#414244"/>
<path d="M81.1812 88.4489C81.1812 89.033 80.8912 89.325 80.309 89.325H79.9464V88.8154H80.2463C80.6854 88.8154 80.9049 88.7351 80.9049 88.5763C80.9049 88.4666 80.8049 88.2823 80.605 88.0275L80.7834 87.5924C80.801 87.5493 80.8167 87.5277 80.8284 87.5277C80.8402 87.5277 80.8637 87.5532 80.901 87.6081C81.0872 87.8825 81.1793 88.1627 81.1793 88.4509L81.1812 88.4489ZM81.0401 90.2933L80.6814 90.652L80.3188 90.2893L80.6775 89.9307L81.0401 90.2933Z" fill="#414244"/>
</svg>
