<svg width="65" height="82" viewBox="0 0 65 82" fill="none" xmlns="http://www.w3.org/2000/svg">
<g clip-path="url(#clip0_137_2674)">
<path d="M53.8576 27.5446C52.3224 28.8967 50.8496 30.1944 49.3224 31.5385C48.1054 30.3524 46.7015 29.0162 45.3453 27.6336C45.1319 27.4157 45.059 26.9867 45.0537 26.6533C45.0258 24.7168 45.0391 22.7803 45.0378 20.8437C45.0378 20.598 45.0378 20.3536 45.0378 20.0083C43.2971 20.0083 41.6069 19.9113 39.9325 20.0375C38.396 20.1531 37.3249 19.6829 36.2564 18.5366C32.5139 14.5214 28.6389 10.6284 24.8302 6.67434C24.4365 6.26525 24.0428 6.08195 23.4608 6.08328C17.9578 6.10453 12.4536 6.09656 6.95062 6.09656C6.6762 6.09656 6.40178 6.09656 6.03324 6.09656C6.016 6.48042 5.98949 6.80317 5.98949 7.1246C5.98684 12.4932 5.99744 17.8606 5.97491 23.2292C5.97226 23.8349 6.14327 24.2679 6.5887 24.677C7.54453 25.5562 8.45528 26.486 9.42171 27.4317C8.0695 28.8794 6.78623 30.2541 5.44198 31.6939C4.05398 30.4228 2.74685 29.1079 1.31245 27.9497C0.308899 27.1381 -0.00926671 26.2536 1.31315e-05 24.9771C0.0636463 17.0079 0.0318297 9.03856 0.0318297 1.06927C0.0318297 0.747843 0.0318297 0.426415 0.0318297 0.031935C0.481239 0.031935 0.80736 0.031935 1.13481 0.031935C9.27853 0.031935 17.4236 0.0452172 25.5673 0.0120118C26.4436 0.00802715 27.0534 0.247106 27.6619 0.885977C31.6575 5.08314 35.7009 9.23514 39.7071 13.4217C40.1314 13.8653 40.5543 14.0326 41.1574 14.0273C44.1588 14.0008 47.1615 14.0366 50.1629 13.9994C50.888 13.9901 51.1306 14.192 51.1213 14.9305C51.0856 17.9735 51.0856 21.0177 51.132 24.0607C51.1386 24.4937 51.3878 24.9944 51.6768 25.3358C52.2827 26.049 52.9892 26.6773 53.8589 27.5446H53.8576Z" fill="#414244"/>
<path d="M64.9099 64.7133H64.0654C55.6976 64.7133 47.3312 64.708 38.9634 64.7252C38.3867 64.7252 37.9864 64.5619 37.5887 64.1475C33.5002 59.8852 29.3853 55.6469 25.2995 51.382C24.8634 50.9264 24.4352 50.7139 23.7909 50.7219C20.8452 50.7551 17.8982 50.7378 14.9512 50.7378C14.6516 50.7378 14.352 50.7378 13.9715 50.7378C13.9529 50.334 13.9251 50.0126 13.9251 49.6912C13.9251 46.7027 13.9476 43.7142 13.9065 40.7257C13.9012 40.314 13.6732 39.8332 13.3975 39.5104C12.7558 38.7586 12.0227 38.0826 11.283 37.3334C12.6445 35.9189 14.0059 34.5044 15.435 33.0194C16.8999 34.4419 18.3569 35.8326 19.7727 37.2631C19.9437 37.4357 19.9331 37.8275 19.9344 38.1184C19.9464 40.3007 19.9411 42.4816 19.9411 44.7993C20.5827 44.7993 21.1554 44.7993 21.7281 44.7993C23.368 44.7993 25.0092 44.7728 26.6477 44.8219C27.011 44.8326 27.4577 45.0251 27.7109 45.2841C31.9015 49.5637 36.0628 53.8724 40.2507 58.1545C40.5118 58.4215 40.9427 58.6739 41.2966 58.6765C47.1589 58.7084 53.0224 58.6991 58.9602 58.6991C58.9814 58.4096 59.0132 58.1731 59.0132 57.9367C59.0145 52.4578 59.0039 46.9789 59.0238 41.4987C59.0264 40.9196 58.8422 40.5145 58.4286 40.1307C57.4767 39.2448 56.558 38.3243 55.5598 37.3534C56.9173 35.8977 58.2111 34.511 59.5448 33.0818C61.3119 34.7036 63.03 36.2695 64.7282 37.8581C64.882 38.0029 64.9708 38.2911 64.9708 38.5142C64.9801 47.1476 64.9748 55.781 64.9708 64.4144C64.9708 64.4689 64.9483 64.522 64.9059 64.7133H64.9099Z" fill="#414244"/>
<path d="M37.4667 9.40775C36.0005 8.05031 34.6403 6.79116 33.2139 5.46959C34.5038 4.07098 35.8202 2.76269 36.9895 1.33618C37.8194 0.322757 38.7341 -0.0106249 40.0465 7.90926e-07C47.9967 0.0650833 55.9482 0.0318779 63.8997 0.0318779C64.2271 0.0318779 64.5546 0.0318779 64.9868 0.0318779V0.99749C64.9868 9.32805 64.9801 17.6586 65 25.9879C65 26.5683 64.8118 26.9588 64.4008 27.3493C60.1573 31.3804 55.9376 35.4354 51.6887 39.4613C51.1691 39.954 50.9238 40.4428 50.9357 41.1786C50.9795 44.0556 50.9543 46.9351 50.9543 49.8134C50.9543 50.1122 50.9543 50.4111 50.9543 50.8241C49.7241 50.8241 48.5667 50.8202 47.4107 50.8241C45.2432 50.8334 43.0744 50.8175 40.9082 50.8866C40.4707 50.8998 39.9696 51.1575 39.6249 51.4497C38.8918 52.074 38.2436 52.7952 37.5078 53.5284C36.0522 52.1417 34.6311 50.7869 33.1489 49.3751C34.5582 47.9326 35.9329 46.4981 37.3501 45.1075C37.5449 44.9162 37.9559 44.883 38.2688 44.8804C40.4615 44.8618 42.6555 44.8711 44.9396 44.8711C44.9556 44.5164 44.9781 44.2229 44.9794 43.9294C44.9834 42.0752 45.0046 40.221 44.9675 38.3668C44.9556 37.7851 45.1557 37.4039 45.568 37.0094C49.7652 33.0101 53.9318 28.979 58.1369 24.9877C58.7321 24.4219 58.9522 23.8428 58.9482 23.0366C58.9164 17.7237 58.9323 12.4095 58.9297 7.09532C58.9297 6.74335 58.8992 6.3927 58.8793 5.96634C58.5253 5.96634 58.2522 5.96634 57.9792 5.96634C52.5584 5.96634 47.1363 5.97431 41.7156 5.95572C41.1402 5.95306 40.7253 6.11377 40.3302 6.53083C39.4195 7.49379 38.4636 8.41291 37.4694 9.40775H37.4667Z" fill="#414244"/>
<path d="M27.6539 11.2088C28.9399 12.6459 30.2496 14.1096 31.6217 15.6437C30.4193 16.867 29.034 18.2935 27.6168 19.6881C27.4538 19.8488 27.1078 19.8754 26.8466 19.8767C24.9018 19.8927 22.9557 19.8873 21.0096 19.8887C20.7365 19.8887 20.4634 19.8887 20.1094 19.8887C20.0895 20.246 20.0604 20.5395 20.059 20.8317C20.0551 22.6301 20.0286 24.4298 20.0723 26.2269C20.0882 26.895 19.8774 27.3493 19.3949 27.8075C15.1527 31.8373 10.9409 35.899 6.70138 39.9314C6.22015 40.3883 6.02925 40.8572 6.03058 41.52C6.03721 46.8594 6.00539 52.1988 5.99081 57.5396C5.99081 57.9194 6.02528 58.2993 6.04649 58.735C6.38454 58.7496 6.65498 58.7722 6.92542 58.7722C12.4005 58.7735 17.8756 58.7854 23.3507 58.7496C23.7869 58.7469 24.3119 58.5118 24.638 58.213C25.6164 57.3178 26.5152 56.3389 27.4896 55.3467C28.9531 56.6975 30.3332 57.9726 31.7874 59.3154C30.1515 61.0753 28.5461 62.8166 26.9142 64.5326C26.7724 64.6814 26.4595 64.7212 26.2262 64.7212C17.6662 64.7279 9.10618 64.7239 0.546193 64.7186C0.413624 64.7186 0.279729 64.684 0.0808756 64.6562C0.0636416 64.3347 0.031825 64.0385 0.031825 63.7437C0.0291737 55.4158 0.0358021 47.0879 0.0172424 38.7599C0.0172424 38.1769 0.214771 37.7903 0.627061 37.3999C4.94882 33.293 9.26129 29.1756 13.5486 25.0328C13.8402 24.7513 14.047 24.2399 14.0523 23.8308C14.0921 20.7879 14.0842 17.7449 14.0563 14.702C14.0497 14.0299 14.3188 13.8719 14.9445 13.8758C17.9737 13.9011 21.0029 13.8758 24.0321 13.8971C24.6035 13.9011 25.0224 13.7483 25.4201 13.326C26.0658 12.6419 26.7816 12.0243 27.6513 11.2075L27.6539 11.2088Z" fill="#414244"/>
<path d="M39.1795 31.0842C39.1583 33.3196 38.5485 35.3265 36.9139 36.9483C36.1424 37.7133 35.2409 37.9219 34.1724 37.8103C33.2736 37.716 32.3403 37.6748 31.4534 37.8116C29.8334 38.0627 28.741 37.2989 27.9337 36.0982C26.6239 34.1511 26.0339 31.9861 26.4887 29.6365C26.8546 27.7438 28.4944 26.3199 30.1781 26.4182C30.6619 26.4461 31.1273 26.7277 31.6138 26.7835C32.3336 26.8658 33.2232 27.1315 33.7667 26.83C36.6633 25.2241 39.4248 28.1861 39.1808 30.6698C39.1676 30.8066 39.1795 30.9461 39.1795 31.0842Z" fill="#414244"/>
<path d="M25.2836 35.6891C25.6972 35.8724 26.1572 35.9946 26.5112 36.2589C26.8333 36.498 27.0388 36.8925 27.2987 37.2166C27.8382 37.89 28.4719 38.3456 29.4012 38.3708C30.5135 38.4013 31.4335 38.8729 32.0831 39.8092C32.2673 40.0749 32.4821 40.3206 32.7154 40.6168C32.9567 40.3047 33.1688 40.0523 33.3584 39.7827C33.9748 38.9061 34.8418 38.4106 35.8878 38.3867C37.0253 38.3602 37.7292 37.7744 38.3443 36.9283C38.6161 36.5551 38.9528 36.1992 39.332 35.9428C39.56 35.7887 39.9272 35.8419 40.2334 35.8007C40.2918 35.8817 40.3501 35.9627 40.4084 36.0438C39.4446 37.3494 38.4822 38.6537 37.5184 39.9593C37.6125 40.0311 37.7067 40.1041 37.7995 40.1758C38.7699 38.9366 39.796 37.7346 40.6868 36.4409C41.1574 35.7569 40.8711 35.4447 39.7177 35.2707C39.8888 34.1683 40.0584 33.0686 40.2361 31.9223C41.469 32.4005 41.229 33.2824 41.3245 34.0714C41.4942 35.4806 41.4067 36.8208 40.5861 38.0321C40.248 38.5302 39.9285 39.0615 39.5017 39.4785C35.3655 43.5216 29.2951 43.3622 25.4878 39.0136C24.5492 37.9418 23.7842 36.6149 24.0613 35.0077C24.1409 34.5482 24.178 34.0621 24.1183 33.6025C24.0162 32.8308 24.3158 32.3553 25.1921 32.006C25.3658 33.1031 25.5328 34.1617 25.6999 35.2176C24.414 35.5284 24.2284 35.8777 24.9668 36.8872C25.794 38.0188 26.7458 39.0601 27.6447 40.14C27.7269 40.0789 27.8104 40.0191 27.8926 39.958C26.9381 38.6617 25.9836 37.3667 25.0291 36.0703C25.1152 35.9441 25.2001 35.818 25.2863 35.6918L25.2836 35.6891Z" fill="#414244"/>
<path d="M28.924 72.0756C29.0207 72.5285 29.2328 72.9934 29.1851 73.4304C29.1281 73.9564 28.6495 74.0254 28.1511 74.0082C27.9642 74.0015 27.7375 74.2393 27.5837 74.4119C27.2708 74.7626 27.0441 75.2049 26.6888 75.4944C26.4264 75.7083 25.9491 75.9155 25.68 75.8185C25.0264 75.5808 24.7083 75.8464 24.2708 76.2675C22.9013 77.5864 21.1236 77.9676 19.31 78.1482C18.3754 78.2412 17.4223 78.2186 16.481 78.1748C15.0957 78.1097 14.7337 77.6847 14.7921 76.298C14.8067 75.9434 14.8703 75.5914 14.9657 75.2036C15.276 76.1227 16.0038 76.3033 16.8204 76.3963C18.7413 76.6154 20.6424 76.5623 22.5209 76.0788C22.7356 76.0231 22.9477 75.9553 23.1585 75.8889C24.0467 75.6047 24.7613 74.995 25.8285 74.9964C27.2072 74.9964 27.6089 73.5951 28.2929 72.6587C28.4202 72.4847 28.5183 72.2894 28.631 72.1035L28.924 72.0743V72.0756Z" fill="#414244"/>
<path d="M30.5267 77.1746C31.2956 77.2131 32.0035 76.731 32.1414 75.8305C32.2713 74.987 32.2382 74.1197 32.3562 73.2736C32.4874 72.3319 32.7088 71.4035 32.8904 70.4698C32.9673 70.4817 33.0442 70.4937 33.1211 70.5057C33.0614 71.4208 32.9289 72.3386 32.9739 73.2484C32.9965 73.7066 33.2324 74.3641 33.5745 74.5394C33.9125 74.7134 34.5542 74.485 34.9784 74.2698C35.7566 73.8767 36.4724 73.3626 37.236 72.8845C36.9298 73.8992 36.3279 74.5926 35.2435 74.8795C34.9558 74.9552 34.6788 75.2275 34.4892 75.4798C33.9974 76.136 33.4393 76.4521 32.6372 75.9952C32.1122 76.8479 31.9518 78.0114 30.7627 78.1562C30.4246 78.1973 30.0349 77.8082 29.5908 77.5757C30.5174 76.5238 30.3464 75.3829 30.4671 74.295C30.5903 73.186 30.825 72.0902 31.0106 70.9878L31.4096 71.0515C31.1166 73.0811 30.8223 75.1119 30.5241 77.1746H30.5267Z" fill="#414244"/>
<path d="M1.30581 75.0535C1.09502 75.7229 0.831211 76.3817 0.684059 77.0657C0.381801 78.4789 1.1971 79.4499 2.64873 79.4778C4.68235 79.5176 6.27185 77.9384 6.33416 75.8903C6.36332 74.9512 6.52373 74.0175 6.73187 73.0944C7.2701 75.3204 6.48131 78.2372 5.00051 79.8683C4.3496 80.5855 3.56744 81.0942 2.57184 81.1765C1.1454 81.2948 0.221392 80.5164 0.116663 79.0952C0.00795589 77.609 0.535581 76.2927 1.30448 75.0521L1.30581 75.0535Z" fill="#414244"/>
<path d="M46.3184 75.5396C46.1659 76.1479 46.0148 76.6141 45.9352 77.0936C45.6781 78.629 46.6127 79.5999 48.1743 79.4459C50.3127 79.2347 51.5283 77.86 51.5959 75.7003C51.6251 74.7639 51.8226 73.8328 52.0533 72.915C52.3648 75.5117 51.8611 77.6754 50.6746 79.3343C50.0794 80.1658 49.3436 80.8153 48.3308 81.0915C46.7227 81.5312 45.5004 80.6864 45.344 79.0368C45.2525 78.0685 45.6476 76.5743 46.3184 75.5396Z" fill="#414244"/>
<path d="M36.1636 78.0977C36.7906 76.7881 37.3355 76.5291 38.7566 76.5716C39.1543 76.5835 39.6435 76.2833 39.9471 75.9832C40.3925 75.5409 40.6921 74.9565 41.0859 74.4571C41.6904 73.692 42.389 73.1089 43.4787 73.2338C43.6988 73.259 43.9467 73.0584 44.1455 72.9774C44.0806 73.9736 43.8367 74.125 42.731 74.1715C42.1835 74.1941 41.6479 74.4969 40.9626 74.7187C41.2768 75.0999 41.4584 75.2447 41.5339 75.432C41.6148 75.6312 41.6877 75.9287 41.5949 76.0775C41.473 76.2701 41.1362 76.5105 40.9745 76.4613C40.3382 76.2674 39.9643 76.5477 39.6369 77.0112C39.0788 77.8002 38.4013 78.2305 37.3646 77.9556C37.0253 77.8652 36.6156 78.0353 36.1636 78.0964V78.0977Z" fill="#414244"/>
<path d="M35.6651 22.4787C36.0641 24.4803 34.924 26.215 32.9063 26.6812C32.0725 24.835 33.7243 22.3193 35.6651 22.4787Z" fill="#414244"/>
<path d="M64.9642 74.6816C64.6646 75.7255 64.0084 76.3764 62.9425 76.6951C62.6138 76.7934 62.395 77.2118 62.0795 77.4124C61.707 77.6501 61.235 78.0234 60.8996 77.9437C60.5682 77.8653 60.1546 77.3141 60.1215 76.9395C59.9226 74.7241 60.2461 72.5631 61.1131 70.4871C60.9858 71.5908 60.8532 72.6946 60.7339 73.7996C60.6902 74.21 60.5854 74.6444 60.6716 75.0335C60.7763 75.5064 60.9381 76.0802 61.2801 76.3618C61.7693 76.7629 62.285 76.3976 62.7662 76.0483C63.4542 75.5489 64.2099 75.1438 64.9629 74.6829L64.9642 74.6816Z" fill="#414244"/>
<path d="M54.0776 70.3264C53.9225 72.0105 53.7528 73.534 53.6521 75.0628C53.6004 75.8464 53.7224 75.962 54.3985 76.2874C54.47 76.1439 54.5416 76.0005 54.6132 75.8584C54.6822 75.7202 54.7524 75.5808 54.8333 75.4174C55.3662 76.1572 55.1077 77.5226 54.3905 77.9065C53.8152 78.2146 53.3896 77.9423 53.1894 77.423C53.0356 77.0232 52.9521 76.5464 53.0091 76.128C53.2478 74.3548 53.5487 72.591 53.8364 70.8258C53.8562 70.7009 53.9504 70.5867 54.0776 70.3277V70.3264Z" fill="#414244"/>
<path d="M12.4589 74.8383C12.2123 75.764 11.9127 76.456 11.0669 76.9621C10.5207 77.2888 10.1628 78.022 9.86581 78.6423C9.31035 79.8031 8.78272 80.1684 7.22371 80.0927C7.74868 79.7128 8.20605 79.4591 8.56133 79.1045C9.05714 78.6104 9.59405 78.099 9.90028 77.4894C10.3126 76.6685 10.7593 75.9699 11.6277 75.5701C11.9114 75.4399 12.1182 75.1464 12.4589 74.8383Z" fill="#414244"/>
<path d="M20.1001 72.8885C20.3335 72.5644 20.523 72.3014 20.7086 72.0437C21.6857 72.5896 21.6976 73.0903 20.7617 73.9909C20.5337 73.8182 20.299 73.6415 20.0378 73.4436C19.8058 73.7412 19.5937 74.0134 19.3883 74.2778C18.3675 73.7451 18.3608 73.5804 19.3127 72.2854C19.5632 72.4767 19.8125 72.668 20.1001 72.8885Z" fill="#414244"/>
<path d="M40.8804 79.0634C41.8229 79.7142 41.8322 80.0755 40.9241 81.0331C40.6948 80.8724 40.4548 80.705 40.1791 80.5124C39.963 80.7781 39.7429 81.049 39.4672 81.3891C39.1928 81.1726 38.9422 80.976 38.6346 80.7343C38.8812 80.2574 39.1145 79.8058 39.3823 79.2865C39.6952 79.5296 39.9285 79.7102 40.2096 79.9294C40.4336 79.6398 40.6576 79.3503 40.8804 79.0647V79.0634Z" fill="#414244"/>
<path d="M11.6157 80.6585C11.8557 80.3318 12.0585 80.0542 12.2587 79.7792C13.196 80.3809 13.2052 80.8338 12.317 81.7211C12.085 81.563 11.8437 81.3983 11.6171 81.2429C11.165 81.3266 11.2021 82.4596 10.4611 81.7888C9.64443 81.049 10.6427 80.6386 10.7646 79.9413C11.1027 80.2255 11.3294 80.4155 11.6184 80.6585H11.6157Z" fill="#414244"/>
<path d="M9.03195 72.0504C8.76416 74.1078 9.28251 76.1877 8.12253 78.1136C7.98863 74.7387 8.19942 73.2936 9.03195 72.0504Z" fill="#414244"/>
<path d="M14.0775 72.0955C14.2419 75.2832 14.0006 76.9116 13.1177 78.1548C13.6003 76.0841 12.8871 74.0507 14.0775 72.0955Z" fill="#414244"/>
<path d="M55.3119 77.8586C57.0989 76.9741 58.0773 75.4652 58.65 73.6442C58.8554 76.0642 57.3534 77.9941 55.3119 77.8586Z" fill="#414244"/>
<path d="M48.9578 76.9063C47.8973 76.2555 47.892 75.9898 48.8717 74.7573C49.8911 75.3483 49.9296 75.9912 48.9578 76.9063Z" fill="#414244"/>
<path d="M3.6271 74.752C4.66776 75.3922 4.68897 76.0682 3.69471 76.8984C2.61824 76.2542 2.61162 76.0204 3.6271 74.752Z" fill="#414244"/>
<path d="M58.8409 71.1857C57.7525 70.6252 57.7299 70.4074 58.5996 69.2412C59.6416 69.6171 59.7025 70.0461 58.8409 71.1857Z" fill="#414244"/>
<path d="M43.3621 79.1948C44.3457 79.839 44.3683 80.1711 43.5331 81.1632C42.4168 80.6957 42.385 80.4075 43.3621 79.1948Z" fill="#414244"/>
</g>
<defs>
<clipPath id="clip0_137_2674">
<rect width="65" height="82" fill="white"/>
</clipPath>
</defs>
</svg>
