<?xml version="1.0" encoding="UTF-8"?>
<svg id="Layer_1" data-name="Layer 1" xmlns="http://www.w3.org/2000/svg" viewBox="0 0 141.73 141.73">
  <defs>
    <style>
      .cls-1 {
        fill: #424242;
        stroke-width: 0px;
      }
    </style>
  </defs>
  <path class="cls-1" d="m71.9,91.01c-8.13,0-16.26,0-24.4,0-.57,0-1.04-.06-1.33-.63-.36-.72-.07-1.39.73-1.52.26-.04.53-.02.79-.02,6.81,0,13.62,0,20.42,0,1.51,0,1.7-.18,1.7-1.68,0-4.58-.02-9.16.02-13.74,0-.74-.3-1-.93-1.1-.26-.04-.53-.05-.79-.05-4.48,0-8.95,0-13.43,0-1.23,0-1.35.12-1.35,1.37,0,.9,0,1.8,0,2.7-.01,1.05-.69,1.77-1.73,1.77-3.47.02-6.94.02-10.41,0-1.05,0-1.75-.7-1.76-1.75-.01-3.47-.01-6.94,0-10.4,0-1.03.73-1.73,1.77-1.74,3.44,0,6.89,0,10.33,0,1.08,0,1.79.71,1.8,1.78.01,1.01.03,2.01,0,3.02-.02.69.26.95.94.95,1.88-.02,3.76,0,5.64,0,8.4,0,16.79,0,25.19,0,.37,0,.79.07,1.1-.07.33-.15.75-.48.8-.79.41-2.19,1.76-3.82,3.54-4.81,2.04-1.14,4.29-1.67,6.75-.67,1.53.63,2.85,1.44,3.77,2.69.86,1.18,1.48,2.56,1.58,4.13.12,1.95-.25,3.81-1.4,5.3-.91,1.17-1.89,2.48-3.6,2.75-.82.13-1.62.44-2.44.59-1.56.29-3.03-.24-4.33-.92-1.01-.53-1.83-1.48-2.63-2.34-.71-.76-1.08-1.72-1.27-2.76-.04-.24-.35-.52-.6-.61-.39-.14-.83-.18-1.24-.18-3.79-.01-7.58,0-11.36,0-1.31,0-1.48.17-1.48,1.44,0,4.34,0,8.68,0,13.03,0,.13,0,.26,0,.4.05,1.58.17,1.71,1.73,1.71,7.34,0,14.68,0,22.01,0,.21,0,.43-.02.64,0,.55.07,1.08.25,1.13.89.05.64-.61,1.27-1.25,1.27-3.28,0-6.57,0-9.85,0-4.93,0-9.85,0-14.78,0Z"/>
  <path class="cls-1" d="m114.21,59.36c-8.16,0-16.32,0-24.48,0-.45,0-.89-.07-1.34-.12-.69-.07-1-.44-.99-1.16,0-.78.51-.91,1.08-1,.28-.05.58-.02.87-.02,7.52,0,15.05,0,22.57,0,1.21,0,1.25-.04,1.25-1.25,0-4.79,0-9.58,0-14.38,0-1-.09-1.09-1.08-1.1q-2.47-.02-2.47,2.4c0,.85.01,1.69,0,2.54-.02.97-.45,1.4-1.4,1.4-3.97,0-7.95,0-11.92,0-1.37,0-1.87-.51-1.87-1.85,0-3.81,0-7.63,0-11.44,0-.91.33-1.3,1.23-1.41.37-.05.74-.03,1.11-.03,3.81,0,7.63,0,11.44,0,1.07,0,1.4.34,1.4,1.43,0,1.24.02,2.49,0,3.73-.01.61.25.88.84.88,2.68,0,5.35.02,8.03,0,.23,0,.56-.14.66-.32.34-.62.62-1.27.88-1.92.79-2.04,2.33-3.2,4.35-3.88.95-.32,1.86-.69,2.9-.57,2.66.3,4.9,1.24,6.45,3.62,1.65,2.55,1.48,5.25.57,7.82-.61,1.73-2.05,3.08-3.94,3.77-.94.34-1.79.76-2.85.84-1.74.13-3.27-.44-4.68-1.23-1.18-.66-2.2-1.62-2.7-2.98-.3-.8-.61-1.61-.98-2.38-.1-.21-.44-.41-.67-.42-.68-.03-1.37.07-2.06.07-.64,0-.79.33-.78.91.02,2.25,0,4.5,0,6.75,0,2.62.02,5.24-.01,7.86,0,.65.16,1.01.87,1,.37,0,.73.09,1.1.09,7.21,0,14.41,0,21.62,0,1.04,0,1.38.26,1.39,1.06.02.87-.4,1.24-1.44,1.24-8.32,0-16.64,0-24.96,0Zm-7.19-20.08c0-1.32-.02-2.64.01-3.96.02-.6-.17-.88-.8-.88-2.72,0-5.45-.01-8.17-.02-.47,0-.73.18-.73.71.01,2.75,0,5.5,0,8.25,0,.55.24.85.8.85,2.64,0,5.29,0,7.93-.01.7,0,.98-.34.96-1.04-.04-1.29-.01-2.59-.01-3.89Z"/>
  <path class="cls-1" d="m27.37,59.4c-8.29,0-16.58-.02-24.87.02-1.14,0-1.46-.74-1.36-1.48.07-.52.35-.87.93-.88.21,0,.42,0,.64,0,7.13,0,14.25,0,21.38,0q2.01,0,2.01-1.98c0-4.34,0-8.68,0-13.03,0-1.41-.12-1.54-1.51-1.57-.58-.01-1.17,0-1.75.01-.79,0-1.13.42-1.13,1.19,0,.85,0,1.69,0,2.54,0,1.6-.36,1.95-1.97,1.95-3.21,0-6.41,0-9.62,0-1.59,0-1.86-.27-1.86-1.9,0-3.39,0-6.78,0-10.17,0-.34.06-.68.12-1.02.09-.56.43-.81,1-.81,3.71,0,7.42,0,11.13,0,.61,0,1,.3,1.04.86.1,1.16.13,2.32.15,3.48.02,1.34.04,1.39,1.37,1.4,2.17,0,4.34,0,6.52,0,1.22,0,1.35-.13,1.58-1.29.3-1.46,1.24-2.56,2.29-3.5,1.5-1.35,3.4-2.01,5.37-1.86,2.32.18,4.44,1,5.89,3.06,1.15,1.65,1.93,3.43,1.61,5.44-.36,2.23-1.15,4.21-3.2,5.64-1.29.9-2.75,1-4.07,1.6-.14.06-.32.07-.47.03-1.5-.34-3.1-.44-4.32-1.49-.93-.79-1.77-1.7-2.56-2.63-.3-.35-.38-.91-.52-1.39-.26-.93-1.47-1.51-2.31-1.05-.18.1-.33.33-.4.54-.08.24-.07.52-.08.79,0,4.71,0,9.42,0,14.14,0,.81.22,1,1.14,1.01,2.75,0,5.51,0,8.26,0,4.85,0,9.69,0,14.54,0,1.02,0,1.34.27,1.34,1.11,0,.89-.36,1.23-1.35,1.23-8.32,0-16.64,0-24.95,0Zm6.09-20.2c-.22,2.75,2.28,5.06,4.99,5.05,3.19-.01,5.27-2.34,5.24-5.03-.03-2.65-1.89-5.09-5.26-5.09-2.79,0-5.11,2.28-4.97,5.07Z"/>
  <path class="cls-1" d="m113.66,79.09c-4.16.12-7.93-3.51-7.87-7.98.06-4.98,4.01-8.12,8-8.01,4.24.11,7.84,3.08,7.86,7.99.02,4.43-3.35,8.08-7.99,8Z"/>
  <path class="cls-1" d="m35.56,71.22c.26,4.35-3.63,7.91-7.86,7.88-4.47-.03-7.9-3.36-7.95-7.92-.06-4.68,3.83-8.17,8.02-8.06,4.03.11,8.02,3.29,7.8,8.1Z"/>
  <path class="cls-1" d="m78.64,102.65c0,1.82,0,3.65,0,5.47,0,.83-.41,1.26-1.26,1.26-3.68.01-7.35.01-11.03,0-.83,0-1.27-.45-1.27-1.29-.01-3.65-.02-7.3,0-10.95,0-.97.4-1.32,1.37-1.32,3.62,0,7.25,0,10.87,0,.98,0,1.32.36,1.32,1.35,0,1.82,0,3.65,0,5.47Z"/>
  <path class="cls-1" d="m8.62,78.46c-2.07,0-4.13,0-6.2,0-.84,0-1.15-.29-1.15-1.13,0-4.16,0-8.31,0-12.47,0-1.01.32-1.29,1.34-1.29,3.95,0,7.89,0,11.84,0,1.55,0,2.02.48,2.02,2.04,0,3.73,0,7.47,0,11.2,0,1.25-.38,1.64-1.65,1.65-2.07.01-4.13,0-6.2,0Zm-4.55-7.37c0,1.22,0,2.43,0,3.65,0,.91.19,1.19,1.07,1.2,2.52.03,5.03.04,7.55,0,.93-.02,1.13-.31,1.14-1.24,0-2.41,0-4.82,0-7.23,0-.89-.29-1.25-1.14-1.26-2.52-.02-5.03-.02-7.55,0-.79,0-1.06.34-1.06,1.14,0,1.24,0,2.49,0,3.73Z"/>
  <path class="cls-1" d="m140.47,71.15c0,2.01,0,4.02,0,6.03,0,1.1-.33,1.42-1.41,1.43-3.92,0-7.83,0-11.75,0-1.47,0-1.9-.43-1.9-1.86,0-3.76.05-7.51-.03-11.27-.03-1.28.6-1.82,1.75-1.84,4.07-.08,8.15-.04,12.23-.02.73,0,1.1.49,1.1,1.35,0,2.06,0,4.13,0,6.19Zm-2.65-.06c0-1.22-.04-2.43.02-3.65.03-.72-.28-1.07-.94-1.07-2.72-.02-5.45-.02-8.17,0-.57,0-.88.29-.87.95.04,2.09.01,4.18.01,6.26q0,2.37,2.4,2.37c2.09,0,4.18.01,6.27,0,1.04,0,1.28-.26,1.28-1.23,0-1.22,0-2.43,0-3.65Z"/>
  <path class="cls-1" d="m53.1,110.39c-4.38.52-7.88-3.96-7.96-7.49-.1-4.41,3.6-8.25,8-8.2,4.3.05,7.83,3.38,7.86,7.88.03,4.21-3.47,8.16-7.9,7.8Zm5.07-7.81c.35-2.51-2.83-5.12-4.85-5.09-2.98.04-5.29,2.3-5.23,5.35.05,2.54,2.39,4.73,4.97,4.9,2.25.15,5.49-2.66,5.11-5.16Z"/>
  <path class="cls-1" d="m98.5,102.77c.2,3.81-3.67,7.96-8.07,7.66-4.28-.29-7.55-3.36-7.55-7.87,0-4.25,3.39-7.76,7.9-7.76,4.02,0,8.07,3.95,7.73,7.97Zm-7.71,5c2.52.25,5.27-2.61,5.04-5.44-.22-2.76-2.47-4.86-5.09-4.9-2.66-.04-5.28,2.32-5.18,5.25.1,2.79,2.42,5.11,5.23,5.09Z"/>
</svg>