<svg width="99" height="98" viewBox="0 0 99 98" fill="none" xmlns="http://www.w3.org/2000/svg">
<path fill-rule="evenodd" clip-rule="evenodd" d="M55.7878 88.4569C55.6817 88.2711 55.5185 88.166 55.3063 88.1499C55.1349 88.1579 55.0043 88.2145 54.8982 88.3276C54.7839 88.4407 54.7349 88.5943 54.7267 88.772C54.7349 88.8528 54.7186 88.9094 54.6778 88.9417C54.637 88.9659 54.5553 88.9821 54.4411 88.9821H54.2289C54.1064 88.9821 54.0085 88.9578 53.9432 88.9094C53.886 88.8528 53.8534 88.7639 53.8534 88.6508V86.7036C53.8534 86.7036 53.8534 86.6551 53.8289 86.6551C53.8126 86.6551 53.7881 86.6713 53.7636 86.6955C53.6983 86.7521 53.633 86.8005 53.5677 86.849C53.5024 86.8975 53.4371 86.954 53.3718 87.0025C53.3718 87.0106 53.3718 87.0187 53.3636 87.0268V87.0914L53.4045 87.3338C53.4289 87.5762 53.4453 87.8186 53.4534 88.061C53.4534 88.3034 53.4698 88.5539 53.4779 88.7962C53.4779 89.079 53.5514 89.2891 53.6983 89.4265C53.8126 89.5234 53.9432 89.5719 54.0901 89.5719H54.4411C54.5553 89.5719 54.6533 89.5396 54.7349 89.4669C54.8084 89.4103 54.8573 89.3457 54.8818 89.2891C54.9471 89.3942 55.0206 89.475 55.1104 89.5396C55.2002 89.6042 55.2981 89.6366 55.4205 89.6366C55.5838 89.6285 55.7144 89.58 55.8042 89.483C55.9021 89.378 55.9511 89.2487 55.9511 89.0871C55.9511 88.8528 55.894 88.6427 55.7878 88.4569ZM55.6328 89.1356C55.6328 89.1356 55.5593 89.1922 55.5022 89.1922C55.4205 89.1922 55.3471 89.1356 55.2736 89.0225C55.2083 88.9013 55.1757 88.7801 55.1757 88.6508V88.57L55.2083 88.5054C55.241 88.465 55.2818 88.4407 55.3308 88.4407C55.4042 88.4407 55.4777 88.5054 55.5593 88.6266C55.6328 88.7478 55.6654 88.8528 55.6654 88.9578C55.6654 89.0306 55.6572 89.0871 55.6328 89.1356Z" fill="#414244"/>
<path fill-rule="evenodd" clip-rule="evenodd" d="M53.0045 89.4103C53.0045 89.6608 52.9555 89.8951 52.8494 90.1052C52.776 90.2506 52.678 90.396 52.5556 90.5253C52.474 90.6142 52.4168 90.6627 52.3842 90.6627L52.1393 90.6465L51.9189 90.6303C51.6986 90.6061 51.5435 90.5738 51.4537 90.5415L51.4292 90.5253C51.4292 90.5253 51.4292 90.5091 51.4292 90.5011C51.4292 90.5011 51.4374 90.493 51.4537 90.4849C51.6169 90.4284 51.8047 90.3395 51.9924 90.2264C52.1883 90.1132 52.3515 89.984 52.4903 89.8385C52.6291 89.6931 52.6943 89.5638 52.6943 89.4507C52.6943 89.378 52.6372 89.2729 52.5311 89.1437C52.4658 89.0467 52.376 88.9578 52.2699 88.877L52.4985 88.4003C52.4985 88.4003 52.5311 88.3599 52.5556 88.3841C52.8494 88.7073 52.9964 89.0467 52.9964 89.3861L53.0045 89.4103Z" fill="#414244"/>
<path d="M52.3247 87.3023L51.9899 87.6336L52.3245 87.9651L52.6594 87.6338L52.3247 87.3023Z" fill="#414244"/>
<path d="M51.0661 86.9756L50.7312 87.3069L51.0658 87.6384L51.4007 87.3071L51.0661 86.9756Z" fill="#414244"/>
<path fill-rule="evenodd" clip-rule="evenodd" d="M50.6783 89.5719H50.4252C50.3191 89.5719 50.213 89.5396 50.1151 89.4668L49.9845 89.3376L49.8539 89.1437L49.6498 89.3699C49.5764 89.4345 49.4866 89.483 49.3723 89.5234C49.258 89.5557 49.1111 89.5719 48.9479 89.5719C48.7438 89.5719 48.5887 89.5153 48.4826 89.4022C48.401 89.3052 48.3602 89.1841 48.3602 89.0305V88.9578L48.3847 88.8285L48.4173 88.7073L48.4418 88.6427C48.4744 88.5861 48.5153 88.5538 48.5724 88.5538C48.6214 88.5538 48.654 88.6023 48.654 88.6912C48.654 88.772 48.6703 88.8366 48.703 88.877C48.752 88.9578 48.8662 88.9982 49.0458 88.9982C49.2662 88.9982 49.4376 88.9821 49.5355 88.9336C49.6416 88.8932 49.6906 88.8285 49.6906 88.7477C49.6906 88.7073 49.6661 88.6346 49.6253 88.5215L49.4866 88.1741L49.4376 88.061L49.356 87.8994L49.6253 87.56C49.6253 87.56 49.658 87.5358 49.6661 87.5358C49.6743 87.5358 49.6988 87.5438 49.7069 87.5681C49.7804 87.7458 49.8865 88.0206 50.0089 88.3761L50.1151 88.6589C50.1314 88.7073 50.1477 88.7397 50.164 88.7639C50.1722 88.7881 50.1885 88.8043 50.2048 88.8205C50.262 88.9093 50.3436 88.9497 50.4497 88.9497H50.9558C51.0047 88.9497 51.0537 88.9417 51.0864 88.9174C51.1272 88.8932 51.1435 88.8609 51.1517 88.8285C51.1517 88.8043 51.1272 88.7477 51.07 88.6669C51.0129 88.5861 50.9558 88.5053 50.8905 88.4407L50.866 88.4084L50.8905 88.3599L51.2006 87.9478L51.2333 87.9721C51.2904 88.0286 51.3476 88.1256 51.4047 88.271C51.4537 88.4003 51.4782 88.5296 51.4782 88.6508C51.4782 88.8043 51.4618 88.9336 51.4292 89.0305C51.3884 89.1841 51.3149 89.3052 51.217 89.3941C51.1027 89.4992 50.9558 89.5557 50.7844 89.5557H50.6783V89.5719Z" fill="#414244"/>
<path fill-rule="evenodd" clip-rule="evenodd" d="M48.05 89.4103C48.05 89.6608 48.001 89.8951 47.8949 90.1052C47.8215 90.2506 47.7235 90.396 47.6011 90.5253C47.5195 90.6142 47.4623 90.6627 47.4297 90.6627L47.1848 90.6465L46.9644 90.6303C46.7441 90.6061 46.589 90.5738 46.4992 90.5415L46.4747 90.5253C46.4747 90.5253 46.4747 90.5091 46.4747 90.5011C46.4747 90.5011 46.4829 90.493 46.4992 90.4849C46.6624 90.4284 46.8502 90.3395 47.0379 90.2264C47.2338 90.1132 47.397 89.984 47.5358 89.8385C47.6746 89.6931 47.7399 89.5638 47.7399 89.4507C47.7399 89.378 47.6827 89.2729 47.5766 89.1437C47.5113 89.0467 47.4215 88.9578 47.3154 88.877L47.544 88.4003C47.544 88.4003 47.5766 88.3599 47.6011 88.3841C47.8949 88.7073 48.0419 89.0467 48.0419 89.3861L48.05 89.4103Z" fill="#414244"/>
<path fill-rule="evenodd" clip-rule="evenodd" d="M46.3686 86.7601C46.4176 86.7278 46.4502 86.7116 46.4829 86.7116C46.5155 86.7116 46.5319 86.7278 46.5319 86.7601L46.4584 89.4911C46.3686 89.6042 46.2951 89.5961 46.2462 89.483L46.0095 87.1156C46.0095 87.1156 46.0095 87.051 46.0176 87.0348C46.0258 87.0186 46.0503 86.9944 46.0748 86.9782L46.3604 86.7682L46.3686 86.7601Z" fill="#414244"/>
<path d="M44.1683 87.5712L43.8336 87.9025L44.1683 88.2339L44.5031 87.9025L44.1683 87.5712Z" fill="#414244"/>
<path fill-rule="evenodd" clip-rule="evenodd" d="M45.5361 89.4992C45.5361 89.9112 45.4218 90.2102 45.2014 90.388C44.981 90.5738 44.5974 90.6627 44.075 90.6627C43.7077 90.6627 43.4383 90.5657 43.2669 90.3637C43.1282 90.2021 43.0547 90.0082 43.0547 89.7658C43.0547 89.5881 43.1037 89.3861 43.1935 89.1598C43.2833 88.9336 43.3649 88.8205 43.4383 88.8205C43.4955 88.8205 43.5281 88.8689 43.5363 88.9497L43.4873 89.079L43.4383 89.2406C43.4057 89.3457 43.3894 89.4345 43.3894 89.5153C43.3894 89.685 43.4383 89.8143 43.5445 89.9112C43.6751 90.0163 43.8954 90.0728 44.2219 90.0728C44.5158 90.0728 44.7606 90.0405 44.9565 89.9678C45.1769 89.887 45.2912 89.7739 45.2912 89.6284C45.2912 89.5396 45.234 89.4022 45.1116 89.2164C45.0055 89.0467 44.9076 88.9255 44.8178 88.8528L45.0626 88.3518L45.079 88.3357V88.3195L45.1279 88.3518L45.3157 88.6508C45.3728 88.7639 45.4299 88.9013 45.4789 89.0548C45.5279 89.2083 45.5524 89.3537 45.5524 89.4911L45.5361 89.4992Z" fill="#414244"/>
<path fill-rule="evenodd" clip-rule="evenodd" d="M72.5124 82.7687C72.5124 82.7687 72.4879 82.7525 72.4716 82.7606L72.1696 82.7848H71.7615C71.6472 82.7929 71.5329 82.7606 71.435 82.696C71.3533 82.6475 71.2962 82.5909 71.2472 82.5263C71.2064 82.4617 71.1901 82.4132 71.1901 82.3728C71.1901 82.3081 71.2391 82.2516 71.337 82.2031C71.4431 82.1465 71.5737 82.1223 71.7288 82.1223C71.8104 82.1223 71.9002 82.1304 71.9818 82.1465C72.0716 82.1627 72.1532 82.1869 72.2349 82.2031L72.2838 82.2273C72.3491 82.2435 72.3573 82.2031 72.3165 82.09C72.243 81.9688 72.1614 81.8637 72.0553 81.791C71.9982 81.7506 71.941 81.7183 71.8921 81.7022C71.8349 81.686 71.7859 81.6779 71.7288 81.6779C71.59 81.6779 71.4595 81.7264 71.3207 81.8233C71.1819 81.9203 71.0595 82.0415 70.9697 82.1708C70.8799 82.3081 70.8391 82.4293 70.8391 82.5344C70.8391 82.5829 70.8554 82.6475 70.8963 82.7283C70.9371 82.8091 70.9697 82.8576 71.0105 82.8899H70.3412C70.2433 82.8899 70.1698 82.8656 70.1127 82.8252C70.0555 82.7687 70.0229 82.6879 70.0229 82.5748V80.676L70.0066 80.6599H69.9902L69.5495 81.0719C69.5658 81.1123 69.574 81.1527 69.5821 81.2012C69.5903 81.2416 69.5984 81.282 69.5984 81.3305C69.6066 81.4194 69.6229 81.7264 69.6311 82.2516L69.6474 82.5829C69.6474 82.7848 69.5413 82.8899 69.3291 82.8899H68.8149C68.7822 82.6798 68.7169 82.5021 68.619 82.3647C68.5047 82.2112 68.3741 82.1385 68.2272 82.1385C68.1129 82.1385 68.0068 82.195 67.9089 82.3243C67.8272 82.4213 67.7619 82.5505 67.7211 82.6879C67.6722 82.8333 67.6477 82.9464 67.6477 83.0353C67.6477 83.205 67.713 83.3262 67.8436 83.3828C67.9252 83.4312 68.0721 83.4474 68.2925 83.4474H68.57C68.57 83.5444 68.5047 83.6655 68.3741 83.7948C68.2517 83.9241 68.0884 84.0534 67.9089 84.1665C67.7211 84.2877 67.5497 84.3685 67.3783 84.4251L67.3538 84.4412V84.4574L67.3865 84.4735C67.4354 84.4897 67.4681 84.4978 67.5007 84.5059C67.5252 84.5139 67.566 84.5139 67.615 84.5301C67.664 84.5382 67.7048 84.5463 67.7538 84.5463C67.7946 84.5543 67.8436 84.5624 67.8844 84.5624C67.9415 84.5705 67.9986 84.5786 68.0558 84.5786C68.1129 84.5786 68.1619 84.5867 68.2272 84.5867H68.2762C68.2762 84.5867 68.3578 84.5382 68.4312 84.4412C68.5455 84.3119 68.6271 84.1827 68.6843 84.0534C68.7659 83.8676 68.8149 83.6656 68.8149 83.4555H69.3291C69.3862 83.4555 69.4189 83.4474 69.4434 83.4393C69.4597 83.4393 69.4842 83.4232 69.5087 83.4151C69.525 83.407 69.5495 83.3908 69.574 83.3747C69.6637 83.3181 69.7209 83.2535 69.7699 83.1727C69.8025 83.2535 69.8596 83.3181 69.9331 83.3747C70.0147 83.4312 70.1127 83.4555 70.2188 83.4555H70.684C70.733 83.4555 70.831 83.4393 70.9942 83.407L71.4758 83.31C71.6798 83.2777 71.941 83.2616 72.2675 83.2616L72.5205 82.801C72.5205 82.801 72.5205 82.7768 72.5124 82.7687ZM68.317 82.906L68.1864 82.9222L68.0639 82.906L67.9823 82.8818C67.9823 82.8818 67.9333 82.8091 67.9333 82.7687C67.9415 82.7121 67.966 82.6717 67.9986 82.6475C68.0231 82.6152 68.0639 82.6071 68.1211 82.6071C68.1782 82.6071 68.2354 82.6233 68.3006 82.6637C68.3823 82.7202 68.4476 82.801 68.4884 82.8899L68.317 82.906Z" fill="#414244"/>
<path fill-rule="evenodd" clip-rule="evenodd" d="M66.8886 82.2678C66.7172 82.09 66.5539 82.0012 66.4152 82.0012C66.2846 82.0012 66.1621 82.082 66.0479 82.2274C65.9499 82.3567 65.8928 82.4779 65.8928 82.5748L65.9091 82.6637V82.7607C65.754 82.7607 65.6234 82.8091 65.5255 82.9061C65.4357 83.0111 65.3949 83.1162 65.3949 83.2455L65.4194 83.5444L65.4765 84.2716V84.5221L65.5173 84.9341L65.5663 84.8857L65.6724 84.7079C65.7295 84.619 65.7622 84.5544 65.7703 84.5221V84.4089L65.754 84.0373L65.7214 83.3747V83.3343C65.7214 83.3343 65.7377 83.2697 65.754 83.2535C65.7703 83.2455 65.8111 83.2455 65.8683 83.2455L66.358 83.3182C66.4396 83.3263 66.4968 83.3343 66.5294 83.3424H66.6682C66.7743 83.3424 66.8804 83.302 66.962 83.2051C67.0273 83.1243 67.0845 83.0273 67.1171 82.9223C67.1416 82.8253 67.1498 82.7445 67.1498 82.696C67.1498 82.5829 67.0681 82.4375 66.8886 82.2678ZM66.8233 82.898C66.8233 82.898 66.7988 82.9061 66.7825 82.9061H66.7661L66.456 82.8495L66.2111 82.8011L66.1703 82.7849C66.1703 82.7364 66.154 82.6879 66.154 82.6395C66.154 82.591 66.1703 82.5506 66.1866 82.5102C66.2111 82.494 66.2437 82.4859 66.2764 82.4859C66.3335 82.4859 66.4152 82.5102 66.5213 82.5748C66.6355 82.6395 66.7253 82.7203 66.8069 82.8172C66.8233 82.8415 66.8314 82.8657 66.8314 82.8819V82.898H66.8233Z" fill="#414244"/>
<path d="M63.6102 84.3118L63.293 84.6262L63.6106 84.9403L63.9278 84.6259L63.6102 84.3118Z" fill="#414244"/>
<path fill-rule="evenodd" clip-rule="evenodd" d="M63.3053 83.7626L63.5992 84.0534L63.9012 83.7626L64.2195 84.0777L63.9012 84.3928L63.5992 84.0938L63.3053 84.3928L62.987 84.0777L63.3053 83.7626Z" fill="#414244"/>
<path fill-rule="evenodd" clip-rule="evenodd" d="M63.0115 83.4555H62.9135C62.7829 83.4555 62.6687 83.4393 62.5789 83.3989C62.5789 83.6575 62.5299 83.8837 62.4401 84.0776C62.3666 84.2312 62.2769 84.3604 62.1708 84.4574C62.0973 84.5301 62.0483 84.5705 62.0157 84.5786C61.8851 84.5786 61.73 84.5705 61.5423 84.5463C61.3545 84.5301 61.2158 84.4978 61.126 84.4655H61.1015C61.1015 84.4655 61.0933 84.4332 61.1178 84.417C61.2729 84.3604 61.4443 84.2796 61.6402 84.1665C61.8361 84.0534 61.9993 83.9322 62.1381 83.7948C62.2605 83.6656 62.3258 83.5525 62.3258 83.4474C62.3258 83.3747 62.2769 83.2777 62.1708 83.1565C62.0891 83.0515 62.0075 82.9707 61.9177 82.898L62.1544 82.4294C62.1544 82.4294 62.1871 82.397 62.2034 82.4294C62.4238 82.7283 62.6278 82.8818 62.8237 82.8818H63.4277C63.4767 82.8818 63.5175 82.8737 63.5583 82.8495C63.591 82.8253 63.6155 82.801 63.6155 82.7606C63.6155 82.7364 63.591 82.6798 63.5339 82.6071C63.4767 82.5263 63.4277 82.4536 63.3624 82.389L63.338 82.3566L63.3624 82.3162L63.6236 81.9607L63.6645 81.9284L63.6971 81.9446C63.7461 82.0011 63.8032 82.09 63.8603 82.2274C63.9012 82.3486 63.9256 82.4698 63.9256 82.591C63.9256 82.7364 63.9093 82.8576 63.8767 82.9545C63.8359 83.1 63.7706 83.2212 63.6808 83.302C63.5665 83.407 63.4277 83.4555 63.2645 83.4555H63.0196H63.0115Z" fill="#414244"/>
<path d="M62.0223 81.3664L61.7048 81.6805L62.0222 81.9948L62.3397 81.6807L62.0223 81.3664Z" fill="#414244"/>
<path d="M60.1309 80.7055L59.8134 81.0198L60.1309 81.334L60.4483 81.0198L60.1309 80.7055Z" fill="#414244"/>
<path d="M60.4603 81.1929L60.143 81.5073L60.4605 81.8214L60.7779 81.507L60.4603 81.1929Z" fill="#414244"/>
<path d="M59.7998 81.1856L59.4823 81.4998L59.7998 81.814L60.1172 81.4998L59.7998 81.1856Z" fill="#414244"/>
<path fill-rule="evenodd" clip-rule="evenodd" d="M56.1062 83.4555H55.9185L55.7144 83.4393L55.5512 83.4232L55.2002 83.3908C55.1104 83.3908 55.0288 83.407 54.9716 83.4312C54.9063 83.4555 54.8819 83.4959 54.8819 83.5363C54.8819 83.5605 54.939 83.5848 55.0614 83.6009L55.3063 83.6252C55.4695 83.6413 55.5838 83.6736 55.6573 83.714C55.7471 83.7464 55.7879 83.8191 55.7879 83.908C55.7879 84.1019 55.7144 84.2635 55.5757 84.3927C55.4532 84.4978 55.29 84.5786 55.0696 84.6351C54.8492 84.6917 54.6288 84.7159 54.3921 84.7159C54.1799 84.7159 54.0167 84.6998 53.8942 84.6755C53.6983 84.6271 53.5514 84.5543 53.4535 84.4493C53.3229 84.3119 53.2576 84.1261 53.2576 83.908C53.2576 83.7544 53.3065 83.5767 53.4045 83.3747C53.5024 83.1646 53.5759 83.0676 53.6249 83.0676C53.6575 83.0676 53.682 83.0676 53.7065 83.0919C53.7228 83.108 53.731 83.1323 53.731 83.1565C53.731 83.1888 53.7147 83.2131 53.7065 83.2292L53.6657 83.3262C53.6249 83.4151 53.6085 83.5282 53.6085 83.6494C53.6085 83.8191 53.6657 83.9483 53.78 84.0291C53.8697 84.1019 54.0085 84.1503 54.2044 84.1827C54.3513 84.1988 54.5146 84.2069 54.7023 84.2069C54.841 84.2069 54.988 84.1907 55.1512 84.1584C55.3798 84.118 55.494 84.0695 55.494 84.0211C55.494 84.0049 55.4287 83.9887 55.29 83.9807C55.1512 83.9726 55.0614 83.9645 55.0125 83.9564C54.9635 83.9564 54.8982 83.9322 54.8247 83.908C54.6696 83.8595 54.588 83.7868 54.588 83.6817C54.588 83.5928 54.6207 83.4959 54.686 83.3828C54.7676 83.2454 54.8819 83.1404 55.0288 83.0515C55.2165 82.9545 55.4287 82.898 55.6736 82.898H56.3919C56.5388 82.898 56.6368 82.898 56.6857 82.8818C56.849 82.8576 56.9306 82.8091 56.9306 82.7283C56.9306 82.6313 56.8408 82.4778 56.6531 82.2758C56.498 82.1061 56.3429 81.9769 56.1878 81.888L56.2939 81.3143L56.7755 81.1285L57.3795 80.9103L57.9917 80.7003L57.8774 81.2093L57.502 81.3224L57.0775 81.4678L56.6204 81.6375C56.8653 81.8718 57.1102 82.1142 57.3632 82.3728L57.6244 82.6394L57.7795 82.7768C57.8856 82.8576 58.008 82.898 58.1305 82.898H58.7834C58.9222 82.898 59.0201 82.8576 59.0691 82.7687C59.0854 82.7445 59.1099 82.6637 59.1507 82.5182C59.1671 82.4374 59.2079 82.397 59.2568 82.3809C59.3058 82.3809 59.3466 82.4374 59.3793 82.5505C59.4119 82.6637 59.4283 82.7364 59.4446 82.7606C59.4936 82.8495 59.5833 82.898 59.7139 82.898C59.8364 82.898 59.9262 82.8495 59.9833 82.7606L60.0649 82.5101C60.0894 82.4213 60.1302 82.3728 60.1873 82.3728C60.2282 82.3728 60.2608 82.4293 60.2853 82.5425C60.3016 82.599 60.3098 82.6475 60.3179 82.6798C60.3261 82.7121 60.3424 82.7445 60.3506 82.7606C60.3996 82.8495 60.4975 82.8899 60.6281 82.8899C60.7261 82.8899 60.7914 82.8818 60.8403 82.8576C60.8893 82.8253 60.9138 82.7768 60.9138 82.7041C60.9138 82.6556 60.8811 82.5829 60.8158 82.494L60.7261 82.3809C60.7669 82.3162 60.8077 82.2597 60.8485 82.195C60.8893 82.1304 60.9301 82.0657 60.9709 82.0092C61.0036 82.0496 61.0362 82.0981 61.0607 82.1385C61.0852 82.1789 61.1097 82.2193 61.126 82.2677C61.175 82.4051 61.1995 82.5182 61.1995 82.6152C61.1995 82.8172 61.1587 82.9949 61.077 83.1565C61.0199 83.2535 60.9546 83.3343 60.8893 83.3828C60.8077 83.4312 60.7179 83.4555 60.6281 83.4555C60.5383 83.4555 60.4567 83.4312 60.3832 83.3828C60.3098 83.3424 60.2363 83.2616 60.171 83.1565C60.1221 83.2454 60.0568 83.3181 59.9833 83.3747C59.9098 83.4312 59.8282 83.4555 59.7303 83.4555C59.6323 83.4555 59.5425 83.4312 59.4609 83.3747C59.4283 83.3504 59.3956 83.3262 59.363 83.2858L59.2732 83.1484C59.2079 83.2535 59.1263 83.3343 59.0283 83.3747C58.9304 83.4232 58.8324 83.4474 58.7263 83.4474H58.1305C58.0325 83.4474 57.9346 83.4151 57.8284 83.3504C57.7795 83.3262 57.7223 83.2858 57.6489 83.2292L57.5183 83.108L57.1836 82.7445C57.1836 82.9707 57.1102 83.1404 56.9632 83.2696C56.8163 83.3908 56.6123 83.4555 56.3511 83.4555H56.1144H56.1062Z" fill="#414244"/>
<path fill-rule="evenodd" clip-rule="evenodd" d="M51.8536 82.3243C51.7312 82.1466 51.5924 82.0577 51.4374 82.0577C51.3231 82.0577 51.217 82.1223 51.119 82.2435C51.0374 82.3324 50.9803 82.4536 50.9313 82.6071C50.8823 82.7525 50.8578 82.8657 50.8578 82.9545C50.8578 83.1323 50.9231 83.2454 51.0537 83.31C51.1272 83.3504 51.2823 83.3747 51.5027 83.3747H51.6414L51.772 83.3666C51.772 83.4636 51.7149 83.5767 51.5843 83.714C51.4537 83.8433 51.2986 83.9726 51.119 84.0857C50.9313 84.2069 50.7517 84.2958 50.5885 84.3443L50.564 84.3685V84.3847H50.5966C50.6456 84.4008 50.6783 84.417 50.7109 84.417C50.7354 84.4251 50.7762 84.4331 50.8252 84.4412C50.8742 84.4574 50.9231 84.4655 50.964 84.4655C51.0048 84.4735 51.0537 84.4816 51.1109 84.4816C51.1435 84.4816 51.1925 84.4816 51.2578 84.4816H51.4863C51.4863 84.4816 51.5598 84.4412 51.6414 84.3604C51.7557 84.2392 51.8455 84.11 51.9026 83.9726C51.9924 83.7706 52.0414 83.5686 52.0414 83.3585V83.0111C52.0414 82.7202 51.9761 82.4778 51.8536 82.3082V82.3243ZM51.5271 82.8333H51.3966C51.3068 82.8414 51.2415 82.8333 51.2007 82.8091C51.1598 82.7768 51.1435 82.7364 51.1435 82.6879C51.1517 82.6394 51.1762 82.599 51.2088 82.5667C51.2415 82.5344 51.2823 82.5263 51.3313 82.5263C51.4129 82.5425 51.4782 82.5667 51.5027 82.5829C51.6006 82.6475 51.6577 82.7202 51.6904 82.8172L51.5271 82.8333Z" fill="#414244"/>
<path d="M48.2378 80.9121L47.9203 81.2263L48.2377 81.5405L48.5552 81.2264L48.2378 80.9121Z" fill="#414244"/>
<path fill-rule="evenodd" clip-rule="evenodd" d="M47.1358 83.4555H46.8991C46.793 83.4555 46.695 83.4232 46.6053 83.3586L46.4828 83.2374L46.3604 83.0596L46.1727 83.2777C46.1074 83.3343 46.0176 83.3828 45.9033 83.4232C45.789 83.4555 45.6584 83.4717 45.4952 83.4717C45.2993 83.4717 45.1524 83.4151 45.0544 83.3101C44.9728 83.2212 44.9402 83.1 44.9402 82.9546V82.8818L44.9565 82.7606L44.981 82.6475L45.0055 82.591C45.0381 82.5344 45.0789 82.5021 45.1279 82.5021C45.1769 82.5021 45.2013 82.5425 45.2013 82.6314C45.2013 82.7122 45.2177 82.7687 45.2503 82.8091C45.2993 82.8899 45.4054 82.9222 45.5768 82.9222C45.789 82.9222 45.9441 82.9061 46.0502 82.8657C46.1482 82.8253 46.1971 82.7687 46.1971 82.6879C46.1971 82.6556 46.1808 82.5829 46.14 82.4698L46.0094 82.1385L45.9604 82.0335L45.8788 81.8799L46.1318 81.5567C46.1318 81.5567 46.1563 81.5406 46.1727 81.5406C46.189 81.5406 46.1971 81.5487 46.2053 81.5729C46.2788 81.7426 46.3767 82.0011 46.491 82.3486L46.5889 82.6152C46.6053 82.6637 46.6216 82.696 46.6297 82.7122C46.6379 82.7283 46.6542 82.7526 46.6624 82.7687C46.7195 82.8495 46.8012 82.8899 46.8991 82.8899H47.2501C47.5684 82.8899 47.8133 82.8738 47.9928 82.8334C48.1724 82.793 48.3602 82.7202 48.5642 82.6152L48.0908 82.4455C47.9602 82.397 47.8623 82.3728 47.8051 82.3728C47.7072 82.3728 47.6255 82.4051 47.5439 82.4778C47.4705 82.5506 47.4133 82.591 47.3888 82.591C47.3562 82.6071 47.3235 82.591 47.3154 82.5748C47.2991 82.5506 47.3072 82.494 47.3235 82.4132C47.3807 82.2516 47.4705 82.1223 47.5766 82.0335C47.6745 81.9365 47.7888 81.888 47.9194 81.888C48.0092 81.888 48.1561 81.9284 48.3438 82.0173L48.8662 82.2435C49.0948 82.3324 49.3151 82.3728 49.511 82.3728C49.5274 82.3728 49.5437 82.3728 49.5518 82.3728C49.5518 82.3728 49.5518 82.397 49.5437 82.4132L49.258 82.8253C49.0703 82.8253 48.8581 82.8738 48.6295 82.9788L48.0173 83.2858C47.7398 83.3909 47.4623 83.4474 47.1848 83.4474H47.1113L47.1358 83.4555Z" fill="#414244"/>
<path fill-rule="evenodd" clip-rule="evenodd" d="M44.4749 82.3889C44.377 82.2112 44.2219 82.1142 44.0178 82.0981C43.8546 82.1062 43.724 82.1627 43.6261 82.2677C43.5199 82.3809 43.471 82.5182 43.4628 82.696C43.471 82.7687 43.4628 82.8253 43.4138 82.8495C43.3812 82.8818 43.3077 82.8899 43.1935 82.8899H42.9894C42.8751 82.8899 42.7853 82.8657 42.7119 82.8172C42.6629 82.7687 42.6303 82.6879 42.6303 82.5748V80.7245C42.6303 80.7245 42.6303 80.676 42.6139 80.676C42.5976 80.676 42.5731 80.6841 42.5405 80.7083C42.4833 80.7649 42.418 80.8134 42.3609 80.8619C42.2956 80.9103 42.2385 80.9588 42.1732 81.0073C42.1732 81.0073 42.1732 81.0073 42.165 81.0235V81.0881L42.2058 81.3224C42.2303 81.5486 42.2466 81.783 42.2548 82.0173C42.263 82.2516 42.2711 82.4778 42.2711 82.7121C42.2711 82.9788 42.3446 83.1808 42.4833 83.3181C42.5894 83.407 42.72 83.4555 42.8588 83.4555H43.1935C43.2996 83.4555 43.3894 83.4232 43.4791 83.3504C43.5444 83.2939 43.5934 83.2373 43.6179 83.1808C43.675 83.2858 43.7403 83.3666 43.8301 83.4232C43.9117 83.4878 44.0097 83.512 44.124 83.512C44.279 83.512 44.4015 83.4636 44.4913 83.3666C44.581 83.2696 44.63 83.1485 44.63 82.9869C44.63 82.7687 44.581 82.5667 44.4749 82.3889ZM44.328 83.0353C44.3035 83.0757 44.2627 83.0919 44.2056 83.0919C44.124 83.0919 44.0587 83.0353 43.9934 82.9303C43.9199 82.8172 43.8873 82.7041 43.8873 82.5748V82.494L43.9281 82.4374C43.9525 82.397 43.9934 82.3728 44.0342 82.3728C44.1076 82.3728 44.1811 82.4374 44.2546 82.5505C44.328 82.6637 44.3607 82.7687 44.3607 82.8657C44.3607 82.9384 44.3525 82.9949 44.328 83.0353Z" fill="#414244"/>
<path fill-rule="evenodd" clip-rule="evenodd" d="M41.8222 82.5748C41.8222 82.7364 41.7895 82.8737 41.7324 82.9788C41.6834 83.1 41.61 83.1889 41.5039 83.2616C41.4141 83.3181 41.2835 83.3666 41.1121 83.407L40.8182 83.4636L40.6142 83.4797H40.3203L40.0918 83.4959C39.6347 83.4959 39.3 83.4313 39.096 83.302C38.8838 83.1727 38.7776 82.9626 38.7776 82.6798C38.7776 82.5344 38.8185 82.389 38.8919 82.2516C38.9654 82.1223 39.0225 82.0658 39.0633 82.0658C39.1205 82.0658 39.1531 82.0981 39.1531 82.1546L39.1041 82.3082L39.0797 82.4455C39.0797 82.5829 39.1286 82.696 39.2184 82.7768C39.2837 82.8253 39.398 82.8737 39.5694 82.9061L39.7571 82.9222H39.9938L40.1244 82.9303C40.5489 82.9303 40.8917 82.9061 41.1365 82.8657C41.3814 82.8333 41.5039 82.7768 41.5039 82.7041C41.5039 82.6879 41.4712 82.6313 41.4059 82.5344L41.2427 82.3405L41.5283 81.9769L41.5528 81.9526H41.5692L41.6018 81.9688C41.6508 82.0254 41.6997 82.0981 41.7324 82.1789C41.765 82.2597 41.7895 82.3324 41.7977 82.397L41.814 82.5586L41.8222 82.5748Z" fill="#414244"/>
<path d="M40.5599 81.2917L40.2425 81.606L40.5599 81.9202L40.8774 81.606L40.5599 81.2917Z" fill="#414244"/>
<path d="M39.8965 81.2859L39.5791 81.6002L39.8965 81.9144L40.2139 81.6002L39.8965 81.2859Z" fill="#414244"/>
<path d="M37.2239 83.7876L36.9066 84.1019L37.2241 84.416L37.5414 84.1018L37.2239 83.7876Z" fill="#414244"/>
<path fill-rule="evenodd" clip-rule="evenodd" d="M37.537 82.2355C37.4798 82.0981 37.4227 82.0011 37.3737 81.9527L37.3411 81.9284L37.3003 81.9607L37.0472 82.3243L37.0228 82.3647L37.0472 82.397C37.1044 82.4617 37.1615 82.5344 37.2186 82.6152C37.2676 82.696 37.2921 82.7445 37.2921 82.7687C37.2921 82.8091 37.2676 82.8334 37.235 82.8576C37.2023 82.8818 37.1615 82.8899 37.1125 82.8899H36.6391C36.4187 82.8899 36.2392 82.9869 36.1004 83.1889C35.978 83.3666 35.9127 83.5686 35.9127 83.811L35.725 83.6979L35.6433 83.6252C35.5617 83.5605 35.4964 83.4797 35.4474 83.3828C35.5454 83.3828 35.627 83.3505 35.6923 83.3182C35.7821 83.2697 35.8555 83.197 35.9127 83.1081C35.978 82.9869 36.0106 82.8495 36.0106 82.6879C36.0106 82.5263 35.9535 82.3405 35.8474 82.1223C35.7576 81.9284 35.6597 81.7749 35.5535 81.6456C35.3821 81.8799 35.2597 82.1062 35.1781 82.3405C35.1046 82.5263 35.072 82.7041 35.072 82.8899H34.5414C34.4435 82.8899 34.3618 82.8495 34.3047 82.7687C34.2884 82.7445 34.2802 82.7283 34.2721 82.7122C34.2639 82.6879 34.2476 82.6556 34.2313 82.6152L34.1251 82.3405C34.0027 82.0011 33.9129 81.7426 33.8395 81.5648C33.8313 81.5487 33.815 81.5406 33.7987 81.5406C33.7823 81.5406 33.7742 81.5406 33.7578 81.5567L33.5048 81.8799L33.5864 82.0335L33.6272 82.1385L33.766 82.4617C33.7987 82.5748 33.8231 82.6475 33.8231 82.6798C33.8231 82.7606 33.7742 82.8172 33.6681 82.8576C33.5701 82.898 33.415 82.9142 33.2028 82.9142C33.0314 82.9142 32.9171 82.8818 32.8763 82.801C32.8437 82.7606 32.8273 82.7041 32.8273 82.6233C32.8273 82.5344 32.8029 82.494 32.7539 82.494C32.6967 82.494 32.6559 82.5263 32.6233 82.5829L32.607 82.6394L32.5743 82.7526L32.558 82.8738V82.9465C32.558 83.0919 32.5988 83.205 32.6723 83.302C32.7702 83.407 32.9171 83.4555 33.113 83.4555C33.2763 83.4555 33.4069 83.4394 33.5211 83.4151C33.6272 83.3747 33.717 83.3262 33.7823 83.2697L33.9782 83.0515L34.1007 83.2374L34.2231 83.3586C34.321 83.4232 34.419 83.4555 34.5169 83.4555H34.77L34.9414 83.4393L35.1291 83.4232L35.1781 83.5929C35.2515 83.7625 35.3495 83.908 35.4801 84.0373C35.5862 84.1504 35.7086 84.2393 35.8474 84.312C35.978 84.3847 36.1494 84.4493 36.3453 84.5059L36.533 83.9888C36.3943 83.9322 36.3045 83.8757 36.2555 83.8353C36.1902 83.7706 36.1576 83.706 36.1576 83.6413C36.1576 83.5363 36.2392 83.4797 36.3943 83.4636H36.6391L36.9411 83.4555C37.1044 83.4555 37.2431 83.407 37.3574 83.302C37.4472 83.2212 37.5125 83.1081 37.5533 82.9626C37.586 82.8657 37.6023 82.7445 37.6023 82.599C37.6023 82.4778 37.5778 82.3567 37.537 82.2355ZM35.374 82.5667C35.4066 82.4617 35.4474 82.3809 35.4964 82.3082C35.5535 82.3809 35.6107 82.4536 35.6515 82.5344C35.7168 82.6556 35.7494 82.7526 35.7494 82.8172C35.7249 82.8334 35.7086 82.8414 35.7005 82.8414C35.6923 82.8495 35.6678 82.8495 35.627 82.8576C35.5944 82.8657 35.5699 82.8657 35.5454 82.8657H35.325C35.325 82.7687 35.3413 82.6637 35.374 82.5667Z" fill="#414244"/>
<path fill-rule="evenodd" clip-rule="evenodd" d="M32.2968 80.773C32.3376 80.7407 32.3784 80.7245 32.4029 80.7245C32.4356 80.7245 32.4437 80.7407 32.4519 80.773L32.3784 83.3747C32.2886 83.4798 32.2233 83.4798 32.1744 83.3747L31.954 81.1124C31.954 81.1124 31.954 81.0558 31.9621 81.0316C31.9703 81.0154 31.9948 80.9912 32.0193 80.975L32.2886 80.7811L32.2968 80.773Z" fill="#414244"/>
<path d="M30.601 80.7072L30.2834 81.0214L30.6008 81.3357L30.9183 81.0216L30.601 80.7072Z" fill="#414244"/>
<path d="M30.9397 81.1888L30.6223 81.5032L30.9399 81.8173L31.2572 81.503L30.9397 81.1888Z" fill="#414244"/>
<path d="M30.2643 81.1966L29.9469 81.5109L30.2644 81.825L30.5818 81.5108L30.2643 81.1966Z" fill="#414244"/>
<path fill-rule="evenodd" clip-rule="evenodd" d="M27.5382 81.581L27.8565 81.2659L28.1503 81.5648L28.4524 81.2659L28.7707 81.581L28.4524 81.9042L28.1503 81.6052L27.8565 81.9042L27.5382 81.581Z" fill="#414244"/>
<path fill-rule="evenodd" clip-rule="evenodd" d="M27.4076 83.4555H27.2199L27.0158 83.4393L26.8526 83.4232L26.5016 83.3909C26.4118 83.3909 26.3302 83.407 26.273 83.4313C26.2077 83.4555 26.1833 83.4959 26.1833 83.5363C26.1833 83.5605 26.2404 83.5848 26.3628 83.6009L26.6077 83.6252C26.7709 83.6413 26.8852 83.6736 26.9587 83.714C27.0485 83.7464 27.0893 83.8191 27.0893 83.908C27.0893 84.1019 27.0158 84.2635 26.877 84.3928C26.7546 84.4978 26.5914 84.5786 26.371 84.6351C26.1506 84.6917 25.9302 84.7159 25.6935 84.7159C25.4813 84.7159 25.3181 84.6998 25.1956 84.6755C24.9997 84.6271 24.8528 84.5544 24.7549 84.4493C24.6243 84.312 24.559 84.1261 24.559 83.908C24.559 83.7544 24.6079 83.5767 24.7059 83.3747C24.8038 83.1646 24.8773 83.0677 24.9263 83.0677C24.9589 83.0677 24.9834 83.0677 25.0079 83.0919C25.0242 83.1081 25.0324 83.1323 25.0324 83.1565C25.0324 83.1889 25.016 83.2131 25.0079 83.2293L24.9671 83.3262C24.9263 83.4151 24.9099 83.5282 24.9099 83.6494C24.9099 83.8191 24.9671 83.9484 25.0813 84.0292C25.1711 84.1019 25.3099 84.1504 25.5058 84.1827C25.6527 84.1988 25.816 84.2069 26.0037 84.2069C26.1424 84.2069 26.2894 84.1908 26.4526 84.1584C26.6812 84.118 26.7954 84.0696 26.7954 84.0211C26.7954 84.0049 26.7301 83.9888 26.5914 83.9807C26.4526 83.9726 26.3628 83.9645 26.3138 83.9564C26.2649 83.9564 26.1996 83.9322 26.1261 83.908C25.971 83.8595 25.8894 83.7868 25.8894 83.6817C25.8894 83.5928 25.9221 83.4959 25.9874 83.3828C26.069 83.2454 26.1833 83.1404 26.3302 83.0515C26.5179 82.9545 26.7301 82.898 26.975 82.898H27.5627C27.7749 82.898 27.93 82.8495 28.0116 82.7525C28.0606 82.696 28.0932 82.6152 28.1096 82.5021C28.1259 82.389 28.1667 82.3324 28.2157 82.3324C28.2646 82.3324 28.3054 82.389 28.3299 82.5021C28.3544 82.6152 28.3789 82.696 28.4034 82.7364C28.4769 82.8333 28.5993 82.8818 28.7789 82.8818H29.2523C29.391 82.8818 29.489 82.8414 29.538 82.7525C29.5543 82.7283 29.5788 82.6475 29.6196 82.5021C29.6359 82.4213 29.6767 82.3809 29.7257 82.3647C29.7747 82.3647 29.8155 82.4213 29.8481 82.5344C29.8808 82.6475 29.8971 82.7202 29.9134 82.7445C29.9624 82.8333 30.0522 82.8818 30.1828 82.8818C30.3052 82.8818 30.395 82.8333 30.4603 82.7445L30.5419 82.494C30.5664 82.4051 30.6072 82.3566 30.6643 82.3566C30.7052 82.3566 30.7378 82.4132 30.7623 82.5263C30.7786 82.5829 30.7868 82.6314 30.7949 82.6637C30.8031 82.696 30.8194 82.7283 30.8276 82.7445C30.8766 82.8333 30.9745 82.8737 31.1051 82.8737C31.2031 82.8737 31.2684 82.8657 31.3173 82.8414C31.3663 82.8091 31.3908 82.7606 31.3908 82.6879C31.3908 82.6394 31.3581 82.5667 31.2928 82.4778L31.2031 82.3647C31.2439 82.3001 31.2847 82.2435 31.3255 82.1789C31.3663 82.1142 31.4071 82.0496 31.4479 81.993C31.4806 82.0334 31.5132 82.0819 31.5377 82.1223C31.5622 82.1627 31.5867 82.2031 31.603 82.2516C31.652 82.389 31.6765 82.5021 31.6765 82.599C31.6765 82.801 31.6357 82.9788 31.554 83.1404C31.4969 83.2373 31.4316 83.3181 31.3663 83.3666C31.2847 83.4151 31.1949 83.4393 31.1051 83.4393C31.0153 83.4393 30.9337 83.4151 30.8602 83.3666C30.7868 83.3262 30.7133 83.2454 30.648 83.1404C30.5991 83.2293 30.5338 83.302 30.4603 83.3585C30.3868 83.4151 30.3052 83.4393 30.2073 83.4393C30.1093 83.4393 30.0195 83.4151 29.9379 83.3585C29.9053 83.3343 29.8726 83.3101 29.84 83.2697L29.7502 83.1323C29.6849 83.2373 29.6033 83.3181 29.5053 83.3585C29.4074 83.407 29.3094 83.4313 29.2033 83.4313H28.8033C28.6809 83.4313 28.5748 83.3989 28.4687 83.3424C28.3626 83.2777 28.281 83.205 28.2238 83.1081C28.183 83.1969 28.1014 83.2697 27.9953 83.3343C27.8892 83.3989 27.7749 83.4313 27.6525 83.4313H27.4158L27.4076 83.4555Z" fill="#414244"/>
<path fill-rule="evenodd" clip-rule="evenodd" d="M23.3754 82.6556C23.3754 82.8657 23.3265 83.0353 23.2203 83.1727C23.1306 83.2777 23.0081 83.3505 22.8612 83.3989C22.7061 83.4393 22.5429 83.4636 22.3633 83.4636C22.1592 83.4636 22.0042 83.407 21.9062 83.2939C21.8246 83.1969 21.7838 83.0757 21.7838 82.9303V82.8253C21.8001 82.7283 21.8164 82.6475 21.8409 82.6071C21.8654 82.5586 21.9062 82.5344 21.9552 82.5344C21.996 82.5344 22.0287 82.5748 22.0368 82.6556C22.045 82.7364 22.0613 82.7929 22.094 82.8253C22.1592 82.898 22.2817 82.9303 22.4531 82.9303C22.8367 82.9141 23.0571 82.8495 23.1142 82.7526C23.1142 82.6718 23.0653 82.5748 22.9592 82.4698C22.8775 82.3809 22.7714 82.292 22.6327 82.195C22.5184 82.1223 22.4204 82.0738 22.347 82.0415C22.3715 81.9607 22.3878 81.8799 22.4123 81.791C22.4368 81.7102 22.4613 81.6295 22.4776 81.5406C22.4776 81.5244 22.4939 81.5163 22.5021 81.5002C22.5102 81.4921 22.5265 81.5002 22.551 81.5002C22.6571 81.5729 22.7714 81.6537 22.8775 81.7506C22.9673 81.8314 23.0571 81.9284 23.1469 82.0496C23.302 82.2678 23.3836 82.4698 23.3836 82.6637L23.3754 82.6556Z" fill="#414244"/>
<path fill-rule="evenodd" clip-rule="evenodd" d="M21.4083 83.302C21.4083 83.5444 21.3593 83.7625 21.2614 83.9645C21.1879 84.11 21.0981 84.2392 20.9839 84.3685C20.9022 84.4574 20.8533 84.4978 20.8206 84.4978H20.5839L20.3717 84.4736C20.1595 84.4493 20.0126 84.4251 19.9228 84.3847H19.8983C19.8983 84.3847 19.8983 84.3604 19.8983 84.3524C19.8983 84.3524 19.9064 84.3443 19.9228 84.3362C20.0779 84.2796 20.2574 84.1988 20.437 84.0857C20.6247 83.9726 20.7798 83.8514 20.9104 83.714C21.041 83.5767 21.1063 83.4555 21.1063 83.3424C21.1063 83.2697 21.0573 83.1727 20.9512 83.0515C20.8859 82.9626 20.8043 82.8737 20.7064 82.801L20.9186 82.3486C20.9186 82.3486 20.9512 82.3082 20.9757 82.3405C21.2532 82.6556 21.392 82.9707 21.392 83.302H21.4083Z" fill="#414244"/>
<path fill-rule="evenodd" clip-rule="evenodd" d="M19.8983 82.3889C19.8004 82.2112 19.6453 82.1142 19.4412 82.0981C19.278 82.1062 19.1474 82.1627 19.0494 82.2677C18.9433 82.3809 18.8943 82.5182 18.8862 82.696C18.8943 82.7687 18.878 82.8253 18.8372 82.8495C18.8046 82.8818 18.7311 82.8899 18.6168 82.8899H18.4128C18.2985 82.8899 18.2087 82.8657 18.1353 82.8172C18.0863 82.7687 18.0536 82.6879 18.0536 82.5748V80.7245C18.0536 80.7245 18.0536 80.676 18.0373 80.676C18.021 80.676 17.9965 80.6841 17.9638 80.7083C17.9067 80.7649 17.8496 80.8134 17.7843 80.8619C17.719 80.9103 17.6618 80.9588 17.5965 81.0073C17.5965 81.0073 17.5965 81.0073 17.5884 81.0235C17.5884 81.0315 17.5884 81.0558 17.5965 81.0881L17.6292 81.3224C17.6537 81.5486 17.67 81.783 17.6782 82.0173C17.6863 82.2516 17.6945 82.4778 17.6945 82.7121C17.6945 82.9788 17.7679 83.1808 17.9067 83.3181C18.0128 83.407 18.1434 83.4555 18.2822 83.4555H18.6168C18.7229 83.4555 18.8209 83.4232 18.9025 83.3504C18.9678 83.2939 19.0168 83.2373 19.0413 83.1808C19.0984 83.2858 19.1637 83.3666 19.2535 83.4232C19.3351 83.4878 19.4412 83.512 19.5555 83.512C19.7024 83.512 19.8248 83.4636 19.9146 83.3666C20.0044 83.2696 20.0534 83.1485 20.0534 82.9869C20.0534 82.7687 20.0044 82.5667 19.8983 82.3889ZM19.7514 83.0353C19.7269 83.0757 19.6861 83.0919 19.629 83.0919C19.5473 83.0919 19.482 83.0353 19.4167 82.9303C19.3433 82.8172 19.3106 82.7041 19.3106 82.5748V82.494L19.3514 82.4374C19.3841 82.397 19.4167 82.3728 19.4657 82.3728C19.5392 82.3728 19.6045 82.4374 19.6779 82.5505C19.7514 82.6637 19.784 82.7687 19.784 82.8657C19.784 82.9384 19.7759 82.9949 19.7514 83.0353Z" fill="#414244"/>
<path d="M16.8487 80.9828L16.5312 81.2969L16.8485 81.6113L17.166 81.2972L16.8487 80.9828Z" fill="#414244"/>
<path fill-rule="evenodd" clip-rule="evenodd" d="M16.4865 83.4555H16.2987L16.0947 83.4393L15.9314 83.4232L15.5804 83.3909C15.4907 83.3909 15.409 83.407 15.3519 83.4313C15.2866 83.4555 15.2621 83.4959 15.2621 83.5363C15.2621 83.5605 15.3192 83.5848 15.4417 83.6009L15.6866 83.6252C15.8498 83.6413 15.9641 83.6737 16.0375 83.7141C16.1273 83.7464 16.1681 83.8191 16.1681 83.908C16.1681 84.1019 16.0947 84.2635 15.9559 84.3928C15.8335 84.4978 15.6702 84.5786 15.4498 84.6352C15.2295 84.6917 15.0091 84.716 14.7724 84.716C14.5602 84.716 14.3969 84.6998 14.2745 84.6756C14.0786 84.6271 13.9317 84.5544 13.8337 84.4493C13.7031 84.312 13.6378 84.1261 13.6378 83.908C13.6378 83.7545 13.6868 83.5767 13.7847 83.3747C13.8827 83.1646 13.9561 83.0677 14.0051 83.0677C14.0378 83.0677 14.0623 83.0677 14.0867 83.0919C14.1031 83.1081 14.1112 83.1323 14.1112 83.1566C14.1112 83.1889 14.0949 83.2131 14.0867 83.2293L14.0459 83.3262C14.0051 83.4151 13.9888 83.5282 13.9888 83.6494C13.9888 83.8191 14.0459 83.9484 14.1602 84.0292C14.25 84.1019 14.3887 84.1504 14.5846 84.1827C14.7316 84.1989 14.8948 84.2069 15.0825 84.2069C15.2213 84.2069 15.3682 84.1908 15.5315 84.1585C15.76 84.1181 15.8743 84.0696 15.8743 84.0211C15.8743 84.0049 15.809 83.9888 15.6702 83.9807C15.5315 83.9726 15.4417 83.9645 15.3927 83.9565C15.3437 83.9565 15.2784 83.9322 15.205 83.908C15.0499 83.8595 14.9683 83.7868 14.9683 83.6817C14.9683 83.5929 15.0009 83.4959 15.0662 83.3828C15.1478 83.2454 15.2621 83.1404 15.409 83.0515C15.5968 82.9546 15.809 82.898 16.0539 82.898H16.7558C16.8048 82.898 16.8456 82.8899 16.8864 82.8657C16.9191 82.8414 16.9435 82.8172 16.9435 82.7768C16.9435 82.7526 16.9191 82.696 16.8619 82.6233C16.8048 82.5425 16.7558 82.4698 16.6905 82.4051L16.666 82.3728L16.6905 82.3324L16.9844 81.9446L17.017 81.9607C17.066 82.0173 17.1231 82.1062 17.1802 82.2435C17.2211 82.3647 17.2455 82.4859 17.2455 82.6071C17.2455 82.7526 17.2292 82.8738 17.1966 82.9707C17.1558 83.1162 17.0905 83.2374 17.0007 83.3182C16.8864 83.4232 16.7476 83.4717 16.5844 83.4717H16.4865V83.4555Z" fill="#414244"/>
<path fill-rule="evenodd" clip-rule="evenodd" d="M85.3679 82.6556C85.3679 82.8657 85.319 83.0353 85.2129 83.1727C85.1231 83.2777 85.0006 83.3505 84.8537 83.3989C84.6986 83.4393 84.5354 83.4636 84.3558 83.4636C84.1518 83.4636 83.9967 83.407 83.8987 83.2939C83.8171 83.1969 83.7763 83.0757 83.7763 82.9303V82.8253C83.7926 82.7283 83.809 82.6475 83.8334 82.6071C83.8579 82.5586 83.8987 82.5344 83.9477 82.5344C83.9885 82.5344 84.0212 82.5748 84.0293 82.6556C84.0375 82.7364 84.0538 82.7929 84.0865 82.8253C84.1518 82.898 84.2742 82.9303 84.4456 82.9303C84.8292 82.9141 85.0496 82.8495 85.1068 82.7526C85.1068 82.6718 85.0578 82.5748 84.9517 82.4698C84.8701 82.3809 84.7639 82.292 84.6252 82.195C84.5109 82.1223 84.413 82.0738 84.3395 82.0415C84.364 81.9607 84.3803 81.8799 84.4048 81.791C84.4293 81.7102 84.4538 81.6295 84.4701 81.5406C84.4701 81.5244 84.4864 81.5163 84.4946 81.5002C84.5027 81.4921 84.5191 81.5002 84.5436 81.5002C84.6497 81.5729 84.7639 81.6537 84.87 81.7506C84.9598 81.8314 85.0496 81.9284 85.1394 82.0496C85.2945 82.2678 85.3761 82.4698 85.3761 82.6637L85.3679 82.6556Z" fill="#414244"/>
<path fill-rule="evenodd" clip-rule="evenodd" d="M83.4172 80.773C83.458 80.7407 83.4988 80.7245 83.5233 80.7245C83.5478 80.7245 83.5641 80.7407 83.5723 80.773L83.4988 83.3747C83.4091 83.4798 83.3438 83.4798 83.2948 83.3747L83.0744 81.1124C83.0744 81.1124 83.0744 81.0558 83.0826 81.0316C83.0907 81.0154 83.1152 80.9912 83.1397 80.975L83.4091 80.7811L83.4172 80.773Z" fill="#414244"/>
<path d="M82.3298 80.9794L82.0122 81.2935L82.3295 81.6079L82.6471 81.2937L82.3298 80.9794Z" fill="#414244"/>
<path d="M80.265 80.6963L79.9476 81.0105L80.265 81.3247L80.5824 81.0105L80.265 80.6963Z" fill="#414244"/>
<path d="M80.5973 81.1822L80.2798 81.4965L80.5973 81.8107L80.9147 81.4965L80.5973 81.1822Z" fill="#414244"/>
<path d="M79.9339 81.1845L79.6165 81.4987L79.9339 81.8129L80.2514 81.4987L79.9339 81.1845Z" fill="#414244"/>
<path fill-rule="evenodd" clip-rule="evenodd" d="M78.1688 80.5548L78.1199 80.7891L77.6383 80.9103L77.1567 81.0315L76.6751 81.1689L76.7568 80.9265L77.4097 80.7406L78.1688 80.5548Z" fill="#414244"/>
<path fill-rule="evenodd" clip-rule="evenodd" d="M76.3323 83.4555H76.0956C75.9487 83.4555 75.8263 83.407 75.7202 83.3101C75.5814 83.1727 75.508 82.9788 75.508 82.7122C75.508 82.4779 75.4998 82.2435 75.4916 82.0092C75.4916 81.7749 75.4671 81.5487 75.4427 81.3144L75.41 81.08C75.41 81.08 75.41 81.0235 75.41 81.0154C75.41 81.0073 75.41 80.9992 75.4182 80.9992C75.4753 80.9508 75.5406 80.8942 75.6059 80.8538C75.6712 80.8053 75.7283 80.7568 75.7855 80.7084C75.8181 80.6841 75.8344 80.676 75.8508 80.668C75.8671 80.668 75.8753 80.6841 75.8753 80.7164V82.5748C75.8753 82.6798 75.8997 82.7606 75.9569 82.8172C76.0222 82.8657 76.1201 82.8899 76.2344 82.8899H76.6833C76.7323 82.8899 76.7894 82.8899 76.8466 82.8818C77.0669 82.8495 77.1812 82.793 77.1812 82.7202C77.1812 82.6314 77.0914 82.494 76.9037 82.3163C76.7568 82.1708 76.6017 82.0496 76.4385 81.9446L76.5446 81.4275L77.0425 81.282L77.6628 81.1204L77.9893 81.0477L78.2586 80.9992L78.1036 81.476L77.7363 81.5406L77.2873 81.6295L76.8547 81.7345C77.0751 81.9123 77.32 82.1304 77.5812 82.389C77.8097 82.6071 77.9566 82.7364 78.0056 82.7687C78.1199 82.8495 78.2342 82.8899 78.3566 82.8899H78.9524C79.0912 82.8899 79.1891 82.8495 79.2381 82.7606C79.2544 82.7364 79.2789 82.6556 79.3197 82.5102C79.3361 82.4294 79.3769 82.389 79.4258 82.3728C79.4748 82.3728 79.5156 82.4294 79.5483 82.5425C79.5809 82.6556 79.5973 82.7283 79.6136 82.7526C79.6626 82.8414 79.7523 82.8899 79.8829 82.8899C80.0054 82.8899 80.0952 82.8414 80.1523 82.7526L80.2339 82.5021C80.2584 82.4132 80.2992 82.3647 80.3563 82.3647C80.3972 82.3647 80.4298 82.4213 80.4543 82.5263C80.4788 82.6394 80.5033 82.7122 80.5196 82.7445C80.5767 82.8334 80.6665 82.8818 80.7971 82.8818C80.9032 82.8818 80.9848 82.8334 81.042 82.7445C81.0583 82.7283 81.0828 82.6475 81.1236 82.494C81.1481 82.4051 81.1971 82.3567 81.246 82.3567C81.2869 82.3567 81.3195 82.4051 81.344 82.494L81.3766 82.6475L81.4174 82.7445C81.4746 82.8334 81.5725 82.8738 81.7113 82.8738H82.2092C82.2582 82.8738 82.299 82.8657 82.3398 82.8414C82.3724 82.8172 82.3969 82.793 82.3969 82.7526C82.3969 82.7283 82.3724 82.6718 82.3153 82.599C82.2582 82.5183 82.2092 82.4455 82.1439 82.3809L82.1194 82.3486L82.1439 82.3082L82.4377 81.9203L82.4704 81.9365C82.5194 81.9931 82.5765 82.0819 82.6336 82.2193C82.6744 82.3405 82.6989 82.4617 82.6989 82.5829C82.6989 82.7283 82.6826 82.8495 82.65 82.9465C82.6091 83.0919 82.5438 83.2131 82.4541 83.2939C82.3398 83.399 82.201 83.4474 82.0378 83.4474H81.6868C81.597 83.4474 81.5236 83.4232 81.4419 83.3747C81.3685 83.3262 81.295 83.2535 81.2216 83.1404C81.1644 83.2293 81.0991 83.302 81.0257 83.3586C80.9522 83.4151 80.8624 83.4394 80.7563 83.4394C80.6747 83.4394 80.5931 83.4151 80.5278 83.3666C80.4543 83.3262 80.389 83.2454 80.3155 83.1404C80.2584 83.2293 80.1931 83.302 80.1196 83.3586C80.0462 83.4151 79.9646 83.4394 79.8829 83.4394C79.785 83.4394 79.7034 83.4151 79.6217 83.3586C79.5483 83.3101 79.483 83.2293 79.4258 83.1323C79.3605 83.2374 79.2789 83.3182 79.181 83.3586C79.083 83.407 78.9851 83.4313 78.879 83.4313H78.3403C78.2423 83.4313 78.1444 83.3989 78.0383 83.3343C77.9893 83.3101 77.9321 83.2697 77.8587 83.2131L77.7281 83.0919L77.3934 82.7283C77.3934 82.8738 77.3689 82.9869 77.32 83.0677C77.271 83.1566 77.1812 83.2293 77.0506 83.302C76.92 83.3747 76.7486 83.4151 76.5446 83.4232H76.3405H76.2997L76.3323 83.4555Z" fill="#414244"/>
<path fill-rule="evenodd" clip-rule="evenodd" d="M74.8958 82.3324C74.8141 82.2112 74.7162 82.1224 74.6019 82.0496C74.5693 82.0254 74.5284 82.0012 74.4713 81.9769C74.4223 81.9527 74.3489 81.9284 74.2591 81.8961C74.153 81.9688 74.0306 82.1224 73.9 82.3567C73.7775 82.591 73.7122 82.7849 73.7122 82.9465C73.7122 83.0758 73.7449 83.1808 73.8183 83.2697C73.9326 83.399 74.0958 83.4636 74.3244 83.4636C74.5284 83.4636 74.6999 83.399 74.8223 83.2778C74.9529 83.1485 75.01 82.9788 75.01 82.7687C75.01 82.5991 74.9692 82.4536 74.8958 82.3324ZM74.7488 82.8738C74.6917 82.9142 74.6427 82.9303 74.5937 82.9465C74.5284 82.9546 74.4795 82.9627 74.455 82.9627H74.3979C74.2999 82.9627 74.2101 82.9384 74.1203 82.898C74.0387 82.8657 73.9979 82.8091 73.9979 82.7445C73.9979 82.7203 74.0061 82.6879 74.0142 82.6556C74.0306 82.6152 74.0387 82.5829 74.0469 82.5587C74.0795 82.4779 74.1122 82.4132 74.153 82.3728C74.2917 82.4213 74.4142 82.4779 74.5121 82.5425C74.6019 82.5991 74.6917 82.6718 74.7652 82.7607L74.7896 82.8091C74.7896 82.8091 74.7652 82.8576 74.7488 82.8738Z" fill="#414244"/>
<path fill-rule="evenodd" clip-rule="evenodd" d="M49.504 18.487L15.4404 7.33038L15.5213 70.9035H36.804C42.0701 70.9035 46.2684 74.1806 49.504 78.1082C52.8692 74.0261 57.0351 70.9035 62.463 70.9035H83.4787L83.5596 7.33038L49.504 18.487ZM78.7061 66.4637H62.6005C57.5366 66.4637 52.3514 69.2772 49.504 72.5705C46.6486 69.2772 41.4715 66.4637 36.4076 66.4637H19.9056V13.1201L66.6936 28.4401C68.6593 29.0906 70.4066 30.5787 69.4763 32.8556C68.8454 34.4006 67.0657 35.5716 65.0434 34.9048L46.9398 28.9768L40.1691 26.7569H40.161L22.9472 21.1135V26.1145L31.1658 28.806C27.4286 32.7987 27.4609 40.2229 33.7543 42.2883L37.3783 43.4755C33.0182 47.2405 33.0182 55.2501 40.5088 57.6978L42.4745 58.3402H22.9472V63.398H38.8748C43.8011 63.398 46.9802 65.0488 49.504 67.8623C52.0198 65.0488 55.1989 63.398 60.1333 63.398H76.0771V58.3402H63.0939C64.3397 56.1283 64.6551 53.3555 63.8139 50.9648C69.0557 49.8832 71.6119 43.63 69.3873 38.995C71.5391 38.0598 73.1245 36.3034 73.8121 34.3925C74.6453 32.0587 74.3541 29.3915 72.4693 27.2936L76.0771 26.1145V21.1135L66.7907 24.1547L56.0968 20.65L78.7061 13.1201V66.4637ZM59.9877 46.5574L36.084 38.7185C33.5521 37.8891 32.9454 35.4902 33.6815 33.5874C34.3772 31.8066 36.2539 30.473 38.8263 31.3187L62.2284 38.9869C64.7037 39.7919 66.4105 42.0118 65.0111 44.6302C64.1536 46.2159 62.285 47.3055 59.9877 46.5574ZM59.7045 55.6974C58.8471 58.0312 56.5417 58.8037 54.3252 58.0799L42.1833 54.1036C35.9061 52.0463 39.2065 44.0773 44.8366 45.9231L57.2454 49.9808C59.7854 50.8184 60.4811 53.5669 59.7045 55.6974Z" fill="#414244"/>
</svg>
