<svg width="65" height="84" viewBox="0 0 65 84" fill="none" xmlns="http://www.w3.org/2000/svg">
<g clip-path="url(#clip0_137_2701)">
<path d="M22.8788 13.3201C22.8788 13.3201 21.5457 -3.81174 40.6839 0.782298C40.6839 9.18282 32.7924 14.3071 22.8801 13.3201H22.8788Z" fill="#414244"/>
<path d="M19.1699 60.5048C19.1699 60.5048 34.656 67.4221 34.7444 67.4614C35.4466 67.7752 37.73 66.4586 38.3715 66.1974C39.8735 65.5845 41.3557 64.9229 42.8142 64.2154C49.2987 61.0679 55.9509 57.0881 59.3852 50.5055C61.5908 46.2777 62.1979 41.3437 61.6858 36.6079C60.6642 27.1822 54.9016 18.913 45.5688 16.1408V23.4256C45.5688 23.4256 56.8537 27.3634 56.8537 38.3891C56.8537 49.4148 38.9034 57.2902 19.1712 60.5061L19.1699 60.5048Z" fill="#414244"/>
<path d="M23.0649 57.8297C23.1097 57.8468 23.1467 49.6353 23.0833 48.8871C23.053 48.5537 18.8201 46.7043 18.2064 46.3407C16.5117 45.3339 14.8697 44.2287 13.3466 42.9792C10.4798 40.627 7.47975 37.3902 7.42167 33.4669C7.28968 24.6726 17.0568 19.0285 31.7074 19.1597V12.4091C31.7074 12.2411 26.6523 12.5666 26.3659 12.5955C22.4326 12.9906 18.5047 13.8976 14.9041 15.5449C2.33882 21.2953 -2.74139 38.6266 7.32928 49.0407C7.69753 49.4213 8.08029 49.7888 8.47625 50.1406C11.2005 52.5663 14.4791 54.3094 17.8804 55.643C19.6213 56.3255 21.3332 57.176 23.0649 57.8297Z" fill="#414244"/>
<path d="M38.3741 22.9649C41.6179 22.9649 44.2476 20.3498 44.2476 17.124C44.2476 13.8981 41.6179 11.283 38.3741 11.283C35.1303 11.283 32.5007 13.8981 32.5007 17.124C32.5007 20.3498 35.1303 22.9649 38.3741 22.9649Z" fill="#414244"/>
<path d="M19.4339 4.85128L20.7537 3.5387C20.7537 3.5387 26.3197 7.26118 22.9434 13.0785L21.7331 13.3201C21.7331 13.3201 24.1208 8.46088 19.4352 4.85128H19.4339Z" fill="#414244"/>
<path d="M10.1736 77.1221H9.81593C9.41864 77.1221 9.09395 77.0315 8.84318 76.8504C8.55676 76.647 8.41026 76.3556 8.4063 75.9762C7.46654 76.8412 6.01732 77.2731 4.0573 77.2731C2.09728 77.2731 1.02554 76.6627 1.02554 75.4433C1.02554 75.0312 1.18261 74.6033 1.49542 74.1596C1.55217 74.0769 1.61421 74.0349 1.6802 74.0349C1.74224 74.0349 1.77259 74.0743 1.77259 74.153C1.77259 74.1885 1.76203 74.2318 1.7396 74.2843C1.61553 74.5652 1.55481 74.8172 1.55481 75.0417C1.55481 75.8804 2.47213 76.2991 4.30808 76.2991C6.4476 76.2991 7.86911 75.8358 8.57128 74.9104C8.71251 74.7266 8.82074 74.6335 8.89597 74.6335C8.94877 74.6335 8.97516 74.686 8.97516 74.7923C8.97516 74.8671 8.95933 74.98 8.92897 75.1296C8.89861 75.2792 8.88277 75.3921 8.88277 75.4669C8.88277 75.9211 9.19427 76.1482 9.81593 76.1482H10.1736V77.1221ZM4.9139 72.2275L4.25924 72.8693L3.59402 72.2183L4.24868 71.5673L4.9139 72.2288V72.2275ZM6.35917 72.2222L5.70715 72.868L5.05249 72.217L5.70055 71.5673L6.36049 72.2236L6.35917 72.2222Z" fill="#414244"/>
<path d="M16.8588 75.3212C16.8588 75.8226 16.7413 76.2361 16.5077 76.5616C16.2424 76.9357 15.8702 77.1221 15.3885 77.1221C14.8235 77.1221 14.417 76.8898 14.1702 76.4238C13.8574 76.8884 13.4601 77.1221 12.9784 77.1221C12.3607 77.1221 11.9475 76.8898 11.7403 76.4238C11.4183 76.8884 10.9787 77.1221 10.4231 77.1221H9.83441V76.1481H10.5102C11.1239 76.1481 11.4856 75.8174 11.5951 75.1558C11.6215 74.9931 11.6743 74.9104 11.7535 74.9104C11.8235 74.9104 11.8683 74.9944 11.8855 75.1624C11.9515 75.82 12.3065 76.1481 12.9506 76.1481C13.3308 76.1481 13.6 76.0497 13.7584 75.8541C13.8693 75.7163 13.9485 75.4814 13.9973 75.1519C14.0197 74.9918 14.0659 74.9117 14.1359 74.9117C14.2111 74.9117 14.26 74.9891 14.2811 75.1453C14.3695 75.8148 14.7087 76.1481 15.3 76.1481C15.9441 76.1481 16.2662 75.9959 16.2662 75.6927C16.2662 75.4512 16.1078 75.1296 15.7897 74.7292L16.1738 74.0099C16.2358 73.8958 16.2794 73.838 16.3058 73.838C16.3322 73.838 16.381 73.9023 16.451 74.0296C16.7202 74.5179 16.8548 74.9484 16.8548 75.3225L16.8588 75.3212ZM13.996 72.2406L13.3743 72.8614L12.7487 72.2367L13.3704 71.625L13.996 72.2406ZM14.7457 70.9319L14.1227 71.5515L13.501 70.9228L14.1187 70.3085L14.7457 70.9319ZM15.5086 72.2432L14.8777 72.8641L14.256 72.234L14.8777 71.6224L15.5086 72.2432Z" fill="#414244"/>
<path d="M18.8716 76.0747C18.8716 76.4172 18.8003 76.7309 18.6591 77.0158C18.5759 77.1864 18.5179 77.273 18.4875 77.273C18.4519 77.273 18.4347 77.1654 18.4347 76.9501C18.4347 75.9762 18.2631 73.5978 17.9186 69.8149L18.6208 69.1639C18.6829 69.1075 18.7251 69.076 18.7462 69.072C18.7686 69.072 18.7818 69.1206 18.7858 69.2164C18.8426 70.3269 18.8716 72.6134 18.8716 76.076V76.0747Z" fill="#414244"/>
<path d="M25.4829 77.1221H25.1054C24.7873 77.1221 24.518 77.021 24.2976 76.8189C24.1604 76.6915 23.9954 76.4684 23.8013 76.1468C23.5981 76.5038 23.3618 76.7545 23.0926 76.8989C22.7666 77.0774 22.298 77.1667 21.6895 77.1667C20.503 77.1667 19.909 76.7427 19.909 75.8961C19.909 75.6113 19.9975 75.3173 20.1743 75.0141C20.2311 74.913 20.2892 74.8631 20.3459 74.8631C20.3987 74.8631 20.4251 74.9064 20.4251 74.9944C20.4251 75.0429 20.4185 75.1138 20.4053 75.2083C20.3921 75.3028 20.3855 75.3737 20.3855 75.4223C20.3855 75.9263 20.8158 76.1796 21.6763 76.1796C22.8893 76.1796 23.4965 75.9447 23.4965 75.4748C23.4965 75.2201 23.1454 74.3053 22.4445 72.7302L22.822 72.0791C22.8708 71.9964 22.9038 71.9518 22.921 71.9479C22.9474 71.9649 22.9804 72.0201 23.02 72.1119C23.3024 72.7748 23.6878 73.775 24.1788 75.1138C24.4309 75.799 24.786 76.1403 25.244 76.1403H25.4829V77.1208V77.1221Z" fill="#414244"/>
<path d="M30.7518 77.1221H30.3149C29.9797 77.1221 29.6642 77.1772 29.3686 77.2861C28.9093 77.4568 28.6796 77.7442 28.6796 78.1472C28.6796 78.6381 29.0175 79.0936 29.6919 79.5136L29.3013 80.3943C28.5107 80.1134 27.856 79.7223 27.336 79.2183C26.7011 78.6053 26.3566 77.907 26.3038 77.1221H25.1384V76.1481H26.2576C26.2576 75.5063 26.4318 74.783 26.7803 73.9784C27.1063 73.2224 27.3676 72.8444 27.5617 72.8444C27.7557 72.8444 27.9919 73.2001 28.2572 73.9102C28.4961 74.5507 28.6149 75.0075 28.6149 75.2792C28.6149 76.4684 28.0342 77.0722 26.874 77.0893C26.944 77.4528 27.1142 77.802 27.3835 78.1354C27.6527 78.4688 27.9576 78.7195 28.2968 78.8862C28.2836 78.768 28.277 78.6512 28.277 78.5383C28.277 77.9477 28.4209 77.4463 28.7073 77.0341C29.1178 76.4435 29.6774 76.1481 30.3888 76.1481H30.7531V77.1221H30.7518ZM28.1701 75.7635C28.1701 75.5955 28.0751 75.2871 27.885 74.8356C27.6818 74.3591 27.5181 74.1202 27.3954 74.1202C27.2805 74.1202 27.1459 74.3276 26.9915 74.7437C26.8199 75.2031 26.7328 75.6717 26.7328 76.1481C27.6897 76.1481 28.1688 76.0195 28.1688 75.7635H28.1701Z" fill="#414244"/>
<path d="M32.7778 75.4459C32.7778 76.5629 32.2195 77.1208 31.1029 77.1208H30.4073V76.1468H30.9828C31.8262 76.1468 32.2473 75.9946 32.2473 75.6914C32.2473 75.48 32.0559 75.1309 31.6718 74.6413L32.0163 73.8091C32.0519 73.7251 32.0796 73.6831 32.1021 73.6831C32.1245 73.6831 32.1707 73.7343 32.2407 73.8354C32.5983 74.3591 32.7765 74.8946 32.7765 75.4446L32.7778 75.4459ZM32.506 78.9715L31.8183 79.6554L31.1214 78.9623L31.8091 78.2785L32.506 78.9715Z" fill="#414244"/>
<path d="M46.2604 77.1221H45.9027C45.5054 77.1221 45.1807 77.0315 44.9299 76.8504C44.6435 76.647 44.497 76.3556 44.4931 75.9762C43.5533 76.8412 42.1041 77.2731 40.1441 77.2731C38.184 77.2731 37.1123 76.6627 37.1123 75.4433C37.1123 75.0312 37.2694 74.6033 37.5822 74.1596C37.6389 74.0769 37.701 74.0349 37.767 74.0349C37.829 74.0349 37.8594 74.0743 37.8594 74.153C37.8594 74.1885 37.8488 74.2318 37.8264 74.2843C37.7023 74.5652 37.6416 74.8172 37.6416 75.0417C37.6416 75.8804 38.5589 76.2991 40.3948 76.2991C42.5344 76.2991 43.9559 75.8358 44.658 74.9104C44.7993 74.7266 44.9075 74.6335 44.9827 74.6335C45.0355 74.6335 45.0619 74.686 45.0619 74.7923C45.0619 74.8671 45.0461 74.98 45.0157 75.1296C44.9854 75.2792 44.9695 75.3921 44.9695 75.4669C44.9695 75.9211 45.281 76.1482 45.9027 76.1482H46.2604V77.1221ZM41.0007 72.2275L40.346 72.8693L39.6808 72.2183L40.3354 71.5673L41.0007 72.2288V72.2275ZM42.4459 72.2222L41.7939 72.868L41.1393 72.217L41.786 71.5673L42.4459 72.2236V72.2222Z" fill="#414244"/>
<path d="M48.293 75.4459C48.293 76.563 47.7347 77.1208 46.6181 77.1208H45.9225V76.1469H46.498C47.3414 76.1469 47.7624 75.9946 47.7624 75.6914C47.7624 75.4801 47.571 75.1309 47.1869 74.6413L47.5314 73.8092C47.5671 73.7252 47.5948 73.6831 47.6172 73.6831C47.6396 73.6831 47.6858 73.7343 47.7558 73.8354C48.1135 74.3591 48.2917 74.8947 48.2917 75.4446L48.293 75.4459ZM48.2283 71.6066L47.5407 72.2905L46.8517 71.5988L47.5393 70.9149L48.2283 71.6066Z" fill="#414244"/>
<path d="M52.6486 76.7795C52.6486 78.0343 52.2144 79.1093 51.3446 80.0045C51.0713 80.2854 50.8971 80.4259 50.8219 80.4259C50.3414 80.4259 49.7911 80.3773 49.1734 80.2815C48.9569 80.246 48.8487 80.2132 48.8487 80.183C48.8487 80.1476 48.9635 80.0977 49.1931 80.0321C49.8768 79.8352 50.5143 79.4834 51.1057 78.9794C51.3525 78.7681 51.5782 78.5213 51.7814 78.2352C52.0375 77.8794 52.1655 77.5815 52.1655 77.34V77.063L51.0595 77.1024C50.2781 77.1286 49.8874 76.8058 49.8874 76.135C49.8874 75.7176 50.0088 75.27 50.2517 74.7923C50.5302 74.2475 50.847 73.9758 51.2046 73.9758C51.7339 73.9758 52.1272 74.3381 52.3833 75.0626C52.5602 75.5627 52.6486 76.135 52.6486 76.7808V76.7795ZM52.0401 76.0812C52.0401 75.8095 51.9477 75.5522 51.7616 75.3107C51.5637 75.0469 51.3314 74.9156 51.0661 74.9156C50.8892 74.9156 50.7361 74.9813 50.6054 75.1125C50.4748 75.2438 50.4101 75.3974 50.4101 75.5732C50.4101 75.9591 50.6886 76.1521 51.2442 76.1521C51.4515 76.1521 51.7168 76.1285 52.0388 76.0799L52.0401 76.0812Z" fill="#414244"/>
<path d="M56.0103 77.1221H55.4348C54.8039 77.1221 54.3671 76.8648 54.1242 76.3516C53.9526 75.9919 53.8681 75.4538 53.8721 74.7371V73.1292C53.8761 72.3522 53.8127 71.2588 53.6807 69.8477L54.2034 69.2938C54.2998 69.1928 54.3578 69.1993 54.375 69.3135C54.4938 70.0473 54.5532 71.1564 54.5532 72.6409V75.0981C54.5532 75.7964 54.8911 76.1455 55.5655 76.1455H56.009V77.1194L56.0103 77.1221Z" fill="#414244"/>
<path d="M60.7632 77.1221H60.2339C59.3905 77.1221 58.7517 76.8438 58.3148 76.286C57.808 76.8438 57.152 77.1221 56.3495 77.1221H55.6606V76.1481H56.4947C57.0636 76.1481 57.4859 76.0339 57.7592 75.8042C57.7064 75.6546 57.6021 75.4892 57.4477 75.3094C57.28 75.1112 57.1296 74.9944 56.9976 74.9589C56.8168 74.9104 56.7257 74.8513 56.7257 74.7804C56.7257 74.741 56.7455 74.6754 56.7851 74.5822C57.0108 74.0546 57.4939 73.7894 58.2343 73.7894C59.1741 73.7894 59.6439 74.0821 59.6439 74.6675C59.6439 74.9274 59.3852 75.2818 58.8692 75.7307C58.9932 75.8581 59.1978 75.9644 59.4842 76.0471C59.7139 76.1127 59.9145 76.1455 60.0861 76.1455H60.7619V77.1194L60.7632 77.1221Z" fill="#414244"/>
<path d="M64.9736 75.4433C65.0092 75.8607 64.9604 76.2112 64.8284 76.496C64.6252 76.9305 64.4008 77.147 64.1526 77.147C63.7026 77.147 63.0624 76.8596 62.2335 76.2847C61.9775 76.5905 61.7993 76.7821 61.6977 76.8622C61.4773 77.0355 61.2054 77.1208 60.8833 77.1208H60.4266V76.1469H61.0285C61.4086 76.1469 61.7412 75.9526 62.0276 75.5654C62.1689 75.3632 62.4223 75.0049 62.7892 74.4891C63.0677 74.1019 63.3515 73.9076 63.6432 73.9076C64.0537 73.9076 64.3889 74.1137 64.6489 74.5258C64.839 74.829 64.9472 75.1335 64.9736 75.4407V75.4433ZM64.4707 76.0615C64.4707 75.8161 64.3783 75.5483 64.1922 75.2582C63.985 74.934 63.758 74.7713 63.5099 74.7713C63.2617 74.7713 62.9621 75.0285 62.6229 75.5418C62.7641 75.6953 63.0228 75.8568 63.3977 76.0261C63.7725 76.1954 64.0642 76.2794 64.2714 76.2794C64.4034 76.2794 64.4694 76.2072 64.4694 76.0615H64.4707Z" fill="#414244"/>
</g>
<defs>
<clipPath id="clip0_137_2701">
<rect width="65" height="84" fill="white"/>
</clipPath>
</defs>
</svg>
