<svg width="56" height="82" viewBox="0 0 56 82" fill="none" xmlns="http://www.w3.org/2000/svg">
<g clip-path="url(#clip0_491_4221)">
<path d="M25.2918 35.9298V52.534C24.6885 52.4527 24.0903 52.6272 23.4601 52.3833C23.0831 52.2377 22.6222 52.2952 22.1932 52.2106C21.0871 51.9904 20.0029 51.6975 18.9119 51.4248C17.7623 51.1369 16.7149 50.6374 15.6675 50.131C14.5648 49.5976 13.4771 49.0303 12.4733 48.3038C11.8465 47.85 11.2198 47.3978 10.6182 46.9101C10.3031 46.6544 9.99306 46.3919 9.67968 46.1328C9.36797 45.8737 9.15346 45.5113 8.74791 45.3386C8.53508 45.2471 8.29711 45.0202 8.23845 44.8068C8.16807 44.5528 7.99378 44.4394 7.84798 44.292C7.08547 43.5147 6.41681 42.6663 5.83864 41.7434C5.10295 41.2574 5.03927 40.265 4.35887 39.7384C4.00695 38.6969 3.3651 37.7943 2.99641 36.7511C2.66627 35.8197 2.22888 34.9256 1.9842 33.9569C1.85014 33.4252 1.63563 32.9121 1.51832 32.3769C1.32225 31.493 1.14293 30.6039 1.01892 29.7081C0.913339 28.9477 0.874795 28.1772 0.847981 27.4084C0.819492 26.6192 0.819492 25.8267 0.847981 25.0376C0.874795 24.2704 0.886526 23.4897 1.03735 22.7429C1.11276 22.3653 1.03065 21.903 1.20996 21.6456C1.44793 21.3052 1.2284 20.9547 1.44291 20.6261C1.6306 20.3382 1.57362 19.8996 1.6859 19.5474C1.9289 18.7769 2.22888 18.0233 2.46852 17.2511C2.63108 16.7261 2.87073 16.2333 3.04669 15.7118C3.22768 15.1783 3.6215 14.7245 3.8712 14.1961C4.36893 13.1411 5.06608 12.2046 5.71463 11.236C6.35983 10.269 7.09553 9.37827 7.83122 8.49599C8.47977 7.717 9.23223 7.01253 10.0316 6.35717C11.0907 5.48843 12.18 4.67388 13.323 3.93385C13.9313 3.53927 14.5128 3.07866 15.2385 2.8856C15.458 2.82803 15.6474 2.66038 15.8535 2.54691C16.9042 1.97284 18.0321 1.58165 19.1599 1.21248C20.0515 0.921207 20.9832 0.755249 21.8932 0.519861C22.6189 0.331888 23.3663 0.287859 24.097 0.16085C25.7242 -0.123649 27.3531 0.121901 28.9737 -2.71101e-05C29.3759 -0.0305091 29.6993 0.174398 30.0781 0.194719C30.4182 0.211654 30.7467 0.135449 31.1154 0.318341C31.4388 0.479218 31.8913 0.431801 32.2902 0.499539C33.0962 0.636708 33.8671 0.892418 34.6565 1.0787C35.4391 1.26159 36.1764 1.58842 36.9255 1.87631C37.0227 1.91357 37.1283 1.92881 37.2222 1.97114C37.74 2.20653 38.2612 2.43515 38.7707 2.69086C39.8683 3.24123 40.9174 3.87796 41.9481 4.54687C43.0709 5.27505 44.0848 6.13702 45.0048 7.11414C45.2042 7.32751 45.3634 7.60862 45.7003 7.66451C45.7673 7.67467 45.8477 7.76611 45.8746 7.83893C46.0589 8.33172 46.4996 8.60098 46.8315 8.96168C47.3091 9.48157 47.7448 10.0235 48.1654 10.5942C48.5945 11.1767 48.9665 11.7914 49.3804 12.3824C50.0608 13.3545 50.5267 14.4434 51.0898 15.4798C51.1618 15.6102 51.1417 15.688 50.9658 15.7795C50.3641 16.0894 49.8078 16.4975 49.1927 16.7719C48.2827 17.1766 47.4314 17.6745 46.6002 18.2164C46.3203 18.3976 45.9852 18.489 45.6902 18.6516C44.8003 19.1393 43.9121 19.6338 43.0323 20.1418C42.2413 20.599 41.3749 20.9208 40.6593 21.5135C40.5822 21.5762 40.4733 21.6253 40.3761 21.632C39.9002 21.6608 39.5415 21.9589 39.1946 22.2197C38.7891 22.5262 38.3316 22.7125 37.9009 22.9563C37.4685 23.2019 36.9959 23.3594 36.6138 23.7184C36.3172 23.9978 35.7575 23.8488 35.7357 23.4643C35.7022 22.8361 35.2581 22.4906 34.9631 22.091C33.9861 20.7667 32.7192 19.7574 31.2042 19.1071C30.7031 18.892 30.1736 18.7549 29.639 18.6245C28.6217 18.3739 27.6112 18.5517 26.6024 18.4839C26.4448 18.4738 24.7975 18.9124 24.6316 18.9903C23.7786 19.3865 22.939 19.8268 22.1982 20.3958C21.6636 20.8056 21.2095 21.3374 20.8023 21.9098C20.4001 22.4737 20.0213 23.0342 19.7498 23.676C19.2806 24.7886 18.8868 25.9131 18.9421 27.1493C18.9538 27.4033 18.9538 27.6573 18.9421 27.9113C18.8951 28.9274 19.2705 29.8368 19.5973 30.7699C19.8169 31.3998 20.2006 31.9282 20.4587 32.5277C20.5207 32.6716 20.633 32.8003 20.7436 32.9155C21.0335 33.222 21.3536 33.4997 21.6268 33.8198C22.148 34.4294 22.7613 34.951 23.4601 35.2846C24.0333 35.5572 24.5679 36.0246 25.2935 35.9332L25.2918 35.9298Z" fill="#414244"/>
<path d="M28.667 26.3568C30.5439 28.2534 32.3203 30.0485 34.0967 31.8435C34.9296 31.2102 35.4106 30.2923 35.9837 29.4507C36.1111 29.2644 36.1681 29.0138 36.2033 28.7852C36.3189 28.0316 36.6356 27.4829 37.3479 27.0951C37.9864 26.748 38.6215 26.3551 39.2633 26.0316C40.0761 25.6235 40.8504 25.146 41.6648 24.7446C42.6687 24.2501 43.6272 23.6659 44.616 23.1528C45.4723 22.7091 46.2902 22.2044 47.1331 21.7438C48.023 21.2578 48.9514 20.8361 49.791 20.2553C50.4446 20.2028 50.8401 19.5796 51.4886 19.4797C51.7249 19.4441 51.921 19.1867 52.1506 19.0631C52.4355 18.909 52.5176 18.9513 52.66 19.2697C52.9852 19.9945 53.1477 20.7616 53.3254 21.5338C53.4712 22.1638 53.503 22.8039 53.617 23.4339C53.7292 24.0622 53.6337 24.7277 53.6488 25.3763C53.6521 25.527 53.7493 25.6726 53.7812 25.825C53.808 25.9588 53.8532 26.1231 53.803 26.2332C53.4946 26.9004 53.7024 27.6015 53.6454 28.2822C53.5834 29.0206 53.6119 29.7775 53.4527 30.4922C53.3036 31.1679 53.2416 31.8571 53.0723 32.5294C52.9114 33.1695 52.8159 33.8435 52.6081 34.4531C52.1808 35.7063 51.7668 36.9679 51.2004 38.1804C50.6859 39.2811 50.0994 40.3243 49.4458 41.337C49.1843 41.7434 48.8877 42.1329 48.5626 42.4885C48.0515 43.0474 47.5018 43.5706 46.9689 44.1092C47.6576 44.9965 48.3431 45.8873 49.0369 46.7696C49.1743 46.9457 49.3486 47.093 49.5078 47.2505C50.0089 47.7484 50.4245 48.3123 50.8183 48.8999C51.0747 49.2826 51.44 49.5722 51.7182 49.9583C52.3383 50.822 53.0606 51.6111 53.7627 52.4562C53.6974 52.6475 53.5265 52.7186 53.2918 52.6983C53.1527 52.6865 53.0136 52.6966 52.8729 52.6966H29.7546C29.587 52.6966 29.4194 52.6949 29.2519 52.6966C28.9837 52.7 28.8597 52.5357 28.8346 52.297C28.8128 52.1022 28.8295 51.9024 28.8295 51.7043C28.8295 47.1624 28.9603 42.6155 28.7876 38.0788C28.6519 34.487 28.7374 30.902 28.662 27.3136C28.6569 27.0375 28.662 26.7598 28.662 26.3568H28.667Z" fill="#414244"/>
<path d="M55.9581 56.9302H1.02226C0.799377 56.9302 0.573139 56.9471 0.351927 56.9251C0.140771 56.9048 0.010055 56.7676 0.00335162 56.5424C-6.5309e-08 56.412 -0.0385445 56.2494 0.182667 56.2528C0.405554 56.2562 0.630117 56.2528 0.853005 56.2528H54.7934C54.961 56.2528 55.1453 56.2088 55.2928 56.263C55.5056 56.3426 55.6414 56.0073 55.8508 56.1969C56.0804 56.4018 55.9715 56.6491 55.9564 56.9302H55.9581Z" fill="#414244"/>
<path d="M55.9715 72.3727V72.9908H0.0201111V72.3727H55.9732H55.9715Z" fill="#414244"/>
<path d="M55.9682 81.3209V81.9983H0.963606C0.824511 81.9983 0.68374 82.0017 0.544645 81.9983C0.221207 81.9881 -0.0435766 81.8188 0.0100504 81.6376C0.07876 81.4056 0.253048 81.2854 0.509452 81.3192C0.591568 81.3311 0.677036 81.3209 0.760829 81.3209H55.9682Z" fill="#414244"/>
<path d="M1.99761 80.4302C1.41274 80.6046 0.812786 80.271 0.271488 80.608C0.242999 80.6266 0.0821177 80.5081 0.0502766 80.4251C0.003353 80.3032 0.003353 80.1575 0.003353 80.0221C1.31148e-06 78.1898 1.31148e-06 76.3558 0.003353 74.5235C0.003353 73.9392 0.0770901 73.8715 0.673691 73.8698C1.6792 73.8664 2.68303 73.8647 3.68853 73.8698C4.43596 73.8732 5.29232 74.4845 5.53364 75.1873C5.89059 76.2237 5.61743 76.9366 5.17668 77.6868C5.09289 77.8291 4.87168 77.8833 4.72588 77.995C4.59684 78.0915 4.45272 78.2084 4.69069 78.3506C4.59014 78.7689 5.0024 78.9484 5.11803 79.2719C5.23199 79.5869 5.45487 79.8646 5.63754 80.1525C5.76155 80.3472 5.71798 80.4573 5.49509 80.4725C5.23031 80.4895 4.97893 80.5437 4.71918 80.6097C4.38568 80.6927 4.01532 80.3929 3.62318 80.4624C3.59804 80.4674 3.54441 80.2896 3.50084 80.1999C3.25281 79.68 2.99809 79.1652 2.6847 78.6809C2.63443 78.603 2.60259 78.4929 2.53053 78.4506C2.39981 78.371 2.21547 78.2524 2.10821 78.2931C1.94566 78.3557 1.82332 78.5166 1.8384 78.7571C1.86522 79.2075 1.8384 79.6597 1.85181 80.1101C1.85516 80.2067 1.9356 80.2998 1.99761 80.4319V80.4302ZM1.84678 75.5615C1.84678 75.6767 1.84678 75.7038 1.84678 75.7326C1.81494 76.7537 1.83002 76.7537 2.8238 76.7588C3.16232 76.7605 3.40532 76.6775 3.60474 76.4133C3.67848 76.3168 3.774 76.2389 3.78406 76.2288C3.71535 75.5802 3.34666 75.5175 2.89251 75.5565C2.56572 75.5852 2.2339 75.5615 1.84678 75.5615Z" fill="#414244"/>
<path d="M21.3268 80.6198C20.7319 80.6791 20.1788 80.5233 19.6241 80.3116C19.0611 80.0949 18.6387 79.6851 18.327 79.2278C17.6098 78.1745 17.5511 76.7571 18.0991 75.6343C18.5918 74.6284 19.3091 73.9748 20.447 73.8681C20.8106 73.592 21.2564 73.631 21.6251 73.7207C22.272 73.8782 22.9356 74.0323 23.5221 74.3795C23.9076 74.6064 24.0802 75.0281 24.2964 75.3888C24.6399 75.9612 24.826 76.5996 24.8092 77.2821C24.7958 77.8511 24.4238 79.0145 24.0802 79.4243C23.5892 80.0119 22.9406 80.3794 22.2284 80.6046C21.9519 80.6927 21.6268 80.6181 21.3234 80.6181L21.3268 80.6198ZM21.2229 78.9501C22.1077 78.9501 22.4563 78.5877 22.8233 77.7528C23.0747 77.1822 22.8552 76.7842 22.644 76.3405C22.2938 75.6022 21.7927 75.316 21.0385 75.3922C20.5944 75.4379 19.6828 76.244 19.6258 76.7148C19.5806 77.0975 19.5135 77.5581 19.6744 77.8697C19.9962 78.4895 20.4235 79.0957 21.2212 78.9501H21.2229Z" fill="#414244"/>
<path d="M44.254 61.5042C44.0294 61.0605 44.0412 60.6947 44.1887 60.2849C44.3529 59.8311 44.7785 59.7904 45.102 59.6702C45.3433 59.5805 45.6081 59.6245 45.6919 59.301C45.8628 59.3586 45.9986 59.0419 46.2231 59.3197C46.6454 59.8396 47.0057 60.395 47.3342 60.9742C47.5236 61.3078 47.537 61.6973 47.351 61.9868C47.1381 62.3188 46.8315 62.6304 46.3941 62.6795C46.2818 62.6913 46.1544 62.5965 46.0371 62.5406C45.7438 62.4 45.4405 62.3442 45.1104 62.3442C41.3163 62.3526 37.5205 62.356 33.7264 62.3408C33.3024 62.3408 32.8449 62.5034 32.451 62.1934C32.0606 62.5067 31.6081 62.312 31.1858 62.3425C30.7417 62.3746 30.2909 62.3746 29.8468 62.3425C29.5351 62.3188 29.1781 62.505 28.9133 62.185C28.6167 62.5186 28.2329 62.3086 27.8927 62.3425C27.5609 62.3763 27.214 62.2984 26.8923 62.3628C26.4917 62.4441 26.4649 62.1037 26.3359 61.9191C26.1968 61.7193 26.361 61.5059 26.6158 61.5025C27.1185 61.4974 27.6196 61.5042 28.1223 61.4974C28.1927 61.4974 28.3 61.4568 28.3218 61.4043C28.3452 61.3467 28.3117 61.235 28.2648 61.1858C27.876 60.7811 27.4805 60.3832 27.0833 59.9869C26.9643 59.8684 26.9492 59.7566 27.0766 59.638C27.1973 59.5246 27.3028 59.3739 27.4453 59.3129C27.5458 59.2706 27.7821 59.3163 27.8123 59.3857C28.0553 59.9479 28.5865 60.2409 28.9502 60.6846C29.1195 60.8912 29.4044 61.0216 29.3491 61.3704C29.344 61.4009 29.5049 61.4941 29.5904 61.4958C30.2607 61.5059 30.9294 61.5042 31.5997 61.4991C31.6751 61.4991 31.8142 61.4653 31.8159 61.4416C31.8192 61.3467 31.8125 61.2197 31.7539 61.1588C31.3098 60.6914 30.864 60.2223 30.3914 59.7854C30.1987 59.6076 30.1736 59.4264 30.1719 59.1944C30.1685 58.8828 30.2557 58.7168 30.5892 58.605C31.0517 58.4526 31.4673 58.163 31.9198 57.9768C32.079 57.9107 32.3337 57.9124 32.4644 58.0022C32.5851 58.0852 32.6169 58.3256 32.6438 58.5034C32.6538 58.5729 32.5616 58.7033 32.4862 58.7337C32.1276 58.8794 31.7606 59.0064 31.3919 59.1283C31.1389 59.213 31.1087 59.3044 31.3031 59.506C31.6332 59.8497 31.9768 60.1799 32.3069 60.5254C32.4913 60.7185 32.7326 60.859 32.7091 61.2112C32.6991 61.3603 32.8935 61.5432 33.1348 61.5025C33.2169 61.489 33.3024 61.5008 33.3862 61.5008H44.254V61.5042ZM45.6483 61.0521C45.5628 60.9149 45.4439 60.8116 45.4388 60.7015C45.4204 60.3476 45.1657 60.5406 45.0182 60.4898C44.9947 60.6372 44.9109 60.8116 44.9612 60.9284C45.0333 61.0978 45.2009 61.2299 45.4237 61.1655C45.4891 61.1469 45.5494 61.1046 45.65 61.0538L45.6483 61.0521ZM46.3371 61.8565C46.4779 61.7142 46.6119 61.5889 46.7276 61.4483C46.741 61.4314 46.6739 61.3213 46.622 61.279C46.5801 61.2451 46.4862 61.2163 46.451 61.24C46.2416 61.3857 46.208 61.5855 46.3354 61.8565H46.3371Z" fill="#414244"/>
<path d="M35.5396 80.5182C35.1709 80.3319 34.9011 80.6503 34.5408 80.4979C34.261 80.3793 33.8923 80.4742 33.5018 80.4742C33.8202 79.7375 33.6711 79.0212 33.6861 78.3167C33.6912 78.0898 33.5303 77.9289 33.2588 77.9306C32.5918 77.9391 31.9231 77.934 31.1992 77.934V80.4538H29.3742V73.8917H31.1673V76.2185H33.6845V73.868C34.1822 73.868 34.6229 73.8596 35.0637 73.8714C35.4089 73.8799 35.5312 74.0154 35.5379 74.3812C35.5463 74.8316 35.5396 75.2821 35.5396 75.7325V80.5182Z" fill="#414244"/>
<path d="M43.3826 80.6435C42.0838 80.7163 41.1755 79.9916 40.4515 79.0466C40.1365 78.6351 39.9521 78.0339 39.9287 77.509C39.9018 76.9129 40.0409 76.2761 40.2571 75.7139C40.4364 75.2465 40.7649 74.7842 41.2073 74.5149C41.69 74.222 42.1542 73.8393 42.7826 73.8579C42.9536 73.863 43.1262 73.7106 43.2988 73.7055C44.497 73.6665 45.7438 74.2169 46.3605 75.3955C46.4544 75.575 46.4846 75.6394 46.2533 75.7461C45.95 75.8866 45.5913 75.8968 45.3383 76.2067C45.2428 76.3236 44.864 76.3371 44.6797 76.078C44.6311 76.0103 44.559 75.9595 44.5037 75.8968C44.1803 75.5242 43.7613 75.2668 43.2921 75.4125C42.7826 75.5717 42.2061 75.7393 42.0302 76.3744C41.7687 77.3176 41.7955 78.2913 42.8362 78.8146C43.2016 78.9992 43.5384 78.9619 43.8686 78.9281C44.1819 78.8959 44.5037 78.7604 44.6277 78.3438C44.7098 78.0661 44.9579 78.0339 45.2394 78.1711C45.4958 78.2964 45.7388 78.4505 45.9902 78.586C46.4477 78.8332 46.4762 78.9501 46.1159 79.3514C45.8544 79.6444 45.5863 79.9357 45.2847 80.1863C44.8858 80.5182 44.3613 80.5216 43.882 80.6384C43.7244 80.6774 43.5485 80.6452 43.3809 80.6452L43.3826 80.6435Z" fill="#414244"/>
<path d="M50.458 73.8681C52.1137 73.8681 53.6773 73.8664 55.2408 73.8681C56.0201 73.8681 56.1022 73.9866 55.8844 74.7402C55.8592 74.8283 55.8425 74.9604 55.8894 75.023C55.9816 75.1466 56.0603 75.2567 55.9179 75.3736C55.819 75.4548 55.6933 75.548 55.5777 75.5531C55.1319 75.5734 54.6845 75.5615 54.1784 75.5615C54.1683 75.7715 54.1499 75.9849 54.1482 76.1966C54.1448 77.4379 54.1482 78.6809 54.1448 79.9222C54.1448 80.0881 54.1515 80.2591 54.1063 80.4149C54.0812 80.5013 53.9086 80.6317 53.8868 80.6165C53.4041 80.2845 52.8578 80.5877 52.3014 80.4234C52.3014 79.1296 52.288 77.8121 52.3064 76.4929C52.3182 75.614 52.2997 75.5209 51.3998 75.5598C50.4463 75.6022 50.4278 75.5294 50.4563 74.5861C50.463 74.3643 50.4563 74.1424 50.4563 73.8664L50.458 73.8681Z" fill="#414244"/>
<path d="M48.7805 65.1722C48.7805 66.1511 48.7738 67.0215 48.7821 67.8936C48.7872 68.3576 49.0419 68.5693 49.4642 68.4372C49.5916 68.3966 49.7055 68.2391 49.7776 68.1087C49.8245 68.0223 49.7843 67.8885 49.7876 67.7751C49.8094 67.013 50.5552 66.5372 51.2741 66.8166C51.869 67.0486 52.2511 67.411 52.1372 68.1239C52.112 68.2797 52.0836 68.4846 52.3617 68.4491C52.4992 68.4321 52.7137 68.5337 52.5176 68.2137C52.3802 67.9901 52.3433 67.6701 52.4573 67.3585C52.5679 67.0537 52.7254 66.8691 53.0287 66.7438C53.317 66.6252 53.6371 66.6388 53.9052 66.4203C54.3778 66.0342 54.5068 66.0748 54.8152 66.5321C55.0548 66.8843 55.3163 67.223 55.5408 67.5837C55.6632 67.7801 55.7704 68.0037 55.8106 68.2289C55.9212 68.8267 55.6414 69.2179 55.1101 69.4702C54.9174 69.5617 54.8202 69.6379 54.5554 69.5075C54.1934 69.3297 53.7493 69.2704 53.3036 69.2755C52.7723 69.2805 52.2092 69.4651 51.7015 69.1366C51.4886 69.4075 51.1887 69.2873 50.9289 69.2873C50.696 69.2873 50.4312 69.4042 50.2234 69.1654C50.1915 69.1281 50.0424 69.2094 49.9452 69.2162C49.5379 69.2467 49.124 69.3195 48.7218 69.2839C48.3196 69.2467 47.9694 68.7505 47.9459 68.2154C47.9157 67.4821 47.9308 66.7471 47.9459 66.0139C47.9476 65.8953 48.0196 65.7463 48.1085 65.665C48.2827 65.5042 48.4905 65.3788 48.7771 65.1739L48.7805 65.1722ZM50.6239 68.4474C50.8418 68.4474 50.9775 68.4524 51.1149 68.4457C51.1635 68.444 51.2306 68.4304 51.2557 68.3966C51.378 68.2374 51.2909 67.7768 51.0965 67.6684C50.9892 67.6074 50.8367 67.5939 50.7144 67.6159C50.6675 67.6243 50.6356 67.7954 50.6272 67.8953C50.6122 68.0579 50.6239 68.2221 50.6239 68.4491V68.4474ZM53.1276 67.6735C53.2818 67.8293 53.4008 68.002 53.565 68.0951C53.6555 68.1476 53.8415 68.1002 53.9437 68.0359C53.999 68.0003 53.999 67.8208 53.9689 67.7243C53.937 67.6277 53.8482 67.5024 53.7628 67.4855C53.6588 67.4635 53.5348 67.5363 53.4209 67.5719C53.3254 67.6023 53.2315 67.6379 53.1276 67.6752V67.6735ZM54.8688 68.0359C54.7716 68.2526 54.7096 68.3915 54.6459 68.5303C54.7163 68.5591 54.79 68.6201 54.8537 68.6082C55.0565 68.5744 54.9694 68.3999 54.9761 68.2814C54.9794 68.2272 54.9308 68.1713 54.8671 68.0342L54.8688 68.0359Z" fill="#414244"/>
<path d="M14.8044 62.351C14.7508 62.6761 14.7441 62.9555 14.6553 63.2028C14.4508 63.765 14.0369 64.0579 13.4302 64.0444C13.2911 64.041 13.1453 64.019 13.0129 64.0478C12.6375 64.1291 12.4549 63.8581 12.2638 63.6312C12.1247 63.4669 12.289 63.2011 12.5169 63.1977C12.7951 63.1926 13.0749 63.2011 13.3548 63.196C13.8039 63.1858 13.8827 63.0978 13.9179 62.6016C13.9212 62.5457 13.9179 62.4898 13.9179 62.373C13.762 62.3645 13.6062 62.3526 13.4486 62.3493C12.7733 62.334 12.4163 61.9665 12.4096 61.2739C12.4096 61.1046 12.4063 60.9352 12.4096 60.7659C12.4214 60.2138 12.8319 59.8108 13.395 59.8091C13.6883 59.8091 13.9682 59.8836 14.2531 59.9429C14.6553 60.0259 14.6888 60.2968 14.7407 60.544C14.8027 60.8353 14.7558 61.152 14.7558 61.5008C15.4865 61.5008 16.1769 61.5008 16.869 61.4991C16.9445 61.4991 17.0199 61.4687 17.0986 61.4517C16.5255 60.8014 15.9775 60.1579 15.4027 59.5398C15.1697 59.2892 15.2938 59.0149 15.2669 58.7507C15.2636 58.7134 15.3692 58.6355 15.4312 58.6271C15.954 58.5492 16.3998 58.2613 16.8841 58.0818C17.0299 58.0276 17.1808 57.9869 17.3299 57.9446C17.6802 57.8447 17.5947 58.2172 17.7288 58.3476C17.8913 58.5051 17.6885 58.6745 17.5628 58.7337C17.1925 58.9099 16.802 59.0436 16.43 59.1893C16.4467 59.7634 16.9579 59.9446 17.2193 60.3036C17.4707 60.649 17.707 60.815 17.7656 61.0893C17.8293 61.3823 17.9768 61.5042 18.265 61.5025C18.9354 61.4958 19.6057 61.4907 20.2744 61.5076C20.447 61.5127 20.6162 61.6058 20.995 61.7227C20.7402 61.8869 20.5944 61.9327 20.5241 62.0343C20.3196 62.3239 20.0498 62.3899 19.7264 62.3476C18.9974 62.2527 18.2416 62.5406 17.531 62.1884C17.1137 62.5237 16.6311 62.2968 16.1803 62.3391C15.7379 62.3797 15.2887 62.3476 14.8061 62.3476L14.8044 62.351ZM13.266 61.5059C13.9112 61.489 13.9145 61.489 13.9145 60.9522C13.9145 60.8522 13.8877 60.7506 13.8743 60.6558C13.4576 60.666 13.2481 60.8506 13.2459 61.2096C13.2459 61.2892 13.2559 61.3704 13.266 61.5059Z" fill="#414244"/>
<path d="M14.9217 67.9461C14.9217 68.3492 14.92 68.737 14.9217 69.1247C14.9251 69.6362 15.1178 69.9173 15.5837 69.963C16.0261 70.007 16.4769 69.9884 16.921 69.9664C17.1523 69.9545 17.4305 69.5803 17.4321 69.3144C17.4388 68.5541 17.4338 67.792 17.4338 67.0316C17.4338 66.6371 17.4154 66.2408 17.4439 65.8479C17.4539 65.704 17.5494 65.5313 17.6617 65.4415C17.7958 65.3331 18.012 65.2129 18.1527 65.2501C18.4008 65.3162 18.2617 65.5838 18.265 65.7582C18.2801 66.4627 18.265 67.1671 18.2734 67.8716C18.2784 68.3458 18.3773 68.4474 18.8516 68.4474C21.0838 68.4508 23.3143 68.4491 25.5466 68.4491C25.7695 68.4491 25.994 68.4372 26.2152 68.4541C26.3074 68.4609 26.4733 68.5337 26.4716 68.5642C26.4599 68.7031 26.5638 68.8538 26.3309 68.974C25.994 69.1468 25.7024 69.3144 25.2902 69.3093C23.1149 69.2822 20.938 69.2992 18.7628 69.2941C18.4745 69.2941 18.3237 69.2755 18.2416 69.6921C18.1025 70.3931 17.3869 70.8182 16.6696 70.8216C16.3076 70.8233 15.944 70.8267 15.582 70.8216C14.7877 70.8114 14.1022 70.1307 14.0838 69.3381C14.0804 69.1976 14.0838 69.057 14.0838 68.9148C14.086 68.4451 14.3653 68.1228 14.9217 67.9478V67.9461Z" fill="#414244"/>
<path d="M11.4259 73.868C11.8884 73.868 12.3275 73.8596 12.7683 73.8714C13.1118 73.8799 13.2408 74.0154 13.2425 74.3795C13.2475 76.2914 13.2459 78.2016 13.2425 80.1135C13.2425 80.2202 13.2425 80.3404 13.1939 80.4284C13.1503 80.508 13.0012 80.6232 12.971 80.6046C12.4867 80.2997 11.9454 80.5944 11.4259 80.4301V73.8663V73.868Z" fill="#414244"/>
<path d="M10.0601 61.4805H10.898C10.898 60.732 10.898 60.0055 10.898 59.2773C10.898 58.8122 11.1773 58.4752 11.7359 58.2664V59.7837C11.7359 60.29 11.7393 60.7981 11.7359 61.3044C11.7309 61.9784 11.3589 62.3408 10.6701 62.3493C10.4807 62.3509 10.2914 62.3493 10.0601 62.3493C10.0601 62.5542 10.0735 62.7184 10.0584 62.881C10.0014 63.5076 9.46852 64.0139 8.84511 64.0427C8.7345 64.0478 8.62222 64.0427 8.50994 64.0427C8.04741 64.0416 7.72676 63.7593 7.548 63.196C7.92004 63.196 8.27364 63.2011 8.62892 63.196C9.13503 63.1875 9.20206 63.113 9.21882 62.5474C9.21882 62.4966 9.19536 62.4458 9.17022 62.3493C8.93728 62.3493 8.69093 62.3662 8.44793 62.3459C8.0893 62.3154 7.73737 61.9445 7.71559 61.577C7.70051 61.3247 7.71056 61.0707 7.71224 60.8167C7.71894 60.2003 8.11109 59.8091 8.73115 59.8108C8.99593 59.8108 9.24061 59.8159 9.50874 59.9581C9.89419 60.1647 10.1003 60.3967 10.0634 60.8421C10.0467 61.0368 10.0601 61.2333 10.0601 61.4805ZM9.22217 61.5059C9.22217 61.2553 9.21379 61.0622 9.22385 60.8709C9.2339 60.6744 9.13168 60.6423 8.9708 60.6541C8.84008 60.6643 8.70936 60.6558 8.582 60.6558C8.56077 61.2101 8.77416 61.4929 9.22217 61.5042V61.5059Z" fill="#414244"/>
<path d="M40.4515 69.2957C40.3962 69.6226 40.3895 69.902 40.299 70.1492C40.0946 70.7131 39.6773 71.001 39.0723 70.9892C38.9332 70.9858 38.7924 70.9909 38.6533 70.9892C38.2176 70.9807 37.9763 70.7792 37.8925 70.3321C37.8825 70.2779 37.9579 70.1543 37.9981 70.1526C38.2763 70.1357 38.5595 70.1154 38.8343 70.1526C39.1008 70.1899 39.2349 70.0391 39.4041 69.8901C39.5516 69.7614 39.5901 69.6158 39.5583 69.4447C39.5097 69.1806 39.2952 69.3245 39.1544 69.3008C38.9215 69.2602 38.6667 69.3787 38.4656 69.1315C38.2394 68.8537 38.0383 68.5828 38.0517 68.2018C38.0567 68.0324 38.0417 67.8631 38.0551 67.6937C38.0919 67.2433 38.5327 66.7962 38.9768 66.7573C39.1427 66.7437 39.3119 66.7657 39.4795 66.7522C40.046 66.7081 40.4398 67.1806 40.4029 67.6802C40.3862 67.9054 40.3996 68.1306 40.3996 68.405C40.4934 68.4185 40.594 68.4456 40.6945 68.4456C41.3766 68.4405 41.4017 68.4168 41.4051 67.7479C41.4084 67.0705 41.4034 66.3932 41.4084 65.7158C41.4084 65.6125 41.4218 65.4685 41.4855 65.4177C41.6028 65.3246 41.7704 65.2332 41.9062 65.2467C42.0117 65.2569 42.2028 65.4584 42.1827 65.5244C41.9212 66.4338 42.1357 67.3567 42.0855 68.2712C42.0687 68.5709 42.005 68.786 41.7922 69.0045C41.5794 69.2212 41.3732 69.3398 41.0682 69.2991C40.8755 69.2737 40.6778 69.294 40.4498 69.294L40.4515 69.2957ZM38.9181 67.6175V68.4541C39.1527 68.4422 39.3589 68.4321 39.5348 68.4236V67.6175H38.9181Z" fill="#414244"/>
<path d="M45.1439 69.2958C45.0986 69.6006 45.0852 69.8732 45.0148 70.1306C44.859 70.7047 44.368 70.8554 43.8769 70.9858C43.773 71.0129 43.6541 70.9892 43.5434 70.9892C43.0798 70.9926 42.7603 70.7104 42.5849 70.1425C42.9552 70.1425 43.3122 70.1476 43.6675 70.1425C44.1468 70.1357 44.2255 70.0578 44.2523 69.5718C44.2574 69.4939 44.2373 69.4143 44.2255 69.2958C43.9658 69.2958 43.711 69.333 43.4747 69.2856C43.2083 69.2314 42.9502 69.1349 42.8429 68.8098C42.6536 68.2391 42.667 67.6768 42.9485 67.1603C43.1077 66.8674 43.3859 66.6743 43.7797 66.7488C44.1149 66.8115 44.4786 66.6489 44.7735 67.0029C44.9813 67.2518 45.1154 67.4635 45.102 67.8055C45.0785 68.444 45.102 68.4457 45.7623 68.4474C46.3773 68.4474 46.9907 68.4474 47.6057 68.4507C47.6543 68.4507 47.7347 68.4795 47.7431 68.5083C47.7616 68.5794 47.775 68.6895 47.7364 68.7302C47.4364 69.0519 47.1683 69.3855 46.6287 69.3076C46.141 69.2382 45.6349 69.2924 45.1439 69.2924V69.2958ZM44.2557 68.4338C44.2557 68.19 44.2708 68.0206 44.2507 67.8547C44.2406 67.7666 44.1769 67.6193 44.1233 67.6142C43.9457 67.5939 43.763 67.6227 43.6155 67.6328V68.4355H44.2574L44.2557 68.4338Z" fill="#414244"/>
<path d="M31.3215 67.599C31.3869 67.7412 31.4992 67.8801 31.5075 68.0257C31.5327 68.4474 31.5109 68.8707 31.5193 69.2941C31.5226 69.455 31.5025 69.6599 31.588 69.7666C31.7137 69.9258 31.9165 70.1002 32.0991 70.1188C32.5047 70.1594 32.932 70.1662 33.3258 70.0731C33.8135 69.9579 33.8537 69.8106 33.8152 69.118C33.4012 69.1722 32.9722 69.0147 32.5231 69.2975C32.5231 68.6811 32.5097 68.0951 32.5281 67.5109C32.5399 67.1366 32.9052 66.7827 33.2756 66.759C33.5538 66.7421 33.8353 66.7353 34.1118 66.7624C34.3096 66.781 34.5961 66.6252 34.6782 66.8928C34.7118 67.0012 34.4905 67.1942 34.3716 67.3382C34.2291 67.5126 34.0766 67.6447 33.8102 67.6159C33.6811 67.6023 33.5001 67.7141 33.4063 67.8242C33.2404 68.0189 33.3359 68.2018 33.6074 68.278C33.8068 68.3356 34.0062 68.3949 34.2073 68.4457C34.4537 68.5083 34.4989 68.7234 34.5877 68.9198C34.9481 69.7107 34.4688 70.6421 33.6426 70.8301C33.2471 70.9198 32.8616 70.9909 32.4544 70.996C31.7489 71.0028 31.2361 70.6472 30.7903 70.1578C30.7115 70.0714 30.6897 69.9122 30.683 69.7852C30.6679 69.5041 30.7082 69.2179 30.6713 68.9402C30.5942 68.3576 30.7936 67.9241 31.3215 67.599Z" fill="#414244"/>
<path d="M0.923385 60.6541C1.05578 60.8675 1.1446 61.0436 1.03064 61.3366C0.926737 61.6058 0.956902 61.9598 1.02226 62.2544C1.09265 62.5677 1.15298 62.9013 1.57361 63.0453C2.05793 63.2112 2.90926 63.2705 3.27627 63.0165C3.4338 62.9064 3.5796 62.7642 3.52262 62.5288C3.46229 62.2764 3.30476 62.1698 3.04836 62.1782C2.77352 62.1884 2.49868 62.1799 2.18027 62.1799C2.18027 61.6414 2.16686 61.1401 2.18362 60.6389C2.20038 60.1529 2.5389 59.8311 3.02824 59.8108C3.25113 59.8023 3.47905 59.782 3.69691 59.8176C3.91812 59.8531 4.22145 59.6448 4.34713 59.9581C4.40914 60.1139 3.84438 60.6287 3.62485 60.6541C3.51424 60.6677 3.40196 60.6541 3.28968 60.6575C3.21091 60.6609 3.13382 60.6744 3.01819 60.6863C3.01819 60.8099 3.02154 60.9166 3.01819 61.025C3.01149 61.2011 2.99976 61.3451 3.26454 61.3451C3.46564 61.3451 3.66674 61.4399 3.86449 61.5059C4.05554 61.5686 4.1209 61.7159 4.20804 61.9073C4.5851 62.7388 4.22312 63.5448 3.38855 63.892C2.59588 64.2222 1.85515 63.9343 1.09265 63.8768C0.851324 63.5228 0.346895 63.3789 0.326785 62.8404C0.320081 62.6592 0.0117259 62.4898 0.310026 62.2917C0.326785 62.2798 0.341867 62.2358 0.333488 62.2206C-0.103907 61.4551 0.527886 61.1029 0.920033 60.6558L0.923385 60.6541Z" fill="#414244"/>
<path d="M1.06081 69.753C1.25521 70.046 1.51329 70.1815 1.89203 70.151C2.39143 70.112 2.89418 70.1391 3.39694 70.1408C3.85947 70.1419 4.18011 70.4242 4.35887 70.9875C3.42878 70.9875 2.51544 71.0197 1.60546 70.9723C1.25856 70.9537 0.916687 70.7623 0.578166 70.6353C0.25808 70.5168 0.32679 70.1594 0.253052 69.9308C0.167584 69.6683 0.27819 69.3212 0.36701 69.0299C0.403878 68.9063 0.603304 68.8419 0.744075 68.764C1.10606 68.5642 1.46469 68.4457 1.87192 68.4457C3.26622 68.4474 4.65885 68.4457 6.05315 68.4457C6.08164 68.4457 6.11013 68.4508 6.13694 68.4457C6.38999 68.3813 6.55925 68.51 6.70338 68.6963C6.51903 68.8199 6.54417 69.0909 6.25928 69.1942C6.03974 69.2721 5.84032 69.2873 5.63251 69.289C4.40579 69.2975 3.17908 69.3009 1.95236 69.289C1.57362 69.2856 1.22672 69.3026 1.05913 69.7513L1.06081 69.753Z" fill="#414244"/>
<path d="M50.458 61.9191C50.3658 62.2747 50.5166 62.6947 50.3172 63.1469C50.0239 63.8107 49.5413 63.9936 48.9229 64.0427C48.7838 64.0545 48.6347 64.0122 48.5056 64.0512C48.1621 64.1511 48.1001 63.875 48.0045 63.6752C47.8319 63.3145 47.9157 63.2061 48.3313 63.1977C48.5257 63.1943 48.7235 63.1824 48.9162 63.201C49.1307 63.2231 49.2866 63.1469 49.4139 62.9809C49.5078 62.859 49.724 62.7624 49.5782 62.5795C49.4893 62.4661 49.3201 62.3814 49.1743 62.3594C48.8609 62.312 48.5006 62.4576 48.2744 62.0969C48.2308 62.0275 48.1168 61.9716 48.1168 61.9123C48.1269 61.3857 48.1403 60.859 48.1839 60.334C48.2056 60.0749 48.4252 59.9344 48.643 59.8734C49.1207 59.7379 49.61 59.7413 50.0457 60.0004C50.3742 60.1969 50.3507 60.6084 50.4395 60.9267C50.52 61.2146 50.4563 61.5415 50.4563 61.9191H50.458ZM49.6201 61.5042C49.6201 61.2858 49.6368 61.1469 49.6167 61.0114C49.5798 60.7557 49.4139 60.6744 49.1659 60.649C48.8844 60.6202 48.9615 60.8556 48.9028 60.9691C48.6715 61.4161 48.7134 61.4907 49.1558 61.5042C49.2899 61.5076 49.424 61.5042 49.6201 61.5042Z" fill="#414244"/>
<path d="M26.9627 70.1425C27.3146 70.1425 27.6397 70.1442 27.9648 70.1425C28.4218 70.138 28.6485 69.8557 28.6452 69.2958C28.4877 69.2958 28.3251 69.2772 28.1693 69.2992C27.8659 69.3415 27.6581 69.2247 27.4436 69.0096C27.2291 68.7945 27.1034 68.5845 27.1554 68.278C27.1688 68.195 27.1654 68.1087 27.1554 68.024C27.1068 67.5854 27.2207 67.1603 27.581 66.9453C28.0218 66.6828 28.5296 66.6574 29.044 66.8657C29.3641 66.9944 29.4865 67.2366 29.4949 67.5126C29.5217 68.3576 29.5267 69.2043 29.4949 70.0494C29.4798 70.4439 29.1429 70.6624 28.8279 70.8063C28.5715 70.9232 28.2681 70.9689 27.9816 70.9808C27.2945 71.0095 27.2945 70.9943 26.961 70.1408L26.9627 70.1425ZM28.0235 67.6159V68.4541C28.2581 68.4423 28.4642 68.4321 28.6385 68.422V67.6159H28.0235Z" fill="#414244"/>
<path d="M53.317 60.3205V61.5025C54.1214 61.5025 54.8973 61.4991 55.6732 61.5059C55.7922 61.5059 55.9832 61.4314 55.9816 61.6566C55.9816 61.7836 55.9531 61.9462 55.8726 62.0275C55.6632 62.2392 55.4051 62.3645 55.0867 62.3526C54.6124 62.3357 54.1381 62.3459 53.6622 62.3492C53.3706 62.3509 53.3689 62.356 53.2265 62.6812C53.1108 62.947 53.0539 63.2163 52.8243 63.4517C52.3031 63.9834 51.673 63.892 51.0646 63.8462C50.9105 63.8344 50.768 63.4991 50.6574 63.2925C50.6406 63.2603 50.8099 63.0588 50.9121 63.0402C51.1283 62.9995 51.3562 63.03 51.5808 63.0266C52.2042 63.0198 52.4422 62.7912 52.464 62.1511C52.4774 61.7853 52.464 61.4178 52.4673 61.0504C52.4707 60.5773 52.7533 60.334 53.3153 60.3205H53.317Z" fill="#414244"/>
<path d="M10.5344 68.4491C11.3957 68.4491 12.1717 68.4474 12.9476 68.4508C13.0699 68.4508 13.2576 68.3881 13.2392 68.6184C13.2291 68.7454 13.2023 68.9114 13.1185 68.9825C12.8973 69.1688 12.6493 69.3127 12.3325 69.2992C11.8884 69.2805 11.436 69.3415 10.9986 69.2805C10.6249 69.228 10.5729 69.5142 10.4305 69.6971C10.3601 69.7886 10.4187 69.9766 10.3567 70.0832C10.04 70.6404 8.91717 71.0383 8.3256 70.8182C8.21667 70.7776 8.00384 70.261 8.05244 70.1086C8.07087 70.0511 8.15466 69.9816 8.21164 69.9766C8.43285 69.9613 8.65574 69.9715 8.87863 69.9698C9.44674 69.9647 9.69309 69.7327 9.71823 69.14C9.73666 68.7183 9.71823 68.2967 9.72325 67.875C9.72996 67.3432 9.78861 67.2874 10.3467 67.262C10.3986 67.2603 10.4506 67.2772 10.531 67.2924V68.4474L10.5344 68.4491Z" fill="#414244"/>
<path d="M24.5645 59.1368C24.96 59.5364 25.3589 59.9293 25.7477 60.334C26.2605 60.8675 25.994 62.0681 25.2784 62.2764C24.9332 62.378 24.5092 62.3712 24.1657 62.2662C23.3495 62.019 23.3311 61.0351 23.6495 60.3764C23.7551 60.1579 24.2997 60.1528 23.9729 59.7227C24.1707 59.5263 24.3668 59.3315 24.5645 59.1351V59.1368ZM25.146 61.0927C25.1527 60.8624 24.9868 60.6727 24.7623 60.6558C24.4807 60.6338 24.2914 60.8217 24.3081 61.1079C24.3215 61.3365 24.5059 61.5059 24.7338 61.5025C24.965 61.4991 25.1393 61.3264 25.146 61.0927Z" fill="#414244"/>
<path d="M4.36055 63.0283C4.69404 63.0283 5.02921 63.0385 5.3627 63.0267C5.83697 63.0097 6.03304 62.8167 6.03639 62.3798C6.03807 62.0986 6.03639 61.8175 6.03639 61.5364C6.03639 60.6999 6.05986 60.666 6.87432 60.3239C6.87432 61.1537 6.89275 61.9632 6.86761 62.7709C6.85253 63.2841 6.28107 63.8293 5.77161 63.8734C5.63419 63.8852 5.49342 63.8751 5.35433 63.8751C4.60187 63.8751 4.57673 63.8514 4.36055 63.0283Z" fill="#414244"/>
<path d="M37.2155 67.2416C37.2155 68.0765 37.2255 68.8555 37.2121 69.6362C37.2021 70.1594 36.5485 70.7996 36.0273 70.8182C35.7776 70.8266 35.5262 70.8317 35.2765 70.8131C35.1944 70.8063 35.0871 70.742 35.0419 70.6709C34.9145 70.4744 34.8123 70.2627 34.7017 70.0561C34.9246 70.0273 35.1458 69.9918 35.3687 69.9748C35.5346 69.9613 35.7039 69.9884 35.8681 69.9681C36.1597 69.9325 36.3742 69.6903 36.3759 69.4092C36.3792 69.0434 36.3943 68.6777 36.3725 68.3136C36.3457 67.8767 36.4865 67.5718 36.9155 67.4262C37.0026 67.3974 37.0764 67.328 37.2155 67.2399V67.2416Z" fill="#414244"/>
<path d="M8.19991 65.2941V69.2568H7.37874C7.37874 68.2221 7.38545 67.1908 7.37539 66.1595C7.37204 65.853 7.42399 65.6277 7.77257 65.5617C7.8882 65.5397 7.98875 65.4313 8.19991 65.2941Z" fill="#414244"/>
<path d="M22.1295 62.3035C22.0306 62.3272 21.9804 62.3492 21.9301 62.3492C21.739 62.3526 21.5463 62.3492 21.2916 62.3492C21.2916 61.2451 21.3083 60.1596 21.2832 59.0741C21.2748 58.6761 21.7256 58.8201 21.7994 58.5424C21.8111 58.4966 21.977 58.4391 21.9971 58.4611C22.0608 58.5254 22.1228 58.627 22.1245 58.7134C22.1329 59.9124 22.1295 61.113 22.1295 62.3001V62.3035Z" fill="#414244"/>
<path d="M53.2885 58.0022C53.2952 58.0767 53.3019 58.1563 53.3069 58.2376C53.3253 58.4865 53.2667 58.6948 53.5985 58.8845C53.9186 59.0674 53.7644 59.6161 53.4075 59.7803C53.3371 59.8125 53.2214 59.7244 53.1259 59.716C52.9198 59.6973 52.6466 59.6093 52.5209 59.7058C52.288 59.8853 52.1807 59.7922 52.045 59.6347C51.9579 59.5331 51.8054 59.4145 51.8154 59.318C51.8322 59.147 51.9193 58.8743 52.0316 58.8422C52.2779 58.7744 52.2947 58.6559 52.3098 58.4442C52.3383 58.0513 52.4388 57.9683 52.7941 57.948C52.9047 57.9412 53.017 57.9412 53.1276 57.948C53.1779 57.9514 53.2248 57.9802 53.2885 58.0022Z" fill="#414244"/>
<path d="M37.0194 64.9081C37.0412 64.9199 37.1987 64.9707 37.3043 65.0757C37.5154 65.284 37.2104 65.6024 37.2926 65.6854C37.4266 65.8191 37.7132 65.8327 37.7082 66.0986C37.7048 66.2594 37.854 66.4711 37.5707 66.5964C37.368 66.6862 37.2272 66.7065 37.0278 66.5981C36.9423 66.5524 36.8568 66.3272 36.6474 66.5422C36.3692 66.8267 36.21 66.7641 35.9586 66.4152C35.8044 66.2019 35.8463 65.9716 36.0893 65.7819C36.1463 65.7379 36.2385 65.7379 36.3139 65.7192C36.2803 65.6396 36.215 65.555 36.225 65.4805C36.2334 65.4127 36.3574 65.3619 36.3725 65.2925C36.4345 65.008 36.5803 64.8556 37.0194 64.9081Z" fill="#414244"/>
<path d="M6.54082 70.2763C6.55926 70.5049 6.57601 70.7318 6.20901 70.6556C6.07829 70.6285 6.05818 70.6725 6.11516 70.83C6.21403 71.1044 6.02969 71.4702 5.84032 71.4973C5.41801 71.5582 5.23199 71.4312 5.2102 70.9858C5.19847 70.7521 5.12473 70.6827 4.92028 70.6031C4.70075 70.5167 4.59852 70.2441 4.72924 70.0511C4.85157 69.8699 5.0996 69.7733 5.29399 69.6446C5.29902 69.6412 5.33757 69.6785 5.3493 69.7022C5.53196 70.0273 5.75988 69.8648 5.98947 69.7716C6.0984 69.7276 6.24587 69.6514 6.32464 69.692C6.42519 69.7445 6.48552 69.8936 6.53579 70.0138C6.56596 70.0849 6.54082 70.1798 6.54082 70.278V70.2763Z" fill="#414244"/>
<path d="M54.9727 64.5524C54.6627 64.549 54.4901 64.4187 54.4867 64.146C54.4867 64.0088 54.5554 63.8717 54.5923 63.7345C54.4616 63.7159 54.2789 63.743 54.2119 63.6668C54.113 63.5533 54.0108 63.3128 54.0644 63.2248C54.1415 63.0995 54.0627 62.7726 54.3828 62.8573C54.5739 62.9081 54.8085 62.5372 54.971 62.9216C54.9828 62.9504 55.085 62.9589 55.1403 62.947C55.214 62.9318 55.2794 62.8692 55.3531 62.8607C55.7201 62.8217 55.9397 62.9454 55.9883 63.2028C56.0385 63.4703 55.938 63.599 55.504 63.6972C55.2526 63.7531 55.4034 63.8005 55.4419 63.9309C55.5693 64.3645 55.4068 64.5558 54.9727 64.5524ZM55.1269 63.6447C55.1068 63.6092 55.0867 63.5719 55.0666 63.5364C55.0481 63.555 55.0113 63.5787 55.0146 63.5923C55.023 63.6329 55.0481 63.6685 55.0666 63.7057C55.085 63.6871 55.1034 63.6685 55.1269 63.6447Z" fill="#414244"/>
<path d="M7.36868 59.4246C7.3536 59.4484 7.305 59.6075 7.22288 59.6262C7.08714 59.6583 6.97151 59.9005 6.76538 59.655C6.66148 59.533 6.36318 59.4348 6.17548 59.6431C5.94589 59.8971 5.74479 59.6634 5.58726 59.5821C5.42806 59.4992 5.5219 58.9911 5.72971 58.8658C5.9174 58.7523 6.05985 58.7066 6.05482 58.4137C6.04812 58.0157 6.22576 57.9513 6.63634 57.9344C6.90615 57.9242 6.82068 58.1529 6.92123 58.2358C7.10558 58.3883 6.92458 58.4391 6.88604 58.5441C6.86425 58.6033 6.94805 58.7676 7.00838 58.7828C7.30668 58.854 7.40388 59.0385 7.36701 59.4229L7.36868 59.4246Z" fill="#414244"/>
<path d="M38.0534 60.5068V59.7464C38.5846 59.6126 38.2981 59.13 38.4355 58.793C38.598 58.793 38.769 58.7608 38.9181 58.8032C39.0354 58.837 39.2181 58.9742 39.2114 59.0521C39.1812 59.4145 39.3421 59.6601 39.5499 59.931C39.7074 60.1376 39.4192 60.412 39.1511 60.5051C38.9483 60.5745 38.8963 60.1783 38.6684 60.4289C38.5746 60.5322 38.3131 60.4797 38.0551 60.5051L38.0534 60.5068ZM38.8678 59.7007C38.8461 59.6787 38.8276 59.6601 38.8075 59.6397C38.7891 59.677 38.7639 59.7143 38.7556 59.7532C38.7522 59.7668 38.7891 59.7905 38.8075 59.8091C38.8276 59.7718 38.8477 59.7363 38.8678 59.7007Z" fill="#414244"/>
<path d="M11.6555 66.0342C11.9203 66.2696 12.1968 66.2187 12.5001 66.085C12.7297 65.9851 12.961 66.107 13.0515 66.3254C13.1001 66.444 13.0414 66.6557 12.9593 66.7708C12.8169 66.9673 12.6225 67.2314 12.3526 67.0773C12.1348 66.9537 12.0409 66.9198 11.7996 67.0706C11.5164 67.2501 11.3153 66.9198 11.1259 66.7268C10.9416 66.5388 11.2198 66.4389 11.2198 66.3153C11.2164 65.9427 11.4862 66.1341 11.6555 66.0325V66.0342Z" fill="#414244"/>
<path d="M46.2969 66.1138C46.2784 66.1036 46.4108 66.2255 46.5499 66.2323C46.689 66.2391 46.8298 66.1036 46.9773 66.0833C47.2839 66.041 47.4431 66.2306 47.4398 66.5947C47.4381 66.9402 47.2219 67.2027 46.9672 67.0723C46.6655 66.9199 46.4477 67.0333 46.1829 67.0858C45.8477 67.1519 45.4807 66.6963 45.6014 66.3695C45.6835 66.1476 45.8662 66.0291 46.2952 66.1155L46.2969 66.1138Z" fill="#414244"/>
<path d="M20.452 59.4535C20.457 59.7718 20.3263 59.9564 20.0783 59.9785C19.8537 59.9988 19.4247 59.6364 19.4465 59.445C19.4649 59.2858 19.8671 58.9624 20.0431 58.9607C20.2945 58.9607 20.447 59.1436 20.452 59.4518V59.4535Z" fill="#414244"/>
</g>
<defs>
<clipPath id="clip0_491_4221">
<rect width="56" height="82" fill="white"/>
</clipPath>
</defs>
</svg>
