<svg width="70" height="84" viewBox="0 0 70 84" fill="none" xmlns="http://www.w3.org/2000/svg">
<g clip-path="url(#clip0_137_2722)">
<path d="M40.4431 9.9862C40.2201 8.05312 41.5914 6.24068 44.0421 5.19737C43.9126 5.16995 43.8424 5.14116 43.7722 5.14253C42.5689 5.15212 41.3642 5.13841 40.1623 5.18229C38.0916 5.25632 36.6349 6.4052 35.9176 8.48498C35.8419 8.70434 35.7786 8.9278 35.6629 9.30071C35.6244 9.03748 35.5955 8.92918 35.5941 8.8195C35.5913 7.51844 35.5913 6.21738 35.5941 4.91632C35.5968 2.05097 37.3729 0.615548 39.8663 0.165866C40.3041 0.0877205 40.7543 0.052075 41.199 0.0507041C45.858 0.0424782 50.5185 0.0465911 55.1775 0.0465911C55.3441 0.0465911 55.5121 0.0465911 55.7103 0.0465911V41.9561C54.4946 41.9561 53.3133 41.9575 52.1321 41.9561C48.2123 41.9493 44.2926 41.9314 40.3729 41.9369C38.4771 41.9397 36.9103 42.632 35.8887 44.2813C35.5335 44.8544 35.3063 45.5042 34.9993 46.1664C34.936 46.0046 34.8658 45.847 34.8121 45.6852C33.9488 43.1036 32.031 41.8478 29.3035 41.8793C24.4903 41.9328 19.6757 41.8917 14.8624 41.9081C14.4012 41.9095 14.2883 41.7559 14.2883 41.3159C14.2993 27.7582 14.2993 14.202 14.2883 0.644339C14.2883 0.161754 14.4067 -2.22302e-05 14.9134 0.00271973C19.5559 0.0205425 24.1984 0.0123166 28.8396 0.0150586C30.0635 0.0150586 31.2338 0.253609 32.3008 0.874664C33.6156 1.64104 34.3522 2.805 34.4128 4.3076C34.4775 5.92947 34.4279 7.55545 34.4279 9.29523C34.209 8.71805 34.0562 8.22998 33.8456 7.76933C33.109 6.16117 31.8368 5.26317 30.0718 5.17406C28.7088 5.10551 27.3402 5.16035 25.9593 5.16035C28.2531 5.91028 29.4853 7.48005 29.7001 9.95467C29.4275 9.95467 29.2416 9.95467 29.0571 9.95467C27.9047 9.95467 26.7537 9.95741 25.6014 9.95467C25.348 9.95467 25.125 9.9437 25.1277 10.3125C25.1388 11.7849 25.1264 13.2574 25.1401 14.7284C25.1415 14.8765 25.2393 15.0533 25.3453 15.1671C25.9208 15.7786 26.5224 16.3667 27.0938 16.9823C27.3003 17.2044 27.4476 17.1852 27.6445 16.9933C28.2847 16.3722 28.9442 15.7704 29.5665 15.1329C29.7001 14.9958 29.7661 14.7421 29.7689 14.5406C29.7868 13.1888 29.7909 11.8357 29.7689 10.4839C29.7634 10.0863 29.879 9.94781 30.2907 9.95467C31.6455 9.97661 33.0016 9.9629 34.4142 9.9629C34.4279 10.1754 34.4486 10.3564 34.4486 10.536C34.4514 12.6761 34.4431 14.8148 34.4596 16.9549C34.4624 17.3127 34.344 17.5636 34.0989 17.809C33.1764 18.7303 32.2691 19.6653 31.3577 20.5976C31.2407 20.7169 31.1347 20.8471 30.9915 21.0075C31.5188 21.5641 32.0213 22.0961 32.528 22.628C32.9658 23.0873 33.3692 23.5863 33.8538 23.9921C34.3564 24.413 34.4748 24.897 34.4637 25.5194C34.4279 27.6239 34.4169 29.7311 34.45 31.8355C34.4885 34.2005 32.8598 36.2432 30.8841 36.7478C30.8373 36.7601 30.7974 36.7971 30.6721 36.8711C31.7528 37.1399 32.7304 37.5429 33.3926 38.3573C34.0397 39.1511 34.5381 40.0655 35.1191 40.9525C35.7731 38.9386 37.0865 37.4511 39.4284 36.9013C39.1724 36.8053 39.0374 36.7573 38.9039 36.7066C36.9984 35.9704 35.802 34.5816 35.6781 32.5731C35.5211 30.0313 35.6037 27.4758 35.6051 24.9258C35.6051 24.7366 35.7579 24.5159 35.8997 24.3651C36.9323 23.2669 37.9787 22.1824 39.0691 21.0432C38.9025 20.8649 38.7483 20.6922 38.5872 20.5263C37.6882 19.6064 36.7795 18.696 35.8942 17.7638C35.7442 17.6061 35.6065 17.3593 35.6051 17.1509C35.5858 14.8916 35.5927 12.6322 35.5955 10.3728C35.5955 10.2727 35.6175 10.1727 35.634 10.0424H40.282C40.282 10.2398 40.282 10.4222 40.282 10.6059C40.282 11.9234 40.2655 13.2423 40.2986 14.5598C40.3055 14.8148 40.4431 15.1192 40.6207 15.3056C41.1756 15.8896 41.7869 16.4175 42.3569 16.9878C42.5909 17.2222 42.7561 17.2414 42.9888 16.9933C43.5616 16.3791 44.1646 15.7923 44.7304 15.1726C44.8516 15.0396 44.9259 14.8134 44.9287 14.6297C44.9452 13.2437 44.9246 11.8576 44.9452 10.4715C44.9507 10.0781 44.8075 9.97798 44.4344 9.98346C43.1141 10.0013 41.7938 9.99032 40.4445 9.99032L40.4431 9.9862ZM19.2599 5.13567C19.2475 5.37559 19.231 5.56068 19.2296 5.74576C19.2131 7.64457 19.1924 9.54475 19.1842 11.4436C19.158 18.4945 19.136 25.5455 19.1126 32.5964C19.1084 33.8632 19.1139 35.13 19.0864 36.3954C19.0768 36.8053 19.2186 36.9328 19.6206 36.915C20.2732 36.8876 20.9272 36.9068 21.5798 36.9068C22.3081 36.9068 23.0364 36.9068 23.7647 36.9068C23.7262 36.7711 23.6766 36.734 23.6202 36.7135C21.4146 35.9293 20.1575 34.147 20.1658 31.8314C20.1727 29.812 20.2057 27.7911 20.1548 25.773C20.1355 24.9957 20.2938 24.3938 20.9189 23.8948C21.3581 23.5438 21.7243 23.1024 22.1195 22.6979C22.6661 22.1386 23.2099 21.5765 23.773 20.9965C23.6009 20.8156 23.4742 20.6785 23.3421 20.5469C22.3728 19.5762 21.3967 18.6138 20.4398 17.6308C20.3007 17.4882 20.1851 17.2524 20.1837 17.0591C20.1713 14.6119 20.1424 12.1633 20.1975 9.71749C20.2429 7.68707 21.6183 5.94181 23.5513 5.28922C23.656 5.25358 23.7578 5.20696 23.9368 5.1343H19.2585L19.2599 5.13567ZM46.2077 20.9499C46.3936 21.1556 46.4803 21.2584 46.574 21.3544C47.5721 22.3675 48.5813 23.3697 49.5588 24.4021C49.7364 24.5899 49.8686 24.9011 49.8714 25.1561C49.8948 27.4319 49.8893 29.7091 49.8824 31.985C49.8755 34.1826 48.5896 35.9814 46.512 36.7203C46.4211 36.7532 46.3344 36.7944 46.1003 36.8931C46.417 36.9095 46.5781 36.9232 46.7406 36.9246C47.9273 36.9287 49.1128 36.9301 50.2996 36.9315C50.959 36.9315 50.9618 36.9315 50.959 36.2556C50.9164 26.1747 50.8737 16.0953 50.8282 6.01447C50.8282 5.74576 50.7979 5.47568 50.7759 5.11785C49.3275 5.11785 47.9205 5.11785 46.5148 5.11922C46.4198 5.11922 46.3234 5.13978 46.1623 5.16035C46.2573 5.23027 46.289 5.27003 46.3289 5.27962C48.3404 5.79511 49.9609 7.8557 49.8934 10.3509C49.8493 12.0098 49.7709 13.681 49.9168 15.3289C50.0517 16.8576 49.6029 17.9776 48.401 18.9099C47.6203 19.5145 46.9457 20.2562 46.2091 20.9513L46.2077 20.9499ZM29.645 31.9891C29.645 30.3891 29.6505 28.8687 29.6353 27.3497C29.6353 27.2181 29.5169 27.07 29.4192 26.9603C28.8506 26.3201 28.2641 25.6935 27.6982 25.0505C27.4903 24.8147 27.3402 24.8079 27.1186 25.0409C26.5059 25.688 25.8671 26.3118 25.2544 26.9589C25.1346 27.0864 25.0121 27.277 25.0107 27.4402C24.9928 28.844 24.9942 30.2479 25.0176 31.6504C25.019 31.7656 25.2255 31.9754 25.3398 31.9767C26.7469 31.9987 28.1553 31.9918 29.645 31.9918V31.9891ZM40.4046 32.0192C41.9108 32.0192 43.3495 32.0275 44.7883 32C44.8791 31.9987 45.0375 31.7135 45.0402 31.5586C45.0609 30.2411 45.0595 28.9222 45.043 27.6047C45.0402 27.4182 44.97 27.1879 44.8461 27.0563C44.2155 26.379 43.5533 25.7305 42.9117 25.0643C42.7148 24.86 42.5703 24.838 42.3679 25.0684C41.7786 25.7374 41.1659 26.3845 40.5753 27.0522C40.4817 27.1577 40.4115 27.3236 40.4101 27.4621C40.3977 28.9496 40.4032 30.4371 40.4032 32.0206L40.4046 32.0192ZM45.8154 7.62674C45.8209 7.13868 45.4367 6.72464 44.9686 6.71641C44.495 6.70819 44.1081 7.09892 44.0985 7.59795C44.0889 8.1011 44.4537 8.49458 44.9383 8.5028C45.4175 8.51103 45.8085 8.1203 45.814 7.62812L45.8154 7.62674ZM25.9428 7.59384C25.9497 7.08246 25.5917 6.69448 25.1071 6.68625C24.6293 6.67803 24.2342 7.06876 24.226 7.5582C24.2163 8.03667 24.6073 8.45619 25.0741 8.4699C25.5518 8.48361 25.9373 8.09562 25.9442 7.59247L25.9428 7.59384Z" fill="#414244"/>
<path d="M45.2247 53.9988C45.0554 55.2189 44.886 56.4391 44.7167 57.6593C44.7717 57.6895 44.8268 57.7196 44.8819 57.7498C46.9884 55.197 49.2408 52.7676 51.1449 50.0476C51.1917 50.0723 51.2371 50.097 51.2839 50.123C51.0251 50.6221 50.8324 51.1718 50.495 51.6119C49.3303 53.1337 48.1187 54.6185 46.9195 56.1128C46.4624 56.6832 45.9916 57.2425 45.4808 57.8636C46.1871 58.0391 46.8135 58.2022 47.4455 58.3448C47.5487 58.3681 47.696 58.3338 47.78 58.2708C48.2123 57.9417 48.6199 57.5812 49.0563 57.2576C49.3454 57.0437 49.6469 56.8107 49.9801 56.6996C50.3202 56.5872 50.3574 56.3815 50.3285 56.1169C50.2665 55.548 50.5295 55.1052 50.8406 54.6486C51.2068 55.6371 50.5281 57.0163 49.8961 57.4454C49.4432 57.7525 48.9847 58.0528 48.5373 58.3695C48.3156 58.5258 48.1325 58.7424 47.9012 58.8781C47.7015 58.996 47.4317 59.1386 47.2376 59.0906C46.881 59.0042 46.797 59.1304 46.6992 59.4251C46.5175 59.9749 46.333 60.5329 46.0563 61.036C45.9062 61.3102 45.5951 61.5543 45.3004 61.6831C44.7112 61.9409 44.1315 61.5844 44.0627 60.8619C43.987 60.0695 43.9911 59.2565 44.082 58.4668C44.21 57.3481 44.4275 56.2376 44.6506 55.1326C44.7318 54.7309 44.9397 54.3539 45.0898 53.9659C45.1338 53.9782 45.1793 53.9892 45.2233 54.0015L45.2247 53.9988ZM45.3748 58.5573C44.7814 58.5436 44.6162 58.6752 44.6024 59.1756C44.5859 59.7679 44.864 60.1188 45.3541 60.1216C45.8567 60.1257 46.3853 59.6637 46.4142 59.1962C46.439 58.7972 46.0756 58.5737 45.3734 58.5573H45.3748Z" fill="#414244"/>
<path d="M23.2663 56.3501C23.2044 56.9519 23.013 57.3961 22.5339 57.7334C22.1938 57.9719 21.9515 58.3051 21.4545 58.3202C21.259 58.3256 21.0538 58.6588 20.8859 58.8685C20.298 59.5993 19.8244 59.6185 19.2241 58.9179C18.7243 59.2963 18.7009 59.5458 19.1635 59.9365C19.4939 60.2148 19.6467 60.5425 19.5903 60.973C19.4058 62.37 18.9226 63.6327 17.8377 64.58C17.5141 64.8625 17.0873 65.0846 16.6715 65.197C15.5012 65.5096 14.6036 64.7939 14.4989 63.5971C14.3626 62.0259 15.062 60.7057 15.705 59.3648C15.8386 59.0865 15.9941 58.8178 16.1387 58.5436C16.1828 58.5656 16.2282 58.5875 16.2722 58.6081C15.9996 59.2648 15.7105 59.9146 15.4599 60.5782C15.2851 61.0402 15.113 61.5132 15.029 61.9958C14.8707 62.9088 15.4145 63.571 16.3356 63.667C17.364 63.7753 18.3787 63.2762 18.8344 62.455C19.0506 62.0657 19.0355 61.7846 18.6155 61.5173C17.9368 61.084 17.8074 60.8359 18.1956 60.171C18.946 58.885 19.1415 57.4907 19.3053 56.0608C19.3618 55.5713 19.5889 55.1011 19.739 54.6226C19.7941 54.635 19.8491 54.6487 19.9028 54.661C19.834 55.1724 19.7473 55.6838 19.7018 56.1979C19.6688 56.5694 19.6467 56.9533 19.7004 57.3193C19.8023 58.0185 20.5196 58.3297 21.1006 57.9198C21.438 57.6813 21.789 57.5428 22.1676 57.392C22.5862 57.2247 22.8753 56.7394 23.2649 56.3487L23.2663 56.3501Z" fill="#414244"/>
<path d="M38.0282 75.2051C37.9938 75.9907 37.3963 76.2059 36.9309 76.5199C36.7079 76.6707 36.4491 76.7818 36.1916 76.8626C36.0099 76.9189 35.7882 76.9422 35.6065 76.8956C35.086 76.7612 34.4335 77.0107 34.2352 77.5015C34.1925 77.6057 34.2793 77.8456 34.3798 77.9114C34.9952 78.3118 35.0186 78.8574 34.8671 79.4908C34.6152 80.5561 34.2311 81.5514 33.4435 82.3452C32.8598 82.9334 32.1769 83.2761 31.315 83.1486C30.6886 83.0567 30.2053 82.7099 30.1214 82.108C30.025 81.4116 29.9589 80.6466 30.1489 79.9885C30.4724 78.8698 31.0066 77.8127 31.4527 76.7297C31.516 76.7502 31.5807 76.7708 31.6441 76.7914C31.6028 76.9326 31.5711 77.0793 31.516 77.215C31.2517 77.8648 30.9488 78.4996 30.723 79.1618C30.5881 79.558 30.5165 79.994 30.5096 80.4121C30.5 80.9824 30.8786 81.4102 31.4265 81.5761C32.466 81.8914 33.7506 81.3416 34.2435 80.3847C34.4087 80.0639 34.3935 79.8473 34.07 79.6101C33.2632 79.0192 33.1902 78.6682 33.7244 77.7977C34.0163 77.3233 34.3701 76.8695 34.7666 76.4801C35.1287 76.1237 35.5734 76.0332 36.1393 76.1593C36.4904 76.2375 36.9461 75.9386 37.3288 75.7549C37.5656 75.6411 37.7529 75.4259 38.0282 75.2024V75.2051Z" fill="#414244"/>
<path d="M17.3393 76.9339C17.1465 77.4179 16.9345 77.895 16.7651 78.3872C16.582 78.9177 16.3521 79.4524 16.2929 80.0008C16.1773 81.0811 16.7472 81.6405 17.8322 81.6336C18.7491 81.6281 19.5118 81.2964 20.0419 80.5341C20.3723 80.0584 20.2994 79.7897 19.8078 79.5045C19.2406 79.1741 19.1525 78.9314 19.3934 78.3227C19.6151 77.7675 19.834 77.2095 20.0736 76.6625C20.2663 76.2224 20.2883 75.7795 20.0212 75.3861C19.538 74.6732 19.9992 74.1097 20.2319 73.3913C20.8597 74.0987 20.9382 74.8171 20.7262 75.5698C20.5513 76.1936 20.3117 76.8009 20.0736 77.4042C19.9538 77.7071 19.9634 77.9265 20.2828 78.0828C20.6463 78.261 20.7193 78.5969 20.6986 78.9534C20.616 80.3381 20.119 81.561 19.1029 82.5165C18.7849 82.8154 18.3237 83.0457 17.8927 83.1307C16.7803 83.3501 15.9873 82.7044 15.8537 81.5788C15.6981 80.2613 16.2007 79.0959 16.7032 77.9306C16.856 77.5742 17.0446 77.2328 17.2181 76.8846C17.258 76.9024 17.2993 76.9188 17.3393 76.9367V76.9339Z" fill="#414244"/>
<path d="M40.4583 56.2307C40.1554 57.2562 39.7437 58.2214 38.7924 58.815C38.1866 59.1934 37.7226 59.1016 36.8993 58.4833C36.6088 58.9371 36.2398 59.3552 36.0484 59.8433C35.572 61.0539 34.6813 61.6132 33.3072 61.7174C34.1443 61.1073 35.0392 60.7084 35.5665 59.8885C35.5073 59.835 35.4867 59.7967 35.4592 59.7912C34.5174 59.6349 34.4197 59.4567 34.7914 58.5696C34.7983 58.5546 34.8052 58.5367 34.8148 58.5244C35.0447 58.2447 35.2361 57.8046 35.517 57.7388C35.74 57.6867 36.0718 58.0912 36.456 58.364C36.5606 58.0788 36.7533 57.7251 36.8153 57.3508C36.953 56.5255 37.0039 55.6865 37.132 54.8598C37.1843 54.5225 37.3481 54.2031 37.461 53.8768C37.5092 53.8877 37.5588 53.8987 37.6069 53.911C37.5684 54.2387 37.5147 54.5664 37.4927 54.894C37.4555 55.4726 37.4211 56.0539 37.4197 56.6338C37.4197 56.8285 37.472 57.0616 37.589 57.2083C37.7006 57.3495 37.9264 57.4687 38.1026 57.4687C38.221 57.4687 38.3711 57.2604 38.4495 57.115C38.674 56.6955 38.8158 56.2198 39.0952 55.8455C39.2618 55.622 39.6184 55.5123 39.9103 55.426C39.997 55.3999 40.1581 55.6248 40.2862 55.7344C40.143 55.803 39.9915 55.9442 39.8594 55.9278C39.4642 55.8811 39.1489 56.0032 39.0099 56.3514C38.9314 56.5474 38.941 56.9299 39.0608 57.0136C39.2329 57.1328 39.6129 57.1534 39.7768 57.0383C40.0549 56.8436 40.2352 56.5077 40.4555 56.2321L40.4583 56.2307Z" fill="#414244"/>
<path d="M56.8889 76.6461C56.6521 77.5674 56.3202 78.3447 55.4777 78.7834C53.597 79.7623 51.5855 79.957 49.5244 79.6636C48.5772 79.5292 48.2853 78.9863 48.4698 78.0349C48.5345 77.7031 48.5965 77.3713 48.7107 77.0135C48.8526 78.0129 49.6442 78.1075 50.3615 78.1953C51.7658 78.3653 53.1715 78.3008 54.5511 77.9567C55.5947 77.6962 55.7792 77.5811 56.8875 76.6461H56.8889Z" fill="#414244"/>
<path d="M1.37403 77.4947C1.08215 78.235 0.81643 78.8382 0.605781 79.4593C0.163833 80.7617 0.908674 81.7447 2.27995 81.6666C2.64893 81.646 3.04683 81.5829 3.37312 81.4225C4.51448 80.8591 5.2194 79.9693 5.22077 78.6449C5.22077 77.8703 5.23729 77.1039 5.65584 76.413C5.69989 76.3403 5.73707 76.2635 5.78526 76.1936C5.80178 76.1703 5.8417 76.1635 5.9133 76.1278C5.75497 78.2789 5.63105 80.4025 4.05601 82.0916C3.41993 82.7743 2.67372 83.2048 1.70859 83.1746C0.846719 83.1486 0.304265 82.7209 0.0757181 81.8859C-0.231305 80.7686 0.411654 78.4489 1.37265 77.4933L1.37403 77.4947Z" fill="#414244"/>
<path d="M61.7462 78.8177C61.3414 79.7705 60.5098 79.8185 59.6796 79.9199C61.0288 79.1632 61.9417 78.0431 62.469 76.5926C62.5116 76.62 62.5543 76.6474 62.5984 76.6748C62.5543 76.8681 62.4593 77.0669 62.4786 77.2534C62.5089 77.5427 62.5585 77.8594 62.7099 78.0952C62.8476 78.3104 63.1037 78.3406 63.2813 78.0348C63.5126 77.6359 63.7714 77.252 64.0206 76.864C64.3084 76.4157 64.6856 76.2539 65.2088 76.4596C65.4098 76.5391 65.6383 76.5514 65.9178 76.6077C65.8641 76.7667 65.8393 76.9353 65.7554 77.0642C65.3644 77.666 64.9651 78.2624 64.552 78.8506C64.4061 79.059 64.2326 79.2578 64.0357 79.4182C63.2345 80.0762 62.5392 79.9103 61.7448 78.8149L61.7462 78.8177ZM65.1441 77.2232C64.4047 76.7434 63.6916 77.2342 63.5305 78.3036C64.2615 78.2282 64.742 77.8237 65.1441 77.2232Z" fill="#414244"/>
<path d="M41.9865 78.9877C41.0324 79.9144 40.8782 79.9967 39.7699 80.1187C40.4018 79.6019 41.0407 79.2056 41.5088 78.6614C41.9851 78.1075 42.2935 77.4097 42.7437 76.7996C42.7107 76.9394 42.6901 77.082 42.6432 77.2177C42.4973 77.6455 42.5909 77.9964 42.975 78.2446C43.3454 78.4845 43.8837 78.416 44.2114 78.0965C44.3092 78.0019 44.3821 77.8826 44.473 77.7798C45.0154 77.1615 45.317 77.1396 45.9159 77.6729C46.3385 77.1793 46.7626 76.683 47.1866 76.1881C47.2472 76.2251 47.3078 76.2635 47.3684 76.3005C47.2307 76.5912 47.1687 76.9723 46.9429 77.1547C46.2064 77.7483 45.8498 78.538 45.5813 79.3962C45.551 79.4922 45.5001 79.584 45.456 79.6745C45.4505 79.6855 45.4243 79.6855 45.3459 79.7088C45.3968 79.4524 45.4904 79.2221 45.4739 79C45.4574 78.7697 45.3968 78.4461 45.2399 78.3474C45.076 78.2446 44.7456 78.3049 44.5391 78.4022C44.3573 78.4872 44.2403 78.7162 44.1026 78.8889C43.9429 79.0891 43.8176 79.3222 43.6332 79.4963C43.0838 80.0118 42.4436 79.8157 41.9865 78.9849V78.9877Z" fill="#414244"/>
<path d="M28.4568 69.3291C28.4623 66.8353 28.2944 64.3333 28.8643 61.8669C29.1962 60.4301 29.8474 59.2264 31.1333 58.3942C31.4169 58.2105 31.5876 57.8074 31.7322 57.4715C31.991 56.8642 32.4041 57.174 32.773 57.2563C33.1957 57.3509 33.2439 57.6402 33.1241 58.0089C32.9438 58.5656 32.6175 58.9741 32.0378 59.1469C31.7584 59.2305 31.472 59.2963 31.1994 59.3977C30.0085 59.8392 29.3159 60.6961 29.1879 61.9519C29.0144 63.6355 28.8767 65.3231 28.7363 67.0094C28.6716 67.7895 28.6386 68.571 28.5904 69.3524C28.5463 69.3442 28.5023 69.336 28.4582 69.3291H28.4568Z" fill="#414244"/>
<path d="M6.25061 82.0312C6.35938 81.9106 6.40343 81.8338 6.46814 81.7927C7.99362 80.8302 8.99592 79.4195 9.90047 77.9087C10.1676 77.4631 10.5476 77.0655 10.9399 76.7173C11.4549 76.2608 12.073 76.1209 12.7669 76.3197C12.895 76.3567 13.1263 76.2334 13.2337 76.1154C13.6013 75.7096 13.9358 75.2723 14.2828 74.8473C14.3585 74.9035 14.4342 74.9597 14.5113 75.0159C14.2649 75.3737 14.0088 75.7261 13.7734 76.0894C13.4044 76.6584 13.0451 77.2342 12.6871 77.81C12.6031 77.9443 12.5467 78.0965 12.4448 78.3076C12.3264 77.6413 12.1116 77.4796 11.4948 77.5193C10.8092 77.5632 10.3686 77.9882 10.0065 78.5051C9.75178 78.8684 9.54526 79.2632 9.31258 79.6416C8.64209 80.7315 7.64254 81.4335 6.52046 81.9915C6.46677 82.0175 6.39655 82.0093 6.25061 82.0271V82.0312Z" fill="#414244"/>
<path d="M20.0295 54.0852C20.331 53.704 20.5871 53.2763 20.9396 52.95C22.9111 51.1211 24.9061 49.3155 26.8942 47.5045C26.9258 47.4757 26.9795 47.4702 27.1158 47.5168C26.857 47.9226 26.6656 48.3983 26.3283 48.7233C24.913 50.0901 23.4646 51.4227 22.0066 52.743C21.4256 53.2694 20.7881 53.7328 20.1754 54.2236C20.1273 54.177 20.0777 54.1304 20.0295 54.0838V54.0852Z" fill="#414244"/>
<path d="M58.6291 73.5777C58.5066 74.7842 58.3785 75.9893 58.2698 77.1971C58.2505 77.4124 58.2767 77.6523 58.3606 77.8484C58.4336 78.0184 58.6181 78.1417 58.753 78.2857C58.8632 78.1541 58.9788 78.0266 59.0821 77.8895C59.1427 77.8086 59.184 77.714 59.3051 77.4974C59.418 77.7867 59.5777 77.9923 59.5474 78.1637C59.4758 78.5777 59.3781 79.0109 59.1757 79.3729C58.8563 79.9446 58.2078 79.9103 57.9297 79.3139C57.7906 79.0164 57.7163 78.6476 57.7438 78.3227C57.8457 77.1135 57.9779 75.9057 58.1514 74.7047C58.2078 74.3099 58.424 73.9397 58.5658 73.5572C58.5864 73.564 58.6071 73.5695 58.6277 73.5764L58.6291 73.5777Z" fill="#414244"/>
<path d="M22.6068 73.7615C22.5256 74.3853 22.4279 75.0091 22.3673 75.6342C22.3067 76.2635 22.2626 76.8942 22.253 77.5262C22.2475 77.9745 22.3632 78.0952 22.8437 78.3186C22.9497 78.0979 23.0557 77.8772 23.1823 77.6139C23.2773 77.688 23.3792 77.7291 23.4178 77.8031C23.6697 78.283 23.3228 79.4812 22.8285 79.6732C22.6206 79.754 22.2489 79.7061 22.0961 79.5635C21.8937 79.3729 21.7064 79.0206 21.7326 78.7601C21.8827 77.2342 22.0919 75.7151 22.2929 74.1947C22.3136 74.0357 22.4182 73.8876 22.4843 73.7341L22.6041 73.7615H22.6068Z" fill="#414244"/>
<path d="M43.629 59.2181C43.4817 60.0915 43.2463 60.8386 42.6845 61.4254C42.5069 61.6105 42.1242 61.7339 41.8846 61.6777C41.7373 61.6434 41.6753 61.2157 41.5955 60.9593C41.5735 60.8866 41.6079 60.7893 41.6354 60.7098C41.9011 59.9338 42.1724 59.1606 42.4408 58.3846C42.573 58.0034 42.825 57.9952 43.0425 58.2612C43.2765 58.5477 43.4363 58.896 43.629 59.2168V59.2181ZM43.0618 60.4849C42.7451 60.2285 42.562 60.0805 42.3789 59.9338C42.2274 60.1353 42.0429 60.3231 41.9493 60.548C41.9245 60.6069 42.2013 60.8962 42.3128 60.8798C42.5248 60.851 42.7176 60.6782 43.0618 60.4849Z" fill="#414244"/>
<path d="M27.9171 74.7705C28.6895 75.3368 28.9318 76.0236 28.8217 76.8489C28.6454 78.1637 27.8263 79.3016 26.6656 79.7143C26.8942 79.4278 27.0401 79.2372 27.1943 79.0521C27.3581 78.8547 27.5413 78.6723 27.6968 78.4681C28.3081 77.6606 28.2944 77.2534 27.5729 76.5556C27.3347 76.3252 27.2852 76.1305 27.4284 75.8468C27.595 75.515 27.7368 75.1722 27.9185 74.7692L27.9171 74.7705Z" fill="#414244"/>
<path d="M67.4158 79.7239C68.0518 79.0466 68.966 78.7505 69.2799 77.8511C68.3492 77.6825 68.2446 77.4796 68.6191 76.6406C68.7031 76.4541 68.7719 76.2471 68.9027 76.0977C69.0349 75.9468 69.2786 75.7275 69.3956 75.7672C69.6035 75.8385 69.8513 76.0524 69.9119 76.2567C70.3566 77.7346 69.0624 79.5676 67.4158 79.7239Z" fill="#414244"/>
<path d="M54.8553 57.44C55.7613 57.9747 55.87 58.7438 55.6842 59.5814C55.4377 60.6906 54.8787 61.5378 53.5543 61.7257C53.6479 61.5886 53.7002 61.4775 53.7828 61.3953C53.9659 61.2157 54.1669 61.0539 54.3556 60.8798C55.2009 60.0956 55.205 59.9352 54.4423 59.0906C54.3624 59.0029 54.273 58.8397 54.3046 58.752C54.4657 58.3105 54.664 57.8842 54.8553 57.4386V57.44Z" fill="#414244"/>
<path d="M24.9102 65.674C24.8138 65.7878 24.7601 65.8811 24.6817 65.94C24.5165 66.0648 24.2521 66.3088 24.1805 66.2636C23.9299 66.1059 23.7028 65.8701 23.5527 65.6137C23.4976 65.5205 23.6711 65.2833 23.7565 65.1202C23.8831 64.883 24.0236 64.6527 24.2177 64.3195C24.5206 64.6609 24.7698 64.9419 25.0479 65.2545C25.1305 65.1298 25.2172 65.0105 25.2916 64.8844C25.6248 64.3181 25.7445 64.3099 26.1369 64.835C26.4632 65.2724 26.2911 66.0524 25.7982 66.2512C25.6977 66.2924 25.5146 66.2101 25.4072 66.1333C25.231 66.0072 25.0851 65.8386 24.913 65.6754L24.9102 65.674Z" fill="#414244"/>
<path d="M27.2962 57.174C27.1103 57.8842 26.9878 58.593 26.2113 58.9124C25.728 59.1112 25.4582 59.4869 25.2806 59.9502C25.2021 60.1573 25.1346 60.3698 25.0479 60.574C24.6651 61.472 24.0057 61.8326 22.8547 61.6873C23.1369 61.4597 23.3324 61.2595 23.5651 61.1238C24.3912 60.6385 25.0314 60.0161 25.3177 59.0687C25.4843 58.5176 25.8919 58.1666 26.4013 57.8924C26.7166 57.7224 26.9713 57.44 27.2962 57.174Z" fill="#414244"/>
<path d="M52.8301 56.1307C52.6484 57.8718 52.7378 59.6801 51.5469 61.18C52.1045 59.5266 51.8126 57.6785 52.8301 56.1307Z" fill="#414244"/>
<path d="M7.73066 74.34C7.61088 76.0455 7.6329 77.7867 6.48191 79.2413C7.07118 77.6482 6.7435 75.8399 7.73066 74.34Z" fill="#414244"/>
<path d="M38.6327 79.2084C39.1944 77.6126 38.886 75.8056 39.8387 74.303C40.1072 75.3422 39.4381 78.2309 38.6327 79.2084Z" fill="#414244"/>
<path d="M2.99864 77.3781C3.91833 77.8785 4.06289 78.479 3.46537 79.0973C3.37037 79.1947 3.07023 79.2605 3.01791 79.2029C2.81552 78.9822 2.27582 78.9835 2.45756 78.5009C2.59937 78.1226 2.80726 77.7688 3.00001 77.3781H2.99864Z" fill="#414244"/>
<path d="M25.695 52.2083C26.4605 52.6594 26.5968 52.9898 26.2925 53.6095C26.1686 53.8617 26.0695 54.2538 25.6647 54.0989C25.1622 53.9056 25.0383 53.5519 25.2475 53.0926C25.3797 52.8019 25.5353 52.5236 25.6964 52.2083H25.695Z" fill="#414244"/>
<path d="M45.7011 50.363C46.7172 50.7578 46.5464 51.6627 45.9971 52.1864C45.9324 52.2481 45.7149 52.2577 45.6598 52.2015C45.4588 51.9986 45.1187 51.723 45.1545 51.5365C45.2344 51.1239 45.5083 50.7482 45.7011 50.363Z" fill="#414244"/>
<path d="M21.4338 49.0468C22.2599 49.5321 22.3921 50.0572 21.8813 50.7139C21.7863 50.8373 21.4738 50.9634 21.4132 50.9127C21.1846 50.718 20.7138 50.633 20.89 50.1765C21.0346 49.7995 21.2383 49.4458 21.4338 49.0468Z" fill="#414244"/>
<path d="M47.1949 50.2259C48.0196 50.7866 48.127 51.2212 47.6437 51.8902C47.5474 52.0232 47.2266 52.1754 47.1908 52.1397C46.9705 51.9176 46.629 51.6256 46.6552 51.3939C46.7006 51.0018 46.9884 50.6385 47.1935 50.2245L47.1949 50.2259Z" fill="#414244"/>
<path d="M19.9483 49.1441C20.6862 49.5431 20.8404 49.8968 20.5967 50.4877C20.32 51.1595 19.9731 51.2253 19.516 50.6687C19.4334 50.5672 19.4044 50.3533 19.4499 50.2286C19.5834 49.868 19.7679 49.5253 19.9469 49.1428L19.9483 49.1441Z" fill="#414244"/>
<path d="M20.7083 47.1891C21.4545 47.6676 21.6018 48.02 21.2714 48.6122C21.1557 48.8192 20.8514 49.1017 20.689 49.0688C20.2126 48.9742 20.0391 48.5355 20.2305 48.1104C20.3668 47.8061 20.5375 47.5168 20.7083 47.1891Z" fill="#414244"/>
<path d="M24.8152 66.2938C25.6812 66.7448 25.8037 67.5276 25.1222 68.0651C25.0314 68.1364 24.7932 68.1377 24.6996 68.0692C24.1241 67.6497 24.113 67.5537 24.4655 66.8997C24.5701 66.7064 24.6858 66.5172 24.8152 66.2938Z" fill="#414244"/>
<path d="M52.3675 50.5508C53.1949 50.9744 53.345 51.531 52.837 52.1891C52.7378 52.318 52.4267 52.4674 52.3799 52.4263C52.1596 52.2275 51.8223 51.941 51.8512 51.7298C51.9076 51.3213 52.1816 50.9429 52.3661 50.5508H52.3675Z" fill="#414244"/>
<path d="M46.4266 48.412C47.2665 48.8316 47.3973 49.635 46.7653 50.2039C46.6841 50.278 46.4459 50.3122 46.3895 50.256C46.1885 50.0572 45.8635 49.7817 45.898 49.5897C45.9709 49.1784 46.2394 48.8028 46.4266 48.412Z" fill="#414244"/>
<path d="M34.2944 69.6211C35.1039 70.1585 35.21 70.5849 34.724 71.232C34.629 71.3581 34.3095 71.4938 34.2655 71.45C34.0562 71.2457 33.7437 70.9605 33.7712 70.7426C33.8208 70.3669 34.0948 70.02 34.2944 69.6211Z" fill="#414244"/>
<path d="M45.6116 82.1821C46.406 82.6222 46.5327 83.0403 46.0893 83.7025C45.9902 83.8492 45.6653 84.0343 45.6157 83.9945C45.3679 83.793 44.8902 83.6833 45.098 83.1993C45.244 82.8607 45.4299 82.5385 45.6116 82.1821Z" fill="#414244"/>
<path d="M37.8919 69.8926C38.7029 70.3464 38.8295 70.8482 38.3215 71.4994C38.2292 71.6173 37.9401 71.7516 37.8988 71.7132C37.6799 71.509 37.3343 71.2279 37.3646 71.0195C37.4211 70.6274 37.7019 70.2682 37.8919 69.8926Z" fill="#414244"/>
<path d="M36.4518 69.9721C37.2269 70.4026 37.3743 70.9263 36.9158 71.5391C36.8153 71.6749 36.4849 71.8229 36.4215 71.7708C36.1902 71.5803 35.7373 71.4706 35.9534 71.0031C36.109 70.6672 36.2756 70.3368 36.4532 69.9721H36.4518Z" fill="#414244"/>
<path d="M12.029 69.5485C12.8041 69.9378 12.9583 70.43 12.5246 71.0703C12.4255 71.2169 12.0937 71.3938 12.0373 71.3486C11.8087 71.1662 11.3654 71.0675 11.5182 70.637C11.6518 70.2627 11.8541 69.9118 12.0276 69.5498L12.029 69.5485Z" fill="#414244"/>
<path d="M53.323 73.0596C54.1298 73.5613 54.2427 74.0741 53.7236 74.6938C53.6314 74.8048 53.3381 74.9159 53.2913 74.8693C53.0793 74.665 52.7544 74.3784 52.7847 74.1673C52.8397 73.7903 53.1206 73.4462 53.323 73.0596Z" fill="#414244"/>
<path d="M51.8746 73.1583C52.6167 73.5531 52.7667 73.9521 52.446 74.5375C52.1142 75.1421 51.9613 75.1722 51.4836 74.6663C51.3858 74.5635 51.3321 74.3291 51.3789 74.1988C51.5097 73.8396 51.7052 73.5051 51.8746 73.1596V73.1583Z" fill="#414244"/>
<path d="M19.337 71.0086C18.4627 70.4465 18.4545 70.1133 19.2668 69.1495C20.1121 69.5663 20.152 70.3162 19.337 71.0086Z" fill="#414244"/>
<path d="M13.4787 69.4456C14.2112 69.861 14.3406 70.1942 14.0542 70.796C13.7555 71.4239 13.5861 71.4692 13.1084 70.9811C12.9955 70.866 12.9418 70.5931 12.9955 70.4368C13.1111 70.0927 13.3122 69.776 13.4787 69.447V69.4456Z" fill="#414244"/>
<path d="M64.0991 70.4739C64.9183 70.9126 65.0436 71.4034 64.5424 72.0711C64.4515 72.1917 64.1624 72.3316 64.1239 72.2959C63.9077 72.093 63.5663 71.8161 63.5938 71.6063C63.6434 71.2142 63.9174 70.8509 64.0991 70.4739Z" fill="#414244"/>
<path d="M32.8281 69.7377C33.617 70.1503 33.7657 70.6946 33.2962 71.3088C33.1985 71.4377 32.8749 71.5803 32.8377 71.5405C32.634 71.3307 32.3352 71.0524 32.3559 70.8249C32.3889 70.4615 32.6491 70.1188 32.8281 69.7377Z" fill="#414244"/>
<path d="M26.4247 77.1971C26.3586 78.3858 25.2255 79.6389 23.901 79.8308C24.7808 78.9136 25.633 78.0238 26.4247 77.1971Z" fill="#414244"/>
<path d="M37.1554 68.1075C37.9291 68.4942 38.0847 69.0494 37.6166 69.665C37.5175 69.7966 37.1967 69.9474 37.1609 69.9104C36.9544 69.702 36.6432 69.4209 36.6694 69.1988C36.7134 68.8218 36.9819 68.4695 37.1554 68.1075Z" fill="#414244"/>
<path d="M48.3913 52.7279C48.8002 52.2426 49.2078 51.7586 49.6167 51.2733C49.6552 51.3048 49.6938 51.335 49.7323 51.3665C49.3289 51.8546 48.9255 52.3441 48.5221 52.8321C48.4794 52.7965 48.4354 52.7622 48.3927 52.7266L48.3913 52.7279Z" fill="#414244"/>
</g>
<defs>
<clipPath id="clip0_137_2722">
<rect width="70" height="84" fill="white"/>
</clipPath>
</defs>
</svg>
