<svg width="139" height="80" viewBox="0 0 139 80" fill="none" xmlns="http://www.w3.org/2000/svg">
<g clip-path="url(#clip0_137_2832)">
<path d="M72.9284 33.8835C72.992 33.9659 73.0874 33.9916 73.1777 34.0225C73.6965 34.2001 74.2256 34.339 74.7648 34.4394C75.7948 34.6324 76.8351 34.7328 77.8829 34.7443C78.1652 34.7482 78.4476 34.7546 78.7299 34.7636C78.8634 34.7688 78.9956 34.7868 79.1126 34.8576C79.1368 34.873 79.1572 34.909 79.1622 34.9386C79.1673 34.9669 79.161 35.0133 79.1406 35.0287C79.0758 35.0789 79.0046 35.1239 78.9308 35.1612C78.3776 35.4379 77.7952 35.6309 77.1924 35.7596C75.7859 36.0607 74.3642 36.1289 72.9335 36.0066C72.3715 35.959 71.8106 35.9024 71.2486 35.8496C71.1214 35.8381 71.0298 35.8844 70.9548 35.9938C70.5695 36.5612 70.1791 37.1248 69.7899 37.6897C69.6946 37.8274 69.5979 37.9637 69.4987 38.0976C69.444 38.1722 69.3448 38.1722 69.2902 38.0976C69.2113 37.9895 69.1337 37.8814 69.0574 37.7707C68.6976 37.247 68.3389 36.722 67.9791 36.1996C67.904 36.0903 67.8226 35.9835 67.7451 35.8767C67.5213 35.8188 67.3076 35.8638 67.0952 35.8908C66.0893 36.0169 65.0796 36.0903 64.0648 36.0542C62.9839 36.0156 61.9144 35.8921 60.8754 35.5666C60.5105 35.452 60.1557 35.3118 59.8136 35.1394C59.7551 35.1098 59.7042 35.066 59.6508 35.0261C59.6063 34.994 59.6305 34.8795 59.6864 34.8563C59.7322 34.837 59.7767 34.8113 59.825 34.8022C59.923 34.7842 60.0209 34.7688 60.1201 34.7624C60.2689 34.7534 60.4189 34.7495 60.5677 34.7508C61.3154 34.7546 62.0619 34.7122 62.8046 34.6272C63.7456 34.5205 64.6752 34.348 65.573 34.0341C65.6506 34.007 65.7269 33.971 65.8019 33.9376C65.8655 33.9093 65.8655 33.8256 65.8019 33.7806C65.6786 33.6957 65.554 33.612 65.4306 33.5284C64.1144 32.6315 62.9432 31.57 61.9322 30.3321C60.1544 28.1576 58.9794 25.6857 58.3982 22.927C58.1375 21.6917 57.9976 20.4423 58.0218 19.1787C58.0968 15.1152 59.4219 11.5278 62.053 8.44354C62.6393 7.75642 63.2777 7.12078 63.9758 6.54818C64.0076 6.52116 64.0419 6.53017 64.0597 6.56491C64.0661 6.57649 64.0699 6.59708 64.0636 6.60995C64.0356 6.67042 64.0076 6.7309 63.9733 6.78751C63.9046 6.90203 63.8308 7.01398 63.7609 7.1285C62.8008 8.69188 62.0568 10.3518 61.5749 12.1287C61.2849 13.1993 61.0916 14.2853 60.9975 15.3932C60.9314 16.1819 60.9072 16.9694 60.9479 17.7569C61.056 19.8337 61.4795 21.8449 62.2349 23.7814C62.9152 25.5262 63.8168 27.1423 64.9932 28.5976C65.6468 29.407 66.3717 30.143 67.1995 30.7709C67.2656 30.8211 67.3369 30.8623 67.4068 30.9073C67.4475 30.933 67.5213 30.8983 67.5238 30.8507C67.5289 30.7671 67.5365 30.6847 67.5352 30.6011C67.5149 29.5099 67.492 28.4201 67.4717 27.3289C67.4284 24.9459 67.3877 22.5629 67.3445 20.1798C67.3178 18.7361 67.2898 17.2937 67.2631 15.85C67.2237 13.7191 67.1855 11.587 67.1448 9.4562C67.1347 8.95308 67.1156 8.44997 67.1029 7.94557C67.0991 7.79631 67.08 7.64448 67.1334 7.48106C67.1906 7.44117 67.2555 7.38585 67.3267 7.34724C67.9803 6.99468 68.5259 6.50829 69.018 5.95629C69.107 5.85592 69.1935 5.75556 69.2838 5.65648C69.3449 5.58957 69.4339 5.59085 69.5013 5.65776C69.6551 5.81089 69.8039 5.96915 69.9616 6.11713C70.4474 6.5752 70.9548 7.00755 71.5156 7.37169C71.5576 7.39871 71.5932 7.43474 71.6262 7.46176C71.7013 7.57371 71.6797 7.69466 71.6771 7.80918C71.6682 8.54776 71.6568 9.28635 71.6428 10.0249C71.6212 11.1997 71.5957 12.3745 71.5741 13.5493C71.5309 15.8989 71.4902 18.2484 71.4469 20.598C71.419 22.1086 71.391 23.6193 71.363 25.1286C71.3299 26.9069 71.2956 28.6864 71.2651 30.4647C71.2626 30.5972 71.2753 30.731 71.288 30.8636C71.2893 30.8803 71.3477 30.9099 71.3643 30.9022C71.438 30.8661 71.5105 30.825 71.5767 30.7761C72.271 30.2524 72.8941 29.6489 73.4638 28.9901C74.4634 27.832 75.2773 26.5517 75.9449 25.1723C76.7524 23.5035 77.3005 21.7496 77.6095 19.9186C77.8499 18.4891 77.9134 17.0466 77.8092 15.6029C77.6273 13.0938 76.9482 10.7223 75.7923 8.49372C75.5379 8.00348 75.2505 7.53125 74.9784 7.05129C74.8957 6.90589 74.808 6.76307 74.7228 6.62024C74.7012 6.58421 74.7075 6.55333 74.7419 6.53403C74.7533 6.52759 74.7762 6.52888 74.7876 6.53532C74.8296 6.56105 74.8716 6.58807 74.9085 6.62024C77.1377 8.54648 78.7871 10.8832 79.7879 13.6767C80.1503 14.6893 80.4034 15.729 80.57 16.7931C80.7658 18.0438 80.8091 19.301 80.7213 20.5581C80.5776 22.6362 80.0791 24.6293 79.2156 26.5234C77.8842 29.4443 75.9029 31.8093 73.2515 33.594C73.1548 33.6583 73.0582 33.724 72.9666 33.7947C72.9437 33.8128 72.9361 33.8514 72.9208 33.8809L72.9284 33.8835Z" fill="#414244"/>
<path d="M86.8088 19.3293C86.8292 22.0443 86.2544 24.5457 84.928 26.8528C83.8573 28.7147 82.4164 30.2189 80.617 31.3731C80.5051 31.4451 80.3868 31.5043 80.2711 31.57C80.2329 31.5918 80.205 31.5854 80.1897 31.5442C80.1846 31.5301 80.1808 31.5108 80.1872 31.4992C80.2495 31.3821 80.3105 31.2637 80.3805 31.1492C81.0786 30.004 81.6827 28.8125 82.1748 27.5631C82.686 26.266 83.0612 24.9291 83.2939 23.5523C83.5355 22.124 83.6042 20.6816 83.4923 19.2392C83.2405 15.9915 82.1824 13.0256 80.3627 10.3376C79.4013 8.91703 78.2644 7.65474 76.9622 6.54687C76.8477 6.45036 76.7396 6.34742 76.629 6.24577C76.6188 6.23677 76.6112 6.2046 76.6176 6.19945C76.6379 6.18015 76.6659 6.15313 76.6875 6.15699C76.7689 6.17114 76.849 6.19302 76.9278 6.21746C79.1609 6.89557 81.1308 8.02918 82.7852 9.70065C84.5287 11.4596 85.6859 13.5621 86.3218 15.9619C86.5494 16.8214 86.7033 17.6964 86.7541 18.5868C86.7694 18.8545 86.7948 19.1221 86.8101 19.3306L86.8088 19.3293Z" fill="#414244"/>
<path d="M52.0029 19.7977C52.0004 17.2538 52.5599 14.9467 53.7222 12.7991C55.2457 9.9876 57.4966 7.98802 60.4113 6.74247C60.9606 6.50828 61.5202 6.29726 62.1026 6.15829C62.1204 6.15443 62.1497 6.18531 62.1675 6.2059C62.1738 6.21362 62.1675 6.24064 62.1573 6.25222C62.1255 6.29082 62.0937 6.32942 62.0556 6.36159C61.9551 6.44909 61.8521 6.53401 61.7504 6.62023C59.3342 8.71374 57.5386 11.2512 56.4029 14.2608C55.9286 15.5193 55.6018 16.815 55.4225 18.1506C55.2775 19.2341 55.2139 20.3214 55.2724 21.4125C55.3576 22.9926 55.6285 24.5418 56.0952 26.055C56.6407 27.8269 57.4139 29.4906 58.3702 31.072C58.4567 31.2148 58.5356 31.3602 58.6169 31.5056C58.6233 31.5172 58.6169 31.5378 58.6119 31.552C58.5979 31.588 58.5673 31.5996 58.5305 31.579C58.3728 31.4863 58.2125 31.3975 58.0599 31.2972C55.5878 29.6617 53.857 27.4305 52.841 24.6306C52.4862 23.6514 52.2522 22.6413 52.1161 21.6068C52.0322 20.9724 52.0156 20.3368 52.0016 19.7964L52.0029 19.7977Z" fill="#414244"/>
<path d="M9.09889 56.8942C9.09634 57.0113 9.10906 57.1309 9.08744 57.2442C8.90559 58.2002 8.77461 59.164 8.65252 60.129C8.59148 60.6128 8.5864 61.1005 8.61946 61.5869C8.63091 61.7529 8.66397 61.9201 8.70975 62.0797C8.85218 62.5751 9.17519 62.8813 9.68132 62.974C10.2332 63.0743 10.7355 62.974 11.1654 62.5854C11.3383 62.4284 11.5151 62.2766 11.6969 62.1299C11.8444 62.0102 12.011 61.9446 12.2069 61.9883C12.2552 61.9999 12.3048 62.0051 12.3544 62.0102C12.3875 62.0128 12.4205 62.0102 12.4536 62.0102C12.5782 62.0051 12.6787 61.9485 12.7499 61.8494C12.7982 61.7825 12.8376 61.7065 12.8732 61.6319C12.9165 61.5418 12.9483 61.4453 12.9902 61.354C13.1301 61.0439 13.1606 60.9551 13.5536 61.0426C13.6019 61.0529 13.6528 61.0619 13.7011 61.0593C13.8041 61.0555 13.8944 61.0181 13.9631 60.9358C14.0724 60.8045 14.1297 60.6476 14.192 60.4919C14.2479 60.3529 14.2721 60.1985 14.3789 60.084C14.398 60.0634 14.4387 60.0492 14.4641 60.0557C14.4908 60.0621 14.5188 60.0917 14.5341 60.1174C14.5506 60.1444 14.5569 60.1792 14.562 60.2126C14.5671 60.2461 14.5684 60.2796 14.5671 60.313C14.5264 60.9512 14.3141 61.5238 13.9249 62.0269C13.7583 62.2418 13.5663 62.4245 13.2967 62.4979C13.1594 62.5352 13.0742 62.6317 12.9915 62.7411C12.8694 62.8993 12.7423 63.055 12.6049 63.1992C12.4854 63.324 12.3328 63.3857 12.1547 63.3716C12.039 63.3626 11.9233 63.36 11.8063 63.3561C11.5761 63.3471 11.3828 63.4359 11.2251 63.598C11.0751 63.7537 10.9352 63.9197 10.7953 64.087C10.677 64.2285 10.5715 64.3791 10.4532 64.5193C10.2587 64.7522 10.0412 64.9568 9.76525 65.0894C9.47276 65.2296 9.17391 65.2888 8.84836 65.2193C8.46813 65.1383 8.18455 64.9337 7.97599 64.6055C7.89715 64.482 7.87553 64.3238 7.75217 64.2285C7.72038 64.2466 7.67969 64.2543 7.6657 64.2787C7.52581 64.5258 7.38847 64.7741 7.25495 65.0237C7.23205 65.0675 7.22188 65.119 7.21171 65.1679C7.18882 65.2759 7.21934 65.3699 7.30073 65.4394C7.38974 65.514 7.48766 65.5783 7.58304 65.6452C7.71911 65.7404 7.85899 65.8318 7.99252 65.9309C8.26085 66.1329 8.40709 66.4044 8.43125 66.7428C8.46304 67.179 8.45796 67.6165 8.39183 68.0488C8.32062 68.5134 8.20744 68.9689 8.04848 69.4115C7.86662 69.9172 7.66316 70.4126 7.42154 70.8912C6.94084 71.846 6.30754 72.6772 5.47459 73.3476C4.88962 73.8173 4.2258 74.1094 3.48822 74.2136C3.00752 74.2818 2.52556 74.256 2.05758 74.1158C1.42682 73.9254 0.942312 73.5355 0.587513 72.9783C0.267049 72.4739 0.0966433 71.9168 0.0330592 71.3249C-0.0406984 70.6339 0.013984 69.9506 0.176759 69.2764C0.382772 68.4284 0.643467 67.5985 0.971561 66.7891C1.34925 65.8563 1.81087 64.9633 2.23434 64.0535C2.29793 63.9184 2.38567 63.7936 2.4696 63.6688C2.49504 63.6302 2.5459 63.6083 2.5866 63.5813C2.61712 63.5607 2.70359 63.598 2.70868 63.6341C2.71631 63.6997 2.73538 63.7679 2.72267 63.8297C2.67689 64.06 2.59296 64.28 2.5014 64.4962C2.19365 65.2206 1.88463 65.9438 1.58324 66.6708C1.35815 67.2125 1.15341 67.7606 1.01225 68.3332C0.885087 68.8466 0.867283 69.3613 0.963931 69.8799C1.00717 70.1115 1.08347 70.3341 1.19411 70.5425C1.38867 70.9092 1.67226 71.1833 2.0474 71.3583C2.30556 71.478 2.57642 71.5642 2.85874 71.5899C3.60903 71.6607 4.35169 71.6234 5.07401 71.3866C5.7658 71.1589 6.36604 70.7832 6.87344 70.2556C7.03622 70.0857 7.17864 69.9017 7.29945 69.6997C7.45587 69.4359 7.54362 69.1503 7.58177 68.8466C7.59703 68.7205 7.55506 68.6111 7.45587 68.5352C7.35032 68.4542 7.23969 68.3795 7.12396 68.3152C6.97899 68.2341 6.82257 68.1724 6.68014 68.0887C6.52373 67.9961 6.36731 67.8983 6.22615 67.7825C5.99344 67.5908 5.89043 67.336 5.9095 67.0272C5.92604 66.7557 5.99216 66.4983 6.07737 66.2423C6.19945 65.8756 6.36095 65.5269 6.54026 65.1859C6.75136 64.787 6.96246 64.3868 7.17101 63.9853C7.24096 63.8515 7.30327 63.7151 7.36812 63.5787C7.46986 63.3651 7.53217 63.1425 7.54107 62.9019C7.55379 62.5828 7.58685 62.2663 7.5983 61.9472C7.64281 60.7132 7.89206 59.5204 8.26848 58.3495C8.40836 57.9158 8.62963 57.5221 8.84709 57.1258C8.90813 57.0151 9.02131 56.9752 9.11287 56.9057L9.10143 56.8942H9.09889Z" fill="#414244"/>
<path d="M81.5136 70.2903C80.9082 70.2968 80.4771 70.2903 80.0473 70.2453C79.8489 70.2247 79.6493 70.2221 79.4509 70.2067C79.0859 70.1797 78.7273 70.1205 78.3751 70.0176C78.2962 69.9944 78.2174 69.9648 78.1411 69.9339C77.6947 69.7538 77.4098 69.4192 77.27 68.9624C77.2013 68.7385 77.153 68.5069 77.153 68.2702C77.153 68.1029 77.1466 67.9343 77.1568 67.7671C77.1898 67.215 77.2433 66.6643 77.3424 66.1187C77.3666 65.9849 77.3997 65.8563 77.4734 65.743C77.4887 65.7186 77.5256 65.707 77.5535 65.6916C77.5917 65.671 77.6515 65.7057 77.6731 65.7533C77.6922 65.7996 77.7201 65.8434 77.7303 65.8923C77.7481 65.9734 77.7519 66.0583 77.7685 66.1406C77.7913 66.2551 77.8142 66.3709 77.8486 66.4816C77.963 66.8573 78.2046 67.1185 78.5594 67.2742C78.913 67.4286 79.2856 67.5161 79.6633 67.5663C81.1804 67.7671 82.7051 67.8314 84.2324 67.7516C85.3935 67.6911 86.5456 67.5483 87.6774 67.2678C88.0627 67.1713 88.4468 67.0619 88.8245 66.9345C89.6981 66.6412 90.4904 66.1895 91.2241 65.6311C91.303 65.5719 91.3882 65.5191 91.4708 65.4664C91.4963 65.4496 91.5891 65.4908 91.598 65.5217C91.612 65.5693 91.6273 65.6169 91.6374 65.6658C91.687 65.9103 91.7112 65.9283 91.9185 65.9C92.6433 65.7996 93.2881 65.5191 93.8476 65.0366C94.1884 64.7419 94.5178 64.4357 94.8268 64.1063C94.884 64.0458 94.9425 63.9853 94.9959 63.921C95.2465 63.6238 95.5606 63.4578 95.9497 63.4526C96.3007 63.4475 96.5423 63.2674 96.7229 62.9817C96.7674 62.9109 96.8094 62.8376 96.8437 62.7617C96.9187 62.597 97.0332 62.4889 97.2214 62.4786C97.3867 62.4696 97.4986 62.3731 97.5813 62.2405C97.6957 62.0552 97.8013 61.8661 97.9132 61.6795C97.973 61.5792 98.0365 61.4814 98.1027 61.3862C98.1383 61.3347 98.2464 61.3128 98.2794 61.3501C98.31 61.3849 98.3468 61.4363 98.3417 61.4749C98.3227 61.6242 98.2985 61.7735 98.2565 61.9176C98.09 62.485 97.8293 63.0074 97.4808 63.4835C97.2913 63.7422 97.0764 63.9738 96.7814 64.1114C96.6733 64.1616 96.5957 64.2466 96.522 64.3392C96.4088 64.4833 96.2918 64.6261 96.1684 64.7612C95.9942 64.953 95.7793 65.0829 95.5173 65.0894C95.1358 65.0984 94.8599 65.2862 94.6297 65.5706C94.4936 65.7392 94.3563 65.9077 94.2151 66.0737C94.0206 66.3028 93.8235 66.5292 93.6238 66.7544C93.5017 66.8921 93.3618 67.0105 93.1952 67.0928C93.0248 67.1777 92.8493 67.2099 92.6649 67.1571C92.4424 67.0928 92.2199 67.0246 91.9986 66.9564C91.7773 66.8882 91.5548 66.8187 91.3335 66.7492C91.261 66.7261 91.1987 66.7557 91.1542 66.8046C91.0753 66.8908 91.0067 66.986 90.9342 67.0774C90.6506 67.4299 90.3225 67.7349 89.9652 68.0128C89.0712 68.7077 88.064 69.1644 86.9932 69.4964C86.1031 69.7731 85.1964 69.9725 84.2744 70.087C83.3028 70.208 82.3249 70.2659 81.5199 70.2929L81.5136 70.2903Z" fill="#414244"/>
<path d="M115.534 70.3302C114.986 70.3212 114.587 70.3186 114.189 70.3071C113.707 70.2929 113.229 70.2337 112.763 70.1128C112.539 70.0548 112.318 69.9789 112.104 69.8901C111.841 69.7808 111.613 69.6122 111.417 69.4012C111.168 69.1335 111.028 68.8183 111.013 68.4529C111.005 68.2689 111.001 68.0823 111.023 67.9009C111.108 67.1841 111.229 66.4752 111.406 65.7752C111.426 65.6928 111.457 65.6182 111.516 65.5539C111.572 65.4947 111.698 65.4972 111.729 65.5693C111.762 65.6452 111.797 65.7237 111.809 65.8035C111.83 65.9527 111.837 66.1033 111.847 66.2538C111.865 66.5215 111.988 66.7299 112.184 66.9036C112.348 67.049 112.535 67.1623 112.738 67.233C113.004 67.3257 113.275 67.4093 113.549 67.4737C114.05 67.592 114.56 67.6525 115.073 67.6924C115.67 67.7374 116.265 67.776 116.863 67.7619C117.244 67.7529 117.624 67.731 118.006 67.713C118.254 67.7014 118.503 67.6911 118.751 67.6718C120.296 67.5522 121.808 67.2755 123.246 66.6682C123.536 66.5459 123.82 66.4057 124.098 66.2564C124.517 66.0325 124.849 65.7083 125.103 65.3029C125.183 65.1768 125.272 65.0559 125.362 64.9375C125.376 64.9195 125.424 64.9131 125.446 64.9221C125.473 64.9324 125.502 64.9632 125.51 64.9916C125.524 65.0379 125.534 65.0919 125.525 65.1395C125.495 65.3042 125.464 65.4689 125.416 65.6285C125.254 66.1599 125.028 66.663 124.756 67.1443C124.462 67.6641 124.067 68.0836 123.562 68.4001C123.024 68.7359 122.468 69.0306 121.876 69.2545C120.957 69.6032 120.009 69.8361 119.045 70.0137C118.341 70.1423 117.633 70.2195 116.924 70.2775C116.412 70.3199 115.896 70.3161 115.531 70.3289L115.534 70.3302Z" fill="#414244"/>
<path d="M31.3432 64.4087C31.0261 64.7484 30.606 65.0169 30.0829 65.2142C30.0016 65.4085 29.9838 65.6259 29.9545 65.8408C29.8044 66.941 29.5501 68.0154 29.1635 69.0564C28.8469 69.9095 28.4348 70.7111 27.9274 71.4626C27.523 72.0622 27.0474 72.5975 26.4866 73.0542C25.8838 73.5445 25.2137 73.9035 24.4583 74.0849C24.1035 74.1698 23.7436 74.2329 23.3761 74.2342C22.9399 74.2355 22.5164 74.1557 22.112 73.9936C21.3821 73.7002 20.8658 73.1816 20.5568 72.4508C20.3914 72.0609 20.3113 71.6491 20.2757 71.2309C20.2439 70.8462 20.2617 70.4602 20.3075 70.0755C20.4283 69.0499 20.7221 68.0759 21.1316 67.134C21.3516 66.627 21.6021 66.1342 21.8755 65.6542C21.9238 65.568 21.9938 65.4947 22.0561 65.4162C22.0815 65.384 22.1629 65.3982 22.1845 65.4342C22.229 65.5088 22.2532 65.5925 22.2278 65.6748C22.1832 65.8177 22.1337 65.9605 22.0713 66.0969C21.8742 66.5228 21.6886 66.9526 21.5347 67.3965C21.3974 67.7928 21.2905 68.1981 21.2168 68.6111C21.1608 68.9251 21.1392 69.2442 21.1672 69.5633C21.2371 70.3572 21.6072 70.9543 22.3104 71.3339C22.6983 71.5436 23.1141 71.6568 23.5465 71.6877C24.7266 71.7752 25.8343 71.4999 26.8198 70.8526C27.8397 70.1848 28.5391 69.2352 28.9219 68.063C29.0936 67.5354 29.1953 66.9924 29.2347 66.4366C29.2742 65.8833 29.2767 65.33 29.2754 64.7767C29.2754 64.5927 29.2818 64.4061 29.311 64.226C29.3683 63.8747 29.6099 63.6611 29.9621 63.6508C30.1262 63.6457 30.294 63.6624 30.4568 63.6894C30.6081 63.7151 30.7518 63.7061 30.8994 63.6688C31.0494 63.6315 31.1791 63.5607 31.2809 63.4449C31.3902 63.3201 31.4958 63.1889 31.5924 63.0538C31.6547 62.9663 31.7323 62.8955 31.8341 62.8981C32.1685 62.9084 32.3529 62.7295 32.4635 62.4336C32.4928 62.3563 32.5373 62.283 32.5882 62.2187C32.6136 62.1865 32.6695 62.1685 32.7141 62.1608C32.7662 62.1518 32.8183 62.2354 32.8145 62.3087C32.8145 62.3255 32.8171 62.3422 32.8145 62.3589C32.7433 62.844 32.6123 63.3085 32.3732 63.7383C32.3402 63.7962 32.3046 63.8528 32.2677 63.9094C32.1431 64.096 31.9828 64.235 31.7628 64.2942C31.6344 64.3289 31.5072 64.3649 31.3457 64.4087H31.3432Z" fill="#414244"/>
<path d="M61.6219 64.2362C61.6219 64.5103 61.6321 64.8294 61.6207 65.1472C61.5533 66.9641 61.159 68.6986 60.3299 70.3212C60.0247 70.9182 59.6674 71.4831 59.2477 72.0055C58.8687 72.4765 58.4465 72.8998 57.9608 73.2588C57.2791 73.7645 56.5212 74.0887 55.6857 74.211C55.1745 74.2856 54.6607 74.2805 54.1559 74.1389C53.2326 73.8777 52.5765 73.3116 52.2267 72.4031C51.9749 71.7495 51.9139 71.0701 51.9775 70.3752C52.0703 69.3652 52.3234 68.3975 52.7049 67.4608C52.9452 66.8702 53.225 66.3002 53.5366 65.7456C53.5938 65.6439 53.6663 65.5513 53.7375 65.4599C53.754 65.4393 53.7947 65.4342 53.8252 65.429C53.8583 65.4239 53.9194 65.4882 53.9206 65.532C53.9206 65.6143 53.9346 65.7031 53.9104 65.779C53.871 65.9064 53.8074 66.0248 53.7553 66.1483C53.6116 66.488 53.4641 66.8239 53.3293 67.1661C53.1322 67.6654 52.9987 68.1839 52.9084 68.7154C52.8639 68.9817 52.8422 69.2494 52.86 69.517C52.9122 70.3315 53.2746 70.9517 54.002 71.3377C54.3899 71.5436 54.8032 71.6607 55.2355 71.698C56.3801 71.7984 57.4483 71.5269 58.4287 70.944C59.1587 70.5091 59.7042 69.8811 60.1023 69.1233C60.4266 68.5043 60.5982 67.8468 60.5957 67.1443C60.5944 66.6746 60.5995 66.2049 60.5893 65.7353C60.5804 65.3119 60.6364 64.8989 60.7457 64.4923C60.8755 64.0059 61.0408 63.5324 61.229 63.0653C61.2722 62.9572 61.3294 62.853 61.3841 62.7501C61.407 62.7063 61.4363 62.6613 61.4731 62.6317C61.5088 62.6034 61.5634 62.5712 61.6003 62.5802C61.6372 62.5892 61.6868 62.6446 61.6893 62.6819C61.6982 62.8157 61.6919 62.9495 61.6855 63.0833C61.6677 63.4513 61.6461 63.8206 61.6245 64.2337L61.6219 64.2362Z" fill="#414244"/>
<path d="M101.232 68.6858C101.139 68.7025 101.108 68.7643 101.069 68.8183C100.927 69.0242 100.783 69.23 100.642 69.4372C100.337 69.885 99.9224 70.1745 99.4049 70.3109C98.8924 70.4473 98.3773 70.5747 97.8598 70.6931C97.7173 70.7252 97.5635 70.7149 97.4147 70.7188C97.388 70.7188 97.3587 70.6918 97.3346 70.6725C97.3091 70.6532 97.3231 70.5695 97.3549 70.5335C97.4007 70.4846 97.4426 70.4319 97.4948 70.3907C97.5863 70.3199 97.683 70.253 97.7809 70.1912C98.1027 69.9854 98.4206 69.7705 98.7512 69.5775C99.9682 68.8646 100.844 67.8404 101.456 66.5729C101.595 66.2873 101.723 65.9952 101.871 65.7147C101.979 65.5075 102.107 65.3107 102.234 65.1151C102.269 65.0623 102.33 65.0237 102.384 64.9877C102.407 64.9723 102.448 64.9787 102.48 64.9813C102.524 64.9838 102.569 65.0404 102.565 65.0881C102.557 65.1704 102.554 65.2553 102.533 65.3338C102.472 65.5603 102.409 65.7855 102.335 66.0081C102.246 66.2744 102.261 66.5331 102.337 66.7981C102.393 66.9924 102.458 67.1816 102.562 67.354C102.749 67.6628 103.028 67.8249 103.374 67.8713C103.505 67.8893 103.638 67.8828 103.772 67.8854C104.193 67.8931 104.549 67.749 104.841 67.4376C105.036 67.2305 105.241 67.0349 105.439 66.8329C105.556 66.7132 105.681 66.6038 105.832 66.5292C106.171 66.3619 106.503 66.3748 106.829 66.5678C106.959 66.645 107.068 66.7479 107.163 66.865C107.237 66.9551 107.311 67.0452 107.386 67.1352C107.411 67.1661 107.491 67.1597 107.517 67.1237C107.587 67.0297 107.657 66.9371 107.724 66.8419C108.052 66.3774 108.402 65.9309 108.782 65.5088C109.006 65.2605 109.248 65.0289 109.522 64.8397C109.616 64.7754 109.727 64.7329 109.831 64.684C109.881 64.6609 109.973 64.7381 109.967 64.796C109.961 64.8616 109.962 64.9311 109.939 64.9916C109.892 65.1164 109.833 65.236 109.777 65.3583C109.671 65.586 109.548 65.8061 109.46 66.0402C109.362 66.304 109.21 66.5086 108.969 66.6489C108.707 66.802 108.494 67.013 108.296 67.2408C107.989 67.5959 107.731 67.9832 107.539 68.4168C107.288 68.9843 107.073 69.5646 106.868 70.1488C106.819 70.2903 106.769 70.4331 106.711 70.5721C106.685 70.6326 106.642 70.6866 106.599 70.7355C106.58 70.7574 106.53 70.7818 106.514 70.7716C106.474 70.7497 106.419 70.7072 106.418 70.6725C106.416 70.5399 106.425 70.4048 106.442 70.2736C106.489 69.9082 106.542 69.5427 106.594 69.1786C106.625 68.9598 106.622 68.7449 106.549 68.5326C106.473 68.31 106.324 68.1685 106.109 68.0887C105.779 67.9652 105.491 68.0437 105.234 68.2727C105.084 68.4065 104.961 68.5648 104.845 68.7282C104.681 68.9598 104.518 69.194 104.344 69.4179C104.222 69.5749 104.09 69.728 103.945 69.8657C103.558 70.2324 103.094 70.3727 102.57 70.307C102.297 70.2736 102.068 70.1423 101.873 69.9506C101.681 69.7602 101.54 69.5324 101.446 69.2789C101.394 69.1374 101.357 68.992 101.309 68.8492C101.288 68.79 101.256 68.7347 101.232 68.6819V68.6858Z" fill="#414244"/>
<path d="M65.0529 4.99398e-06C65.0962 0.0463274 65.1432 0.0772089 65.1597 0.118384C65.2132 0.258638 65.2526 0.405326 65.3034 0.545579C65.4319 0.895571 65.6137 1.21468 65.8795 1.47589C66.434 2.02017 67.0825 2.22219 67.8417 2.01117C68.3224 1.87735 68.709 1.6007 69.0269 1.22111C69.1236 1.10659 69.2024 0.976635 69.2978 0.860829C69.3258 0.826087 69.3805 0.814507 69.4364 0.786198C69.5305 0.909725 69.6183 1.02939 69.7098 1.14777C69.9171 1.41412 70.1625 1.63673 70.4563 1.804C71.5016 2.39719 72.5253 2.01374 73.0874 1.28674C73.2832 1.03325 73.4244 0.75017 73.5338 0.449075C73.5732 0.338416 73.6063 0.22647 73.6431 0.114524C73.6584 0.0682018 73.6826 0.0128723 73.736 0.0257396C73.7792 0.0360335 73.8237 0.0746355 73.8504 0.111951C73.9636 0.279226 74.0335 0.465802 74.0882 0.661385C74.2027 1.07829 74.176 1.49261 74.073 1.90437C73.9267 2.48597 73.6444 2.99166 73.2146 3.40856C72.8064 3.80487 72.3193 4.03648 71.7547 4.0931C71.452 4.12398 71.1595 4.06608 70.8721 3.97987C70.4856 3.86406 70.1435 3.66076 69.8243 3.41499C69.6933 3.31334 69.5649 3.20783 69.425 3.09717C69.3627 3.13062 69.3016 3.15507 69.2495 3.19367C69.0485 3.34036 68.8565 3.5012 68.6492 3.64017C68.3135 3.86406 67.9447 4.00303 67.5442 4.06994C67.0838 4.14586 66.6552 4.06222 66.2394 3.86921C65.9177 3.71866 65.6468 3.49863 65.4166 3.23099C64.9436 2.68156 64.6765 2.04334 64.6485 1.31119C64.6333 0.902004 64.7045 0.509551 64.9207 0.154413C64.9537 0.0990834 65.0046 0.0553345 65.0542 -0.00128174L65.0529 4.99398e-06Z" fill="#414244"/>
<path d="M42.5047 62.063C42.4869 62.6639 42.244 63.158 41.7875 63.5453C41.5891 63.7138 41.3576 63.7923 41.0944 63.7614C40.9622 63.746 40.8312 63.728 40.7002 63.7113C40.3276 63.6624 40.0109 63.7743 39.7591 64.0548C39.6371 64.1912 39.5188 64.3328 39.4183 64.4859C39.2988 64.6673 39.2009 64.8616 39.0941 65.0507C38.9224 65.357 38.7634 65.671 38.579 65.9682C38.4709 66.1419 38.3921 66.322 38.3412 66.5163C38.1899 67.0851 37.9737 67.6281 37.7295 68.1608C37.582 68.4812 37.3989 68.7797 37.1891 69.0615C37.0365 69.2674 36.8508 69.4282 36.6117 69.5234C36.5036 69.5659 36.3994 69.6199 36.29 69.6572C35.677 69.8618 35.0628 70.0651 34.4473 70.2633C34.3545 70.2929 34.2528 70.2968 34.1548 70.3045C34.1256 70.3071 34.0722 70.2852 34.0696 70.2684C34.0633 70.2221 34.0633 70.1617 34.0887 70.1282C34.1497 70.0497 34.2197 69.9751 34.2985 69.9159C34.5236 69.7435 34.7513 69.5762 34.9827 69.4141C35.3922 69.1284 35.8055 68.8492 36.2175 68.5674C36.552 68.3384 36.8203 68.0437 37.0466 67.7091C37.1878 67.5007 37.301 67.2781 37.3684 67.0336C37.3747 67.0079 37.3595 66.9654 37.3391 66.9474C37.3188 66.9281 37.2781 66.9178 37.2514 66.9242C37.1713 66.9435 37.0937 66.9744 37.0136 66.9963C36.5799 67.1134 36.2328 66.9641 35.9505 66.6334C35.8118 66.4713 35.775 66.2757 35.8258 66.0673C35.8424 66.0029 35.864 65.9386 35.8843 65.8755C36.0967 65.218 36.3968 64.6043 36.7745 64.0291C36.8661 63.8888 36.9703 63.7589 37.1026 63.6534C37.2107 63.5659 37.3328 63.5247 37.4701 63.5234C37.7333 63.5208 37.9546 63.6186 38.1403 63.8026C38.2598 63.921 38.3488 64.0613 38.429 64.2092C38.5065 64.3508 38.5714 64.3521 38.696 64.2337C38.8295 64.1063 38.9453 63.9647 39.0381 63.8039C39.0877 63.7164 39.1335 63.6276 39.1818 63.5388C39.3102 63.3047 39.4425 63.0718 39.5658 62.8337C39.8164 62.3538 40.147 61.9356 40.5387 61.5689C40.76 61.3617 40.9456 61.1288 41.1122 60.8779C41.1949 60.7531 41.2801 60.6295 41.3691 60.5086C41.453 60.3941 41.5776 60.3722 41.6705 60.4558C42.0647 60.8097 42.3407 61.2407 42.4729 61.758C42.4971 61.8545 42.4945 61.9574 42.5047 62.063Z" fill="#414244"/>
<path d="M20.9878 45.5439C21.0044 45.7021 20.937 45.8398 20.8721 45.9736C20.6025 46.5295 20.3126 47.0751 19.9374 47.5692C19.341 48.3541 18.695 49.094 17.9689 49.7579C16.2254 51.3535 14.4438 52.9014 12.5579 54.3271C11.6168 55.0387 10.6974 55.7798 9.76778 56.5068C9.61136 56.6291 9.44986 56.7462 9.28836 56.8645C9.23113 56.9057 9.165 56.9083 9.09888 56.8929C9.09888 56.8929 9.11032 56.9044 9.11032 56.9031C9.12304 56.8375 9.1294 56.7706 9.15102 56.7089C9.39009 56.0565 9.73345 55.4736 10.2408 54.9924C10.9657 54.3039 11.7325 53.667 12.5083 53.0391C13.504 52.2336 14.4997 51.4294 15.4853 50.611C16.4835 49.7811 17.4322 48.8945 18.3593 47.9848C19.1312 47.2269 19.9031 46.4677 20.6763 45.7112C20.7577 45.6314 20.8251 45.5284 20.9459 45.4988C20.9599 45.513 20.9738 45.5271 20.9878 45.5413V45.5439Z" fill="#414244"/>
<path d="M62.568 67.4184C62.5973 66.6798 62.6723 65.9463 62.7613 65.2142C62.8338 64.6159 62.9089 64.0175 62.9953 63.4205C63.0665 62.9238 63.1543 62.4284 63.2369 61.933C63.2789 61.6847 63.3463 61.4428 63.4353 61.2073C63.6235 60.7068 63.8105 60.2049 64.0025 59.7057C64.0254 59.6465 64.0737 59.5963 64.1119 59.5436C64.1208 59.532 64.1449 59.5204 64.1526 59.5243C64.1805 59.5397 64.2161 59.5564 64.2263 59.5822C64.2441 59.6272 64.2556 59.6799 64.2518 59.7276C64.2212 60.111 64.192 60.4957 64.15 60.8792C64.0724 61.5779 63.9885 62.2766 63.9046 62.9753C63.8575 63.3742 63.7978 63.7718 63.7596 64.1719C63.6897 64.9054 63.5917 65.6375 63.6121 66.3774C63.6185 66.6141 63.6464 66.8445 63.7176 67.0697C63.785 67.282 63.9008 67.4621 64.0585 67.6165C64.1551 67.7117 64.2696 67.7761 64.398 67.8172C64.5099 67.852 64.6078 67.8224 64.6472 67.722C64.7019 67.5818 64.7464 67.4377 64.7973 67.2961C64.866 67.107 64.9283 66.9165 65.0071 66.7325C65.0809 66.5627 65.2818 66.5202 65.4242 66.6425C65.498 66.7055 65.5679 66.7827 65.6175 66.8663C65.7383 67.0722 65.7981 67.3 65.7879 67.5393C65.7612 68.2367 65.6023 68.8981 65.2488 69.5041C65.1305 69.7075 64.9842 69.8902 64.7998 70.0381C64.5124 70.2698 64.1856 70.3624 63.8219 70.3058C63.5854 70.2685 63.3857 70.1527 63.2179 69.9815C63.0157 69.7757 62.8809 69.5273 62.7893 69.2545C62.6876 68.9509 62.6367 68.6369 62.6075 68.3204C62.5795 68.0206 62.5795 67.7182 62.5668 67.4171L62.568 67.4184Z" fill="#414244"/>
<path d="M45.8035 58.5167C45.4665 58.5412 45.1435 58.4627 44.8179 58.3932C44.6564 58.3585 44.4975 58.3096 44.3347 58.2748C44.2215 58.2504 44.1058 58.2375 43.9913 58.2221C43.4356 58.1474 42.9396 58.2915 42.4971 58.6351C42.3916 58.7175 42.2873 58.7985 42.1779 58.8757C42.1385 58.904 42.0889 58.9169 42.0431 58.9362C42.005 58.9529 41.9248 58.9311 41.9109 58.8976C41.8981 58.8693 41.8842 58.8345 41.888 58.8062C41.8943 58.7573 41.907 58.7059 41.9312 58.6634C42.0139 58.518 42.0927 58.37 42.1919 58.2362C42.665 57.5954 43.241 57.0717 43.9366 56.6883C44.0956 56.6008 44.2622 56.5197 44.4326 56.4554C44.7302 56.3421 45.0341 56.2868 45.3584 56.3563C45.6979 56.4296 46.0451 56.4708 46.3885 56.53C47.519 56.7269 48.5643 56.5094 49.5244 55.8738C49.677 55.7721 49.8284 55.6692 49.9822 55.5714C50.0369 55.5367 50.0992 55.5045 50.1615 55.4929C50.2022 55.4852 50.2556 55.5096 50.2938 55.5354C50.3141 55.5495 50.3294 55.5958 50.323 55.6229C50.3027 55.7039 50.2849 55.7889 50.2416 55.8583C50.1183 56.0565 49.9949 56.2572 49.8512 56.4412C49.5727 56.7989 49.2459 57.1078 48.8797 57.3741C48.4193 57.7087 47.9272 57.984 47.4058 58.2066C46.8946 58.4254 46.3528 58.4974 45.8035 58.518V58.5167Z" fill="#414244"/>
<path d="M139 65.0096C138.963 65.6311 138.865 66.2075 138.688 66.7698C138.532 67.2652 138.344 67.7478 138.121 68.2161C137.97 68.534 137.784 68.8312 137.568 69.1091C137.432 69.2841 137.268 69.4205 137.066 69.508C136.944 69.5608 136.824 69.6199 136.698 69.6611C136.085 69.8657 135.472 70.069 134.857 70.2659C134.764 70.2955 134.662 70.2968 134.564 70.3032C134.538 70.3045 134.497 70.2826 134.484 70.2595C134.47 70.235 134.47 70.1887 134.486 70.1655C134.533 70.0973 134.581 70.0253 134.643 69.9764C134.866 69.8014 135.091 69.6302 135.322 69.4681C135.758 69.1632 136.198 68.8646 136.637 68.5635C136.93 68.3641 137.169 68.1106 137.379 67.8275C137.549 67.5985 137.681 67.3476 137.773 67.0761C137.789 67.0285 137.8 66.977 137.752 66.941C137.709 66.9075 137.662 66.9204 137.614 66.9371C137.535 66.9641 137.456 66.9899 137.376 67.0092C136.972 67.107 136.524 66.9101 136.308 66.5472C136.226 66.4108 136.199 66.2642 136.234 66.1123C136.272 65.9502 136.319 65.7881 136.379 65.6324C136.569 65.1305 136.797 64.6467 137.082 64.1938C137.18 64.0394 137.29 63.8901 137.409 63.7524C137.644 63.4809 137.953 63.4642 138.271 63.6019C138.476 63.6907 138.624 63.8477 138.744 64.0342C138.944 64.3405 138.996 64.6853 138.997 65.0083L139 65.0096Z" fill="#414244"/>
<path d="M50.8584 65.0919C50.8495 65.5989 50.7516 66.0904 50.6142 66.5755C50.4502 67.1571 50.2302 67.7181 49.9682 68.2624C49.8296 68.5494 49.6592 68.817 49.4684 69.0718C49.3146 69.2776 49.1251 69.4346 48.8873 69.5298C48.7792 69.5736 48.6762 69.6276 48.5655 69.6649C47.9513 69.8695 47.3371 70.0716 46.7216 70.2697C46.6288 70.2993 46.527 70.3019 46.4278 70.307C46.405 70.3083 46.3681 70.2774 46.3566 70.2517C46.3452 70.2247 46.3465 70.1796 46.363 70.1565C46.4113 70.0896 46.4609 70.0201 46.5258 69.9699C46.7623 69.7859 47.0014 69.6045 47.2468 69.4333C47.683 69.1271 48.1281 68.835 48.5617 68.5249C49.0335 68.1878 49.3769 67.7413 49.6007 67.2034C49.6261 67.1442 49.6312 67.0748 49.6427 67.0104C49.6503 66.9654 49.5918 66.9152 49.546 66.9281C49.4659 66.9499 49.387 66.9744 49.3082 66.9976C48.8962 67.1121 48.5554 66.9821 48.2743 66.6772C48.1192 66.5086 48.0505 66.3066 48.1205 66.0737C48.1344 66.0261 48.1408 65.9746 48.1561 65.927C48.3824 65.2206 48.7016 64.5605 49.1213 63.9506C49.1683 63.8824 49.2255 63.8206 49.2802 63.7576C49.5257 63.4719 49.8576 63.4796 50.1437 63.6032C50.2988 63.6701 50.4247 63.7807 50.529 63.9133C50.721 64.1565 50.8279 64.4344 50.8546 64.7419C50.8647 64.859 50.8558 64.9761 50.8558 65.0945L50.8584 65.0919Z" fill="#414244"/>
<path d="M62.4332 47.5538C62.9483 47.5538 63.4162 47.4071 63.8372 47.1111C64.0292 46.976 64.1983 46.8152 64.3318 46.6196C64.4081 46.5089 64.4679 46.3905 64.4984 46.2567C64.5455 46.047 64.5061 45.9389 64.3268 45.8347C64.2263 45.7755 64.1207 45.7266 64.0203 45.6674C63.9491 45.6249 63.8817 45.576 63.8181 45.5233C63.7087 45.4332 63.6579 45.3097 63.6579 45.1694C63.6591 44.9842 63.6998 44.8053 63.7634 44.6303C63.9427 44.1323 64.2403 43.7116 64.5938 43.3268C64.7184 43.1917 64.8583 43.0721 64.9906 42.946C65.0389 42.8996 65.086 42.8533 65.133 42.8057C65.1928 42.744 65.2093 42.668 65.1483 42.5805C65.0732 42.4737 65.0542 42.3708 65.1038 42.2524C65.2208 41.9745 65.3428 41.6978 65.5031 41.4431C65.5806 41.3183 65.6976 41.2616 65.8439 41.2887C66.0931 41.335 66.3208 41.4289 66.5051 41.6129C66.5929 41.7017 66.6387 41.8098 66.6209 41.932C66.6069 42.0298 66.584 42.1315 66.5395 42.219C66.3971 42.4905 66.2 42.7131 65.9304 42.8649C65.6989 42.9962 65.47 43.1325 65.2424 43.2715C64.9562 43.4465 64.707 43.6678 64.4997 43.9355C64.459 43.9882 64.426 44.0461 64.3916 44.104C64.3636 44.1504 64.3827 44.252 64.4272 44.2867C64.4794 44.3279 64.5328 44.3665 64.5862 44.4064C64.6536 44.4553 64.7235 44.5003 64.7871 44.5544C64.9194 44.6676 64.9969 44.8117 65.0084 44.9893C65.0249 45.2582 65.0224 45.5259 64.9664 45.7909C64.8265 46.4549 64.5709 47.0699 64.2047 47.6374C63.9936 47.9629 63.738 48.2486 63.434 48.4879C63.0144 48.8186 62.54 48.9923 62.0009 48.964C61.4617 48.9357 61.0535 48.6912 60.78 48.219C60.6185 47.9385 60.5371 47.631 60.5143 47.3106C60.4952 47.0416 60.5117 46.7766 60.5639 46.5102C60.6974 45.8308 60.9314 45.1862 61.2124 44.5595C61.3701 44.2083 61.5418 43.8634 61.7109 43.5173C61.7402 43.4581 61.7834 43.4053 61.8292 43.3577C61.8444 43.341 61.8877 43.3474 61.9169 43.3513C61.9284 43.3526 61.9411 43.3757 61.9449 43.3912C61.9665 43.4941 61.9335 43.5919 61.8966 43.6833C61.7821 43.9625 61.6575 44.2366 61.5443 44.5158C61.4057 44.8568 61.2696 45.2003 61.1425 45.5452C61.0306 45.8475 60.9924 46.1628 61.0204 46.4858C61.0318 46.6209 61.0624 46.7495 61.1119 46.8756C61.2722 47.2758 61.585 47.4675 61.9869 47.5293C62.1344 47.5525 62.2844 47.5486 62.4332 47.5576V47.5538Z" fill="#414244"/>
<path d="M74.9021 47.3942C74.9263 46.9567 74.986 46.527 75.1348 46.1126C75.2251 45.8604 75.3052 45.6044 75.4133 45.3599C75.6486 44.8246 75.8991 44.2945 76.1433 43.7631C76.1852 43.6717 76.2247 43.5791 76.3124 43.5212C76.3238 43.5134 76.3467 43.516 76.3594 43.5224C76.3862 43.5379 76.4243 43.5572 76.4281 43.5803C76.4357 43.628 76.4345 43.682 76.4179 43.727C76.3226 43.9767 76.2221 44.225 76.1204 44.4733C75.9551 44.8761 75.7681 45.2685 75.632 45.6829C75.5379 45.9698 75.4642 46.2619 75.4184 46.5604C75.3345 47.1163 75.6244 47.6001 76.1662 47.7584C76.5108 47.8587 76.8567 47.8677 77.1988 47.7944C77.8244 47.6593 78.3293 47.3247 78.6866 46.783C78.768 46.6595 78.8316 46.5192 78.8888 46.3816C78.96 46.2117 78.9003 46.0985 78.721 46.0316C78.6281 45.9968 78.5302 45.9737 78.4386 45.9338C78.3484 45.8939 78.2581 45.8489 78.178 45.7897C78.0368 45.6867 77.9579 45.5413 77.944 45.3638C77.93 45.1952 77.9452 45.0305 77.9885 44.8658C78.0559 44.6046 78.1423 44.3511 78.2657 44.1131C78.7222 43.2381 79.3301 42.4969 80.1554 41.9526C80.294 41.8613 80.4415 41.7841 80.5903 41.7107C80.6463 41.6837 80.7175 41.6837 80.7836 41.6773C80.8332 41.6721 80.9095 41.7648 80.9044 41.815C80.9032 41.8317 80.907 41.8484 80.9044 41.8651C80.8345 42.2331 80.6717 42.5613 80.4822 42.8778C80.4492 42.9331 80.3818 42.9846 80.3131 42.9576C80.0867 42.8688 79.8896 42.9434 79.7002 43.0592C79.2818 43.314 78.9371 43.6485 78.6714 44.0629C78.6447 44.1053 78.6269 44.1529 78.6065 44.198C78.5684 44.2829 78.6014 44.4232 78.6803 44.4682C78.796 44.5338 78.9155 44.5904 79.0351 44.6483C79.2513 44.7526 79.3644 44.9276 79.3644 45.1669C79.3644 45.4011 79.3695 45.6391 79.3339 45.8682C79.2487 46.4163 79.091 46.9452 78.857 47.4496C78.6358 47.9295 78.3115 48.3258 77.9185 48.6719C77.5281 49.0155 77.0703 49.1866 76.5591 49.2265C76.2895 49.2484 76.0288 49.1956 75.7796 49.0991C75.3421 48.9293 75.0903 48.587 74.9746 48.1418C74.911 47.8999 74.8843 47.6477 74.8983 47.3942H74.9021Z" fill="#414244"/>
<path d="M72.9666 65.3544C72.9412 65.5397 72.9158 65.8408 72.856 66.1355C72.7466 66.6785 72.5839 67.206 72.355 67.7104C72.2456 67.9536 72.1146 68.1878 71.9747 68.4143C71.798 68.6999 71.5741 68.947 71.3046 69.149C70.8913 69.4591 70.4589 69.7396 70.01 69.9918C69.8523 70.0806 69.6882 70.1668 69.5038 70.1861C69.4746 70.1887 69.4415 70.1719 69.4148 70.1552C69.3792 70.1333 69.3754 70.0587 69.3958 70.0188C69.4733 69.8657 69.5992 69.7563 69.7149 69.6379C70.1244 69.221 70.5212 68.7938 70.8862 68.3383C71.0934 68.0784 71.2867 67.8056 71.4762 67.5303C71.5602 67.408 71.6212 67.2678 71.6873 67.134C71.7662 66.9744 71.7573 66.8136 71.7013 66.6463C71.6415 66.47 71.5589 66.3079 71.4546 66.1548C71.2448 65.8485 70.9917 65.586 70.6903 65.3711C70.5962 65.3042 70.497 65.2412 70.4118 65.1627C70.3355 65.0932 70.305 64.9928 70.3254 64.8873C70.3419 64.805 70.3648 64.7239 70.3953 64.6467C70.6191 64.0883 70.8455 63.5298 71.0718 62.9727C71.0973 62.9109 71.1341 62.8556 71.1685 62.799C71.1939 62.7565 71.2982 62.7218 71.3465 62.7385C71.3936 62.7539 71.4432 62.7668 71.4851 62.7912C71.7446 62.9431 71.9811 63.1245 72.1947 63.3381C72.7161 63.8618 72.9641 64.4974 72.9654 65.3531L72.9666 65.3544Z" fill="#414244"/>
<path d="M12.0645 70.4692C12.025 70.464 11.9589 70.4563 11.894 70.446C11.8038 70.4306 11.7224 70.3572 11.7173 70.2942C11.7097 70.2208 11.7427 70.1629 11.7923 70.1179C11.8775 70.0394 11.9653 69.9609 12.0594 69.894C12.4396 69.6264 12.8186 69.3562 13.2064 69.0988C13.6502 68.8041 14.089 68.5069 14.487 68.1492C14.7515 67.9112 14.9677 67.6487 15.1012 67.3115C15.2437 66.9551 15.4102 66.6077 15.5717 66.259C15.6697 66.0467 15.7803 65.8408 15.8808 65.6285C16.1186 65.1241 16.5103 64.7715 16.9782 64.4987C17.1792 64.3816 17.3877 64.2787 17.5925 64.1693C17.6955 64.1153 17.7972 64.06 17.9002 64.0059C18.1418 63.8785 18.3288 63.6945 18.4648 63.4552C18.5475 63.3098 18.6289 63.1644 18.7192 63.0241C18.7637 62.9547 18.8196 62.8916 18.8781 62.8337C18.8959 62.8157 18.9404 62.8118 18.9671 62.8208C18.9951 62.8298 19.032 62.8582 19.0358 62.8839C19.0473 62.9482 19.0562 63.0177 19.0434 63.0808C18.9544 63.508 18.8133 63.9197 18.653 64.3237C18.5729 64.5258 18.4788 64.7213 18.3784 64.9143C18.3084 65.0469 18.2232 65.1717 18.1342 65.2926C18.0032 65.4689 17.8417 65.6079 17.642 65.7057C17.3585 65.8447 17.0825 65.9978 16.8002 66.138C16.4301 66.3233 16.1516 66.5974 15.9761 66.9757C15.8782 67.188 15.7778 67.399 15.6875 67.6152C15.526 68.0012 15.3708 68.3885 15.2157 68.7771C15.1279 68.9959 15.0173 69.2005 14.8749 69.387C14.5938 69.7538 14.2454 70.0304 13.8003 70.1604C13.242 70.3238 12.6723 70.4267 12.067 70.473L12.0645 70.4692Z" fill="#414244"/>
<path d="M87.2565 43.1017C87.2832 43.0811 87.3138 43.0643 87.3328 43.0399C87.5401 42.7787 87.7487 42.5175 87.9521 42.2524C88.003 42.1868 88.0424 42.1122 88.078 42.0362C88.3019 41.5499 88.6528 41.178 89.0967 40.8949C89.2925 40.7701 89.5036 40.671 89.7071 40.5578C89.7935 40.5102 89.88 40.46 89.9614 40.4047C89.9767 40.3944 89.9703 40.3493 89.9741 40.3197C89.8075 40.2387 89.6295 40.2014 89.4451 40.1975C88.9835 40.1885 88.972 40.1679 88.6986 40.4767C88.677 40.5012 88.6465 40.5166 88.6185 40.5346C88.5829 40.5578 88.5536 40.5526 88.5371 40.5205C88.5295 40.5063 88.5219 40.4922 88.518 40.4767C88.5142 40.4613 88.5104 40.442 88.5155 40.4265C88.6096 40.1718 88.7482 39.9453 88.9428 39.7562C89.0661 39.6365 89.2137 39.5631 89.3866 39.5516C89.4693 39.5464 89.5519 39.54 89.6346 39.5438C90.0008 39.5631 90.3582 39.6365 90.7053 39.7549C90.7524 39.7703 90.7982 39.7896 90.8439 39.8115C91.0029 39.8861 91.0665 40.0791 90.9813 40.2374C90.9419 40.3107 90.8948 40.3815 90.8401 40.442C90.7053 40.5938 90.5375 40.7032 90.3544 40.7868C90.1878 40.8615 90.0148 40.9232 89.8495 40.9991C89.5786 41.1239 89.309 41.2552 89.042 41.3864C88.9835 41.416 88.9301 41.4572 88.8754 41.4958C88.8194 41.5344 88.8054 41.6206 88.8474 41.6721C88.9224 41.7622 89.0013 41.8471 89.0738 41.9397C89.1348 42.0182 89.1958 42.0993 89.2442 42.1868C89.276 42.2434 89.295 42.3116 89.3001 42.3772C89.3154 42.6101 89.1056 42.946 88.897 43.0232C88.836 43.0463 88.7673 43.0579 88.7037 43.0553C88.6045 43.0515 88.5066 43.0322 88.4074 43.0154C88.1594 42.9743 87.9534 43.0553 87.7652 43.2149C87.5834 43.3693 87.4358 43.5481 87.3443 43.7682C87.2286 44.0461 87.1255 44.3292 87.0124 44.6084C86.9691 44.7152 86.9144 44.8182 86.856 44.9185C86.8445 44.9391 86.7949 44.9507 86.7695 44.9443C86.7453 44.9378 86.7135 44.8992 86.7148 44.8773C86.7212 44.7603 86.7339 44.6444 86.7491 44.5286C86.7618 44.4296 86.7873 44.3318 86.7975 44.2314C86.8102 44.1117 86.7847 43.9985 86.7262 43.8917C86.6258 43.7038 86.3447 43.534 86.0968 43.754C86.0344 43.8094 85.9734 43.8673 85.9238 43.9342C85.7648 44.1491 85.6008 44.3601 85.4075 44.5467C85.321 44.6303 85.2778 44.7345 85.2409 44.8503C85.1595 45.1051 85.0667 45.356 84.97 45.6056C84.9217 45.7304 84.8569 45.8475 84.7933 45.9659C84.6356 46.258 84.4092 46.4626 84.085 46.5565C83.7988 46.6402 83.5191 46.747 83.2342 46.8345C83.1757 46.8525 83.1058 46.8396 83.0422 46.8319C83.0066 46.828 82.9875 46.7843 83.0117 46.7534C83.0613 46.6891 83.1159 46.6234 83.1808 46.5758C83.4656 46.3725 83.753 46.1744 84.0417 45.9775C84.2503 45.8347 84.427 45.6597 84.5606 45.4422C84.586 45.3998 84.6089 45.3547 84.6318 45.3097C84.703 45.1772 84.675 45.1231 84.5351 45.1244C84.469 45.1244 84.4029 45.1347 84.3367 45.1308C84.2159 45.1231 84.1167 45.0652 84.0265 44.9867C83.9324 44.9044 83.8891 44.7976 83.8955 44.674C83.8993 44.6071 83.9095 44.5389 83.9311 44.4772C84.0506 44.1272 84.2083 43.7952 84.4207 43.4915C84.4487 43.4504 84.483 43.413 84.5186 43.3783C84.6369 43.2612 84.7755 43.2368 84.9319 43.2857C85.0489 43.3217 85.1392 43.395 85.204 43.4941C85.2676 43.5906 85.3134 43.7 85.3744 43.7978C85.3859 43.8158 85.4418 43.8261 85.4609 43.8145C85.5448 43.7617 85.6339 43.7116 85.6987 43.6395C85.831 43.4902 85.9505 43.3281 86.0726 43.1686C86.154 43.0618 86.2392 42.9614 86.3511 42.8842C86.4986 42.7825 86.6588 42.7568 86.8254 42.8018C86.9017 42.8224 86.9704 42.8778 87.0391 42.9228C87.1192 42.9756 87.1446 43.0965 87.2616 43.1055L87.2565 43.1017Z" fill="#414244"/>
<path d="M29.2792 57.9029C29.4306 57.652 29.5577 57.4371 29.6913 57.2248C29.7981 57.055 29.9087 56.8877 30.0257 56.7256C30.1033 56.6175 30.2088 56.6008 30.336 56.6535C30.72 56.8156 31.0011 57.0897 31.1906 57.459C31.2847 57.6417 31.3203 57.8399 31.2669 58.0445C31.2376 58.1577 31.2096 58.2722 31.1664 58.3803C31.024 58.7432 30.8091 59.061 30.5471 59.3454C30.4911 59.4058 30.4237 59.4586 30.3551 59.5023C30.2813 59.5487 30.1898 59.5525 30.1173 59.5075C30.0193 59.447 29.9265 59.375 29.8413 59.2952C29.6951 59.1588 29.5577 59.0134 29.414 58.8744C29.3555 58.8178 29.2945 58.7573 29.1864 58.7522C29.1533 58.7959 29.1088 58.8448 29.077 58.9001C28.9931 59.0443 28.9206 59.1961 28.8316 59.3376C28.7426 59.4792 28.6485 59.6181 28.5404 59.7442C28.2822 60.0453 28.1385 59.9836 27.9007 59.8073C27.6197 59.5988 27.3374 59.3917 27.097 59.1343C27.036 59.0674 27.0207 58.9864 27.0436 58.9014C27.0614 58.8371 27.0881 58.7753 27.1161 58.7149C27.3336 58.2439 27.5815 57.7884 27.8486 57.3432C27.8829 57.2866 27.9211 57.2313 27.9605 57.1759C28.0851 57.0035 28.1983 56.9765 28.3852 57.1052C28.562 57.2274 28.7286 57.3676 28.8926 57.5079C28.9804 57.5838 29.0491 57.6803 29.1292 57.7652C29.1622 57.8 29.2004 57.8296 29.2818 57.9016L29.2792 57.9029Z" fill="#414244"/>
<path d="M96.9213 56.225C96.8819 56.2559 96.8323 56.2791 96.8081 56.3177C96.6962 56.5043 96.5945 56.6973 96.4838 56.8839C96.3808 57.0563 96.2626 57.2184 96.1074 57.3497C95.9993 57.441 95.8505 57.4655 95.7386 57.3908C95.4042 57.1695 95.0913 56.9212 94.8039 56.6407C94.7289 56.5673 94.6908 56.476 94.7378 56.3666C94.7645 56.3048 94.7823 56.2392 94.8116 56.18C95.0379 55.7129 95.277 55.2523 95.5517 54.8109C95.5962 54.7402 95.6458 54.6733 95.6979 54.6076C95.7781 54.5047 95.8811 54.4893 96.007 54.5549C96.2931 54.7016 96.522 54.919 96.7369 55.1545C96.8018 55.2253 96.8399 55.3269 96.9467 55.3514C97.0319 55.3166 97.0675 55.2381 97.1108 55.1674C97.2583 54.9242 97.402 54.6784 97.5533 54.4378C97.6156 54.34 97.6919 54.2499 97.7682 54.1637C97.8153 54.111 97.8827 54.0968 97.9514 54.1135C98.1154 54.156 98.2553 54.2435 98.3888 54.3464C98.5758 54.4918 98.7284 54.6655 98.8479 54.8714C98.9903 55.1159 99.0247 55.3745 98.9395 55.646C98.7843 56.135 98.5198 56.5557 98.1548 56.9122C98.1307 56.9353 98.1052 56.9572 98.076 56.9739C97.9844 57.0293 97.8801 57.0434 97.7937 56.9829C97.6716 56.898 97.5597 56.7964 97.4503 56.696C97.2799 56.539 97.1362 56.3499 96.9251 56.225H96.9213Z" fill="#414244"/>
<path d="M69.3487 45.2981C69.233 45.3933 69.2152 45.495 69.1783 45.5876C69.0638 45.8681 68.9201 46.1332 68.7306 46.3687C68.6365 46.4845 68.5297 46.5913 68.4178 46.6903C68.2601 46.8293 68.0681 46.8756 67.8621 46.8679C67.726 46.8628 67.6001 46.8254 67.4946 46.7341C67.4068 46.6582 67.3178 46.581 67.2364 46.4986C67.0736 46.3339 67.1143 46.2516 67.2084 46.0984C67.2517 46.0277 67.3089 45.9646 67.3547 45.8951C67.4958 45.6803 67.5658 45.4409 67.5823 45.1849C67.6065 44.8001 67.6421 44.4141 67.6434 44.0294C67.6459 43.4696 67.7286 42.9266 67.899 42.3965C68.002 42.0787 68.1215 41.766 68.2372 41.4521C68.2449 41.4315 68.2906 41.4186 68.3199 41.4122C68.3542 41.4044 68.3771 41.4302 68.3809 41.4714C68.3847 41.5048 68.3886 41.5383 68.3886 41.5717C68.3886 41.6219 68.3886 41.6721 68.3835 41.7223C68.339 42.2575 68.2945 42.7915 68.2499 43.3268C68.2372 43.4774 68.2143 43.6266 68.2093 43.7772C68.1825 44.5261 68.0172 45.2376 67.665 45.9003C67.6573 45.9144 67.651 45.9312 67.6446 45.9466C67.6205 46.0019 67.6802 46.0766 67.7464 46.083C67.9193 46.101 68.0783 46.0495 68.2232 45.9698C68.5717 45.7768 68.8337 45.5065 68.9049 45.0922C68.9328 44.9275 68.957 44.7615 68.9685 44.5955C69.0053 44.0435 69.0269 43.4902 69.0702 42.9382C69.1223 42.2614 69.336 41.6283 69.6208 41.0184C69.631 40.9965 69.678 40.9811 69.706 40.985C69.7251 40.9875 69.7518 41.0287 69.7531 41.0519C69.7543 41.1188 69.7442 41.1857 69.7378 41.2513C69.678 41.9024 69.5992 42.5522 69.5928 43.2072C69.5928 43.3242 69.5928 43.4413 69.5992 43.5597C69.6056 43.6961 69.6501 43.8235 69.7226 43.938C69.8154 44.0847 69.9451 44.1838 70.1193 44.216C70.2859 44.2481 70.4512 44.2455 70.6127 44.2005C70.6903 44.1799 70.7679 44.1413 70.8353 44.095C70.9307 44.0281 71.0184 43.9509 71.1049 43.8724C71.2346 43.7553 71.3783 43.6871 71.5563 43.7038C71.6886 43.7167 71.775 43.6446 71.831 43.5301C71.8463 43.5005 71.8615 43.4696 71.8717 43.4388C71.9327 43.2548 72.051 43.1724 72.2481 43.1981C72.3588 43.2123 72.4338 43.1428 72.4796 43.0425C72.5075 42.982 72.5342 42.9202 72.5648 42.861C72.58 42.8314 72.594 42.798 72.6182 42.78C72.6411 42.7632 72.6767 42.7619 72.7072 42.7607C72.7148 42.7607 72.7263 42.7851 72.7326 42.7993C72.739 42.8147 72.7466 42.8314 72.7453 42.8469C72.7301 43.2136 72.5966 43.5314 72.3549 43.8016C72.3003 43.8621 72.2329 43.9213 72.1604 43.9535C72.0167 44.0165 71.9124 44.1182 71.8234 44.2417C71.7051 44.4051 71.5474 44.4707 71.3465 44.4476C71.1875 44.4296 71.054 44.499 70.9472 44.6136C70.8455 44.7229 70.7539 44.8426 70.6547 44.9558C70.5784 45.0446 70.5059 45.1385 70.4194 45.2145C70.1448 45.4577 69.8383 45.5207 69.4987 45.3624C69.4542 45.3418 69.4072 45.3225 69.35 45.2981H69.3487Z" fill="#414244"/>
<path d="M119.828 62.6047C119.824 62.7385 119.804 62.8865 119.744 63.028C119.573 63.4333 119.33 63.7911 119.019 64.1012C118.974 64.1462 118.913 64.1809 118.851 64.2041C118.81 64.2195 118.748 64.2221 118.709 64.2041C118.62 64.1604 118.534 64.1089 118.459 64.0458C118.344 63.9493 118.244 63.8374 118.132 63.7357C118.033 63.6469 117.928 63.5633 117.827 63.4797C117.796 63.4539 117.713 63.4707 117.693 63.5054C117.632 63.6045 117.575 63.7061 117.512 63.8052C117.406 63.9751 117.303 64.1475 117.186 64.3096C117.118 64.4023 117.029 64.482 116.94 64.558C116.83 64.6519 116.679 64.6635 116.571 64.576C116.275 64.3341 115.983 64.087 115.694 63.8361C115.611 63.764 115.597 63.6637 115.64 63.5594C115.685 63.4514 115.727 63.3407 115.782 63.2378C115.976 62.8685 116.175 62.5005 116.376 62.1338C116.431 62.0321 116.5 61.9369 116.57 61.8429C116.653 61.731 116.803 61.7014 116.926 61.7773C117.024 61.8378 117.122 61.9047 117.208 61.9819C117.332 62.0939 117.444 62.2174 117.561 62.3371C117.619 62.3962 117.675 62.458 117.734 62.5172C117.782 62.5648 117.862 62.5532 117.903 62.4889C117.993 62.3486 118.081 62.2071 118.17 62.0643C118.275 61.8944 118.375 61.7194 118.488 61.5534C118.653 61.309 118.79 61.2806 119.03 61.4363C119.313 61.6203 119.539 61.8622 119.71 62.1569C119.787 62.2907 119.827 62.4336 119.829 62.606L119.828 62.6047Z" fill="#414244"/>
<path d="M85.8577 61.9176C85.8437 61.9806 85.8297 62.1157 85.7826 62.2392C85.6186 62.6664 85.3591 63.0319 85.04 63.3548C85.0171 63.378 84.9878 63.3947 84.9611 63.4153C84.8835 63.4719 84.7564 63.4848 84.6801 63.4282C84.5618 63.3381 84.4474 63.2416 84.3342 63.1438C84.1714 63.0023 84.0112 62.8582 83.8484 62.7166C83.8115 62.6844 83.7492 62.6986 83.7225 62.7423C83.6462 62.871 83.575 63.0036 83.4949 63.1297C83.3969 63.2841 83.299 63.4398 83.1871 63.5839C83.1172 63.6739 83.0256 63.7511 82.934 63.8206C82.8501 63.8837 82.7382 63.9004 82.6517 63.8425C82.3071 63.6109 81.9879 63.3471 81.698 63.0473C81.6509 62.9984 81.6344 62.9289 81.6547 62.8607C81.6789 62.781 81.7056 62.7012 81.7412 62.6265C81.9612 62.1582 82.2041 61.7014 82.4762 61.2613C82.5195 61.1906 82.5729 61.1262 82.625 61.0619C82.6899 60.9834 82.8005 60.9654 82.8959 60.9975C83.0256 61.0413 83.1324 61.1211 83.2265 61.2137C83.3919 61.3771 83.5508 61.5483 83.7111 61.7168C83.8255 61.8365 83.8764 61.8301 83.973 61.6769C84.0086 61.6203 84.0442 61.5637 84.0786 61.5071C84.1727 61.3501 84.263 61.1893 84.3609 61.0349C84.4321 60.9216 84.5071 60.8123 84.5872 60.7055C84.675 60.5896 84.8034 60.5626 84.9433 60.6244C84.9891 60.6437 85.0349 60.6643 85.0756 60.6913C85.3566 60.8779 85.5792 61.1211 85.747 61.417C85.8233 61.5508 85.8564 61.6949 85.8577 61.9188V61.9176Z" fill="#414244"/>
<path d="M16.3602 73.2035C16.425 73.1005 16.5001 72.9912 16.5675 72.8779C16.6946 72.6631 16.8154 72.4443 16.9452 72.2294C16.9871 72.1587 17.038 72.0866 17.1016 72.0377C17.1486 72.0017 17.2249 71.9888 17.286 71.9927C17.3495 71.9965 17.4169 72.021 17.4716 72.0544C17.7628 72.2294 17.9879 72.4713 18.1469 72.7724C18.2677 73.0027 18.302 73.2408 18.2245 73.4981C18.077 73.9884 17.8137 74.4079 17.478 74.7849C17.4462 74.8209 17.3991 74.8453 17.3572 74.8711C17.2961 74.9084 17.2326 74.9058 17.1677 74.8788C17.0418 74.826 16.9528 74.7257 16.8587 74.633C16.6934 74.4709 16.5242 74.3101 16.3564 74.1518C16.322 74.1196 16.2445 74.1286 16.2216 74.1621C16.1847 74.2174 16.1453 74.2715 16.1135 74.3294C16.0321 74.4748 15.9609 74.6266 15.8744 74.7681C15.7956 74.8955 15.7078 75.0178 15.6124 75.1336C15.5603 75.1966 15.4891 75.2442 15.4217 75.2906C15.3645 75.3292 15.2983 75.3356 15.2335 75.3047C15.2042 75.2906 15.1724 75.2764 15.1457 75.2584C14.8456 75.0474 14.5697 74.8093 14.3102 74.5507C14.2072 74.449 14.1627 74.3307 14.2327 74.1878C14.2543 74.1428 14.267 74.0939 14.2886 74.0489C14.5035 73.6152 14.7172 73.1816 14.9372 72.7518C14.9893 72.6489 15.0631 72.5563 15.1305 72.461C15.1724 72.4018 15.2894 72.371 15.3568 72.3993C15.4319 72.4314 15.5082 72.4649 15.5768 72.5112C15.8121 72.6708 16.0105 72.8715 16.186 73.0967C16.2267 73.1494 16.2686 73.197 16.3615 73.2048L16.3602 73.2035Z" fill="#414244"/>
<path d="M52.9529 43.579C52.9465 43.9985 52.916 44.4167 52.8613 44.8323C52.7367 45.778 52.4289 46.653 51.8999 47.4456C51.7041 47.739 51.479 48.0067 51.2183 48.2421C50.8521 48.5715 50.4362 48.8057 49.9555 48.9112C49.5956 48.9897 49.2345 49.0026 48.8759 48.8855C48.3418 48.7131 48.0099 48.3489 47.856 47.8111C47.7581 47.4675 47.7441 47.1175 47.7898 46.765C47.856 46.2644 47.9806 45.778 48.1803 45.3148C48.3062 45.024 48.4562 44.7435 48.5986 44.4591C48.6203 44.4154 48.6546 44.3742 48.6927 44.3446C48.7105 44.3305 48.7512 44.3446 48.7805 44.351C48.7932 44.3549 48.8072 44.3755 48.8085 44.3909C48.8237 44.4965 48.7754 44.5865 48.7334 44.6766C48.5541 45.0562 48.4117 45.4473 48.3201 45.8578C48.2756 46.056 48.2604 46.2554 48.2718 46.4574C48.2947 46.8743 48.4829 47.1947 48.8492 47.3916C49.1938 47.5769 49.5677 47.6515 49.9555 47.6039C50.2849 47.564 50.6066 47.4894 50.9131 47.3504C51.624 47.0262 52.0729 46.4767 52.2916 45.7291C52.3285 45.603 52.3399 45.4654 52.3437 45.3328C52.3526 45.0819 52.3552 44.8297 52.3476 44.5788C52.3361 44.2224 52.3984 43.8788 52.5103 43.543C52.5892 43.3049 52.6528 43.0605 52.7927 42.8494C52.8066 42.8288 52.8499 42.8224 52.8804 42.8186C52.9173 42.8134 52.9414 42.8379 52.944 42.879C52.9491 42.9459 52.9529 43.0116 52.9542 43.0785C52.9554 43.2457 52.9542 43.413 52.9542 43.5816L52.9529 43.579Z" fill="#414244"/>
<path d="M11.1628 50.5338C11.215 50.4759 11.2671 50.4335 11.3002 50.3794C11.4134 50.1941 11.5164 50.0024 11.6296 49.8171C11.716 49.6743 11.8101 49.5366 11.9068 49.4015C11.9589 49.3281 12.0428 49.3088 12.1293 49.3243C12.1776 49.3333 12.2285 49.3436 12.2718 49.3668C12.6024 49.5469 12.8542 49.8042 13.0157 50.1504C13.1034 50.3408 13.12 50.5364 13.0691 50.7384C13.0653 50.7551 13.0589 50.7706 13.0551 50.786C12.9152 51.2621 12.6634 51.6713 12.3213 52.0226C12.1853 52.1615 12.0289 52.168 11.8801 52.0342C11.744 51.9119 11.6219 51.7742 11.4884 51.6481C11.3917 51.5581 11.29 51.4731 11.1857 51.3921C11.1692 51.3792 11.1171 51.3895 11.098 51.4075C11.0624 51.4397 11.0344 51.4834 11.0102 51.5259C10.92 51.6854 10.8386 51.8514 10.7394 52.0058C10.6504 52.1461 10.5499 52.2799 10.4393 52.4047C10.3019 52.5604 10.1544 52.5823 10.0005 52.4613C9.72584 52.2465 9.46006 52.0187 9.19428 51.7935C9.07729 51.6932 9.06711 51.5619 9.12561 51.4281C9.3596 50.8915 9.6292 50.3717 9.93822 49.875C9.96492 49.8325 9.99671 49.7914 10.0349 49.7618C10.087 49.7206 10.1493 49.6871 10.218 49.7167C10.293 49.7489 10.3719 49.7811 10.4393 49.8261C10.6338 49.9561 10.8042 50.1156 10.9568 50.2932C11.0217 50.3691 11.0853 50.445 11.1628 50.5351V50.5338Z" fill="#414244"/>
<path d="M130.748 63.4951C130.716 64.4499 130.697 65.2206 130.663 65.9914C130.617 66.9899 130.398 67.9485 129.977 68.8569C129.871 69.086 129.751 69.3047 129.592 69.5003C129.551 69.5518 129.501 69.6007 129.443 69.6303C129.405 69.6508 129.348 69.6444 129.303 69.6328C129.283 69.6277 129.261 69.5788 129.261 69.5492C129.261 69.4656 129.265 69.3819 129.279 69.3009C129.343 68.938 129.406 68.5751 129.476 68.2136C129.527 67.9485 129.546 67.6808 129.55 67.4132C129.556 66.9101 129.558 66.407 129.559 65.9039C129.559 65.5011 129.554 65.0984 129.559 64.6956C129.568 63.9854 129.689 63.2957 129.928 62.6266C130.103 62.1363 130.309 61.6615 130.542 61.197C130.579 61.1237 130.632 61.0568 130.686 60.9937C130.702 60.9731 130.744 60.9718 130.776 60.968C130.815 60.9628 130.87 61.0207 130.869 61.0658C130.863 61.233 130.864 61.4016 130.845 61.5676C130.766 62.2689 130.762 62.974 130.748 63.4951Z" fill="#414244"/>
<path d="M45.0773 60.7376C44.9578 62.1234 44.9209 63.5131 44.893 64.904C44.8777 65.6774 44.8014 66.4417 44.5967 67.1893C44.4771 67.6268 44.3093 68.0449 44.1185 68.4541C44.0257 68.6523 43.9074 68.8337 43.7675 69.001C43.7357 69.0383 43.6976 69.0782 43.6531 69.0949C43.6111 69.1104 43.5551 69.1078 43.5106 69.0949C43.489 69.0885 43.4661 69.0409 43.4674 69.0126C43.4699 68.9122 43.4763 68.8118 43.4928 68.714C43.5272 68.5159 43.5729 68.3203 43.6098 68.1234C43.6976 67.6448 43.765 67.1648 43.7662 66.6771C43.7675 66.174 43.7662 65.6722 43.7662 65.1691C43.7662 64.8178 43.7675 64.4653 43.7662 64.114C43.765 63.4539 43.8858 62.8144 44.0956 62.1916C44.2724 61.6679 44.4911 61.1609 44.7429 60.6694C44.7798 60.5961 44.8332 60.5304 44.8879 60.4687C44.9057 60.4481 44.9476 60.4468 44.9794 60.4442C45.0214 60.4404 45.0761 60.497 45.0761 60.5394C45.0761 60.6063 45.0761 60.6733 45.0761 60.7402L45.0773 60.7376Z" fill="#414244"/>
<path d="M100.96 58.9298C100.847 60.1985 100.8 61.4711 100.782 62.7449C100.774 63.3162 100.741 63.8837 100.669 64.4486C100.565 65.2541 100.312 66.0132 99.9517 66.7364C99.8703 66.8998 99.7533 67.0439 99.6465 67.1932C99.6185 67.233 99.5766 67.2704 99.5321 67.2871C99.4901 67.3025 99.4354 67.2974 99.3909 67.2832C99.3693 67.2768 99.3515 67.2305 99.3477 67.1996C99.3413 67.1507 99.3438 67.0992 99.3515 67.0503C99.3706 66.9345 99.3934 66.82 99.4163 66.7055C99.5677 65.9656 99.663 65.2193 99.6541 64.4614C99.6465 63.791 99.6465 63.1206 99.6478 62.4503C99.6478 62.0642 99.6643 61.6808 99.7368 61.2999C99.7927 61.0027 99.8691 60.7119 99.9632 60.4262C100.14 59.8845 100.366 59.3634 100.626 58.8564C100.663 58.7831 100.717 58.7187 100.772 58.6557C100.79 58.6364 100.832 58.6351 100.864 58.6325C100.904 58.63 100.959 58.6879 100.959 58.729C100.959 58.7959 100.959 58.8629 100.959 58.9298H100.96Z" fill="#414244"/>
<path d="M29.9214 70.3109C29.7816 70.3199 29.6887 70.2788 29.6658 70.2041C29.6328 70.0909 29.6925 70.0073 29.7574 69.9339C29.8337 69.8477 29.9202 69.7666 30.013 69.6972C30.1453 69.5968 30.2877 69.5093 30.4263 69.4166C30.7849 69.1747 31.1461 68.9354 31.5021 68.6896C31.6802 68.5661 31.8493 68.431 32.0197 68.2972C32.3376 68.0476 32.6009 67.7478 32.8031 67.3939C32.9442 67.1469 33.079 66.8972 33.2087 66.6437C33.4656 66.1355 33.6894 65.6131 33.9031 65.0842C33.9972 64.8513 34.0951 64.6197 34.1968 64.3907C34.2375 64.2993 34.2884 64.2131 34.3393 64.1269C34.3812 64.0574 34.4855 64.0124 34.5542 64.0278C34.6178 64.042 34.6915 64.1436 34.689 64.2208C34.6877 64.2877 34.6864 64.3546 34.6763 64.4203C34.6165 64.8011 34.5211 65.1756 34.4156 65.5462C34.1727 66.4005 33.8802 67.2395 33.5267 68.054C33.4071 68.3294 33.2685 68.5983 33.121 68.8608C32.8743 69.2983 32.5131 69.611 32.0426 69.7847C31.3864 70.0253 30.7112 70.1951 30.0219 70.3045C29.9888 70.3096 29.9558 70.3096 29.9227 70.3122L29.9214 70.3109Z" fill="#414244"/>
<path d="M130.435 70.3186C130.353 70.3071 130.32 70.3019 130.286 70.2968C130.219 70.2865 130.149 70.1591 130.186 70.0973C130.237 70.0124 130.283 69.9146 130.355 69.8528C130.52 69.7139 130.697 69.5878 130.875 69.4655C131.273 69.1927 131.681 68.9328 132.074 68.6536C132.905 68.063 133.159 67.7619 133.625 66.8586C133.923 66.2783 134.185 65.68 134.431 65.0739C134.544 64.7947 134.664 64.518 134.791 64.2453C134.824 64.1732 134.887 64.1102 134.946 64.0535C135.015 63.9879 135.171 64.0381 135.19 64.132C135.207 64.2118 135.221 64.2993 135.207 64.3778C135.154 64.6583 135.101 64.9388 135.03 65.2142C134.769 66.2037 134.435 67.1687 134.029 68.108C133.923 68.3538 133.798 68.5906 133.667 68.8247C133.403 69.2957 133.021 69.6264 132.511 69.8039C132.024 69.9738 131.53 70.114 131.025 70.2144C130.814 70.2569 130.602 70.289 130.437 70.3173L130.435 70.3186Z" fill="#414244"/>
<path d="M123.351 70.3122C123.31 70.3083 123.277 70.3045 123.244 70.3006C123.173 70.2929 123.108 70.1796 123.131 70.1076C123.161 70.0085 123.213 69.921 123.292 69.858C123.461 69.7229 123.634 69.5929 123.812 69.4707C124.196 69.2069 124.585 68.9508 124.971 68.6883C125.094 68.6047 125.212 68.5108 125.332 68.4207C125.767 68.099 126.111 67.6975 126.373 67.2202C126.704 66.618 126.991 65.9952 127.255 65.3608C127.37 65.0829 127.482 64.8024 127.601 64.5257C127.653 64.4022 127.714 64.2826 127.777 64.1655C127.8 64.123 127.838 64.0831 127.88 64.0587C127.921 64.0355 127.974 64.0265 128.022 64.0252C128.069 64.0252 128.147 64.1153 128.147 64.1655C128.147 64.2658 128.159 64.3688 128.137 64.464C128.057 64.8243 127.976 65.1833 127.878 65.5384C127.639 66.4121 127.334 67.2639 126.974 68.0926C126.854 68.3679 126.713 68.6356 126.562 68.8955C126.317 69.3137 125.964 69.6109 125.51 69.7782C124.854 70.0201 124.179 70.1887 123.489 70.2993C123.441 70.307 123.39 70.3057 123.348 70.3083L123.351 70.3122Z" fill="#414244"/>
<path d="M76.1102 64.2556C76.128 64.289 76.1611 64.3238 76.1535 64.3405C76.1153 64.4318 76.0708 64.5219 76.0212 64.6081C75.4464 65.6169 75.0179 66.6862 74.7279 67.8134C74.7076 67.8944 74.6898 67.9768 74.6771 68.0591C74.6605 68.1646 74.6872 68.2547 74.7673 68.3319C74.9352 68.494 75.1018 68.6588 75.2633 68.826C75.3917 68.9586 75.5087 69.1001 75.5927 69.2661C75.6397 69.3587 75.6664 69.454 75.6575 69.5569C75.6308 69.8824 75.5316 70.181 75.3243 70.4357C75.2061 70.5798 75.0649 70.6905 74.8793 70.742C74.5524 70.832 74.2294 70.7111 74.0641 70.419C74.0145 70.3328 73.9789 70.2376 73.9509 70.1411C73.8517 69.7962 73.8403 69.4475 73.9039 69.095C73.9725 68.7141 74.0743 68.3422 74.1976 67.9781C74.4723 67.1687 74.7813 66.3722 75.1412 65.5963C75.2747 65.3081 75.4286 65.0289 75.5863 64.7535C75.6855 64.5785 75.8076 64.4164 75.9742 64.2993C76.0123 64.2723 76.0657 64.2697 76.1102 64.2556Z" fill="#414244"/>
<path d="M58.1362 66.6823C58.1311 66.7299 58.1337 66.8162 58.112 66.8946C57.9594 67.4531 57.7076 67.9536 57.2626 68.3371C57.2371 68.3589 57.2104 68.3795 57.1824 68.395C57.0921 68.4452 56.998 68.4696 56.9014 68.4104C56.8734 68.3937 56.8404 68.3808 56.8162 68.3602C56.4995 68.0926 56.1778 67.8288 55.8701 67.5509C55.7238 67.4196 55.7327 67.336 55.795 67.1945C56.0659 66.5845 56.3393 65.9759 56.6992 65.4123C56.7437 65.3428 56.792 65.2747 56.8404 65.2065C56.8607 65.1769 56.9485 65.1588 56.9764 65.1794C57.3045 65.4059 57.6212 65.6478 57.8819 65.954C58.0497 66.1509 58.1298 66.3851 58.1362 66.681V66.6823Z" fill="#414244"/>
<path d="M30.205 55.4877C30.1847 55.5727 30.1618 55.7412 30.1046 55.8956C29.9659 56.2739 29.7815 56.6291 29.5437 56.9546C29.5145 56.9945 29.4776 57.0292 29.4445 57.0666C29.3759 57.1399 29.2538 57.1631 29.1711 57.1167C29.1139 57.0846 29.0541 57.0537 29.0033 57.0112C28.7349 56.7873 28.4692 56.5609 28.2034 56.3344C28.1907 56.3241 28.1792 56.3112 28.169 56.2984C28.1004 56.2186 28.0597 56.1298 28.0927 56.023C28.1169 55.9432 28.1385 55.8609 28.1741 55.7863C28.356 55.3925 28.5404 54.9988 28.7273 54.6076C28.7782 54.5034 28.8418 54.4043 28.9066 54.3065C28.9982 54.1663 29.1419 54.1161 29.297 54.1868C29.8006 54.4146 30.1122 54.8006 30.2063 55.3552C30.2088 55.3719 30.2063 55.3887 30.2063 55.4864L30.205 55.4877Z" fill="#414244"/>
<path d="M16.4251 56.2843C16.495 56.2958 16.5459 56.2984 16.5917 56.3138C16.6374 56.3306 16.6819 56.3563 16.7226 56.3846C17.0253 56.6008 17.2657 56.8761 17.4564 57.194C17.5543 57.3561 17.581 57.5298 17.5251 57.7241C17.3788 58.2311 17.1283 58.6789 16.8155 59.097C16.8053 59.1099 16.7926 59.1215 16.7811 59.1331C16.6921 59.2309 16.5764 59.254 16.467 59.1948C16.4238 59.1704 16.378 59.1485 16.3373 59.1189C16.1199 58.9658 15.8999 58.814 15.6862 58.6557C15.6074 58.5965 15.5349 58.5257 15.4688 58.4511C15.3975 58.3726 15.3759 58.271 15.3988 58.168C15.4243 58.0535 15.4573 57.9403 15.5018 57.8322C15.6862 57.3831 15.8999 56.9469 16.1504 56.5313C16.1847 56.4747 16.2229 56.4168 16.2712 56.373C16.3182 56.3306 16.3806 56.3061 16.4238 56.2817L16.4251 56.2843Z" fill="#414244"/>
<path d="M136.453 58.5386C136.432 58.6377 136.425 58.7226 136.399 58.8011C136.246 59.2656 136.018 59.6915 135.727 60.0814C135.689 60.1329 135.633 60.1779 135.577 60.2088C135.537 60.2307 135.483 60.2281 135.434 60.2268C135.402 60.2255 135.368 60.2114 135.343 60.1921C135.044 59.9823 134.744 59.7739 134.45 59.5564C134.3 59.4458 134.265 59.2836 134.314 59.1061C134.339 59.0096 134.369 58.913 134.405 58.8204C134.578 58.3842 134.792 57.9686 135.027 57.5633C135.06 57.5054 135.102 57.4526 135.143 57.3998C135.214 57.3059 135.35 57.2673 135.456 57.3098C135.502 57.3278 135.549 57.3484 135.589 57.3754C135.926 57.6032 136.187 57.903 136.377 58.2632C136.421 58.3482 136.431 58.4524 136.454 58.536L136.453 58.5386Z" fill="#414244"/>
<path d="M35.9314 58.5129C35.9161 58.6042 35.9111 58.6892 35.8869 58.7677C35.7343 59.2515 35.4978 59.6902 35.1951 60.0943C35.1658 60.1342 35.1251 60.1663 35.0857 60.1959C35.0298 60.2371 34.9624 60.2474 34.8975 60.2255C34.8505 60.2101 34.806 60.1869 34.7653 60.1586C34.5058 59.9785 34.2464 59.7983 33.9908 59.6143C33.9374 59.5757 33.8903 59.5255 33.8484 59.4754C33.7937 59.4085 33.7645 59.3261 33.7759 59.2425C33.7912 59.1267 33.8102 59.0083 33.8522 58.9015C34.0417 58.4177 34.2693 57.9532 34.5414 57.5118C34.689 57.2725 34.8594 57.2364 35.0819 57.3883C35.4164 57.6186 35.6745 57.921 35.8627 58.2826C35.8996 58.3546 35.9111 58.4395 35.9339 58.5155L35.9314 58.5129Z" fill="#414244"/>
<path d="M97.8903 52.9864C97.8801 53.0391 97.8674 53.1562 97.8318 53.2669C97.6932 53.6992 97.4846 54.0981 97.2163 54.4635C97.1871 54.5034 97.1502 54.5382 97.1108 54.569C97.0408 54.6231 96.9607 54.6372 96.878 54.6051C96.8323 54.5871 96.7865 54.5639 96.7496 54.533C96.4558 54.2885 96.1621 54.0441 95.8721 53.7957C95.7742 53.7121 95.7539 53.5976 95.7895 53.4753C95.8035 53.4277 95.82 53.3801 95.8416 53.3351C96.0375 52.9117 96.2333 52.4871 96.4342 52.0651C96.4838 51.9608 96.5525 51.8643 96.6174 51.7678C96.6911 51.6597 96.7979 51.625 96.9226 51.6559C96.9861 51.6713 97.0497 51.6945 97.1069 51.7254C97.4401 51.9081 97.6716 52.1822 97.8204 52.5321C97.8738 52.6582 97.8929 52.7882 97.8903 52.9876V52.9864Z" fill="#414244"/>
<path d="M108.177 78.2964C108.153 78.4173 108.143 78.537 108.103 78.6451C107.951 79.0723 107.739 79.4699 107.469 79.834C107.439 79.8739 107.402 79.9086 107.364 79.9408C107.297 79.9974 107.218 80.0154 107.133 79.9884C107.101 79.9781 107.068 79.9691 107.041 79.9498C106.755 79.7491 106.469 79.5509 106.188 79.3451C106.039 79.2357 105.996 79.0787 106.033 78.8986C106.047 78.8329 106.065 78.7686 106.088 78.7068C106.278 78.205 106.514 77.7264 106.796 77.2721C106.947 77.0289 107.101 76.9993 107.335 77.1615C107.654 77.3841 107.902 77.6736 108.09 78.0146C108.138 78.0995 108.149 78.2037 108.176 78.2977L108.177 78.2964Z" fill="#414244"/>
<path d="M12.0772 48.1636C12.0581 48.2589 12.0428 48.3927 12.0034 48.5188C11.8699 48.9344 11.674 49.3191 11.4172 49.6717C11.3879 49.7103 11.3485 49.745 11.3078 49.7708C11.2506 49.8081 11.1844 49.8248 11.1209 49.7888C11.0496 49.7489 10.9759 49.709 10.9136 49.655C10.6732 49.4504 10.438 49.2406 10.2014 49.0322C10.0908 48.9344 10.0577 48.8121 10.0984 48.6706C10.1124 48.623 10.1264 48.5741 10.1467 48.5291C10.3311 48.1186 10.5155 47.7081 10.7063 47.3015C10.7559 47.1973 10.8258 47.1021 10.892 47.0069C10.9441 46.9322 11.0229 46.9116 11.1107 46.9194C11.1437 46.9219 11.1794 46.9232 11.2073 46.9361C11.6931 47.1626 11.9856 47.5396 12.0721 48.0748C12.0746 48.0916 12.0746 48.1083 12.0772 48.1623V48.1636Z" fill="#414244"/>
<path d="M17.2275 76.0768C17.2097 76.1707 17.2008 76.2904 17.1639 76.3997C17.0215 76.8166 16.8116 77.1949 16.509 77.5166C16.4759 77.5514 16.4301 77.5784 16.3856 77.599C16.3589 77.6118 16.322 77.6118 16.2915 77.6054C16.2597 77.599 16.2241 77.5861 16.2025 77.5642C15.9164 77.285 15.6302 77.0058 15.3492 76.7201C15.2729 76.6429 15.2665 76.5361 15.311 76.437C15.5425 75.9339 15.8045 75.4488 16.1135 74.9908C16.1415 74.9496 16.1771 74.9123 16.2152 74.8814C16.2686 74.8364 16.3386 74.8158 16.4009 74.8415C16.4924 74.8788 16.584 74.9226 16.6616 74.983C16.8472 75.1284 16.9884 75.315 17.1041 75.5209C17.197 75.6869 17.2262 75.8657 17.2275 76.0755V76.0768Z" fill="#414244"/>
<path d="M69.7124 66.8612C69.6971 66.9409 69.6946 67.0284 69.6653 67.1031C69.4339 67.6782 69.1744 68.2405 68.8489 68.7681C68.6887 69.0293 68.4725 69.2416 68.2169 69.3999C67.5925 69.7885 66.9261 70.0831 66.2114 70.2581C66.1504 70.2736 66.0817 70.2607 66.0181 70.2517C65.9647 70.244 65.9164 70.132 65.9444 70.0883C65.98 70.033 66.0118 69.9699 66.0601 69.9287C66.1733 69.8322 66.2941 69.7409 66.4162 69.6559C66.6756 69.4745 66.9337 69.2918 67.1982 69.1194C67.9384 68.642 68.531 68.0192 69.0167 67.2858C69.0994 67.161 69.1808 67.0336 69.2723 66.9139C69.3219 66.8483 69.3893 66.7968 69.4504 66.7402C69.4924 66.7029 69.6068 66.6913 69.6361 66.7261C69.6666 66.7634 69.6857 66.8097 69.7136 66.8599L69.7124 66.8612Z" fill="#414244"/>
<path d="M54.559 46.8692C54.5297 46.8641 54.4814 46.8538 54.4331 46.8448C54.3937 46.8383 54.372 46.8152 54.3746 46.7753C54.3771 46.7444 54.3746 46.7045 54.3924 46.6839C54.4344 46.6337 54.4827 46.5861 54.5361 46.5475C54.7256 46.4111 54.9163 46.2799 55.1084 46.1474C55.2864 46.0238 55.4657 45.9054 55.6412 45.7793C55.8752 45.6108 56.0507 45.3959 56.16 45.1218C56.2592 44.8735 56.3864 44.638 56.4945 44.3935C56.6433 44.0577 56.8887 43.8197 57.2066 43.6524C57.2651 43.6215 57.3224 43.5868 57.3834 43.5597C57.6657 43.4349 57.8921 43.2496 58.0256 42.9614C58.0447 42.9202 58.093 42.8906 58.1311 42.8598C58.1413 42.8507 58.1642 42.852 58.1795 42.8572C58.1909 42.861 58.2049 42.8752 58.2087 42.8868C58.2176 42.9177 58.2316 42.9537 58.2252 42.9833C58.1604 43.314 58.0421 43.6254 57.887 43.9226C57.7763 44.1362 57.6199 44.3022 57.3961 44.4013C57.26 44.4617 57.1316 44.5389 56.9993 44.6084C56.8328 44.6972 56.7069 44.8272 56.6242 44.997C56.5581 45.1321 56.4958 45.2685 56.4373 45.4062C56.3521 45.6056 56.2758 45.8102 56.1893 46.0084C56.0087 46.4176 55.7086 46.6749 55.2648 46.7663C55.0371 46.8126 54.8108 46.8589 54.559 46.8692Z" fill="#414244"/>
<path d="M57.2295 48.6308C57.3338 48.4738 57.405 48.3631 57.48 48.2538C57.5271 48.1856 57.5792 48.1199 57.6313 48.0556C57.6619 48.0183 57.7712 48.0016 57.8183 48.0247C58.0561 48.1367 58.2163 48.3207 58.2939 48.5741C58.3079 48.6205 58.313 48.6758 58.3028 48.7221C58.2354 49.0271 58.079 49.278 57.8437 49.4787C57.7941 49.5212 57.7064 49.5328 57.658 49.4942C57.5538 49.4118 57.452 49.3269 57.3503 49.242C57.2409 49.1506 57.1774 49.1545 57.1061 49.2613C57.0502 49.3449 57.0006 49.4324 56.9421 49.5135C56.9039 49.5675 56.8569 49.6164 56.8111 49.664C56.7348 49.7451 56.6216 49.7631 56.5415 49.7013C56.4105 49.5997 56.2808 49.4942 56.1549 49.3861C56.0646 49.3076 56.0456 49.2201 56.0888 49.1172C56.2032 48.8379 56.3482 48.5742 56.5148 48.322C56.5873 48.2139 56.7221 48.1868 56.8187 48.2615C56.8836 48.3129 56.9446 48.3696 57.0069 48.4249C57.068 48.4789 57.1278 48.5355 57.2282 48.6295L57.2295 48.6308Z" fill="#414244"/>
<path d="M59.3151 42.3245C59.2451 42.9511 59.2477 43.673 59.2311 44.3948C59.2184 44.9546 59.1154 45.495 58.8929 46.0097C58.8268 46.1628 58.7568 46.3159 58.6411 46.4408C58.6042 46.4806 58.5292 46.5064 58.5114 46.4768C58.4948 46.4498 58.472 46.4176 58.4745 46.3906C58.491 46.2413 58.5063 46.0895 58.5394 45.9428C58.6017 45.6623 58.6157 45.3779 58.6157 45.0923C58.6157 44.723 58.6207 44.3537 58.6131 43.9844C58.5991 43.2741 58.8217 42.632 59.1472 42.0183C59.1727 41.9694 59.2375 41.9423 59.2693 41.9591C59.3227 41.9861 59.3189 42.035 59.3227 42.0826C59.324 42.0993 59.3227 42.116 59.3227 42.1328C59.3227 42.1662 59.3202 42.1997 59.3138 42.3258L59.3151 42.3245Z" fill="#414244"/>
<path d="M54.3352 43.3114C54.3352 43.5688 54.3327 43.8699 54.3352 44.171C54.339 44.5081 54.292 44.8401 54.2398 45.1695C54.1788 45.5516 54.0478 45.9132 53.8634 46.2542C53.8164 46.343 53.7642 46.4305 53.6701 46.4755C53.646 46.4871 53.6091 46.4768 53.5811 46.4703C53.5709 46.4678 53.562 46.4408 53.5633 46.4253C53.5671 46.3597 53.5671 46.2915 53.5798 46.2272C53.679 45.7498 53.7299 45.2685 53.7184 44.7809C53.7121 44.4798 53.7184 44.1774 53.7146 43.8763C53.707 43.4337 53.8036 43.0116 53.9677 42.605C54.0542 42.3888 54.1305 42.1649 54.2729 41.9771C54.2882 41.9565 54.3301 41.9526 54.3606 41.9488C54.3975 41.9436 54.4166 41.9694 54.4166 42.0118C54.4166 42.062 54.4191 42.1122 54.4166 42.1624C54.3912 42.5291 54.3657 42.8971 54.3365 43.3101L54.3352 43.3114Z" fill="#414244"/>
<path d="M74.0526 43.5314C74.059 44.0178 74.0501 44.5016 73.9865 44.9854C73.9292 45.4216 73.7983 45.8334 73.5973 46.2207C73.5528 46.3069 73.4829 46.3828 73.418 46.4562C73.4015 46.4755 73.3544 46.4832 73.3277 46.4755C73.3061 46.469 73.2794 46.4317 73.2794 46.4073C73.2794 46.3416 73.2858 46.2734 73.2985 46.2091C73.4002 45.733 73.446 45.2505 73.4371 44.7641C73.432 44.4797 73.4371 44.1954 73.432 43.911C73.4244 43.4169 73.5299 42.9485 73.7283 42.4995C73.7894 42.3618 73.8491 42.2241 73.914 42.089C73.9699 41.9732 74.0488 41.9153 74.0895 41.95C74.148 42.0002 74.1353 42.0658 74.1314 42.1302C74.1047 42.5972 74.078 43.0656 74.0513 43.5327L74.0526 43.5314Z" fill="#414244"/>
<path d="M80.5369 46.8602C80.4797 46.8499 80.4479 46.8435 80.4148 46.8384C80.3818 46.8332 80.3385 46.7483 80.3563 46.7187C80.3818 46.6762 80.4021 46.6261 80.4377 46.5965C80.5407 46.5128 80.6501 46.4382 80.7594 46.3623C81.0036 46.1911 81.2516 46.0226 81.4945 45.8489C81.7285 45.6816 81.9141 45.468 82.0426 45.2094C82.2054 44.8812 82.3618 44.548 82.5156 44.2147C82.5996 44.0333 82.6721 43.8454 82.756 43.664C82.7751 43.6215 82.8196 43.5907 82.8539 43.5546C82.8832 43.525 82.962 43.5546 82.9734 43.5997C82.9811 43.6318 83.0014 43.6653 82.9963 43.6949C82.9734 43.8429 82.9531 43.9934 82.9137 44.1388C82.7662 44.6882 82.5869 45.2274 82.3516 45.7446C82.2829 45.8965 82.2015 46.0432 82.1125 46.1834C82.0133 46.3404 81.876 46.4639 81.7043 46.5398C81.3228 46.7084 80.9248 46.8139 80.5356 46.8602H80.5369Z" fill="#414244"/>
<path d="M50.3993 44.1362C50.6524 44.2495 50.8482 44.4167 50.9919 44.6458C51.0759 44.7796 51.086 44.9314 51.0479 45.0794C50.9754 45.3573 50.8457 45.6044 50.6308 45.8C50.5583 45.8669 50.4311 45.8862 50.3574 45.8309C50.2264 45.7318 50.0954 45.6301 49.972 45.522C49.7762 45.3496 49.7648 45.3007 49.883 45.0498C50.0038 44.795 50.1361 44.548 50.2696 44.2996C50.3001 44.243 50.351 44.198 50.4006 44.1375L50.3993 44.1362Z" fill="#414244"/>
<path d="M89.4655 46.913C89.4337 46.9078 89.3955 46.913 89.3714 46.8975C89.2086 46.7869 89.0458 46.6749 88.8894 46.5553C88.8194 46.5025 88.794 46.415 88.8169 46.3301C88.9046 46.0071 89.0611 45.715 89.2442 45.4384C89.2862 45.374 89.3993 45.3509 89.4655 45.3856C89.6791 45.495 89.8241 45.67 89.9258 45.8849C89.9627 45.9621 89.9614 46.0457 89.9411 46.1281C89.8699 46.406 89.7427 46.6543 89.5481 46.8641C89.5265 46.8872 89.4922 46.8962 89.4629 46.913H89.4655Z" fill="#414244"/>
<path d="M20.9459 45.5027C20.9688 45.4937 20.9904 45.4847 21.0133 45.4757C21.0056 45.4989 20.9967 45.522 20.9891 45.5452C20.9751 45.531 20.9611 45.5169 20.9471 45.5027H20.9459Z" fill="#414244"/>
</g>
<defs>
<clipPath id="clip0_137_2832">
<rect width="139" height="80" fill="white"/>
</clipPath>
</defs>
</svg>
