<svg width="220" height="159" viewBox="0 0 220 159" fill="none" xmlns="http://www.w3.org/2000/svg">
<path d="M133.083 12.4167H157.917" stroke="#0066FF" stroke-width="8" stroke-linecap="round" stroke-linejoin="round"/>
<path d="M145.5 86.9167L164.125 68.2917" stroke="#0066FF" stroke-width="8" stroke-linecap="round" stroke-linejoin="round"/>
<path d="M145.5 136.583C172.93 136.583 195.167 114.347 195.167 86.9167C195.167 59.4865 172.93 37.25 145.5 37.25C118.07 37.25 95.8333 59.4865 95.8333 86.9167C95.8333 114.347 118.07 136.583 145.5 136.583Z" stroke="#0066FF" stroke-width="8" stroke-linecap="round" stroke-linejoin="round"/>
<path d="M18 78.6667H46" stroke="#0066FF" stroke-width="8" stroke-linecap="round" stroke-linejoin="round"/>
<path d="M13.3335 95H36.6668" stroke="#0066FF" stroke-width="8" stroke-linecap="round" stroke-linejoin="round"/>
<path d="M32 111.333H50.6667" stroke="#0066FF" stroke-width="8" stroke-linecap="round" stroke-linejoin="round"/>
<mask id="path-7-outside-1_355_2429" maskUnits="userSpaceOnUse" x="44" y="44" width="93" height="84" fill="black">
<rect fill="white" x="44" y="44" width="93" height="84"/>
<path d="M72.442 120H59.386V63.936L51.034 60.864V51.552H62.362C66.586 51.552 69.306 52.32 70.522 53.856C71.802 55.392 72.442 58.432 72.442 62.976V120ZM91.275 52.8H127.467V63.456H103.563V74.208C113.419 74.208 120.171 76.224 123.819 80.256C127.531 84.288 129.387 90.176 129.387 97.92C129.387 113.024 122.091 120.576 107.499 120.576C100.779 120.576 95.723 118.816 92.331 115.296C89.003 111.776 87.339 107.072 87.339 101.184H99.531C99.531 102.272 99.659 103.36 99.915 104.448C100.235 105.472 101.003 106.528 102.219 107.616C103.435 108.64 105.067 109.152 107.115 109.152C110.507 109.152 112.971 108.224 114.507 106.368C116.107 104.448 116.907 102.208 116.907 99.648C116.907 97.088 116.715 95.072 116.331 93.6C116.011 92.128 115.275 90.624 114.123 89.088C111.819 85.888 106.667 84.288 98.667 84.288H91.275V52.8Z"/>
</mask>
<path d="M72.442 120H59.386V63.936L51.034 60.864V51.552H62.362C66.586 51.552 69.306 52.32 70.522 53.856C71.802 55.392 72.442 58.432 72.442 62.976V120ZM91.275 52.8H127.467V63.456H103.563V74.208C113.419 74.208 120.171 76.224 123.819 80.256C127.531 84.288 129.387 90.176 129.387 97.92C129.387 113.024 122.091 120.576 107.499 120.576C100.779 120.576 95.723 118.816 92.331 115.296C89.003 111.776 87.339 107.072 87.339 101.184H99.531C99.531 102.272 99.659 103.36 99.915 104.448C100.235 105.472 101.003 106.528 102.219 107.616C103.435 108.64 105.067 109.152 107.115 109.152C110.507 109.152 112.971 108.224 114.507 106.368C116.107 104.448 116.907 102.208 116.907 99.648C116.907 97.088 116.715 95.072 116.331 93.6C116.011 92.128 115.275 90.624 114.123 89.088C111.819 85.888 106.667 84.288 98.667 84.288H91.275V52.8Z" fill="#0066FF"/>
<path d="M72.442 120V127H79.442V120H72.442ZM59.386 120H52.386V127H59.386V120ZM59.386 63.936H66.386V59.0522L61.8025 57.3663L59.386 63.936ZM51.034 60.864H44.034V65.7478L48.6176 67.4337L51.034 60.864ZM51.034 51.552V44.552H44.034V51.552H51.034ZM70.522 53.856L65.0337 58.2009L65.0882 58.2698L65.1445 58.3373L70.522 53.856ZM72.442 120V113H59.386V120V127H72.442V120ZM59.386 120H66.386V63.936H59.386H52.386V120H59.386ZM59.386 63.936L61.8025 57.3663L53.4505 54.2943L51.034 60.864L48.6176 67.4337L56.9696 70.5057L59.386 63.936ZM51.034 60.864H58.034V51.552H51.034H44.034V60.864H51.034ZM51.034 51.552V58.552H62.362V51.552V44.552H51.034V51.552ZM62.362 51.552V58.552C64.1151 58.552 65.151 58.7187 65.6679 58.8646C66.2135 59.0187 65.664 58.9971 65.0337 58.2009L70.522 53.856L76.0103 49.5111C74.164 47.1789 71.6466 46.0053 69.4721 45.3914C67.269 44.7693 64.833 44.552 62.362 44.552V51.552ZM70.522 53.856L65.1445 58.3373C64.7576 57.873 64.9094 57.7667 65.1122 58.7301C65.2981 59.6131 65.442 60.9878 65.442 62.976H72.442H79.442C79.442 60.4202 79.266 58.0028 78.8119 55.8459C78.3747 53.7693 77.5665 51.375 75.8996 49.3747L70.522 53.856ZM72.442 62.976H65.442V120H72.442H79.442V62.976H72.442ZM91.275 52.8V45.8H84.275V52.8H91.275ZM127.467 52.8H134.467V45.8H127.467V52.8ZM127.467 63.456V70.456H134.467V63.456H127.467ZM103.563 63.456V56.456H96.563V63.456H103.563ZM103.563 74.208H96.563V81.208H103.563V74.208ZM123.819 80.256L118.628 84.9524L118.649 84.9749L118.669 84.9972L123.819 80.256ZM92.331 115.296L87.2444 120.105L87.2673 120.129L87.2904 120.153L92.331 115.296ZM87.339 101.184V94.184H80.339V101.184H87.339ZM99.531 101.184H106.531V94.184H99.531V101.184ZM99.915 104.448L93.1011 106.051L93.1586 106.296L93.2336 106.536L99.915 104.448ZM102.219 107.616L97.5514 112.833L97.6297 112.903L97.71 112.97L102.219 107.616ZM114.507 106.368L109.129 101.887L109.122 101.896L109.114 101.905L114.507 106.368ZM116.331 93.6L109.491 95.087L109.521 95.2277L109.558 95.3669L116.331 93.6ZM114.123 89.088L108.442 93.1781L108.482 93.2335L108.523 93.288L114.123 89.088ZM91.275 84.288H84.275V91.288H91.275V84.288ZM91.275 52.8V59.8H127.467V52.8V45.8H91.275V52.8ZM127.467 52.8H120.467V63.456H127.467H134.467V52.8H127.467ZM127.467 63.456V56.456H103.563V63.456V70.456H127.467V63.456ZM103.563 63.456H96.563V74.208H103.563H110.563V63.456H103.563ZM103.563 74.208V81.208C112.926 81.208 117.053 83.2116 118.628 84.9524L123.819 80.256L129.01 75.5596C123.289 69.2364 113.911 67.208 103.563 67.208V74.208ZM123.819 80.256L118.669 84.9972C120.778 87.2877 122.387 91.2078 122.387 97.92H129.387H136.387C136.387 89.1442 134.284 81.2883 128.969 75.5148L123.819 80.256ZM129.387 97.92H122.387C122.387 104.452 120.806 108.055 118.881 110.048C116.998 111.997 113.653 113.576 107.499 113.576V120.576V127.576C115.937 127.576 123.536 125.379 128.949 119.776C134.32 114.217 136.387 106.492 136.387 97.92H129.387ZM107.499 120.576V113.576C101.948 113.576 99.0102 112.139 97.3715 110.439L92.331 115.296L87.2904 120.153C92.4357 125.493 99.6097 127.576 107.499 127.576V120.576ZM92.331 115.296L97.4175 110.487C95.5722 108.535 94.339 105.691 94.339 101.184H87.339H80.339C80.339 108.453 82.4338 115.017 87.2444 120.105L92.331 115.296ZM87.339 101.184V108.184H99.531V101.184V94.184H87.339V101.184ZM99.531 101.184H92.531C92.531 102.826 92.7248 104.452 93.1011 106.051L99.915 104.448L106.729 102.845C106.593 102.268 106.531 101.718 106.531 101.184H99.531ZM99.915 104.448L93.2336 106.536C94.0776 109.237 95.8469 111.308 97.5514 112.833L102.219 107.616L106.887 102.399C106.728 102.257 106.611 102.141 106.529 102.052C106.446 101.962 106.405 101.908 106.392 101.891C106.362 101.85 106.486 102.006 106.596 102.36L99.915 104.448ZM102.219 107.616L97.71 112.97C100.515 115.333 103.902 116.152 107.115 116.152V109.152V102.152C106.666 102.152 106.47 102.095 106.45 102.089C106.443 102.087 106.474 102.096 106.532 102.127C106.59 102.158 106.659 102.203 106.728 102.262L102.219 107.616ZM107.115 109.152V116.152C111.704 116.152 116.556 114.872 119.9 110.831L114.507 106.368L109.114 101.905C109.194 101.809 109.24 101.83 109.04 101.905C108.787 102 108.199 102.152 107.115 102.152V109.152ZM114.507 106.368L119.885 110.849C122.56 107.638 123.907 103.802 123.907 99.648H116.907H109.907C109.907 100.614 109.654 101.258 109.129 101.887L114.507 106.368ZM116.907 99.648H123.907C123.907 96.8379 123.706 94.1413 123.104 91.8331L116.331 93.6L109.558 95.3669C109.723 96.0027 109.907 97.3381 109.907 99.648H116.907ZM116.331 93.6L123.171 92.113C122.587 89.4272 121.319 87.0155 119.723 84.888L114.123 89.088L108.523 93.288C109.231 94.2325 109.435 94.8288 109.491 95.087L116.331 93.6ZM114.123 89.088L119.804 84.9979C117.488 81.782 114.108 79.8903 110.607 78.803C107.119 77.7196 103.065 77.288 98.667 77.288V84.288V91.288C102.269 91.288 104.791 91.6564 106.455 92.173C107.264 92.4243 107.772 92.681 108.072 92.8738C108.358 93.0578 108.439 93.173 108.442 93.1781L114.123 89.088ZM98.667 84.288V77.288H91.275V84.288V91.288H98.667V84.288ZM91.275 84.288H98.275V52.8H91.275H84.275V84.288H91.275Z" fill="white" mask="url(#path-7-outside-1_355_2429)"/>
<rect x="88" y="89" width="17" height="10" fill="white"/>
</svg>
