<svg width="144" height="144" viewBox="0 0 144 144" fill="none" xmlns="http://www.w3.org/2000/svg">
<path d="M132 78V36C132 32.8174 130.736 29.7652 128.485 27.5147C126.235 25.2643 123.183 24 120 24H24C20.8174 24 17.7652 25.2643 15.5147 27.5147C13.2643 29.7652 12 32.8174 12 36V108C12 114.6 17.4 120 24 120H72" stroke="#E56D85" stroke-width="10" stroke-linecap="round" stroke-linejoin="round"/>
<path d="M132 42L78.18 76.2C76.3276 77.3606 74.1859 77.9761 72 77.9761C69.8141 77.9761 67.6724 77.3606 65.82 76.2L12 42" stroke="#E56D85" stroke-width="10" stroke-linecap="round" stroke-linejoin="round"/>
<path d="M96 114L108 126L132 102" stroke="#E56D85" stroke-width="10" stroke-linecap="round" stroke-linejoin="round"/>
</svg>
