<svg width="18" height="18" viewBox="0 0 18 18" fill="none" xmlns="http://www.w3.org/2000/svg">
<path d="M1.5 15.7497C1.49989 14.7793 1.73514 13.8234 2.18556 12.9639C2.63598 12.1045 3.28814 11.367 4.08612 10.8149C4.88409 10.2628 5.80407 9.91247 6.76716 9.79395C7.73025 9.67543 8.70772 9.79226 9.61575 10.1344" stroke="#0088FF" stroke-width="2" stroke-linecap="round" stroke-linejoin="round"/>
<path d="M16.0337 12.4696C16.3325 12.1708 16.5003 11.7656 16.5003 11.3431C16.5003 10.9206 16.3325 10.5154 16.0337 10.2166C15.735 9.91785 15.3297 9.75 14.9072 9.75C14.4847 9.75 14.0795 9.91785 13.7807 10.2166L10.7732 13.2256C10.5949 13.4038 10.4644 13.6241 10.3937 13.8661L9.76598 16.0186C9.74715 16.0831 9.74603 16.1516 9.76271 16.2167C9.77939 16.2818 9.81328 16.3412 9.86081 16.3888C9.90835 16.4363 9.96779 16.4702 10.0329 16.4869C10.098 16.5036 10.1664 16.5024 10.231 16.4836L12.3835 15.8559C12.6255 15.7852 12.8458 15.6547 13.024 15.4764L16.0337 12.4696Z" stroke="#0088FF" stroke-width="2" stroke-linecap="round" stroke-linejoin="round"/>
<path d="M7.5 9.75C9.57107 9.75 11.25 8.07107 11.25 6C11.25 3.92893 9.57107 2.25 7.5 2.25C5.42893 2.25 3.75 3.92893 3.75 6C3.75 8.07107 5.42893 9.75 7.5 9.75Z" stroke="#0088FF" stroke-width="2" stroke-linecap="round" stroke-linejoin="round"/>
</svg>
