<svg width="17" height="17" viewBox="0 0 17 17" fill="none" xmlns="http://www.w3.org/2000/svg">
<path d="M9.91602 12.0415H3.54102" stroke="#171719" stroke-width="1.3" stroke-linecap="round" stroke-linejoin="round"/>
<path d="M13.459 4.9585H7.08398" stroke="#171719" stroke-width="1.3" stroke-linecap="round" stroke-linejoin="round"/>
<path d="M12.041 14.1665C13.2146 14.1665 14.166 13.2151 14.166 12.0415C14.166 10.8679 13.2146 9.9165 12.041 9.9165C10.8674 9.9165 9.91602 10.8679 9.91602 12.0415C9.91602 13.2151 10.8674 14.1665 12.041 14.1665Z" stroke="#171719" stroke-width="1.3" stroke-linecap="round" stroke-linejoin="round"/>
<path d="M4.95898 7.0835C6.13259 7.0835 7.08398 6.1321 7.08398 4.9585C7.08398 3.78489 6.13259 2.8335 4.95898 2.8335C3.78538 2.8335 2.83398 3.78489 2.83398 4.9585C2.83398 6.1321 3.78538 7.0835 4.95898 7.0835Z" stroke="#171719" stroke-width="1.3" stroke-linecap="round" stroke-linejoin="round"/>
</svg>
