<svg width="22" height="22" viewBox="0 0 22 22" fill="none" xmlns="http://www.w3.org/2000/svg">
<path d="M1.89018 11.3191C1.81379 11.1133 1.81379 10.8869 1.89018 10.6811C2.63424 8.87695 3.89724 7.33437 5.51906 6.24891C7.14087 5.16345 9.04847 4.58398 11 4.58398C12.9516 4.58398 14.8592 5.16345 16.481 6.24891C18.1028 7.33437 19.3658 8.87695 20.1098 10.6811C20.1862 10.8869 20.1862 11.1133 20.1098 11.3191C19.3658 13.1232 18.1028 14.6658 16.481 15.7513C14.8592 16.8367 12.9516 17.4162 11 17.4162C9.04847 17.4162 7.14087 16.8367 5.51906 15.7513C3.89724 14.6658 2.63424 13.1232 1.89018 11.3191Z" stroke="black" stroke-width="2" stroke-linecap="round" stroke-linejoin="round"/>
<path d="M11 13.75C12.5188 13.75 13.75 12.5188 13.75 11C13.75 9.48122 12.5188 8.25 11 8.25C9.48122 8.25 8.25 9.48122 8.25 11C8.25 12.5188 9.48122 13.75 11 13.75Z" stroke="black" stroke-width="2" stroke-linecap="round" stroke-linejoin="round"/>
</svg>
